G04 #@! TF.FileFunction,Copper,L2,Bot,Signal*
%FSLAX46Y46*%
G04 Gerber Fmt 4.6, Leading zero omitted, Abs format (unit mm)*
G04 Created by KiCad (PCBNEW 4.0.6) date 05/15/17 23:53:28*
%MOMM*%
%LPD*%
G01*
G04 APERTURE LIST*
%ADD10C,0.100000*%
%ADD11C,1.600000*%
%ADD12R,1.600000X1.600000*%
%ADD13O,1.600000X1.600000*%
%ADD14R,1.700000X1.700000*%
%ADD15O,1.700000X1.700000*%
%ADD16C,1.440000*%
%ADD17C,0.600000*%
%ADD18C,0.250000*%
%ADD19C,0.254000*%
G04 APERTURE END LIST*
D10*
D11*
X205740000Y-118110000D03*
X205740000Y-123110000D03*
D12*
X184150000Y-124460000D03*
D13*
X201930000Y-116840000D03*
X186690000Y-124460000D03*
X199390000Y-116840000D03*
X189230000Y-124460000D03*
X196850000Y-116840000D03*
X191770000Y-124460000D03*
X194310000Y-116840000D03*
X194310000Y-124460000D03*
X191770000Y-116840000D03*
X196850000Y-124460000D03*
X189230000Y-116840000D03*
X199390000Y-124460000D03*
X186690000Y-116840000D03*
X201930000Y-124460000D03*
X184150000Y-116840000D03*
D11*
X161290000Y-113030000D03*
X161290000Y-108030000D03*
X121920000Y-92710000D03*
X121920000Y-97710000D03*
D14*
X214630000Y-133350000D03*
D15*
X212090000Y-133350000D03*
X209550000Y-133350000D03*
X207010000Y-133350000D03*
X204470000Y-133350000D03*
X201930000Y-133350000D03*
X199390000Y-133350000D03*
X196850000Y-133350000D03*
X194310000Y-133350000D03*
X191770000Y-133350000D03*
X189230000Y-133350000D03*
X186690000Y-133350000D03*
X184150000Y-133350000D03*
X181610000Y-133350000D03*
X179070000Y-133350000D03*
X176530000Y-133350000D03*
X173990000Y-133350000D03*
X171450000Y-133350000D03*
X168910000Y-133350000D03*
X166370000Y-133350000D03*
X163830000Y-133350000D03*
X161290000Y-133350000D03*
X158750000Y-133350000D03*
X156210000Y-133350000D03*
X153670000Y-133350000D03*
X151130000Y-133350000D03*
X148590000Y-133350000D03*
X146050000Y-133350000D03*
X143510000Y-133350000D03*
X140970000Y-133350000D03*
X138430000Y-133350000D03*
X135890000Y-133350000D03*
X133350000Y-133350000D03*
X130810000Y-133350000D03*
X128270000Y-133350000D03*
X125730000Y-133350000D03*
X123190000Y-133350000D03*
X120650000Y-133350000D03*
X118110000Y-133350000D03*
D14*
X166370000Y-86360000D03*
D15*
X168910000Y-86360000D03*
D12*
X151130000Y-106680000D03*
D13*
X128270000Y-114300000D03*
X148590000Y-106680000D03*
X130810000Y-114300000D03*
X146050000Y-106680000D03*
X133350000Y-114300000D03*
X143510000Y-106680000D03*
X135890000Y-114300000D03*
X140970000Y-106680000D03*
X138430000Y-114300000D03*
X138430000Y-106680000D03*
X140970000Y-114300000D03*
X135890000Y-106680000D03*
X143510000Y-114300000D03*
X133350000Y-106680000D03*
X146050000Y-114300000D03*
X130810000Y-106680000D03*
X148590000Y-114300000D03*
X128270000Y-106680000D03*
X151130000Y-114300000D03*
D12*
X130810000Y-100330000D03*
D13*
X148590000Y-92710000D03*
X133350000Y-100330000D03*
X146050000Y-92710000D03*
X135890000Y-100330000D03*
X143510000Y-92710000D03*
X138430000Y-100330000D03*
X140970000Y-92710000D03*
X140970000Y-100330000D03*
X138430000Y-92710000D03*
X143510000Y-100330000D03*
X135890000Y-92710000D03*
X146050000Y-100330000D03*
X133350000Y-92710000D03*
X148590000Y-100330000D03*
X130810000Y-92710000D03*
D11*
X186690000Y-110490000D03*
X186690000Y-105490000D03*
D12*
X194310000Y-107950000D03*
D11*
X192310000Y-107950000D03*
X186690000Y-95250000D03*
X186690000Y-100250000D03*
D14*
X173990000Y-86360000D03*
D15*
X176530000Y-86360000D03*
D16*
X161290000Y-95250000D03*
X161290000Y-97790000D03*
X161290000Y-100330000D03*
D14*
X170180000Y-92710000D03*
D15*
X170180000Y-95250000D03*
X170180000Y-97790000D03*
X170180000Y-100330000D03*
X170180000Y-102870000D03*
X170180000Y-105410000D03*
X170180000Y-107950000D03*
X170180000Y-110490000D03*
X170180000Y-113030000D03*
D14*
X189230000Y-90170000D03*
D15*
X189230000Y-87630000D03*
X191770000Y-90170000D03*
X191770000Y-87630000D03*
X194310000Y-90170000D03*
X194310000Y-87630000D03*
X196850000Y-90170000D03*
X196850000Y-87630000D03*
X199390000Y-90170000D03*
X199390000Y-87630000D03*
X201930000Y-90170000D03*
X201930000Y-87630000D03*
X204470000Y-90170000D03*
X204470000Y-87630000D03*
X207010000Y-90170000D03*
X207010000Y-87630000D03*
D17*
X179070000Y-118110000D03*
X167640000Y-130810000D03*
X161290000Y-127000000D03*
X162560000Y-130810000D03*
X179070000Y-102870000D03*
X134620000Y-93980000D03*
X158750000Y-129540000D03*
X185420000Y-129540000D03*
X153670000Y-109220000D03*
X154940000Y-111760000D03*
X156210000Y-114300000D03*
X154940000Y-116840000D03*
X123190000Y-116840000D03*
X124460000Y-111760000D03*
X123190000Y-111760000D03*
X121920000Y-111760000D03*
X185420000Y-128270000D03*
X163830000Y-127000000D03*
X158750000Y-90170000D03*
X182880000Y-91440000D03*
X166370000Y-91440000D03*
X125730000Y-114300000D03*
X165100000Y-92710000D03*
X152400000Y-104140000D03*
X165100000Y-104140000D03*
X177800000Y-109220000D03*
X186690000Y-113030000D03*
X158750000Y-121920000D03*
D18*
X175260000Y-120650000D02*
X176530000Y-120650000D01*
X176530000Y-120650000D02*
X179070000Y-118110000D01*
X171450000Y-120650000D02*
X167640000Y-120650000D01*
X166370000Y-121920000D02*
X167640000Y-120650000D01*
X166370000Y-129540000D02*
X166370000Y-121920000D01*
X166370000Y-129540000D02*
X167640000Y-130810000D01*
X203200000Y-120650000D02*
X204470000Y-120650000D01*
X205740000Y-119380000D02*
X205740000Y-118110000D01*
X204470000Y-120650000D02*
X205740000Y-119380000D01*
X182880000Y-120650000D02*
X175260000Y-120650000D01*
X175260000Y-120650000D02*
X171450000Y-120650000D01*
X182880000Y-120650000D02*
X203200000Y-120650000D01*
X161290000Y-129540000D02*
X161290000Y-127000000D01*
X162560000Y-130810000D02*
X161290000Y-129540000D01*
X194310000Y-107950000D02*
X194310000Y-104140000D01*
X194310000Y-104140000D02*
X193040000Y-102870000D01*
X186690000Y-110490000D02*
X193040000Y-110490000D01*
X194310000Y-109220000D02*
X194310000Y-107950000D01*
X193040000Y-110490000D02*
X194310000Y-109220000D01*
X167640000Y-105410000D02*
X167640000Y-115570000D01*
X176530000Y-110490000D02*
X186690000Y-110490000D01*
X173990000Y-113030000D02*
X176530000Y-110490000D01*
X173990000Y-114300000D02*
X173990000Y-113030000D01*
X171450000Y-116840000D02*
X173990000Y-114300000D01*
X168910000Y-116840000D02*
X171450000Y-116840000D01*
X167640000Y-115570000D02*
X168910000Y-116840000D01*
X179070000Y-102870000D02*
X193040000Y-102870000D01*
X165100000Y-100330000D02*
X165100000Y-102870000D01*
X165100000Y-102870000D02*
X167640000Y-105410000D01*
X167640000Y-105410000D02*
X170180000Y-107950000D01*
X165100000Y-100330000D02*
X166370000Y-100330000D01*
X161290000Y-100330000D02*
X165100000Y-100330000D01*
X166370000Y-100330000D02*
X170180000Y-100330000D01*
X121920000Y-97710000D02*
X123270000Y-97710000D01*
X123270000Y-97710000D02*
X127000000Y-93980000D01*
X127000000Y-93980000D02*
X134620000Y-93980000D01*
X129540000Y-104140000D02*
X130810000Y-102870000D01*
X130810000Y-102870000D02*
X139700000Y-102870000D01*
X148590000Y-101600000D02*
X147320000Y-102870000D01*
X147320000Y-102870000D02*
X139700000Y-102870000D01*
X128270000Y-106680000D02*
X128270000Y-105410000D01*
X128270000Y-105410000D02*
X129540000Y-104140000D01*
X148590000Y-101600000D02*
X148590000Y-100330000D01*
X151130000Y-106680000D02*
X159940000Y-106680000D01*
X159940000Y-106680000D02*
X161290000Y-108030000D01*
X191770000Y-124460000D02*
X191770000Y-128270000D01*
X191770000Y-128270000D02*
X190500000Y-129540000D01*
X158750000Y-129540000D02*
X152400000Y-129540000D01*
X190500000Y-129540000D02*
X185420000Y-129540000D01*
X152400000Y-129540000D02*
X151130000Y-130810000D01*
X151130000Y-130810000D02*
X151130000Y-133350000D01*
X196850000Y-124460000D02*
X196850000Y-129540000D01*
X168910000Y-132080000D02*
X170180000Y-130810000D01*
X170180000Y-130810000D02*
X195580000Y-130810000D01*
X195580000Y-130810000D02*
X196850000Y-129540000D01*
X168910000Y-132080000D02*
X168910000Y-133350000D01*
X148590000Y-133350000D02*
X148590000Y-123190000D01*
X158750000Y-114300000D02*
X153670000Y-109220000D01*
X158750000Y-116840000D02*
X158750000Y-114300000D01*
X153670000Y-121920000D02*
X158750000Y-116840000D01*
X149860000Y-121920000D02*
X153670000Y-121920000D01*
X148590000Y-123190000D02*
X149860000Y-121920000D01*
X151130000Y-109220000D02*
X148590000Y-106680000D01*
X153670000Y-109220000D02*
X151130000Y-109220000D01*
X157480000Y-116840000D02*
X157480000Y-114300000D01*
X146050000Y-121920000D02*
X147320000Y-120650000D01*
X147320000Y-120650000D02*
X153670000Y-120650000D01*
X153670000Y-120650000D02*
X157480000Y-116840000D01*
X146050000Y-133350000D02*
X146050000Y-121920000D01*
X157480000Y-114300000D02*
X154940000Y-111760000D01*
X154940000Y-111760000D02*
X153670000Y-110490000D01*
X146050000Y-106680000D02*
X149860000Y-110490000D01*
X149860000Y-110490000D02*
X153670000Y-110490000D01*
X143510000Y-133350000D02*
X143510000Y-121920000D01*
X156210000Y-114300000D02*
X153670000Y-111760000D01*
X156210000Y-116840000D02*
X156210000Y-114300000D01*
X153670000Y-119380000D02*
X156210000Y-116840000D01*
X144780000Y-119380000D02*
X153670000Y-119380000D01*
X143510000Y-120650000D02*
X144780000Y-119380000D01*
X143510000Y-121920000D02*
X143510000Y-120650000D01*
X143510000Y-106680000D02*
X148590000Y-111760000D01*
X148590000Y-111760000D02*
X153670000Y-111760000D01*
X153670000Y-113030000D02*
X154940000Y-114300000D01*
X140970000Y-119380000D02*
X140970000Y-133350000D01*
X142240000Y-118110000D02*
X140970000Y-119380000D01*
X153670000Y-118110000D02*
X142240000Y-118110000D01*
X154940000Y-116840000D02*
X153670000Y-118110000D01*
X154940000Y-114300000D02*
X154940000Y-116840000D01*
X147320000Y-113030000D02*
X140970000Y-106680000D01*
X153670000Y-113030000D02*
X147320000Y-113030000D01*
X138430000Y-133350000D02*
X138430000Y-119380000D01*
X123190000Y-116840000D02*
X124460000Y-118110000D01*
X124460000Y-118110000D02*
X135890000Y-118110000D01*
X138430000Y-119380000D02*
X137160000Y-118110000D01*
X137160000Y-118110000D02*
X135890000Y-118110000D01*
X138430000Y-106680000D02*
X132080000Y-113030000D01*
X123190000Y-114300000D02*
X123190000Y-116840000D01*
X124460000Y-113030000D02*
X123190000Y-114300000D01*
X132080000Y-113030000D02*
X124460000Y-113030000D01*
X135890000Y-133350000D02*
X135890000Y-120650000D01*
X130810000Y-111760000D02*
X135890000Y-106680000D01*
X124460000Y-111760000D02*
X130810000Y-111760000D01*
X121920000Y-114300000D02*
X124460000Y-111760000D01*
X121920000Y-116840000D02*
X121920000Y-114300000D01*
X124460000Y-119380000D02*
X121920000Y-116840000D01*
X134620000Y-119380000D02*
X124460000Y-119380000D01*
X135890000Y-120650000D02*
X134620000Y-119380000D01*
X133350000Y-106680000D02*
X129540000Y-110490000D01*
X133350000Y-121920000D02*
X133350000Y-133350000D01*
X132080000Y-120650000D02*
X133350000Y-121920000D01*
X129540000Y-120650000D02*
X132080000Y-120650000D01*
X124460000Y-120650000D02*
X129540000Y-120650000D01*
X120650000Y-116840000D02*
X124460000Y-120650000D01*
X120650000Y-114300000D02*
X120650000Y-116840000D01*
X124460000Y-110490000D02*
X123190000Y-111760000D01*
X123190000Y-111760000D02*
X120650000Y-114300000D01*
X129540000Y-110490000D02*
X124460000Y-110490000D01*
X119380000Y-115570000D02*
X119380000Y-114300000D01*
X119380000Y-115570000D02*
X119380000Y-116840000D01*
X129540000Y-121920000D02*
X124460000Y-121920000D01*
X130810000Y-123190000D02*
X129540000Y-121920000D01*
X130810000Y-133350000D02*
X130810000Y-123190000D01*
X119380000Y-116840000D02*
X124460000Y-121920000D01*
X119380000Y-114300000D02*
X121920000Y-111760000D01*
X121920000Y-111760000D02*
X123190000Y-110490000D01*
X124460000Y-109220000D02*
X125730000Y-109220000D01*
X123190000Y-110490000D02*
X124460000Y-109220000D01*
X130810000Y-106680000D02*
X128270000Y-109220000D01*
X128270000Y-109220000D02*
X125730000Y-109220000D01*
X187960000Y-128270000D02*
X189230000Y-127000000D01*
X185420000Y-128270000D02*
X187960000Y-128270000D01*
X189230000Y-124460000D02*
X189230000Y-125730000D01*
X189230000Y-127000000D02*
X189230000Y-125730000D01*
X163830000Y-133350000D02*
X163830000Y-127000000D01*
X135890000Y-91440000D02*
X135890000Y-92710000D01*
X137160000Y-90170000D02*
X135890000Y-91440000D01*
X158750000Y-90170000D02*
X137160000Y-90170000D01*
X185420000Y-91440000D02*
X186690000Y-92710000D01*
X186690000Y-95250000D02*
X186690000Y-92710000D01*
X182880000Y-91440000D02*
X185420000Y-91440000D01*
X166370000Y-91440000D02*
X162560000Y-91440000D01*
X146050000Y-100330000D02*
X146050000Y-96520000D01*
X166370000Y-87630000D02*
X166370000Y-86360000D01*
X162560000Y-91440000D02*
X166370000Y-87630000D01*
X153670000Y-91440000D02*
X162560000Y-91440000D01*
X149860000Y-95250000D02*
X153670000Y-91440000D01*
X147320000Y-95250000D02*
X149860000Y-95250000D01*
X146050000Y-96520000D02*
X147320000Y-95250000D01*
X146050000Y-114300000D02*
X146050000Y-115570000D01*
X125730000Y-115570000D02*
X125730000Y-114300000D01*
X127000000Y-116840000D02*
X125730000Y-115570000D01*
X144780000Y-116840000D02*
X127000000Y-116840000D01*
X146050000Y-115570000D02*
X144780000Y-116840000D01*
X162560000Y-95250000D02*
X161290000Y-95250000D01*
X165100000Y-92710000D02*
X162560000Y-95250000D01*
X170180000Y-105410000D02*
X172720000Y-105410000D01*
X173990000Y-104140000D02*
X173990000Y-86360000D01*
X172720000Y-105410000D02*
X173990000Y-104140000D01*
X170180000Y-110490000D02*
X172720000Y-110490000D01*
X176530000Y-106680000D02*
X176530000Y-86360000D01*
X172720000Y-110490000D02*
X176530000Y-106680000D01*
X189230000Y-87630000D02*
X182880000Y-87630000D01*
X158750000Y-104140000D02*
X152400000Y-104140000D01*
X165100000Y-104140000D02*
X158750000Y-104140000D01*
X177800000Y-92710000D02*
X177800000Y-109220000D01*
X182880000Y-87630000D02*
X177800000Y-92710000D01*
X191770000Y-87630000D02*
X189230000Y-87630000D01*
X194310000Y-87630000D02*
X191770000Y-87630000D01*
X196850000Y-87630000D02*
X194310000Y-87630000D01*
X179070000Y-113030000D02*
X186690000Y-113030000D01*
X172720000Y-119380000D02*
X179070000Y-113030000D01*
X163830000Y-119380000D02*
X172720000Y-119380000D01*
X161290000Y-121920000D02*
X163830000Y-119380000D01*
X158750000Y-121920000D02*
X161290000Y-121920000D01*
X204470000Y-87630000D02*
X207010000Y-87630000D01*
X201930000Y-87630000D02*
X204470000Y-87630000D01*
X199390000Y-87630000D02*
X201930000Y-87630000D01*
X193040000Y-101600000D02*
X189230000Y-97790000D01*
X189230000Y-90170000D02*
X189230000Y-97790000D01*
X186690000Y-114300000D02*
X186690000Y-116840000D01*
X187960000Y-113030000D02*
X186690000Y-114300000D01*
X189230000Y-111760000D02*
X187960000Y-113030000D01*
X194310000Y-111760000D02*
X189230000Y-111760000D01*
X196850000Y-109220000D02*
X194310000Y-111760000D01*
X196850000Y-105410000D02*
X196850000Y-109220000D01*
X194310000Y-102870000D02*
X196850000Y-105410000D01*
X193040000Y-101600000D02*
X194310000Y-102870000D01*
X189230000Y-116840000D02*
X189230000Y-114300000D01*
X191770000Y-99060000D02*
X191770000Y-90170000D01*
X193040000Y-100330000D02*
X191770000Y-99060000D01*
X198120000Y-105410000D02*
X193040000Y-100330000D01*
X198120000Y-109220000D02*
X198120000Y-105410000D01*
X194310000Y-113030000D02*
X198120000Y-109220000D01*
X190500000Y-113030000D02*
X194310000Y-113030000D01*
X189230000Y-114300000D02*
X190500000Y-113030000D01*
X191770000Y-116840000D02*
X191770000Y-115570000D01*
X194310000Y-100330000D02*
X194310000Y-90170000D01*
X199390000Y-105410000D02*
X194310000Y-100330000D01*
X199390000Y-109220000D02*
X199390000Y-105410000D01*
X194310000Y-114300000D02*
X199390000Y-109220000D01*
X193040000Y-114300000D02*
X194310000Y-114300000D01*
X191770000Y-115570000D02*
X193040000Y-114300000D01*
X194310000Y-116840000D02*
X194310000Y-115570000D01*
X196850000Y-101600000D02*
X196850000Y-90170000D01*
X200660000Y-105410000D02*
X196850000Y-101600000D01*
X200660000Y-109220000D02*
X200660000Y-105410000D01*
X194310000Y-115570000D02*
X200660000Y-109220000D01*
X196850000Y-116840000D02*
X196850000Y-115570000D01*
X199390000Y-102870000D02*
X199390000Y-90170000D01*
X201930000Y-105410000D02*
X199390000Y-102870000D01*
X201930000Y-109220000D02*
X201930000Y-105410000D01*
X196850000Y-114300000D02*
X201930000Y-109220000D01*
X196850000Y-115570000D02*
X196850000Y-114300000D01*
X199390000Y-116840000D02*
X199390000Y-114300000D01*
X201930000Y-104140000D02*
X201930000Y-90170000D01*
X203200000Y-105410000D02*
X201930000Y-104140000D01*
X203200000Y-109220000D02*
X203200000Y-105410000D01*
X199390000Y-113030000D02*
X203200000Y-109220000D01*
X199390000Y-114300000D02*
X199390000Y-113030000D01*
X201930000Y-116840000D02*
X201930000Y-111760000D01*
X204470000Y-105410000D02*
X204470000Y-90170000D01*
X204470000Y-109220000D02*
X204470000Y-105410000D01*
X201930000Y-111760000D02*
X204470000Y-109220000D01*
X199390000Y-124460000D02*
X199390000Y-123190000D01*
X207010000Y-110490000D02*
X207010000Y-90170000D01*
X208280000Y-111760000D02*
X207010000Y-110490000D01*
X208280000Y-118110000D02*
X208280000Y-111760000D01*
X204470000Y-121920000D02*
X208280000Y-118110000D01*
X200660000Y-121920000D02*
X204470000Y-121920000D01*
X199390000Y-123190000D02*
X200660000Y-121920000D01*
D19*
G36*
X215190000Y-131852560D02*
X213780000Y-131852560D01*
X213544683Y-131896838D01*
X213328559Y-132035910D01*
X213183569Y-132248110D01*
X213169914Y-132315541D01*
X213140054Y-132270853D01*
X212658285Y-131948946D01*
X212090000Y-131835907D01*
X211521715Y-131948946D01*
X211039946Y-132270853D01*
X210820000Y-132600026D01*
X210600054Y-132270853D01*
X210118285Y-131948946D01*
X209550000Y-131835907D01*
X208981715Y-131948946D01*
X208499946Y-132270853D01*
X208280000Y-132600026D01*
X208060054Y-132270853D01*
X207578285Y-131948946D01*
X207010000Y-131835907D01*
X206441715Y-131948946D01*
X205959946Y-132270853D01*
X205740000Y-132600026D01*
X205520054Y-132270853D01*
X205038285Y-131948946D01*
X204470000Y-131835907D01*
X203901715Y-131948946D01*
X203419946Y-132270853D01*
X203200000Y-132600026D01*
X202980054Y-132270853D01*
X202498285Y-131948946D01*
X201930000Y-131835907D01*
X201361715Y-131948946D01*
X200879946Y-132270853D01*
X200660000Y-132600026D01*
X200440054Y-132270853D01*
X199958285Y-131948946D01*
X199390000Y-131835907D01*
X198821715Y-131948946D01*
X198339946Y-132270853D01*
X198120000Y-132600026D01*
X197900054Y-132270853D01*
X197418285Y-131948946D01*
X196850000Y-131835907D01*
X196281715Y-131948946D01*
X195799946Y-132270853D01*
X195580000Y-132600026D01*
X195360054Y-132270853D01*
X194878285Y-131948946D01*
X194310000Y-131835907D01*
X193741715Y-131948946D01*
X193259946Y-132270853D01*
X193040000Y-132600026D01*
X192820054Y-132270853D01*
X192338285Y-131948946D01*
X191770000Y-131835907D01*
X191201715Y-131948946D01*
X190719946Y-132270853D01*
X190500000Y-132600026D01*
X190280054Y-132270853D01*
X189798285Y-131948946D01*
X189230000Y-131835907D01*
X188661715Y-131948946D01*
X188179946Y-132270853D01*
X187960000Y-132600026D01*
X187740054Y-132270853D01*
X187258285Y-131948946D01*
X186690000Y-131835907D01*
X186121715Y-131948946D01*
X185639946Y-132270853D01*
X185420000Y-132600026D01*
X185200054Y-132270853D01*
X184718285Y-131948946D01*
X184150000Y-131835907D01*
X183581715Y-131948946D01*
X183099946Y-132270853D01*
X182880000Y-132600026D01*
X182660054Y-132270853D01*
X182178285Y-131948946D01*
X181610000Y-131835907D01*
X181041715Y-131948946D01*
X180559946Y-132270853D01*
X180340000Y-132600026D01*
X180120054Y-132270853D01*
X179638285Y-131948946D01*
X179070000Y-131835907D01*
X178501715Y-131948946D01*
X178019946Y-132270853D01*
X177800000Y-132600026D01*
X177580054Y-132270853D01*
X177098285Y-131948946D01*
X176530000Y-131835907D01*
X175961715Y-131948946D01*
X175479946Y-132270853D01*
X175252298Y-132611553D01*
X175185183Y-132468642D01*
X174756924Y-132078355D01*
X174346890Y-131908524D01*
X174117000Y-132029845D01*
X174117000Y-133223000D01*
X174137000Y-133223000D01*
X174137000Y-133477000D01*
X174117000Y-133477000D01*
X174117000Y-133497000D01*
X173863000Y-133497000D01*
X173863000Y-133477000D01*
X173843000Y-133477000D01*
X173843000Y-133223000D01*
X173863000Y-133223000D01*
X173863000Y-132029845D01*
X173633110Y-131908524D01*
X173223076Y-132078355D01*
X172794817Y-132468642D01*
X172727702Y-132611553D01*
X172500054Y-132270853D01*
X172018285Y-131948946D01*
X171450000Y-131835907D01*
X170881715Y-131948946D01*
X170399946Y-132270853D01*
X170180000Y-132600026D01*
X169960054Y-132270853D01*
X169860481Y-132204321D01*
X170494802Y-131570000D01*
X195580000Y-131570000D01*
X195870839Y-131512148D01*
X196117401Y-131347401D01*
X197387401Y-130077401D01*
X197552148Y-129830840D01*
X197610000Y-129540000D01*
X197610000Y-125672995D01*
X197864698Y-125502811D01*
X198120000Y-125120725D01*
X198375302Y-125502811D01*
X198840849Y-125813880D01*
X199390000Y-125923113D01*
X199939151Y-125813880D01*
X200404698Y-125502811D01*
X200674986Y-125098297D01*
X200777611Y-125315134D01*
X201192577Y-125691041D01*
X201580961Y-125851904D01*
X201803000Y-125729915D01*
X201803000Y-124587000D01*
X202057000Y-124587000D01*
X202057000Y-125729915D01*
X202279039Y-125851904D01*
X202667423Y-125691041D01*
X203082389Y-125315134D01*
X203321914Y-124809041D01*
X203200629Y-124587000D01*
X202057000Y-124587000D01*
X201803000Y-124587000D01*
X201783000Y-124587000D01*
X201783000Y-124333000D01*
X201803000Y-124333000D01*
X201803000Y-123190085D01*
X202057000Y-123190085D01*
X202057000Y-124333000D01*
X203200629Y-124333000D01*
X203318207Y-124117745D01*
X204911861Y-124117745D01*
X204985995Y-124363864D01*
X205523223Y-124556965D01*
X206093454Y-124529778D01*
X206494005Y-124363864D01*
X206568139Y-124117745D01*
X205740000Y-123289605D01*
X204911861Y-124117745D01*
X203318207Y-124117745D01*
X203321914Y-124110959D01*
X203082389Y-123604866D01*
X202667423Y-123228959D01*
X202279039Y-123068096D01*
X202057000Y-123190085D01*
X201803000Y-123190085D01*
X201580961Y-123068096D01*
X201192577Y-123228959D01*
X200777611Y-123604866D01*
X200674986Y-123821703D01*
X200404698Y-123417189D01*
X200304538Y-123350264D01*
X200974802Y-122680000D01*
X204369676Y-122680000D01*
X204293035Y-122893223D01*
X204320222Y-123463454D01*
X204486136Y-123864005D01*
X204732255Y-123938139D01*
X205560395Y-123110000D01*
X205919605Y-123110000D01*
X206747745Y-123938139D01*
X206993864Y-123864005D01*
X207186965Y-123326777D01*
X207159778Y-122756546D01*
X206993864Y-122355995D01*
X206747745Y-122281861D01*
X205919605Y-123110000D01*
X205560395Y-123110000D01*
X205546253Y-123095858D01*
X205725858Y-122916252D01*
X205740000Y-122930395D01*
X206568139Y-122102255D01*
X206494005Y-121856136D01*
X205956777Y-121663035D01*
X205794007Y-121670795D01*
X208817401Y-118647401D01*
X208982148Y-118400839D01*
X209040000Y-118110000D01*
X209040000Y-111760000D01*
X209002843Y-111573201D01*
X208982148Y-111469160D01*
X208817401Y-111222599D01*
X207770000Y-110175198D01*
X207770000Y-91442954D01*
X208060054Y-91249147D01*
X208381961Y-90767378D01*
X208495000Y-90199093D01*
X208495000Y-90140907D01*
X208381961Y-89572622D01*
X208060054Y-89090853D01*
X207774422Y-88900000D01*
X208060054Y-88709147D01*
X208381961Y-88227378D01*
X208495000Y-87659093D01*
X208495000Y-87600907D01*
X208381961Y-87032622D01*
X208060054Y-86550853D01*
X207578285Y-86228946D01*
X207010000Y-86115907D01*
X206441715Y-86228946D01*
X205959946Y-86550853D01*
X205746699Y-86870000D01*
X205733301Y-86870000D01*
X205520054Y-86550853D01*
X205038285Y-86228946D01*
X204470000Y-86115907D01*
X203901715Y-86228946D01*
X203419946Y-86550853D01*
X203206699Y-86870000D01*
X203193301Y-86870000D01*
X202980054Y-86550853D01*
X202498285Y-86228946D01*
X201930000Y-86115907D01*
X201361715Y-86228946D01*
X200879946Y-86550853D01*
X200666699Y-86870000D01*
X200653301Y-86870000D01*
X200440054Y-86550853D01*
X199958285Y-86228946D01*
X199390000Y-86115907D01*
X198821715Y-86228946D01*
X198339946Y-86550853D01*
X198120000Y-86880026D01*
X197900054Y-86550853D01*
X197418285Y-86228946D01*
X196850000Y-86115907D01*
X196281715Y-86228946D01*
X195799946Y-86550853D01*
X195586699Y-86870000D01*
X195573301Y-86870000D01*
X195360054Y-86550853D01*
X194878285Y-86228946D01*
X194310000Y-86115907D01*
X193741715Y-86228946D01*
X193259946Y-86550853D01*
X193046699Y-86870000D01*
X193033301Y-86870000D01*
X192820054Y-86550853D01*
X192338285Y-86228946D01*
X191770000Y-86115907D01*
X191201715Y-86228946D01*
X190719946Y-86550853D01*
X190506699Y-86870000D01*
X190493301Y-86870000D01*
X190280054Y-86550853D01*
X189798285Y-86228946D01*
X189230000Y-86115907D01*
X188661715Y-86228946D01*
X188179946Y-86550853D01*
X187966699Y-86870000D01*
X182880000Y-86870000D01*
X182589161Y-86927852D01*
X182342599Y-87092599D01*
X177290000Y-92145198D01*
X177290000Y-87632954D01*
X177580054Y-87439147D01*
X177901961Y-86957378D01*
X178015000Y-86389093D01*
X178015000Y-86330907D01*
X177909396Y-85800000D01*
X215190000Y-85800000D01*
X215190000Y-131852560D01*
X215190000Y-131852560D01*
G37*
X215190000Y-131852560D02*
X213780000Y-131852560D01*
X213544683Y-131896838D01*
X213328559Y-132035910D01*
X213183569Y-132248110D01*
X213169914Y-132315541D01*
X213140054Y-132270853D01*
X212658285Y-131948946D01*
X212090000Y-131835907D01*
X211521715Y-131948946D01*
X211039946Y-132270853D01*
X210820000Y-132600026D01*
X210600054Y-132270853D01*
X210118285Y-131948946D01*
X209550000Y-131835907D01*
X208981715Y-131948946D01*
X208499946Y-132270853D01*
X208280000Y-132600026D01*
X208060054Y-132270853D01*
X207578285Y-131948946D01*
X207010000Y-131835907D01*
X206441715Y-131948946D01*
X205959946Y-132270853D01*
X205740000Y-132600026D01*
X205520054Y-132270853D01*
X205038285Y-131948946D01*
X204470000Y-131835907D01*
X203901715Y-131948946D01*
X203419946Y-132270853D01*
X203200000Y-132600026D01*
X202980054Y-132270853D01*
X202498285Y-131948946D01*
X201930000Y-131835907D01*
X201361715Y-131948946D01*
X200879946Y-132270853D01*
X200660000Y-132600026D01*
X200440054Y-132270853D01*
X199958285Y-131948946D01*
X199390000Y-131835907D01*
X198821715Y-131948946D01*
X198339946Y-132270853D01*
X198120000Y-132600026D01*
X197900054Y-132270853D01*
X197418285Y-131948946D01*
X196850000Y-131835907D01*
X196281715Y-131948946D01*
X195799946Y-132270853D01*
X195580000Y-132600026D01*
X195360054Y-132270853D01*
X194878285Y-131948946D01*
X194310000Y-131835907D01*
X193741715Y-131948946D01*
X193259946Y-132270853D01*
X193040000Y-132600026D01*
X192820054Y-132270853D01*
X192338285Y-131948946D01*
X191770000Y-131835907D01*
X191201715Y-131948946D01*
X190719946Y-132270853D01*
X190500000Y-132600026D01*
X190280054Y-132270853D01*
X189798285Y-131948946D01*
X189230000Y-131835907D01*
X188661715Y-131948946D01*
X188179946Y-132270853D01*
X187960000Y-132600026D01*
X187740054Y-132270853D01*
X187258285Y-131948946D01*
X186690000Y-131835907D01*
X186121715Y-131948946D01*
X185639946Y-132270853D01*
X185420000Y-132600026D01*
X185200054Y-132270853D01*
X184718285Y-131948946D01*
X184150000Y-131835907D01*
X183581715Y-131948946D01*
X183099946Y-132270853D01*
X182880000Y-132600026D01*
X182660054Y-132270853D01*
X182178285Y-131948946D01*
X181610000Y-131835907D01*
X181041715Y-131948946D01*
X180559946Y-132270853D01*
X180340000Y-132600026D01*
X180120054Y-132270853D01*
X179638285Y-131948946D01*
X179070000Y-131835907D01*
X178501715Y-131948946D01*
X178019946Y-132270853D01*
X177800000Y-132600026D01*
X177580054Y-132270853D01*
X177098285Y-131948946D01*
X176530000Y-131835907D01*
X175961715Y-131948946D01*
X175479946Y-132270853D01*
X175252298Y-132611553D01*
X175185183Y-132468642D01*
X174756924Y-132078355D01*
X174346890Y-131908524D01*
X174117000Y-132029845D01*
X174117000Y-133223000D01*
X174137000Y-133223000D01*
X174137000Y-133477000D01*
X174117000Y-133477000D01*
X174117000Y-133497000D01*
X173863000Y-133497000D01*
X173863000Y-133477000D01*
X173843000Y-133477000D01*
X173843000Y-133223000D01*
X173863000Y-133223000D01*
X173863000Y-132029845D01*
X173633110Y-131908524D01*
X173223076Y-132078355D01*
X172794817Y-132468642D01*
X172727702Y-132611553D01*
X172500054Y-132270853D01*
X172018285Y-131948946D01*
X171450000Y-131835907D01*
X170881715Y-131948946D01*
X170399946Y-132270853D01*
X170180000Y-132600026D01*
X169960054Y-132270853D01*
X169860481Y-132204321D01*
X170494802Y-131570000D01*
X195580000Y-131570000D01*
X195870839Y-131512148D01*
X196117401Y-131347401D01*
X197387401Y-130077401D01*
X197552148Y-129830840D01*
X197610000Y-129540000D01*
X197610000Y-125672995D01*
X197864698Y-125502811D01*
X198120000Y-125120725D01*
X198375302Y-125502811D01*
X198840849Y-125813880D01*
X199390000Y-125923113D01*
X199939151Y-125813880D01*
X200404698Y-125502811D01*
X200674986Y-125098297D01*
X200777611Y-125315134D01*
X201192577Y-125691041D01*
X201580961Y-125851904D01*
X201803000Y-125729915D01*
X201803000Y-124587000D01*
X202057000Y-124587000D01*
X202057000Y-125729915D01*
X202279039Y-125851904D01*
X202667423Y-125691041D01*
X203082389Y-125315134D01*
X203321914Y-124809041D01*
X203200629Y-124587000D01*
X202057000Y-124587000D01*
X201803000Y-124587000D01*
X201783000Y-124587000D01*
X201783000Y-124333000D01*
X201803000Y-124333000D01*
X201803000Y-123190085D01*
X202057000Y-123190085D01*
X202057000Y-124333000D01*
X203200629Y-124333000D01*
X203318207Y-124117745D01*
X204911861Y-124117745D01*
X204985995Y-124363864D01*
X205523223Y-124556965D01*
X206093454Y-124529778D01*
X206494005Y-124363864D01*
X206568139Y-124117745D01*
X205740000Y-123289605D01*
X204911861Y-124117745D01*
X203318207Y-124117745D01*
X203321914Y-124110959D01*
X203082389Y-123604866D01*
X202667423Y-123228959D01*
X202279039Y-123068096D01*
X202057000Y-123190085D01*
X201803000Y-123190085D01*
X201580961Y-123068096D01*
X201192577Y-123228959D01*
X200777611Y-123604866D01*
X200674986Y-123821703D01*
X200404698Y-123417189D01*
X200304538Y-123350264D01*
X200974802Y-122680000D01*
X204369676Y-122680000D01*
X204293035Y-122893223D01*
X204320222Y-123463454D01*
X204486136Y-123864005D01*
X204732255Y-123938139D01*
X205560395Y-123110000D01*
X205919605Y-123110000D01*
X206747745Y-123938139D01*
X206993864Y-123864005D01*
X207186965Y-123326777D01*
X207159778Y-122756546D01*
X206993864Y-122355995D01*
X206747745Y-122281861D01*
X205919605Y-123110000D01*
X205560395Y-123110000D01*
X205546253Y-123095858D01*
X205725858Y-122916252D01*
X205740000Y-122930395D01*
X206568139Y-122102255D01*
X206494005Y-121856136D01*
X205956777Y-121663035D01*
X205794007Y-121670795D01*
X208817401Y-118647401D01*
X208982148Y-118400839D01*
X209040000Y-118110000D01*
X209040000Y-111760000D01*
X209002843Y-111573201D01*
X208982148Y-111469160D01*
X208817401Y-111222599D01*
X207770000Y-110175198D01*
X207770000Y-91442954D01*
X208060054Y-91249147D01*
X208381961Y-90767378D01*
X208495000Y-90199093D01*
X208495000Y-90140907D01*
X208381961Y-89572622D01*
X208060054Y-89090853D01*
X207774422Y-88900000D01*
X208060054Y-88709147D01*
X208381961Y-88227378D01*
X208495000Y-87659093D01*
X208495000Y-87600907D01*
X208381961Y-87032622D01*
X208060054Y-86550853D01*
X207578285Y-86228946D01*
X207010000Y-86115907D01*
X206441715Y-86228946D01*
X205959946Y-86550853D01*
X205746699Y-86870000D01*
X205733301Y-86870000D01*
X205520054Y-86550853D01*
X205038285Y-86228946D01*
X204470000Y-86115907D01*
X203901715Y-86228946D01*
X203419946Y-86550853D01*
X203206699Y-86870000D01*
X203193301Y-86870000D01*
X202980054Y-86550853D01*
X202498285Y-86228946D01*
X201930000Y-86115907D01*
X201361715Y-86228946D01*
X200879946Y-86550853D01*
X200666699Y-86870000D01*
X200653301Y-86870000D01*
X200440054Y-86550853D01*
X199958285Y-86228946D01*
X199390000Y-86115907D01*
X198821715Y-86228946D01*
X198339946Y-86550853D01*
X198120000Y-86880026D01*
X197900054Y-86550853D01*
X197418285Y-86228946D01*
X196850000Y-86115907D01*
X196281715Y-86228946D01*
X195799946Y-86550853D01*
X195586699Y-86870000D01*
X195573301Y-86870000D01*
X195360054Y-86550853D01*
X194878285Y-86228946D01*
X194310000Y-86115907D01*
X193741715Y-86228946D01*
X193259946Y-86550853D01*
X193046699Y-86870000D01*
X193033301Y-86870000D01*
X192820054Y-86550853D01*
X192338285Y-86228946D01*
X191770000Y-86115907D01*
X191201715Y-86228946D01*
X190719946Y-86550853D01*
X190506699Y-86870000D01*
X190493301Y-86870000D01*
X190280054Y-86550853D01*
X189798285Y-86228946D01*
X189230000Y-86115907D01*
X188661715Y-86228946D01*
X188179946Y-86550853D01*
X187966699Y-86870000D01*
X182880000Y-86870000D01*
X182589161Y-86927852D01*
X182342599Y-87092599D01*
X177290000Y-92145198D01*
X177290000Y-87632954D01*
X177580054Y-87439147D01*
X177901961Y-86957378D01*
X178015000Y-86389093D01*
X178015000Y-86330907D01*
X177909396Y-85800000D01*
X215190000Y-85800000D01*
X215190000Y-131852560D01*
G36*
X164872560Y-87210000D02*
X164916838Y-87445317D01*
X165055910Y-87661441D01*
X165179388Y-87745810D01*
X162245198Y-90680000D01*
X159550633Y-90680000D01*
X159684838Y-90356799D01*
X159685162Y-89984833D01*
X159543117Y-89641057D01*
X159280327Y-89377808D01*
X158936799Y-89235162D01*
X158564833Y-89234838D01*
X158221057Y-89376883D01*
X158187882Y-89410000D01*
X137160000Y-89410000D01*
X136869160Y-89467852D01*
X136622599Y-89632599D01*
X135352599Y-90902599D01*
X135187852Y-91149161D01*
X135130000Y-91440000D01*
X135130000Y-91497005D01*
X134875302Y-91667189D01*
X134620000Y-92049275D01*
X134364698Y-91667189D01*
X133899151Y-91356120D01*
X133350000Y-91246887D01*
X132800849Y-91356120D01*
X132335302Y-91667189D01*
X132080000Y-92049275D01*
X131824698Y-91667189D01*
X131359151Y-91356120D01*
X130810000Y-91246887D01*
X130260849Y-91356120D01*
X129795302Y-91667189D01*
X129484233Y-92132736D01*
X129375000Y-92681887D01*
X129375000Y-92738113D01*
X129484233Y-93287264D01*
X129795302Y-93752811D01*
X130260849Y-94063880D01*
X130810000Y-94173113D01*
X131359151Y-94063880D01*
X131824698Y-93752811D01*
X132080000Y-93370725D01*
X132335302Y-93752811D01*
X132800849Y-94063880D01*
X133350000Y-94173113D01*
X133899151Y-94063880D01*
X134364698Y-93752811D01*
X134620000Y-93370725D01*
X134875302Y-93752811D01*
X135340849Y-94063880D01*
X135890000Y-94173113D01*
X136439151Y-94063880D01*
X136904698Y-93752811D01*
X137160000Y-93370725D01*
X137415302Y-93752811D01*
X137880849Y-94063880D01*
X138430000Y-94173113D01*
X138979151Y-94063880D01*
X139444698Y-93752811D01*
X139700000Y-93370725D01*
X139955302Y-93752811D01*
X140420849Y-94063880D01*
X140970000Y-94173113D01*
X141519151Y-94063880D01*
X141984698Y-93752811D01*
X142240000Y-93370725D01*
X142495302Y-93752811D01*
X142960849Y-94063880D01*
X143510000Y-94173113D01*
X144059151Y-94063880D01*
X144524698Y-93752811D01*
X144780000Y-93370725D01*
X145035302Y-93752811D01*
X145500849Y-94063880D01*
X146050000Y-94173113D01*
X146599151Y-94063880D01*
X147064698Y-93752811D01*
X147320000Y-93370725D01*
X147575302Y-93752811D01*
X148040849Y-94063880D01*
X148590000Y-94173113D01*
X149139151Y-94063880D01*
X149604698Y-93752811D01*
X149915767Y-93287264D01*
X150025000Y-92738113D01*
X150025000Y-92681887D01*
X149915767Y-92132736D01*
X149604698Y-91667189D01*
X149139151Y-91356120D01*
X148590000Y-91246887D01*
X148040849Y-91356120D01*
X147575302Y-91667189D01*
X147320000Y-92049275D01*
X147064698Y-91667189D01*
X146599151Y-91356120D01*
X146050000Y-91246887D01*
X145500849Y-91356120D01*
X145035302Y-91667189D01*
X144780000Y-92049275D01*
X144524698Y-91667189D01*
X144059151Y-91356120D01*
X143510000Y-91246887D01*
X142960849Y-91356120D01*
X142495302Y-91667189D01*
X142240000Y-92049275D01*
X141984698Y-91667189D01*
X141519151Y-91356120D01*
X140970000Y-91246887D01*
X140420849Y-91356120D01*
X139955302Y-91667189D01*
X139700000Y-92049275D01*
X139444698Y-91667189D01*
X138979151Y-91356120D01*
X138430000Y-91246887D01*
X137880849Y-91356120D01*
X137415302Y-91667189D01*
X137160000Y-92049275D01*
X136904698Y-91667189D01*
X136804538Y-91600264D01*
X137474802Y-90930000D01*
X153105198Y-90930000D01*
X149545198Y-94490000D01*
X147320000Y-94490000D01*
X147029160Y-94547852D01*
X146782599Y-94712599D01*
X145512599Y-95982599D01*
X145347852Y-96229161D01*
X145290000Y-96520000D01*
X145290000Y-99117005D01*
X145035302Y-99287189D01*
X144780000Y-99669275D01*
X144524698Y-99287189D01*
X144059151Y-98976120D01*
X143510000Y-98866887D01*
X142960849Y-98976120D01*
X142495302Y-99287189D01*
X142240000Y-99669275D01*
X141984698Y-99287189D01*
X141519151Y-98976120D01*
X140970000Y-98866887D01*
X140420849Y-98976120D01*
X139955302Y-99287189D01*
X139700000Y-99669275D01*
X139444698Y-99287189D01*
X138979151Y-98976120D01*
X138430000Y-98866887D01*
X137880849Y-98976120D01*
X137415302Y-99287189D01*
X137160000Y-99669275D01*
X136904698Y-99287189D01*
X136439151Y-98976120D01*
X135890000Y-98866887D01*
X135340849Y-98976120D01*
X134875302Y-99287189D01*
X134620000Y-99669275D01*
X134364698Y-99287189D01*
X133899151Y-98976120D01*
X133350000Y-98866887D01*
X132800849Y-98976120D01*
X132335302Y-99287189D01*
X132238899Y-99431465D01*
X132213162Y-99294683D01*
X132074090Y-99078559D01*
X131861890Y-98933569D01*
X131610000Y-98882560D01*
X130010000Y-98882560D01*
X129774683Y-98926838D01*
X129558559Y-99065910D01*
X129413569Y-99278110D01*
X129362560Y-99530000D01*
X129362560Y-101130000D01*
X129406838Y-101365317D01*
X129545910Y-101581441D01*
X129758110Y-101726431D01*
X130010000Y-101777440D01*
X131610000Y-101777440D01*
X131845317Y-101733162D01*
X132061441Y-101594090D01*
X132206431Y-101381890D01*
X132237815Y-101226911D01*
X132335302Y-101372811D01*
X132800849Y-101683880D01*
X133350000Y-101793113D01*
X133899151Y-101683880D01*
X134364698Y-101372811D01*
X134620000Y-100990725D01*
X134875302Y-101372811D01*
X135340849Y-101683880D01*
X135890000Y-101793113D01*
X136439151Y-101683880D01*
X136904698Y-101372811D01*
X137160000Y-100990725D01*
X137415302Y-101372811D01*
X137880849Y-101683880D01*
X138430000Y-101793113D01*
X138979151Y-101683880D01*
X139444698Y-101372811D01*
X139700000Y-100990725D01*
X139955302Y-101372811D01*
X140420849Y-101683880D01*
X140970000Y-101793113D01*
X141519151Y-101683880D01*
X141984698Y-101372811D01*
X142240000Y-100990725D01*
X142495302Y-101372811D01*
X142960849Y-101683880D01*
X143510000Y-101793113D01*
X144059151Y-101683880D01*
X144524698Y-101372811D01*
X144780000Y-100990725D01*
X145035302Y-101372811D01*
X145500849Y-101683880D01*
X146050000Y-101793113D01*
X146599151Y-101683880D01*
X147064698Y-101372811D01*
X147334986Y-100968297D01*
X147437611Y-101185134D01*
X147852577Y-101561041D01*
X148240961Y-101721904D01*
X148463000Y-101599915D01*
X148463000Y-100457000D01*
X148717000Y-100457000D01*
X148717000Y-101599915D01*
X148939039Y-101721904D01*
X149327423Y-101561041D01*
X149637915Y-101279774D01*
X160519831Y-101279774D01*
X160584131Y-101517611D01*
X161092342Y-101697333D01*
X161630644Y-101668892D01*
X161995869Y-101517611D01*
X162060169Y-101279774D01*
X161290000Y-100509605D01*
X160519831Y-101279774D01*
X149637915Y-101279774D01*
X149742389Y-101185134D01*
X149981914Y-100679041D01*
X149860629Y-100457000D01*
X148717000Y-100457000D01*
X148463000Y-100457000D01*
X148443000Y-100457000D01*
X148443000Y-100203000D01*
X148463000Y-100203000D01*
X148463000Y-99060085D01*
X148717000Y-99060085D01*
X148717000Y-100203000D01*
X149860629Y-100203000D01*
X149899224Y-100132342D01*
X159922667Y-100132342D01*
X159951108Y-100670644D01*
X160102389Y-101035869D01*
X160340226Y-101100169D01*
X161110395Y-100330000D01*
X161469605Y-100330000D01*
X162239774Y-101100169D01*
X162477611Y-101035869D01*
X162657333Y-100527658D01*
X162628892Y-99989356D01*
X162477611Y-99624131D01*
X162239774Y-99559831D01*
X161469605Y-100330000D01*
X161110395Y-100330000D01*
X160340226Y-99559831D01*
X160102389Y-99624131D01*
X159922667Y-100132342D01*
X149899224Y-100132342D01*
X149981914Y-99980959D01*
X149742389Y-99474866D01*
X149327423Y-99098959D01*
X148939039Y-98938096D01*
X148717000Y-99060085D01*
X148463000Y-99060085D01*
X148240961Y-98938096D01*
X147852577Y-99098959D01*
X147437611Y-99474866D01*
X147334986Y-99691703D01*
X147064698Y-99287189D01*
X146810000Y-99117005D01*
X146810000Y-96834802D01*
X147634802Y-96010000D01*
X149860000Y-96010000D01*
X150150839Y-95952148D01*
X150397401Y-95787401D01*
X153984802Y-92200000D01*
X164299367Y-92200000D01*
X164165162Y-92523201D01*
X164165121Y-92570077D01*
X162345644Y-94389554D01*
X162058548Y-94101957D01*
X161560709Y-93895236D01*
X161021656Y-93894765D01*
X160523457Y-94100617D01*
X160141957Y-94481452D01*
X159935236Y-94979291D01*
X159934765Y-95518344D01*
X160140617Y-96016543D01*
X160521452Y-96398043D01*
X160815264Y-96520045D01*
X160523457Y-96640617D01*
X160141957Y-97021452D01*
X159935236Y-97519291D01*
X159934765Y-98058344D01*
X160140617Y-98556543D01*
X160521452Y-98938043D01*
X160799116Y-99053339D01*
X160584131Y-99142389D01*
X160519831Y-99380226D01*
X161290000Y-100150395D01*
X162060169Y-99380226D01*
X161995869Y-99142389D01*
X161763828Y-99060331D01*
X162056543Y-98939383D01*
X162438043Y-98558548D01*
X162644764Y-98060709D01*
X162645235Y-97521656D01*
X162439383Y-97023457D01*
X162058548Y-96641957D01*
X161764736Y-96519955D01*
X162056543Y-96399383D01*
X162438043Y-96018548D01*
X162441592Y-96010000D01*
X162560000Y-96010000D01*
X162850839Y-95952148D01*
X163097401Y-95787401D01*
X163634802Y-95250000D01*
X168665907Y-95250000D01*
X168778946Y-95818285D01*
X169100853Y-96300054D01*
X169430026Y-96520000D01*
X169100853Y-96739946D01*
X168778946Y-97221715D01*
X168665907Y-97790000D01*
X168778946Y-98358285D01*
X169100853Y-98840054D01*
X169441553Y-99067702D01*
X169298642Y-99134817D01*
X168908355Y-99563076D01*
X168738524Y-99973110D01*
X168859845Y-100203000D01*
X170053000Y-100203000D01*
X170053000Y-100183000D01*
X170307000Y-100183000D01*
X170307000Y-100203000D01*
X171500155Y-100203000D01*
X171621476Y-99973110D01*
X171451645Y-99563076D01*
X171061358Y-99134817D01*
X170918447Y-99067702D01*
X171259147Y-98840054D01*
X171581054Y-98358285D01*
X171694093Y-97790000D01*
X171581054Y-97221715D01*
X171259147Y-96739946D01*
X170929974Y-96520000D01*
X171259147Y-96300054D01*
X171581054Y-95818285D01*
X171694093Y-95250000D01*
X171581054Y-94681715D01*
X171259147Y-94199946D01*
X171217548Y-94172150D01*
X171265317Y-94163162D01*
X171481441Y-94024090D01*
X171626431Y-93811890D01*
X171677440Y-93560000D01*
X171677440Y-91860000D01*
X171633162Y-91624683D01*
X171494090Y-91408559D01*
X171281890Y-91263569D01*
X171030000Y-91212560D01*
X169330000Y-91212560D01*
X169094683Y-91256838D01*
X168878559Y-91395910D01*
X168733569Y-91608110D01*
X168682560Y-91860000D01*
X168682560Y-93560000D01*
X168726838Y-93795317D01*
X168865910Y-94011441D01*
X169078110Y-94156431D01*
X169145541Y-94170086D01*
X169100853Y-94199946D01*
X168778946Y-94681715D01*
X168665907Y-95250000D01*
X163634802Y-95250000D01*
X165239680Y-93645122D01*
X165285167Y-93645162D01*
X165628943Y-93503117D01*
X165892192Y-93240327D01*
X166034838Y-92896799D01*
X166035162Y-92524833D01*
X165929690Y-92269570D01*
X166183201Y-92374838D01*
X166555167Y-92375162D01*
X166898943Y-92233117D01*
X167162192Y-91970327D01*
X167304838Y-91626799D01*
X167305162Y-91254833D01*
X167163117Y-90911057D01*
X166900327Y-90647808D01*
X166556799Y-90505162D01*
X166184833Y-90504838D01*
X165841057Y-90646883D01*
X165807882Y-90680000D01*
X164394802Y-90680000D01*
X166907401Y-88167401D01*
X167072148Y-87920839D01*
X167084759Y-87857440D01*
X167220000Y-87857440D01*
X167455317Y-87813162D01*
X167671441Y-87674090D01*
X167816431Y-87461890D01*
X167838301Y-87353893D01*
X168143076Y-87631645D01*
X168553110Y-87801476D01*
X168783000Y-87680155D01*
X168783000Y-86487000D01*
X169037000Y-86487000D01*
X169037000Y-87680155D01*
X169266890Y-87801476D01*
X169676924Y-87631645D01*
X170105183Y-87241358D01*
X170351486Y-86716892D01*
X170230819Y-86487000D01*
X169037000Y-86487000D01*
X168783000Y-86487000D01*
X168763000Y-86487000D01*
X168763000Y-86233000D01*
X168783000Y-86233000D01*
X168783000Y-86213000D01*
X169037000Y-86213000D01*
X169037000Y-86233000D01*
X170230819Y-86233000D01*
X170351486Y-86003108D01*
X170256101Y-85800000D01*
X172492560Y-85800000D01*
X172492560Y-87210000D01*
X172536838Y-87445317D01*
X172675910Y-87661441D01*
X172888110Y-87806431D01*
X173140000Y-87857440D01*
X173230000Y-87857440D01*
X173230000Y-103825198D01*
X172405198Y-104650000D01*
X171452954Y-104650000D01*
X171259147Y-104359946D01*
X170929974Y-104140000D01*
X171259147Y-103920054D01*
X171581054Y-103438285D01*
X171694093Y-102870000D01*
X171581054Y-102301715D01*
X171259147Y-101819946D01*
X170918447Y-101592298D01*
X171061358Y-101525183D01*
X171451645Y-101096924D01*
X171621476Y-100686890D01*
X171500155Y-100457000D01*
X170307000Y-100457000D01*
X170307000Y-100477000D01*
X170053000Y-100477000D01*
X170053000Y-100457000D01*
X168859845Y-100457000D01*
X168738524Y-100686890D01*
X168908355Y-101096924D01*
X169298642Y-101525183D01*
X169441553Y-101592298D01*
X169100853Y-101819946D01*
X168778946Y-102301715D01*
X168665907Y-102870000D01*
X168778946Y-103438285D01*
X169100853Y-103920054D01*
X169430026Y-104140000D01*
X169100853Y-104359946D01*
X168778946Y-104841715D01*
X168665907Y-105410000D01*
X168778946Y-105978285D01*
X169100853Y-106460054D01*
X169441553Y-106687702D01*
X169298642Y-106754817D01*
X168908355Y-107183076D01*
X168738524Y-107593110D01*
X168859845Y-107823000D01*
X170053000Y-107823000D01*
X170053000Y-107803000D01*
X170307000Y-107803000D01*
X170307000Y-107823000D01*
X171500155Y-107823000D01*
X171621476Y-107593110D01*
X171451645Y-107183076D01*
X171061358Y-106754817D01*
X170918447Y-106687702D01*
X171259147Y-106460054D01*
X171452954Y-106170000D01*
X172720000Y-106170000D01*
X173010839Y-106112148D01*
X173257401Y-105947401D01*
X174527401Y-104677401D01*
X174692148Y-104430840D01*
X174750000Y-104140000D01*
X174750000Y-87857440D01*
X174840000Y-87857440D01*
X175075317Y-87813162D01*
X175291441Y-87674090D01*
X175436431Y-87461890D01*
X175450086Y-87394459D01*
X175479946Y-87439147D01*
X175770000Y-87632954D01*
X175770000Y-106365198D01*
X172405198Y-109730000D01*
X171452954Y-109730000D01*
X171259147Y-109439946D01*
X170918447Y-109212298D01*
X171061358Y-109145183D01*
X171451645Y-108716924D01*
X171621476Y-108306890D01*
X171500155Y-108077000D01*
X170307000Y-108077000D01*
X170307000Y-108097000D01*
X170053000Y-108097000D01*
X170053000Y-108077000D01*
X168859845Y-108077000D01*
X168738524Y-108306890D01*
X168908355Y-108716924D01*
X169298642Y-109145183D01*
X169441553Y-109212298D01*
X169100853Y-109439946D01*
X168778946Y-109921715D01*
X168665907Y-110490000D01*
X168778946Y-111058285D01*
X169100853Y-111540054D01*
X169430026Y-111760000D01*
X169100853Y-111979946D01*
X168778946Y-112461715D01*
X168665907Y-113030000D01*
X168778946Y-113598285D01*
X169100853Y-114080054D01*
X169582622Y-114401961D01*
X170150907Y-114515000D01*
X170209093Y-114515000D01*
X170777378Y-114401961D01*
X171259147Y-114080054D01*
X171581054Y-113598285D01*
X171694093Y-113030000D01*
X171581054Y-112461715D01*
X171259147Y-111979946D01*
X170929974Y-111760000D01*
X171259147Y-111540054D01*
X171287416Y-111497745D01*
X185861861Y-111497745D01*
X185935995Y-111743864D01*
X186473223Y-111936965D01*
X187043454Y-111909778D01*
X187444005Y-111743864D01*
X187518139Y-111497745D01*
X186690000Y-110669605D01*
X185861861Y-111497745D01*
X171287416Y-111497745D01*
X171452954Y-111250000D01*
X172720000Y-111250000D01*
X173010839Y-111192148D01*
X173257401Y-111027401D01*
X174011579Y-110273223D01*
X185243035Y-110273223D01*
X185270222Y-110843454D01*
X185436136Y-111244005D01*
X185682255Y-111318139D01*
X186510395Y-110490000D01*
X186869605Y-110490000D01*
X187697745Y-111318139D01*
X187943864Y-111244005D01*
X188136965Y-110706777D01*
X188109778Y-110136546D01*
X187943864Y-109735995D01*
X187697745Y-109661861D01*
X186869605Y-110490000D01*
X186510395Y-110490000D01*
X185682255Y-109661861D01*
X185436136Y-109735995D01*
X185243035Y-110273223D01*
X174011579Y-110273223D01*
X177040000Y-107244802D01*
X177040000Y-108657537D01*
X177007808Y-108689673D01*
X176865162Y-109033201D01*
X176864838Y-109405167D01*
X177006883Y-109748943D01*
X177269673Y-110012192D01*
X177613201Y-110154838D01*
X177985167Y-110155162D01*
X178328943Y-110013117D01*
X178592192Y-109750327D01*
X178703505Y-109482255D01*
X185861861Y-109482255D01*
X186690000Y-110310395D01*
X187518139Y-109482255D01*
X187444005Y-109236136D01*
X186906777Y-109043035D01*
X186336546Y-109070222D01*
X185935995Y-109236136D01*
X185861861Y-109482255D01*
X178703505Y-109482255D01*
X178734838Y-109406799D01*
X178735162Y-109034833D01*
X178593117Y-108691057D01*
X178560000Y-108657882D01*
X178560000Y-108234187D01*
X190874752Y-108234187D01*
X191092757Y-108761800D01*
X191496077Y-109165824D01*
X192023309Y-109384750D01*
X192594187Y-109385248D01*
X193056287Y-109194312D01*
X193150302Y-109288327D01*
X193383691Y-109385000D01*
X194024250Y-109385000D01*
X194183000Y-109226250D01*
X194183000Y-108077000D01*
X194437000Y-108077000D01*
X194437000Y-109226250D01*
X194595750Y-109385000D01*
X195236309Y-109385000D01*
X195469698Y-109288327D01*
X195648327Y-109109699D01*
X195745000Y-108876310D01*
X195745000Y-108235750D01*
X195586250Y-108077000D01*
X194437000Y-108077000D01*
X194183000Y-108077000D01*
X194163000Y-108077000D01*
X194163000Y-107823000D01*
X194183000Y-107823000D01*
X194183000Y-106673750D01*
X194437000Y-106673750D01*
X194437000Y-107823000D01*
X195586250Y-107823000D01*
X195745000Y-107664250D01*
X195745000Y-107023690D01*
X195648327Y-106790301D01*
X195469698Y-106611673D01*
X195236309Y-106515000D01*
X194595750Y-106515000D01*
X194437000Y-106673750D01*
X194183000Y-106673750D01*
X194024250Y-106515000D01*
X193383691Y-106515000D01*
X193150302Y-106611673D01*
X193056002Y-106705973D01*
X192596691Y-106515250D01*
X192025813Y-106514752D01*
X191498200Y-106732757D01*
X191094176Y-107136077D01*
X190875250Y-107663309D01*
X190874752Y-108234187D01*
X178560000Y-108234187D01*
X178560000Y-105774187D01*
X185254752Y-105774187D01*
X185472757Y-106301800D01*
X185876077Y-106705824D01*
X186403309Y-106924750D01*
X186974187Y-106925248D01*
X187501800Y-106707243D01*
X187905824Y-106303923D01*
X188124750Y-105776691D01*
X188125248Y-105205813D01*
X187907243Y-104678200D01*
X187503923Y-104274176D01*
X186976691Y-104055250D01*
X186405813Y-104054752D01*
X185878200Y-104272757D01*
X185474176Y-104676077D01*
X185255250Y-105203309D01*
X185254752Y-105774187D01*
X178560000Y-105774187D01*
X178560000Y-100534187D01*
X185254752Y-100534187D01*
X185472757Y-101061800D01*
X185876077Y-101465824D01*
X186403309Y-101684750D01*
X186974187Y-101685248D01*
X187501800Y-101467243D01*
X187905824Y-101063923D01*
X188124750Y-100536691D01*
X188125248Y-99965813D01*
X187907243Y-99438200D01*
X187503923Y-99034176D01*
X186976691Y-98815250D01*
X186405813Y-98814752D01*
X185878200Y-99032757D01*
X185474176Y-99436077D01*
X185255250Y-99963309D01*
X185254752Y-100534187D01*
X178560000Y-100534187D01*
X178560000Y-93024802D01*
X179959635Y-91625167D01*
X181944838Y-91625167D01*
X182086883Y-91968943D01*
X182349673Y-92232192D01*
X182693201Y-92374838D01*
X183065167Y-92375162D01*
X183408943Y-92233117D01*
X183442118Y-92200000D01*
X185105198Y-92200000D01*
X185930000Y-93024802D01*
X185930000Y-94011354D01*
X185878200Y-94032757D01*
X185474176Y-94436077D01*
X185255250Y-94963309D01*
X185254752Y-95534187D01*
X185472757Y-96061800D01*
X185876077Y-96465824D01*
X186403309Y-96684750D01*
X186974187Y-96685248D01*
X187501800Y-96467243D01*
X187905824Y-96063923D01*
X188124750Y-95536691D01*
X188125248Y-94965813D01*
X187907243Y-94438200D01*
X187503923Y-94034176D01*
X187450000Y-94011785D01*
X187450000Y-92710000D01*
X187392148Y-92419161D01*
X187392148Y-92419160D01*
X187227401Y-92172599D01*
X185957401Y-90902599D01*
X185710839Y-90737852D01*
X185420000Y-90680000D01*
X183442463Y-90680000D01*
X183410327Y-90647808D01*
X183066799Y-90505162D01*
X182694833Y-90504838D01*
X182351057Y-90646883D01*
X182087808Y-90909673D01*
X181945162Y-91253201D01*
X181944838Y-91625167D01*
X179959635Y-91625167D01*
X183194802Y-88390000D01*
X187966699Y-88390000D01*
X188179946Y-88709147D01*
X188181179Y-88709971D01*
X188144683Y-88716838D01*
X187928559Y-88855910D01*
X187783569Y-89068110D01*
X187732560Y-89320000D01*
X187732560Y-91020000D01*
X187776838Y-91255317D01*
X187915910Y-91471441D01*
X188128110Y-91616431D01*
X188380000Y-91667440D01*
X188470000Y-91667440D01*
X188470000Y-97790000D01*
X188527852Y-98080839D01*
X188692599Y-98327401D01*
X196090000Y-105724802D01*
X196090000Y-108905198D01*
X193995198Y-111000000D01*
X189230000Y-111000000D01*
X188939160Y-111057852D01*
X188692599Y-111222599D01*
X187448659Y-112466539D01*
X187220327Y-112237808D01*
X186876799Y-112095162D01*
X186504833Y-112094838D01*
X186161057Y-112236883D01*
X186127882Y-112270000D01*
X179070000Y-112270000D01*
X178779161Y-112327852D01*
X178532599Y-112492599D01*
X172405198Y-118620000D01*
X163830000Y-118620000D01*
X163587414Y-118668254D01*
X163539160Y-118677852D01*
X163292599Y-118842599D01*
X160975198Y-121160000D01*
X159312463Y-121160000D01*
X159280327Y-121127808D01*
X158936799Y-120985162D01*
X158564833Y-120984838D01*
X158221057Y-121126883D01*
X157957808Y-121389673D01*
X157815162Y-121733201D01*
X157814838Y-122105167D01*
X157956883Y-122448943D01*
X158219673Y-122712192D01*
X158563201Y-122854838D01*
X158935167Y-122855162D01*
X159278943Y-122713117D01*
X159312118Y-122680000D01*
X161290000Y-122680000D01*
X161580839Y-122622148D01*
X161827401Y-122457401D01*
X164144802Y-120140000D01*
X167075198Y-120140000D01*
X165832599Y-121382599D01*
X165667852Y-121629161D01*
X165610000Y-121920000D01*
X165610000Y-129540000D01*
X165667852Y-129830839D01*
X165832599Y-130077401D01*
X166704878Y-130949680D01*
X166704838Y-130995167D01*
X166846883Y-131338943D01*
X167109673Y-131602192D01*
X167453201Y-131744838D01*
X167825167Y-131745162D01*
X168168943Y-131603117D01*
X168432192Y-131340327D01*
X168574838Y-130996799D01*
X168575162Y-130624833D01*
X168433117Y-130281057D01*
X168170327Y-130017808D01*
X167826799Y-129875162D01*
X167779923Y-129875121D01*
X167130000Y-129225198D01*
X167130000Y-122234802D01*
X167954802Y-121410000D01*
X200095198Y-121410000D01*
X198852599Y-122652599D01*
X198687852Y-122899161D01*
X198630000Y-123190000D01*
X198630000Y-123247005D01*
X198375302Y-123417189D01*
X198120000Y-123799275D01*
X197864698Y-123417189D01*
X197399151Y-123106120D01*
X196850000Y-122996887D01*
X196300849Y-123106120D01*
X195835302Y-123417189D01*
X195580000Y-123799275D01*
X195324698Y-123417189D01*
X194859151Y-123106120D01*
X194310000Y-122996887D01*
X193760849Y-123106120D01*
X193295302Y-123417189D01*
X193040000Y-123799275D01*
X192784698Y-123417189D01*
X192319151Y-123106120D01*
X191770000Y-122996887D01*
X191220849Y-123106120D01*
X190755302Y-123417189D01*
X190500000Y-123799275D01*
X190244698Y-123417189D01*
X189779151Y-123106120D01*
X189230000Y-122996887D01*
X188680849Y-123106120D01*
X188215302Y-123417189D01*
X187960000Y-123799275D01*
X187704698Y-123417189D01*
X187239151Y-123106120D01*
X186690000Y-122996887D01*
X186140849Y-123106120D01*
X185675302Y-123417189D01*
X185578899Y-123561465D01*
X185553162Y-123424683D01*
X185414090Y-123208559D01*
X185201890Y-123063569D01*
X184950000Y-123012560D01*
X183350000Y-123012560D01*
X183114683Y-123056838D01*
X182898559Y-123195910D01*
X182753569Y-123408110D01*
X182702560Y-123660000D01*
X182702560Y-125260000D01*
X182746838Y-125495317D01*
X182885910Y-125711441D01*
X183098110Y-125856431D01*
X183350000Y-125907440D01*
X184950000Y-125907440D01*
X185185317Y-125863162D01*
X185401441Y-125724090D01*
X185546431Y-125511890D01*
X185577815Y-125356911D01*
X185675302Y-125502811D01*
X186140849Y-125813880D01*
X186690000Y-125923113D01*
X187239151Y-125813880D01*
X187704698Y-125502811D01*
X187960000Y-125120725D01*
X188215302Y-125502811D01*
X188470000Y-125672995D01*
X188470000Y-126685198D01*
X187645198Y-127510000D01*
X185982463Y-127510000D01*
X185950327Y-127477808D01*
X185606799Y-127335162D01*
X185234833Y-127334838D01*
X184891057Y-127476883D01*
X184627808Y-127739673D01*
X184485162Y-128083201D01*
X184484838Y-128455167D01*
X184626883Y-128798943D01*
X184732710Y-128904954D01*
X184627808Y-129009673D01*
X184485162Y-129353201D01*
X184484838Y-129725167D01*
X184619056Y-130050000D01*
X170180000Y-130050000D01*
X169889160Y-130107852D01*
X169642599Y-130272599D01*
X168372599Y-131542599D01*
X168207852Y-131789161D01*
X168150678Y-132076593D01*
X167859946Y-132270853D01*
X167640000Y-132600026D01*
X167420054Y-132270853D01*
X166938285Y-131948946D01*
X166370000Y-131835907D01*
X165801715Y-131948946D01*
X165319946Y-132270853D01*
X165100000Y-132600026D01*
X164880054Y-132270853D01*
X164590000Y-132077046D01*
X164590000Y-127562463D01*
X164622192Y-127530327D01*
X164764838Y-127186799D01*
X164765162Y-126814833D01*
X164623117Y-126471057D01*
X164360327Y-126207808D01*
X164016799Y-126065162D01*
X163644833Y-126064838D01*
X163301057Y-126206883D01*
X163037808Y-126469673D01*
X162895162Y-126813201D01*
X162894838Y-127185167D01*
X163036883Y-127528943D01*
X163070000Y-127562118D01*
X163070000Y-130009367D01*
X162746799Y-129875162D01*
X162699923Y-129875121D01*
X162050000Y-129225198D01*
X162050000Y-127562463D01*
X162082192Y-127530327D01*
X162224838Y-127186799D01*
X162225162Y-126814833D01*
X162083117Y-126471057D01*
X161820327Y-126207808D01*
X161476799Y-126065162D01*
X161104833Y-126064838D01*
X160761057Y-126206883D01*
X160497808Y-126469673D01*
X160355162Y-126813201D01*
X160354838Y-127185167D01*
X160496883Y-127528943D01*
X160530000Y-127562118D01*
X160530000Y-129540000D01*
X160587852Y-129830839D01*
X160752599Y-130077401D01*
X161624878Y-130949680D01*
X161624838Y-130995167D01*
X161766883Y-131338943D01*
X162029673Y-131602192D01*
X162373201Y-131744838D01*
X162745167Y-131745162D01*
X163070000Y-131610944D01*
X163070000Y-132077046D01*
X162779946Y-132270853D01*
X162560000Y-132600026D01*
X162340054Y-132270853D01*
X161858285Y-131948946D01*
X161290000Y-131835907D01*
X160721715Y-131948946D01*
X160239946Y-132270853D01*
X160020000Y-132600026D01*
X159800054Y-132270853D01*
X159318285Y-131948946D01*
X158750000Y-131835907D01*
X158181715Y-131948946D01*
X157699946Y-132270853D01*
X157480000Y-132600026D01*
X157260054Y-132270853D01*
X156778285Y-131948946D01*
X156210000Y-131835907D01*
X155641715Y-131948946D01*
X155159946Y-132270853D01*
X154940000Y-132600026D01*
X154720054Y-132270853D01*
X154238285Y-131948946D01*
X153670000Y-131835907D01*
X153101715Y-131948946D01*
X152619946Y-132270853D01*
X152400000Y-132600026D01*
X152180054Y-132270853D01*
X151890000Y-132077046D01*
X151890000Y-131124802D01*
X152714802Y-130300000D01*
X158187537Y-130300000D01*
X158219673Y-130332192D01*
X158563201Y-130474838D01*
X158935167Y-130475162D01*
X159278943Y-130333117D01*
X159542192Y-130070327D01*
X159684838Y-129726799D01*
X159685162Y-129354833D01*
X159543117Y-129011057D01*
X159280327Y-128747808D01*
X158936799Y-128605162D01*
X158564833Y-128604838D01*
X158221057Y-128746883D01*
X158187882Y-128780000D01*
X152400000Y-128780000D01*
X152109160Y-128837852D01*
X151862599Y-129002599D01*
X150592599Y-130272599D01*
X150427852Y-130519161D01*
X150370000Y-130810000D01*
X150370000Y-132077046D01*
X150079946Y-132270853D01*
X149860000Y-132600026D01*
X149640054Y-132270853D01*
X149350000Y-132077046D01*
X149350000Y-123504802D01*
X150174802Y-122680000D01*
X153670000Y-122680000D01*
X153960839Y-122622148D01*
X154207401Y-122457401D01*
X159287401Y-117377401D01*
X159452148Y-117130839D01*
X159510000Y-116840000D01*
X159510000Y-114300000D01*
X159452148Y-114009161D01*
X159287401Y-113762599D01*
X158838989Y-113314187D01*
X159854752Y-113314187D01*
X160072757Y-113841800D01*
X160476077Y-114245824D01*
X161003309Y-114464750D01*
X161574187Y-114465248D01*
X162101800Y-114247243D01*
X162505824Y-113843923D01*
X162724750Y-113316691D01*
X162725248Y-112745813D01*
X162507243Y-112218200D01*
X162103923Y-111814176D01*
X161576691Y-111595250D01*
X161005813Y-111594752D01*
X160478200Y-111812757D01*
X160074176Y-112216077D01*
X159855250Y-112743309D01*
X159854752Y-113314187D01*
X158838989Y-113314187D01*
X154605122Y-109080320D01*
X154605159Y-109037745D01*
X160461861Y-109037745D01*
X160535995Y-109283864D01*
X161073223Y-109476965D01*
X161643454Y-109449778D01*
X162044005Y-109283864D01*
X162118139Y-109037745D01*
X161290000Y-108209605D01*
X160461861Y-109037745D01*
X154605159Y-109037745D01*
X154605162Y-109034833D01*
X154463117Y-108691057D01*
X154200327Y-108427808D01*
X153856799Y-108285162D01*
X153484833Y-108284838D01*
X153141057Y-108426883D01*
X153107882Y-108460000D01*
X151444802Y-108460000D01*
X150972026Y-107987224D01*
X151003000Y-107956250D01*
X151003000Y-106807000D01*
X151257000Y-106807000D01*
X151257000Y-107956250D01*
X151415750Y-108115000D01*
X152056310Y-108115000D01*
X152289699Y-108018327D01*
X152468327Y-107839698D01*
X152479293Y-107813223D01*
X159843035Y-107813223D01*
X159870222Y-108383454D01*
X160036136Y-108784005D01*
X160282255Y-108858139D01*
X161110395Y-108030000D01*
X161469605Y-108030000D01*
X162297745Y-108858139D01*
X162543864Y-108784005D01*
X162736965Y-108246777D01*
X162709778Y-107676546D01*
X162543864Y-107275995D01*
X162297745Y-107201861D01*
X161469605Y-108030000D01*
X161110395Y-108030000D01*
X160282255Y-107201861D01*
X160036136Y-107275995D01*
X159843035Y-107813223D01*
X152479293Y-107813223D01*
X152565000Y-107606309D01*
X152565000Y-107022255D01*
X160461861Y-107022255D01*
X161290000Y-107850395D01*
X162118139Y-107022255D01*
X162044005Y-106776136D01*
X161506777Y-106583035D01*
X160936546Y-106610222D01*
X160535995Y-106776136D01*
X160461861Y-107022255D01*
X152565000Y-107022255D01*
X152565000Y-106965750D01*
X152406250Y-106807000D01*
X151257000Y-106807000D01*
X151003000Y-106807000D01*
X150983000Y-106807000D01*
X150983000Y-106553000D01*
X151003000Y-106553000D01*
X151003000Y-105403750D01*
X151257000Y-105403750D01*
X151257000Y-106553000D01*
X152406250Y-106553000D01*
X152565000Y-106394250D01*
X152565000Y-105753691D01*
X152468327Y-105520302D01*
X152289699Y-105341673D01*
X152056310Y-105245000D01*
X151415750Y-105245000D01*
X151257000Y-105403750D01*
X151003000Y-105403750D01*
X150844250Y-105245000D01*
X150203690Y-105245000D01*
X149970301Y-105341673D01*
X149791673Y-105520302D01*
X149695000Y-105753691D01*
X149695000Y-105772335D01*
X149604698Y-105637189D01*
X149139151Y-105326120D01*
X148590000Y-105216887D01*
X148040849Y-105326120D01*
X147575302Y-105637189D01*
X147320000Y-106019275D01*
X147064698Y-105637189D01*
X146599151Y-105326120D01*
X146050000Y-105216887D01*
X145500849Y-105326120D01*
X145035302Y-105637189D01*
X144780000Y-106019275D01*
X144524698Y-105637189D01*
X144059151Y-105326120D01*
X143510000Y-105216887D01*
X142960849Y-105326120D01*
X142495302Y-105637189D01*
X142240000Y-106019275D01*
X141984698Y-105637189D01*
X141519151Y-105326120D01*
X140970000Y-105216887D01*
X140420849Y-105326120D01*
X139955302Y-105637189D01*
X139700000Y-106019275D01*
X139444698Y-105637189D01*
X138979151Y-105326120D01*
X138430000Y-105216887D01*
X137880849Y-105326120D01*
X137415302Y-105637189D01*
X137160000Y-106019275D01*
X136904698Y-105637189D01*
X136439151Y-105326120D01*
X135890000Y-105216887D01*
X135340849Y-105326120D01*
X134875302Y-105637189D01*
X134620000Y-106019275D01*
X134364698Y-105637189D01*
X133899151Y-105326120D01*
X133350000Y-105216887D01*
X132800849Y-105326120D01*
X132335302Y-105637189D01*
X132080000Y-106019275D01*
X131824698Y-105637189D01*
X131359151Y-105326120D01*
X130810000Y-105216887D01*
X130260849Y-105326120D01*
X129795302Y-105637189D01*
X129525014Y-106041703D01*
X129422389Y-105824866D01*
X129007423Y-105448959D01*
X128619039Y-105288096D01*
X128397000Y-105410085D01*
X128397000Y-106553000D01*
X128417000Y-106553000D01*
X128417000Y-106807000D01*
X128397000Y-106807000D01*
X128397000Y-107949915D01*
X128441071Y-107974127D01*
X127955198Y-108460000D01*
X124460000Y-108460000D01*
X124169160Y-108517852D01*
X123922599Y-108682599D01*
X121780320Y-110824878D01*
X121734833Y-110824838D01*
X121391057Y-110966883D01*
X121127808Y-111229673D01*
X120985162Y-111573201D01*
X120985121Y-111620077D01*
X118842599Y-113762599D01*
X118677852Y-114009161D01*
X118620000Y-114300000D01*
X118620000Y-116840000D01*
X118677852Y-117130839D01*
X118842599Y-117377401D01*
X123922599Y-122457401D01*
X124169161Y-122622148D01*
X124460000Y-122680000D01*
X129225198Y-122680000D01*
X130050000Y-123504802D01*
X130050000Y-132077046D01*
X129759946Y-132270853D01*
X129540000Y-132600026D01*
X129320054Y-132270853D01*
X128838285Y-131948946D01*
X128270000Y-131835907D01*
X127701715Y-131948946D01*
X127219946Y-132270853D01*
X127000000Y-132600026D01*
X126780054Y-132270853D01*
X126298285Y-131948946D01*
X125730000Y-131835907D01*
X125161715Y-131948946D01*
X124679946Y-132270853D01*
X124460000Y-132600026D01*
X124240054Y-132270853D01*
X123758285Y-131948946D01*
X123190000Y-131835907D01*
X122621715Y-131948946D01*
X122139946Y-132270853D01*
X121920000Y-132600026D01*
X121700054Y-132270853D01*
X121218285Y-131948946D01*
X120650000Y-131835907D01*
X120081715Y-131948946D01*
X119599946Y-132270853D01*
X119380000Y-132600026D01*
X119160054Y-132270853D01*
X118678285Y-131948946D01*
X118110000Y-131835907D01*
X117550000Y-131947298D01*
X117550000Y-107029041D01*
X126878086Y-107029041D01*
X127117611Y-107535134D01*
X127532577Y-107911041D01*
X127920961Y-108071904D01*
X128143000Y-107949915D01*
X128143000Y-106807000D01*
X126999371Y-106807000D01*
X126878086Y-107029041D01*
X117550000Y-107029041D01*
X117550000Y-106330959D01*
X126878086Y-106330959D01*
X126999371Y-106553000D01*
X128143000Y-106553000D01*
X128143000Y-105410085D01*
X127920961Y-105288096D01*
X127532577Y-105448959D01*
X127117611Y-105824866D01*
X126878086Y-106330959D01*
X117550000Y-106330959D01*
X117550000Y-104325167D01*
X151464838Y-104325167D01*
X151606883Y-104668943D01*
X151869673Y-104932192D01*
X152213201Y-105074838D01*
X152585167Y-105075162D01*
X152928943Y-104933117D01*
X152962118Y-104900000D01*
X164537537Y-104900000D01*
X164569673Y-104932192D01*
X164913201Y-105074838D01*
X165285167Y-105075162D01*
X165628943Y-104933117D01*
X165892192Y-104670327D01*
X166034838Y-104326799D01*
X166035162Y-103954833D01*
X165893117Y-103611057D01*
X165630327Y-103347808D01*
X165286799Y-103205162D01*
X164914833Y-103204838D01*
X164571057Y-103346883D01*
X164537882Y-103380000D01*
X152962463Y-103380000D01*
X152930327Y-103347808D01*
X152586799Y-103205162D01*
X152214833Y-103204838D01*
X151871057Y-103346883D01*
X151607808Y-103609673D01*
X151465162Y-103953201D01*
X151464838Y-104325167D01*
X117550000Y-104325167D01*
X117550000Y-98717745D01*
X121091861Y-98717745D01*
X121165995Y-98963864D01*
X121703223Y-99156965D01*
X122273454Y-99129778D01*
X122674005Y-98963864D01*
X122748139Y-98717745D01*
X121920000Y-97889605D01*
X121091861Y-98717745D01*
X117550000Y-98717745D01*
X117550000Y-97493223D01*
X120473035Y-97493223D01*
X120500222Y-98063454D01*
X120666136Y-98464005D01*
X120912255Y-98538139D01*
X121740395Y-97710000D01*
X122099605Y-97710000D01*
X122927745Y-98538139D01*
X123173864Y-98464005D01*
X123366965Y-97926777D01*
X123339778Y-97356546D01*
X123173864Y-96955995D01*
X122927745Y-96881861D01*
X122099605Y-97710000D01*
X121740395Y-97710000D01*
X120912255Y-96881861D01*
X120666136Y-96955995D01*
X120473035Y-97493223D01*
X117550000Y-97493223D01*
X117550000Y-96702255D01*
X121091861Y-96702255D01*
X121920000Y-97530395D01*
X122748139Y-96702255D01*
X122674005Y-96456136D01*
X122136777Y-96263035D01*
X121566546Y-96290222D01*
X121165995Y-96456136D01*
X121091861Y-96702255D01*
X117550000Y-96702255D01*
X117550000Y-92994187D01*
X120484752Y-92994187D01*
X120702757Y-93521800D01*
X121106077Y-93925824D01*
X121633309Y-94144750D01*
X122204187Y-94145248D01*
X122731800Y-93927243D01*
X123135824Y-93523923D01*
X123354750Y-92996691D01*
X123355248Y-92425813D01*
X123137243Y-91898200D01*
X122733923Y-91494176D01*
X122206691Y-91275250D01*
X121635813Y-91274752D01*
X121108200Y-91492757D01*
X120704176Y-91896077D01*
X120485250Y-92423309D01*
X120484752Y-92994187D01*
X117550000Y-92994187D01*
X117550000Y-85800000D01*
X164872560Y-85800000D01*
X164872560Y-87210000D01*
X164872560Y-87210000D01*
G37*
X164872560Y-87210000D02*
X164916838Y-87445317D01*
X165055910Y-87661441D01*
X165179388Y-87745810D01*
X162245198Y-90680000D01*
X159550633Y-90680000D01*
X159684838Y-90356799D01*
X159685162Y-89984833D01*
X159543117Y-89641057D01*
X159280327Y-89377808D01*
X158936799Y-89235162D01*
X158564833Y-89234838D01*
X158221057Y-89376883D01*
X158187882Y-89410000D01*
X137160000Y-89410000D01*
X136869160Y-89467852D01*
X136622599Y-89632599D01*
X135352599Y-90902599D01*
X135187852Y-91149161D01*
X135130000Y-91440000D01*
X135130000Y-91497005D01*
X134875302Y-91667189D01*
X134620000Y-92049275D01*
X134364698Y-91667189D01*
X133899151Y-91356120D01*
X133350000Y-91246887D01*
X132800849Y-91356120D01*
X132335302Y-91667189D01*
X132080000Y-92049275D01*
X131824698Y-91667189D01*
X131359151Y-91356120D01*
X130810000Y-91246887D01*
X130260849Y-91356120D01*
X129795302Y-91667189D01*
X129484233Y-92132736D01*
X129375000Y-92681887D01*
X129375000Y-92738113D01*
X129484233Y-93287264D01*
X129795302Y-93752811D01*
X130260849Y-94063880D01*
X130810000Y-94173113D01*
X131359151Y-94063880D01*
X131824698Y-93752811D01*
X132080000Y-93370725D01*
X132335302Y-93752811D01*
X132800849Y-94063880D01*
X133350000Y-94173113D01*
X133899151Y-94063880D01*
X134364698Y-93752811D01*
X134620000Y-93370725D01*
X134875302Y-93752811D01*
X135340849Y-94063880D01*
X135890000Y-94173113D01*
X136439151Y-94063880D01*
X136904698Y-93752811D01*
X137160000Y-93370725D01*
X137415302Y-93752811D01*
X137880849Y-94063880D01*
X138430000Y-94173113D01*
X138979151Y-94063880D01*
X139444698Y-93752811D01*
X139700000Y-93370725D01*
X139955302Y-93752811D01*
X140420849Y-94063880D01*
X140970000Y-94173113D01*
X141519151Y-94063880D01*
X141984698Y-93752811D01*
X142240000Y-93370725D01*
X142495302Y-93752811D01*
X142960849Y-94063880D01*
X143510000Y-94173113D01*
X144059151Y-94063880D01*
X144524698Y-93752811D01*
X144780000Y-93370725D01*
X145035302Y-93752811D01*
X145500849Y-94063880D01*
X146050000Y-94173113D01*
X146599151Y-94063880D01*
X147064698Y-93752811D01*
X147320000Y-93370725D01*
X147575302Y-93752811D01*
X148040849Y-94063880D01*
X148590000Y-94173113D01*
X149139151Y-94063880D01*
X149604698Y-93752811D01*
X149915767Y-93287264D01*
X150025000Y-92738113D01*
X150025000Y-92681887D01*
X149915767Y-92132736D01*
X149604698Y-91667189D01*
X149139151Y-91356120D01*
X148590000Y-91246887D01*
X148040849Y-91356120D01*
X147575302Y-91667189D01*
X147320000Y-92049275D01*
X147064698Y-91667189D01*
X146599151Y-91356120D01*
X146050000Y-91246887D01*
X145500849Y-91356120D01*
X145035302Y-91667189D01*
X144780000Y-92049275D01*
X144524698Y-91667189D01*
X144059151Y-91356120D01*
X143510000Y-91246887D01*
X142960849Y-91356120D01*
X142495302Y-91667189D01*
X142240000Y-92049275D01*
X141984698Y-91667189D01*
X141519151Y-91356120D01*
X140970000Y-91246887D01*
X140420849Y-91356120D01*
X139955302Y-91667189D01*
X139700000Y-92049275D01*
X139444698Y-91667189D01*
X138979151Y-91356120D01*
X138430000Y-91246887D01*
X137880849Y-91356120D01*
X137415302Y-91667189D01*
X137160000Y-92049275D01*
X136904698Y-91667189D01*
X136804538Y-91600264D01*
X137474802Y-90930000D01*
X153105198Y-90930000D01*
X149545198Y-94490000D01*
X147320000Y-94490000D01*
X147029160Y-94547852D01*
X146782599Y-94712599D01*
X145512599Y-95982599D01*
X145347852Y-96229161D01*
X145290000Y-96520000D01*
X145290000Y-99117005D01*
X145035302Y-99287189D01*
X144780000Y-99669275D01*
X144524698Y-99287189D01*
X144059151Y-98976120D01*
X143510000Y-98866887D01*
X142960849Y-98976120D01*
X142495302Y-99287189D01*
X142240000Y-99669275D01*
X141984698Y-99287189D01*
X141519151Y-98976120D01*
X140970000Y-98866887D01*
X140420849Y-98976120D01*
X139955302Y-99287189D01*
X139700000Y-99669275D01*
X139444698Y-99287189D01*
X138979151Y-98976120D01*
X138430000Y-98866887D01*
X137880849Y-98976120D01*
X137415302Y-99287189D01*
X137160000Y-99669275D01*
X136904698Y-99287189D01*
X136439151Y-98976120D01*
X135890000Y-98866887D01*
X135340849Y-98976120D01*
X134875302Y-99287189D01*
X134620000Y-99669275D01*
X134364698Y-99287189D01*
X133899151Y-98976120D01*
X133350000Y-98866887D01*
X132800849Y-98976120D01*
X132335302Y-99287189D01*
X132238899Y-99431465D01*
X132213162Y-99294683D01*
X132074090Y-99078559D01*
X131861890Y-98933569D01*
X131610000Y-98882560D01*
X130010000Y-98882560D01*
X129774683Y-98926838D01*
X129558559Y-99065910D01*
X129413569Y-99278110D01*
X129362560Y-99530000D01*
X129362560Y-101130000D01*
X129406838Y-101365317D01*
X129545910Y-101581441D01*
X129758110Y-101726431D01*
X130010000Y-101777440D01*
X131610000Y-101777440D01*
X131845317Y-101733162D01*
X132061441Y-101594090D01*
X132206431Y-101381890D01*
X132237815Y-101226911D01*
X132335302Y-101372811D01*
X132800849Y-101683880D01*
X133350000Y-101793113D01*
X133899151Y-101683880D01*
X134364698Y-101372811D01*
X134620000Y-100990725D01*
X134875302Y-101372811D01*
X135340849Y-101683880D01*
X135890000Y-101793113D01*
X136439151Y-101683880D01*
X136904698Y-101372811D01*
X137160000Y-100990725D01*
X137415302Y-101372811D01*
X137880849Y-101683880D01*
X138430000Y-101793113D01*
X138979151Y-101683880D01*
X139444698Y-101372811D01*
X139700000Y-100990725D01*
X139955302Y-101372811D01*
X140420849Y-101683880D01*
X140970000Y-101793113D01*
X141519151Y-101683880D01*
X141984698Y-101372811D01*
X142240000Y-100990725D01*
X142495302Y-101372811D01*
X142960849Y-101683880D01*
X143510000Y-101793113D01*
X144059151Y-101683880D01*
X144524698Y-101372811D01*
X144780000Y-100990725D01*
X145035302Y-101372811D01*
X145500849Y-101683880D01*
X146050000Y-101793113D01*
X146599151Y-101683880D01*
X147064698Y-101372811D01*
X147334986Y-100968297D01*
X147437611Y-101185134D01*
X147852577Y-101561041D01*
X148240961Y-101721904D01*
X148463000Y-101599915D01*
X148463000Y-100457000D01*
X148717000Y-100457000D01*
X148717000Y-101599915D01*
X148939039Y-101721904D01*
X149327423Y-101561041D01*
X149637915Y-101279774D01*
X160519831Y-101279774D01*
X160584131Y-101517611D01*
X161092342Y-101697333D01*
X161630644Y-101668892D01*
X161995869Y-101517611D01*
X162060169Y-101279774D01*
X161290000Y-100509605D01*
X160519831Y-101279774D01*
X149637915Y-101279774D01*
X149742389Y-101185134D01*
X149981914Y-100679041D01*
X149860629Y-100457000D01*
X148717000Y-100457000D01*
X148463000Y-100457000D01*
X148443000Y-100457000D01*
X148443000Y-100203000D01*
X148463000Y-100203000D01*
X148463000Y-99060085D01*
X148717000Y-99060085D01*
X148717000Y-100203000D01*
X149860629Y-100203000D01*
X149899224Y-100132342D01*
X159922667Y-100132342D01*
X159951108Y-100670644D01*
X160102389Y-101035869D01*
X160340226Y-101100169D01*
X161110395Y-100330000D01*
X161469605Y-100330000D01*
X162239774Y-101100169D01*
X162477611Y-101035869D01*
X162657333Y-100527658D01*
X162628892Y-99989356D01*
X162477611Y-99624131D01*
X162239774Y-99559831D01*
X161469605Y-100330000D01*
X161110395Y-100330000D01*
X160340226Y-99559831D01*
X160102389Y-99624131D01*
X159922667Y-100132342D01*
X149899224Y-100132342D01*
X149981914Y-99980959D01*
X149742389Y-99474866D01*
X149327423Y-99098959D01*
X148939039Y-98938096D01*
X148717000Y-99060085D01*
X148463000Y-99060085D01*
X148240961Y-98938096D01*
X147852577Y-99098959D01*
X147437611Y-99474866D01*
X147334986Y-99691703D01*
X147064698Y-99287189D01*
X146810000Y-99117005D01*
X146810000Y-96834802D01*
X147634802Y-96010000D01*
X149860000Y-96010000D01*
X150150839Y-95952148D01*
X150397401Y-95787401D01*
X153984802Y-92200000D01*
X164299367Y-92200000D01*
X164165162Y-92523201D01*
X164165121Y-92570077D01*
X162345644Y-94389554D01*
X162058548Y-94101957D01*
X161560709Y-93895236D01*
X161021656Y-93894765D01*
X160523457Y-94100617D01*
X160141957Y-94481452D01*
X159935236Y-94979291D01*
X159934765Y-95518344D01*
X160140617Y-96016543D01*
X160521452Y-96398043D01*
X160815264Y-96520045D01*
X160523457Y-96640617D01*
X160141957Y-97021452D01*
X159935236Y-97519291D01*
X159934765Y-98058344D01*
X160140617Y-98556543D01*
X160521452Y-98938043D01*
X160799116Y-99053339D01*
X160584131Y-99142389D01*
X160519831Y-99380226D01*
X161290000Y-100150395D01*
X162060169Y-99380226D01*
X161995869Y-99142389D01*
X161763828Y-99060331D01*
X162056543Y-98939383D01*
X162438043Y-98558548D01*
X162644764Y-98060709D01*
X162645235Y-97521656D01*
X162439383Y-97023457D01*
X162058548Y-96641957D01*
X161764736Y-96519955D01*
X162056543Y-96399383D01*
X162438043Y-96018548D01*
X162441592Y-96010000D01*
X162560000Y-96010000D01*
X162850839Y-95952148D01*
X163097401Y-95787401D01*
X163634802Y-95250000D01*
X168665907Y-95250000D01*
X168778946Y-95818285D01*
X169100853Y-96300054D01*
X169430026Y-96520000D01*
X169100853Y-96739946D01*
X168778946Y-97221715D01*
X168665907Y-97790000D01*
X168778946Y-98358285D01*
X169100853Y-98840054D01*
X169441553Y-99067702D01*
X169298642Y-99134817D01*
X168908355Y-99563076D01*
X168738524Y-99973110D01*
X168859845Y-100203000D01*
X170053000Y-100203000D01*
X170053000Y-100183000D01*
X170307000Y-100183000D01*
X170307000Y-100203000D01*
X171500155Y-100203000D01*
X171621476Y-99973110D01*
X171451645Y-99563076D01*
X171061358Y-99134817D01*
X170918447Y-99067702D01*
X171259147Y-98840054D01*
X171581054Y-98358285D01*
X171694093Y-97790000D01*
X171581054Y-97221715D01*
X171259147Y-96739946D01*
X170929974Y-96520000D01*
X171259147Y-96300054D01*
X171581054Y-95818285D01*
X171694093Y-95250000D01*
X171581054Y-94681715D01*
X171259147Y-94199946D01*
X171217548Y-94172150D01*
X171265317Y-94163162D01*
X171481441Y-94024090D01*
X171626431Y-93811890D01*
X171677440Y-93560000D01*
X171677440Y-91860000D01*
X171633162Y-91624683D01*
X171494090Y-91408559D01*
X171281890Y-91263569D01*
X171030000Y-91212560D01*
X169330000Y-91212560D01*
X169094683Y-91256838D01*
X168878559Y-91395910D01*
X168733569Y-91608110D01*
X168682560Y-91860000D01*
X168682560Y-93560000D01*
X168726838Y-93795317D01*
X168865910Y-94011441D01*
X169078110Y-94156431D01*
X169145541Y-94170086D01*
X169100853Y-94199946D01*
X168778946Y-94681715D01*
X168665907Y-95250000D01*
X163634802Y-95250000D01*
X165239680Y-93645122D01*
X165285167Y-93645162D01*
X165628943Y-93503117D01*
X165892192Y-93240327D01*
X166034838Y-92896799D01*
X166035162Y-92524833D01*
X165929690Y-92269570D01*
X166183201Y-92374838D01*
X166555167Y-92375162D01*
X166898943Y-92233117D01*
X167162192Y-91970327D01*
X167304838Y-91626799D01*
X167305162Y-91254833D01*
X167163117Y-90911057D01*
X166900327Y-90647808D01*
X166556799Y-90505162D01*
X166184833Y-90504838D01*
X165841057Y-90646883D01*
X165807882Y-90680000D01*
X164394802Y-90680000D01*
X166907401Y-88167401D01*
X167072148Y-87920839D01*
X167084759Y-87857440D01*
X167220000Y-87857440D01*
X167455317Y-87813162D01*
X167671441Y-87674090D01*
X167816431Y-87461890D01*
X167838301Y-87353893D01*
X168143076Y-87631645D01*
X168553110Y-87801476D01*
X168783000Y-87680155D01*
X168783000Y-86487000D01*
X169037000Y-86487000D01*
X169037000Y-87680155D01*
X169266890Y-87801476D01*
X169676924Y-87631645D01*
X170105183Y-87241358D01*
X170351486Y-86716892D01*
X170230819Y-86487000D01*
X169037000Y-86487000D01*
X168783000Y-86487000D01*
X168763000Y-86487000D01*
X168763000Y-86233000D01*
X168783000Y-86233000D01*
X168783000Y-86213000D01*
X169037000Y-86213000D01*
X169037000Y-86233000D01*
X170230819Y-86233000D01*
X170351486Y-86003108D01*
X170256101Y-85800000D01*
X172492560Y-85800000D01*
X172492560Y-87210000D01*
X172536838Y-87445317D01*
X172675910Y-87661441D01*
X172888110Y-87806431D01*
X173140000Y-87857440D01*
X173230000Y-87857440D01*
X173230000Y-103825198D01*
X172405198Y-104650000D01*
X171452954Y-104650000D01*
X171259147Y-104359946D01*
X170929974Y-104140000D01*
X171259147Y-103920054D01*
X171581054Y-103438285D01*
X171694093Y-102870000D01*
X171581054Y-102301715D01*
X171259147Y-101819946D01*
X170918447Y-101592298D01*
X171061358Y-101525183D01*
X171451645Y-101096924D01*
X171621476Y-100686890D01*
X171500155Y-100457000D01*
X170307000Y-100457000D01*
X170307000Y-100477000D01*
X170053000Y-100477000D01*
X170053000Y-100457000D01*
X168859845Y-100457000D01*
X168738524Y-100686890D01*
X168908355Y-101096924D01*
X169298642Y-101525183D01*
X169441553Y-101592298D01*
X169100853Y-101819946D01*
X168778946Y-102301715D01*
X168665907Y-102870000D01*
X168778946Y-103438285D01*
X169100853Y-103920054D01*
X169430026Y-104140000D01*
X169100853Y-104359946D01*
X168778946Y-104841715D01*
X168665907Y-105410000D01*
X168778946Y-105978285D01*
X169100853Y-106460054D01*
X169441553Y-106687702D01*
X169298642Y-106754817D01*
X168908355Y-107183076D01*
X168738524Y-107593110D01*
X168859845Y-107823000D01*
X170053000Y-107823000D01*
X170053000Y-107803000D01*
X170307000Y-107803000D01*
X170307000Y-107823000D01*
X171500155Y-107823000D01*
X171621476Y-107593110D01*
X171451645Y-107183076D01*
X171061358Y-106754817D01*
X170918447Y-106687702D01*
X171259147Y-106460054D01*
X171452954Y-106170000D01*
X172720000Y-106170000D01*
X173010839Y-106112148D01*
X173257401Y-105947401D01*
X174527401Y-104677401D01*
X174692148Y-104430840D01*
X174750000Y-104140000D01*
X174750000Y-87857440D01*
X174840000Y-87857440D01*
X175075317Y-87813162D01*
X175291441Y-87674090D01*
X175436431Y-87461890D01*
X175450086Y-87394459D01*
X175479946Y-87439147D01*
X175770000Y-87632954D01*
X175770000Y-106365198D01*
X172405198Y-109730000D01*
X171452954Y-109730000D01*
X171259147Y-109439946D01*
X170918447Y-109212298D01*
X171061358Y-109145183D01*
X171451645Y-108716924D01*
X171621476Y-108306890D01*
X171500155Y-108077000D01*
X170307000Y-108077000D01*
X170307000Y-108097000D01*
X170053000Y-108097000D01*
X170053000Y-108077000D01*
X168859845Y-108077000D01*
X168738524Y-108306890D01*
X168908355Y-108716924D01*
X169298642Y-109145183D01*
X169441553Y-109212298D01*
X169100853Y-109439946D01*
X168778946Y-109921715D01*
X168665907Y-110490000D01*
X168778946Y-111058285D01*
X169100853Y-111540054D01*
X169430026Y-111760000D01*
X169100853Y-111979946D01*
X168778946Y-112461715D01*
X168665907Y-113030000D01*
X168778946Y-113598285D01*
X169100853Y-114080054D01*
X169582622Y-114401961D01*
X170150907Y-114515000D01*
X170209093Y-114515000D01*
X170777378Y-114401961D01*
X171259147Y-114080054D01*
X171581054Y-113598285D01*
X171694093Y-113030000D01*
X171581054Y-112461715D01*
X171259147Y-111979946D01*
X170929974Y-111760000D01*
X171259147Y-111540054D01*
X171287416Y-111497745D01*
X185861861Y-111497745D01*
X185935995Y-111743864D01*
X186473223Y-111936965D01*
X187043454Y-111909778D01*
X187444005Y-111743864D01*
X187518139Y-111497745D01*
X186690000Y-110669605D01*
X185861861Y-111497745D01*
X171287416Y-111497745D01*
X171452954Y-111250000D01*
X172720000Y-111250000D01*
X173010839Y-111192148D01*
X173257401Y-111027401D01*
X174011579Y-110273223D01*
X185243035Y-110273223D01*
X185270222Y-110843454D01*
X185436136Y-111244005D01*
X185682255Y-111318139D01*
X186510395Y-110490000D01*
X186869605Y-110490000D01*
X187697745Y-111318139D01*
X187943864Y-111244005D01*
X188136965Y-110706777D01*
X188109778Y-110136546D01*
X187943864Y-109735995D01*
X187697745Y-109661861D01*
X186869605Y-110490000D01*
X186510395Y-110490000D01*
X185682255Y-109661861D01*
X185436136Y-109735995D01*
X185243035Y-110273223D01*
X174011579Y-110273223D01*
X177040000Y-107244802D01*
X177040000Y-108657537D01*
X177007808Y-108689673D01*
X176865162Y-109033201D01*
X176864838Y-109405167D01*
X177006883Y-109748943D01*
X177269673Y-110012192D01*
X177613201Y-110154838D01*
X177985167Y-110155162D01*
X178328943Y-110013117D01*
X178592192Y-109750327D01*
X178703505Y-109482255D01*
X185861861Y-109482255D01*
X186690000Y-110310395D01*
X187518139Y-109482255D01*
X187444005Y-109236136D01*
X186906777Y-109043035D01*
X186336546Y-109070222D01*
X185935995Y-109236136D01*
X185861861Y-109482255D01*
X178703505Y-109482255D01*
X178734838Y-109406799D01*
X178735162Y-109034833D01*
X178593117Y-108691057D01*
X178560000Y-108657882D01*
X178560000Y-108234187D01*
X190874752Y-108234187D01*
X191092757Y-108761800D01*
X191496077Y-109165824D01*
X192023309Y-109384750D01*
X192594187Y-109385248D01*
X193056287Y-109194312D01*
X193150302Y-109288327D01*
X193383691Y-109385000D01*
X194024250Y-109385000D01*
X194183000Y-109226250D01*
X194183000Y-108077000D01*
X194437000Y-108077000D01*
X194437000Y-109226250D01*
X194595750Y-109385000D01*
X195236309Y-109385000D01*
X195469698Y-109288327D01*
X195648327Y-109109699D01*
X195745000Y-108876310D01*
X195745000Y-108235750D01*
X195586250Y-108077000D01*
X194437000Y-108077000D01*
X194183000Y-108077000D01*
X194163000Y-108077000D01*
X194163000Y-107823000D01*
X194183000Y-107823000D01*
X194183000Y-106673750D01*
X194437000Y-106673750D01*
X194437000Y-107823000D01*
X195586250Y-107823000D01*
X195745000Y-107664250D01*
X195745000Y-107023690D01*
X195648327Y-106790301D01*
X195469698Y-106611673D01*
X195236309Y-106515000D01*
X194595750Y-106515000D01*
X194437000Y-106673750D01*
X194183000Y-106673750D01*
X194024250Y-106515000D01*
X193383691Y-106515000D01*
X193150302Y-106611673D01*
X193056002Y-106705973D01*
X192596691Y-106515250D01*
X192025813Y-106514752D01*
X191498200Y-106732757D01*
X191094176Y-107136077D01*
X190875250Y-107663309D01*
X190874752Y-108234187D01*
X178560000Y-108234187D01*
X178560000Y-105774187D01*
X185254752Y-105774187D01*
X185472757Y-106301800D01*
X185876077Y-106705824D01*
X186403309Y-106924750D01*
X186974187Y-106925248D01*
X187501800Y-106707243D01*
X187905824Y-106303923D01*
X188124750Y-105776691D01*
X188125248Y-105205813D01*
X187907243Y-104678200D01*
X187503923Y-104274176D01*
X186976691Y-104055250D01*
X186405813Y-104054752D01*
X185878200Y-104272757D01*
X185474176Y-104676077D01*
X185255250Y-105203309D01*
X185254752Y-105774187D01*
X178560000Y-105774187D01*
X178560000Y-100534187D01*
X185254752Y-100534187D01*
X185472757Y-101061800D01*
X185876077Y-101465824D01*
X186403309Y-101684750D01*
X186974187Y-101685248D01*
X187501800Y-101467243D01*
X187905824Y-101063923D01*
X188124750Y-100536691D01*
X188125248Y-99965813D01*
X187907243Y-99438200D01*
X187503923Y-99034176D01*
X186976691Y-98815250D01*
X186405813Y-98814752D01*
X185878200Y-99032757D01*
X185474176Y-99436077D01*
X185255250Y-99963309D01*
X185254752Y-100534187D01*
X178560000Y-100534187D01*
X178560000Y-93024802D01*
X179959635Y-91625167D01*
X181944838Y-91625167D01*
X182086883Y-91968943D01*
X182349673Y-92232192D01*
X182693201Y-92374838D01*
X183065167Y-92375162D01*
X183408943Y-92233117D01*
X183442118Y-92200000D01*
X185105198Y-92200000D01*
X185930000Y-93024802D01*
X185930000Y-94011354D01*
X185878200Y-94032757D01*
X185474176Y-94436077D01*
X185255250Y-94963309D01*
X185254752Y-95534187D01*
X185472757Y-96061800D01*
X185876077Y-96465824D01*
X186403309Y-96684750D01*
X186974187Y-96685248D01*
X187501800Y-96467243D01*
X187905824Y-96063923D01*
X188124750Y-95536691D01*
X188125248Y-94965813D01*
X187907243Y-94438200D01*
X187503923Y-94034176D01*
X187450000Y-94011785D01*
X187450000Y-92710000D01*
X187392148Y-92419161D01*
X187392148Y-92419160D01*
X187227401Y-92172599D01*
X185957401Y-90902599D01*
X185710839Y-90737852D01*
X185420000Y-90680000D01*
X183442463Y-90680000D01*
X183410327Y-90647808D01*
X183066799Y-90505162D01*
X182694833Y-90504838D01*
X182351057Y-90646883D01*
X182087808Y-90909673D01*
X181945162Y-91253201D01*
X181944838Y-91625167D01*
X179959635Y-91625167D01*
X183194802Y-88390000D01*
X187966699Y-88390000D01*
X188179946Y-88709147D01*
X188181179Y-88709971D01*
X188144683Y-88716838D01*
X187928559Y-88855910D01*
X187783569Y-89068110D01*
X187732560Y-89320000D01*
X187732560Y-91020000D01*
X187776838Y-91255317D01*
X187915910Y-91471441D01*
X188128110Y-91616431D01*
X188380000Y-91667440D01*
X188470000Y-91667440D01*
X188470000Y-97790000D01*
X188527852Y-98080839D01*
X188692599Y-98327401D01*
X196090000Y-105724802D01*
X196090000Y-108905198D01*
X193995198Y-111000000D01*
X189230000Y-111000000D01*
X188939160Y-111057852D01*
X188692599Y-111222599D01*
X187448659Y-112466539D01*
X187220327Y-112237808D01*
X186876799Y-112095162D01*
X186504833Y-112094838D01*
X186161057Y-112236883D01*
X186127882Y-112270000D01*
X179070000Y-112270000D01*
X178779161Y-112327852D01*
X178532599Y-112492599D01*
X172405198Y-118620000D01*
X163830000Y-118620000D01*
X163587414Y-118668254D01*
X163539160Y-118677852D01*
X163292599Y-118842599D01*
X160975198Y-121160000D01*
X159312463Y-121160000D01*
X159280327Y-121127808D01*
X158936799Y-120985162D01*
X158564833Y-120984838D01*
X158221057Y-121126883D01*
X157957808Y-121389673D01*
X157815162Y-121733201D01*
X157814838Y-122105167D01*
X157956883Y-122448943D01*
X158219673Y-122712192D01*
X158563201Y-122854838D01*
X158935167Y-122855162D01*
X159278943Y-122713117D01*
X159312118Y-122680000D01*
X161290000Y-122680000D01*
X161580839Y-122622148D01*
X161827401Y-122457401D01*
X164144802Y-120140000D01*
X167075198Y-120140000D01*
X165832599Y-121382599D01*
X165667852Y-121629161D01*
X165610000Y-121920000D01*
X165610000Y-129540000D01*
X165667852Y-129830839D01*
X165832599Y-130077401D01*
X166704878Y-130949680D01*
X166704838Y-130995167D01*
X166846883Y-131338943D01*
X167109673Y-131602192D01*
X167453201Y-131744838D01*
X167825167Y-131745162D01*
X168168943Y-131603117D01*
X168432192Y-131340327D01*
X168574838Y-130996799D01*
X168575162Y-130624833D01*
X168433117Y-130281057D01*
X168170327Y-130017808D01*
X167826799Y-129875162D01*
X167779923Y-129875121D01*
X167130000Y-129225198D01*
X167130000Y-122234802D01*
X167954802Y-121410000D01*
X200095198Y-121410000D01*
X198852599Y-122652599D01*
X198687852Y-122899161D01*
X198630000Y-123190000D01*
X198630000Y-123247005D01*
X198375302Y-123417189D01*
X198120000Y-123799275D01*
X197864698Y-123417189D01*
X197399151Y-123106120D01*
X196850000Y-122996887D01*
X196300849Y-123106120D01*
X195835302Y-123417189D01*
X195580000Y-123799275D01*
X195324698Y-123417189D01*
X194859151Y-123106120D01*
X194310000Y-122996887D01*
X193760849Y-123106120D01*
X193295302Y-123417189D01*
X193040000Y-123799275D01*
X192784698Y-123417189D01*
X192319151Y-123106120D01*
X191770000Y-122996887D01*
X191220849Y-123106120D01*
X190755302Y-123417189D01*
X190500000Y-123799275D01*
X190244698Y-123417189D01*
X189779151Y-123106120D01*
X189230000Y-122996887D01*
X188680849Y-123106120D01*
X188215302Y-123417189D01*
X187960000Y-123799275D01*
X187704698Y-123417189D01*
X187239151Y-123106120D01*
X186690000Y-122996887D01*
X186140849Y-123106120D01*
X185675302Y-123417189D01*
X185578899Y-123561465D01*
X185553162Y-123424683D01*
X185414090Y-123208559D01*
X185201890Y-123063569D01*
X184950000Y-123012560D01*
X183350000Y-123012560D01*
X183114683Y-123056838D01*
X182898559Y-123195910D01*
X182753569Y-123408110D01*
X182702560Y-123660000D01*
X182702560Y-125260000D01*
X182746838Y-125495317D01*
X182885910Y-125711441D01*
X183098110Y-125856431D01*
X183350000Y-125907440D01*
X184950000Y-125907440D01*
X185185317Y-125863162D01*
X185401441Y-125724090D01*
X185546431Y-125511890D01*
X185577815Y-125356911D01*
X185675302Y-125502811D01*
X186140849Y-125813880D01*
X186690000Y-125923113D01*
X187239151Y-125813880D01*
X187704698Y-125502811D01*
X187960000Y-125120725D01*
X188215302Y-125502811D01*
X188470000Y-125672995D01*
X188470000Y-126685198D01*
X187645198Y-127510000D01*
X185982463Y-127510000D01*
X185950327Y-127477808D01*
X185606799Y-127335162D01*
X185234833Y-127334838D01*
X184891057Y-127476883D01*
X184627808Y-127739673D01*
X184485162Y-128083201D01*
X184484838Y-128455167D01*
X184626883Y-128798943D01*
X184732710Y-128904954D01*
X184627808Y-129009673D01*
X184485162Y-129353201D01*
X184484838Y-129725167D01*
X184619056Y-130050000D01*
X170180000Y-130050000D01*
X169889160Y-130107852D01*
X169642599Y-130272599D01*
X168372599Y-131542599D01*
X168207852Y-131789161D01*
X168150678Y-132076593D01*
X167859946Y-132270853D01*
X167640000Y-132600026D01*
X167420054Y-132270853D01*
X166938285Y-131948946D01*
X166370000Y-131835907D01*
X165801715Y-131948946D01*
X165319946Y-132270853D01*
X165100000Y-132600026D01*
X164880054Y-132270853D01*
X164590000Y-132077046D01*
X164590000Y-127562463D01*
X164622192Y-127530327D01*
X164764838Y-127186799D01*
X164765162Y-126814833D01*
X164623117Y-126471057D01*
X164360327Y-126207808D01*
X164016799Y-126065162D01*
X163644833Y-126064838D01*
X163301057Y-126206883D01*
X163037808Y-126469673D01*
X162895162Y-126813201D01*
X162894838Y-127185167D01*
X163036883Y-127528943D01*
X163070000Y-127562118D01*
X163070000Y-130009367D01*
X162746799Y-129875162D01*
X162699923Y-129875121D01*
X162050000Y-129225198D01*
X162050000Y-127562463D01*
X162082192Y-127530327D01*
X162224838Y-127186799D01*
X162225162Y-126814833D01*
X162083117Y-126471057D01*
X161820327Y-126207808D01*
X161476799Y-126065162D01*
X161104833Y-126064838D01*
X160761057Y-126206883D01*
X160497808Y-126469673D01*
X160355162Y-126813201D01*
X160354838Y-127185167D01*
X160496883Y-127528943D01*
X160530000Y-127562118D01*
X160530000Y-129540000D01*
X160587852Y-129830839D01*
X160752599Y-130077401D01*
X161624878Y-130949680D01*
X161624838Y-130995167D01*
X161766883Y-131338943D01*
X162029673Y-131602192D01*
X162373201Y-131744838D01*
X162745167Y-131745162D01*
X163070000Y-131610944D01*
X163070000Y-132077046D01*
X162779946Y-132270853D01*
X162560000Y-132600026D01*
X162340054Y-132270853D01*
X161858285Y-131948946D01*
X161290000Y-131835907D01*
X160721715Y-131948946D01*
X160239946Y-132270853D01*
X160020000Y-132600026D01*
X159800054Y-132270853D01*
X159318285Y-131948946D01*
X158750000Y-131835907D01*
X158181715Y-131948946D01*
X157699946Y-132270853D01*
X157480000Y-132600026D01*
X157260054Y-132270853D01*
X156778285Y-131948946D01*
X156210000Y-131835907D01*
X155641715Y-131948946D01*
X155159946Y-132270853D01*
X154940000Y-132600026D01*
X154720054Y-132270853D01*
X154238285Y-131948946D01*
X153670000Y-131835907D01*
X153101715Y-131948946D01*
X152619946Y-132270853D01*
X152400000Y-132600026D01*
X152180054Y-132270853D01*
X151890000Y-132077046D01*
X151890000Y-131124802D01*
X152714802Y-130300000D01*
X158187537Y-130300000D01*
X158219673Y-130332192D01*
X158563201Y-130474838D01*
X158935167Y-130475162D01*
X159278943Y-130333117D01*
X159542192Y-130070327D01*
X159684838Y-129726799D01*
X159685162Y-129354833D01*
X159543117Y-129011057D01*
X159280327Y-128747808D01*
X158936799Y-128605162D01*
X158564833Y-128604838D01*
X158221057Y-128746883D01*
X158187882Y-128780000D01*
X152400000Y-128780000D01*
X152109160Y-128837852D01*
X151862599Y-129002599D01*
X150592599Y-130272599D01*
X150427852Y-130519161D01*
X150370000Y-130810000D01*
X150370000Y-132077046D01*
X150079946Y-132270853D01*
X149860000Y-132600026D01*
X149640054Y-132270853D01*
X149350000Y-132077046D01*
X149350000Y-123504802D01*
X150174802Y-122680000D01*
X153670000Y-122680000D01*
X153960839Y-122622148D01*
X154207401Y-122457401D01*
X159287401Y-117377401D01*
X159452148Y-117130839D01*
X159510000Y-116840000D01*
X159510000Y-114300000D01*
X159452148Y-114009161D01*
X159287401Y-113762599D01*
X158838989Y-113314187D01*
X159854752Y-113314187D01*
X160072757Y-113841800D01*
X160476077Y-114245824D01*
X161003309Y-114464750D01*
X161574187Y-114465248D01*
X162101800Y-114247243D01*
X162505824Y-113843923D01*
X162724750Y-113316691D01*
X162725248Y-112745813D01*
X162507243Y-112218200D01*
X162103923Y-111814176D01*
X161576691Y-111595250D01*
X161005813Y-111594752D01*
X160478200Y-111812757D01*
X160074176Y-112216077D01*
X159855250Y-112743309D01*
X159854752Y-113314187D01*
X158838989Y-113314187D01*
X154605122Y-109080320D01*
X154605159Y-109037745D01*
X160461861Y-109037745D01*
X160535995Y-109283864D01*
X161073223Y-109476965D01*
X161643454Y-109449778D01*
X162044005Y-109283864D01*
X162118139Y-109037745D01*
X161290000Y-108209605D01*
X160461861Y-109037745D01*
X154605159Y-109037745D01*
X154605162Y-109034833D01*
X154463117Y-108691057D01*
X154200327Y-108427808D01*
X153856799Y-108285162D01*
X153484833Y-108284838D01*
X153141057Y-108426883D01*
X153107882Y-108460000D01*
X151444802Y-108460000D01*
X150972026Y-107987224D01*
X151003000Y-107956250D01*
X151003000Y-106807000D01*
X151257000Y-106807000D01*
X151257000Y-107956250D01*
X151415750Y-108115000D01*
X152056310Y-108115000D01*
X152289699Y-108018327D01*
X152468327Y-107839698D01*
X152479293Y-107813223D01*
X159843035Y-107813223D01*
X159870222Y-108383454D01*
X160036136Y-108784005D01*
X160282255Y-108858139D01*
X161110395Y-108030000D01*
X161469605Y-108030000D01*
X162297745Y-108858139D01*
X162543864Y-108784005D01*
X162736965Y-108246777D01*
X162709778Y-107676546D01*
X162543864Y-107275995D01*
X162297745Y-107201861D01*
X161469605Y-108030000D01*
X161110395Y-108030000D01*
X160282255Y-107201861D01*
X160036136Y-107275995D01*
X159843035Y-107813223D01*
X152479293Y-107813223D01*
X152565000Y-107606309D01*
X152565000Y-107022255D01*
X160461861Y-107022255D01*
X161290000Y-107850395D01*
X162118139Y-107022255D01*
X162044005Y-106776136D01*
X161506777Y-106583035D01*
X160936546Y-106610222D01*
X160535995Y-106776136D01*
X160461861Y-107022255D01*
X152565000Y-107022255D01*
X152565000Y-106965750D01*
X152406250Y-106807000D01*
X151257000Y-106807000D01*
X151003000Y-106807000D01*
X150983000Y-106807000D01*
X150983000Y-106553000D01*
X151003000Y-106553000D01*
X151003000Y-105403750D01*
X151257000Y-105403750D01*
X151257000Y-106553000D01*
X152406250Y-106553000D01*
X152565000Y-106394250D01*
X152565000Y-105753691D01*
X152468327Y-105520302D01*
X152289699Y-105341673D01*
X152056310Y-105245000D01*
X151415750Y-105245000D01*
X151257000Y-105403750D01*
X151003000Y-105403750D01*
X150844250Y-105245000D01*
X150203690Y-105245000D01*
X149970301Y-105341673D01*
X149791673Y-105520302D01*
X149695000Y-105753691D01*
X149695000Y-105772335D01*
X149604698Y-105637189D01*
X149139151Y-105326120D01*
X148590000Y-105216887D01*
X148040849Y-105326120D01*
X147575302Y-105637189D01*
X147320000Y-106019275D01*
X147064698Y-105637189D01*
X146599151Y-105326120D01*
X146050000Y-105216887D01*
X145500849Y-105326120D01*
X145035302Y-105637189D01*
X144780000Y-106019275D01*
X144524698Y-105637189D01*
X144059151Y-105326120D01*
X143510000Y-105216887D01*
X142960849Y-105326120D01*
X142495302Y-105637189D01*
X142240000Y-106019275D01*
X141984698Y-105637189D01*
X141519151Y-105326120D01*
X140970000Y-105216887D01*
X140420849Y-105326120D01*
X139955302Y-105637189D01*
X139700000Y-106019275D01*
X139444698Y-105637189D01*
X138979151Y-105326120D01*
X138430000Y-105216887D01*
X137880849Y-105326120D01*
X137415302Y-105637189D01*
X137160000Y-106019275D01*
X136904698Y-105637189D01*
X136439151Y-105326120D01*
X135890000Y-105216887D01*
X135340849Y-105326120D01*
X134875302Y-105637189D01*
X134620000Y-106019275D01*
X134364698Y-105637189D01*
X133899151Y-105326120D01*
X133350000Y-105216887D01*
X132800849Y-105326120D01*
X132335302Y-105637189D01*
X132080000Y-106019275D01*
X131824698Y-105637189D01*
X131359151Y-105326120D01*
X130810000Y-105216887D01*
X130260849Y-105326120D01*
X129795302Y-105637189D01*
X129525014Y-106041703D01*
X129422389Y-105824866D01*
X129007423Y-105448959D01*
X128619039Y-105288096D01*
X128397000Y-105410085D01*
X128397000Y-106553000D01*
X128417000Y-106553000D01*
X128417000Y-106807000D01*
X128397000Y-106807000D01*
X128397000Y-107949915D01*
X128441071Y-107974127D01*
X127955198Y-108460000D01*
X124460000Y-108460000D01*
X124169160Y-108517852D01*
X123922599Y-108682599D01*
X121780320Y-110824878D01*
X121734833Y-110824838D01*
X121391057Y-110966883D01*
X121127808Y-111229673D01*
X120985162Y-111573201D01*
X120985121Y-111620077D01*
X118842599Y-113762599D01*
X118677852Y-114009161D01*
X118620000Y-114300000D01*
X118620000Y-116840000D01*
X118677852Y-117130839D01*
X118842599Y-117377401D01*
X123922599Y-122457401D01*
X124169161Y-122622148D01*
X124460000Y-122680000D01*
X129225198Y-122680000D01*
X130050000Y-123504802D01*
X130050000Y-132077046D01*
X129759946Y-132270853D01*
X129540000Y-132600026D01*
X129320054Y-132270853D01*
X128838285Y-131948946D01*
X128270000Y-131835907D01*
X127701715Y-131948946D01*
X127219946Y-132270853D01*
X127000000Y-132600026D01*
X126780054Y-132270853D01*
X126298285Y-131948946D01*
X125730000Y-131835907D01*
X125161715Y-131948946D01*
X124679946Y-132270853D01*
X124460000Y-132600026D01*
X124240054Y-132270853D01*
X123758285Y-131948946D01*
X123190000Y-131835907D01*
X122621715Y-131948946D01*
X122139946Y-132270853D01*
X121920000Y-132600026D01*
X121700054Y-132270853D01*
X121218285Y-131948946D01*
X120650000Y-131835907D01*
X120081715Y-131948946D01*
X119599946Y-132270853D01*
X119380000Y-132600026D01*
X119160054Y-132270853D01*
X118678285Y-131948946D01*
X118110000Y-131835907D01*
X117550000Y-131947298D01*
X117550000Y-107029041D01*
X126878086Y-107029041D01*
X127117611Y-107535134D01*
X127532577Y-107911041D01*
X127920961Y-108071904D01*
X128143000Y-107949915D01*
X128143000Y-106807000D01*
X126999371Y-106807000D01*
X126878086Y-107029041D01*
X117550000Y-107029041D01*
X117550000Y-106330959D01*
X126878086Y-106330959D01*
X126999371Y-106553000D01*
X128143000Y-106553000D01*
X128143000Y-105410085D01*
X127920961Y-105288096D01*
X127532577Y-105448959D01*
X127117611Y-105824866D01*
X126878086Y-106330959D01*
X117550000Y-106330959D01*
X117550000Y-104325167D01*
X151464838Y-104325167D01*
X151606883Y-104668943D01*
X151869673Y-104932192D01*
X152213201Y-105074838D01*
X152585167Y-105075162D01*
X152928943Y-104933117D01*
X152962118Y-104900000D01*
X164537537Y-104900000D01*
X164569673Y-104932192D01*
X164913201Y-105074838D01*
X165285167Y-105075162D01*
X165628943Y-104933117D01*
X165892192Y-104670327D01*
X166034838Y-104326799D01*
X166035162Y-103954833D01*
X165893117Y-103611057D01*
X165630327Y-103347808D01*
X165286799Y-103205162D01*
X164914833Y-103204838D01*
X164571057Y-103346883D01*
X164537882Y-103380000D01*
X152962463Y-103380000D01*
X152930327Y-103347808D01*
X152586799Y-103205162D01*
X152214833Y-103204838D01*
X151871057Y-103346883D01*
X151607808Y-103609673D01*
X151465162Y-103953201D01*
X151464838Y-104325167D01*
X117550000Y-104325167D01*
X117550000Y-98717745D01*
X121091861Y-98717745D01*
X121165995Y-98963864D01*
X121703223Y-99156965D01*
X122273454Y-99129778D01*
X122674005Y-98963864D01*
X122748139Y-98717745D01*
X121920000Y-97889605D01*
X121091861Y-98717745D01*
X117550000Y-98717745D01*
X117550000Y-97493223D01*
X120473035Y-97493223D01*
X120500222Y-98063454D01*
X120666136Y-98464005D01*
X120912255Y-98538139D01*
X121740395Y-97710000D01*
X122099605Y-97710000D01*
X122927745Y-98538139D01*
X123173864Y-98464005D01*
X123366965Y-97926777D01*
X123339778Y-97356546D01*
X123173864Y-96955995D01*
X122927745Y-96881861D01*
X122099605Y-97710000D01*
X121740395Y-97710000D01*
X120912255Y-96881861D01*
X120666136Y-96955995D01*
X120473035Y-97493223D01*
X117550000Y-97493223D01*
X117550000Y-96702255D01*
X121091861Y-96702255D01*
X121920000Y-97530395D01*
X122748139Y-96702255D01*
X122674005Y-96456136D01*
X122136777Y-96263035D01*
X121566546Y-96290222D01*
X121165995Y-96456136D01*
X121091861Y-96702255D01*
X117550000Y-96702255D01*
X117550000Y-92994187D01*
X120484752Y-92994187D01*
X120702757Y-93521800D01*
X121106077Y-93925824D01*
X121633309Y-94144750D01*
X122204187Y-94145248D01*
X122731800Y-93927243D01*
X123135824Y-93523923D01*
X123354750Y-92996691D01*
X123355248Y-92425813D01*
X123137243Y-91898200D01*
X122733923Y-91494176D01*
X122206691Y-91275250D01*
X121635813Y-91274752D01*
X121108200Y-91492757D01*
X120704176Y-91896077D01*
X120485250Y-92423309D01*
X120484752Y-92994187D01*
X117550000Y-92994187D01*
X117550000Y-85800000D01*
X164872560Y-85800000D01*
X164872560Y-87210000D01*
G36*
X139955302Y-107722811D02*
X140420849Y-108033880D01*
X140970000Y-108143113D01*
X141293886Y-108078688D01*
X146052603Y-112837405D01*
X146050000Y-112836887D01*
X145500849Y-112946120D01*
X145035302Y-113257189D01*
X144765014Y-113661703D01*
X144662389Y-113444866D01*
X144247423Y-113068959D01*
X143859039Y-112908096D01*
X143637000Y-113030085D01*
X143637000Y-114173000D01*
X143657000Y-114173000D01*
X143657000Y-114427000D01*
X143637000Y-114427000D01*
X143637000Y-115569915D01*
X143859039Y-115691904D01*
X144247423Y-115531041D01*
X144662389Y-115155134D01*
X144765014Y-114938297D01*
X145035302Y-115342811D01*
X145135462Y-115409736D01*
X144465198Y-116080000D01*
X127314802Y-116080000D01*
X126490000Y-115255198D01*
X126490000Y-114862463D01*
X126522192Y-114830327D01*
X126597468Y-114649041D01*
X126878086Y-114649041D01*
X127117611Y-115155134D01*
X127532577Y-115531041D01*
X127920961Y-115691904D01*
X128143000Y-115569915D01*
X128143000Y-114427000D01*
X128397000Y-114427000D01*
X128397000Y-115569915D01*
X128619039Y-115691904D01*
X129007423Y-115531041D01*
X129422389Y-115155134D01*
X129540000Y-114906633D01*
X129657611Y-115155134D01*
X130072577Y-115531041D01*
X130460961Y-115691904D01*
X130683000Y-115569915D01*
X130683000Y-114427000D01*
X130937000Y-114427000D01*
X130937000Y-115569915D01*
X131159039Y-115691904D01*
X131547423Y-115531041D01*
X131962389Y-115155134D01*
X132080000Y-114906633D01*
X132197611Y-115155134D01*
X132612577Y-115531041D01*
X133000961Y-115691904D01*
X133223000Y-115569915D01*
X133223000Y-114427000D01*
X133477000Y-114427000D01*
X133477000Y-115569915D01*
X133699039Y-115691904D01*
X134087423Y-115531041D01*
X134502389Y-115155134D01*
X134620000Y-114906633D01*
X134737611Y-115155134D01*
X135152577Y-115531041D01*
X135540961Y-115691904D01*
X135763000Y-115569915D01*
X135763000Y-114427000D01*
X136017000Y-114427000D01*
X136017000Y-115569915D01*
X136239039Y-115691904D01*
X136627423Y-115531041D01*
X137042389Y-115155134D01*
X137160000Y-114906633D01*
X137277611Y-115155134D01*
X137692577Y-115531041D01*
X138080961Y-115691904D01*
X138303000Y-115569915D01*
X138303000Y-114427000D01*
X138557000Y-114427000D01*
X138557000Y-115569915D01*
X138779039Y-115691904D01*
X139167423Y-115531041D01*
X139582389Y-115155134D01*
X139700000Y-114906633D01*
X139817611Y-115155134D01*
X140232577Y-115531041D01*
X140620961Y-115691904D01*
X140843000Y-115569915D01*
X140843000Y-114427000D01*
X141097000Y-114427000D01*
X141097000Y-115569915D01*
X141319039Y-115691904D01*
X141707423Y-115531041D01*
X142122389Y-115155134D01*
X142240000Y-114906633D01*
X142357611Y-115155134D01*
X142772577Y-115531041D01*
X143160961Y-115691904D01*
X143383000Y-115569915D01*
X143383000Y-114427000D01*
X141097000Y-114427000D01*
X140843000Y-114427000D01*
X138557000Y-114427000D01*
X138303000Y-114427000D01*
X136017000Y-114427000D01*
X135763000Y-114427000D01*
X133477000Y-114427000D01*
X133223000Y-114427000D01*
X130937000Y-114427000D01*
X130683000Y-114427000D01*
X128397000Y-114427000D01*
X128143000Y-114427000D01*
X126999371Y-114427000D01*
X126878086Y-114649041D01*
X126597468Y-114649041D01*
X126664838Y-114486799D01*
X126665162Y-114114833D01*
X126530944Y-113790000D01*
X126954265Y-113790000D01*
X126878086Y-113950959D01*
X126999371Y-114173000D01*
X128143000Y-114173000D01*
X128143000Y-114153000D01*
X128397000Y-114153000D01*
X128397000Y-114173000D01*
X130683000Y-114173000D01*
X130683000Y-114153000D01*
X130937000Y-114153000D01*
X130937000Y-114173000D01*
X133223000Y-114173000D01*
X133223000Y-113030085D01*
X133477000Y-113030085D01*
X133477000Y-114173000D01*
X135763000Y-114173000D01*
X135763000Y-113030085D01*
X136017000Y-113030085D01*
X136017000Y-114173000D01*
X138303000Y-114173000D01*
X138303000Y-113030085D01*
X138557000Y-113030085D01*
X138557000Y-114173000D01*
X140843000Y-114173000D01*
X140843000Y-113030085D01*
X141097000Y-113030085D01*
X141097000Y-114173000D01*
X143383000Y-114173000D01*
X143383000Y-113030085D01*
X143160961Y-112908096D01*
X142772577Y-113068959D01*
X142357611Y-113444866D01*
X142240000Y-113693367D01*
X142122389Y-113444866D01*
X141707423Y-113068959D01*
X141319039Y-112908096D01*
X141097000Y-113030085D01*
X140843000Y-113030085D01*
X140620961Y-112908096D01*
X140232577Y-113068959D01*
X139817611Y-113444866D01*
X139700000Y-113693367D01*
X139582389Y-113444866D01*
X139167423Y-113068959D01*
X138779039Y-112908096D01*
X138557000Y-113030085D01*
X138303000Y-113030085D01*
X138080961Y-112908096D01*
X137692577Y-113068959D01*
X137277611Y-113444866D01*
X137160000Y-113693367D01*
X137042389Y-113444866D01*
X136627423Y-113068959D01*
X136239039Y-112908096D01*
X136017000Y-113030085D01*
X135763000Y-113030085D01*
X135540961Y-112908096D01*
X135152577Y-113068959D01*
X134737611Y-113444866D01*
X134620000Y-113693367D01*
X134502389Y-113444866D01*
X134087423Y-113068959D01*
X133699039Y-112908096D01*
X133477000Y-113030085D01*
X133223000Y-113030085D01*
X133178929Y-113005873D01*
X138106114Y-108078688D01*
X138430000Y-108143113D01*
X138979151Y-108033880D01*
X139444698Y-107722811D01*
X139700000Y-107340725D01*
X139955302Y-107722811D01*
X139955302Y-107722811D01*
G37*
X139955302Y-107722811D02*
X140420849Y-108033880D01*
X140970000Y-108143113D01*
X141293886Y-108078688D01*
X146052603Y-112837405D01*
X146050000Y-112836887D01*
X145500849Y-112946120D01*
X145035302Y-113257189D01*
X144765014Y-113661703D01*
X144662389Y-113444866D01*
X144247423Y-113068959D01*
X143859039Y-112908096D01*
X143637000Y-113030085D01*
X143637000Y-114173000D01*
X143657000Y-114173000D01*
X143657000Y-114427000D01*
X143637000Y-114427000D01*
X143637000Y-115569915D01*
X143859039Y-115691904D01*
X144247423Y-115531041D01*
X144662389Y-115155134D01*
X144765014Y-114938297D01*
X145035302Y-115342811D01*
X145135462Y-115409736D01*
X144465198Y-116080000D01*
X127314802Y-116080000D01*
X126490000Y-115255198D01*
X126490000Y-114862463D01*
X126522192Y-114830327D01*
X126597468Y-114649041D01*
X126878086Y-114649041D01*
X127117611Y-115155134D01*
X127532577Y-115531041D01*
X127920961Y-115691904D01*
X128143000Y-115569915D01*
X128143000Y-114427000D01*
X128397000Y-114427000D01*
X128397000Y-115569915D01*
X128619039Y-115691904D01*
X129007423Y-115531041D01*
X129422389Y-115155134D01*
X129540000Y-114906633D01*
X129657611Y-115155134D01*
X130072577Y-115531041D01*
X130460961Y-115691904D01*
X130683000Y-115569915D01*
X130683000Y-114427000D01*
X130937000Y-114427000D01*
X130937000Y-115569915D01*
X131159039Y-115691904D01*
X131547423Y-115531041D01*
X131962389Y-115155134D01*
X132080000Y-114906633D01*
X132197611Y-115155134D01*
X132612577Y-115531041D01*
X133000961Y-115691904D01*
X133223000Y-115569915D01*
X133223000Y-114427000D01*
X133477000Y-114427000D01*
X133477000Y-115569915D01*
X133699039Y-115691904D01*
X134087423Y-115531041D01*
X134502389Y-115155134D01*
X134620000Y-114906633D01*
X134737611Y-115155134D01*
X135152577Y-115531041D01*
X135540961Y-115691904D01*
X135763000Y-115569915D01*
X135763000Y-114427000D01*
X136017000Y-114427000D01*
X136017000Y-115569915D01*
X136239039Y-115691904D01*
X136627423Y-115531041D01*
X137042389Y-115155134D01*
X137160000Y-114906633D01*
X137277611Y-115155134D01*
X137692577Y-115531041D01*
X138080961Y-115691904D01*
X138303000Y-115569915D01*
X138303000Y-114427000D01*
X138557000Y-114427000D01*
X138557000Y-115569915D01*
X138779039Y-115691904D01*
X139167423Y-115531041D01*
X139582389Y-115155134D01*
X139700000Y-114906633D01*
X139817611Y-115155134D01*
X140232577Y-115531041D01*
X140620961Y-115691904D01*
X140843000Y-115569915D01*
X140843000Y-114427000D01*
X141097000Y-114427000D01*
X141097000Y-115569915D01*
X141319039Y-115691904D01*
X141707423Y-115531041D01*
X142122389Y-115155134D01*
X142240000Y-114906633D01*
X142357611Y-115155134D01*
X142772577Y-115531041D01*
X143160961Y-115691904D01*
X143383000Y-115569915D01*
X143383000Y-114427000D01*
X141097000Y-114427000D01*
X140843000Y-114427000D01*
X138557000Y-114427000D01*
X138303000Y-114427000D01*
X136017000Y-114427000D01*
X135763000Y-114427000D01*
X133477000Y-114427000D01*
X133223000Y-114427000D01*
X130937000Y-114427000D01*
X130683000Y-114427000D01*
X128397000Y-114427000D01*
X128143000Y-114427000D01*
X126999371Y-114427000D01*
X126878086Y-114649041D01*
X126597468Y-114649041D01*
X126664838Y-114486799D01*
X126665162Y-114114833D01*
X126530944Y-113790000D01*
X126954265Y-113790000D01*
X126878086Y-113950959D01*
X126999371Y-114173000D01*
X128143000Y-114173000D01*
X128143000Y-114153000D01*
X128397000Y-114153000D01*
X128397000Y-114173000D01*
X130683000Y-114173000D01*
X130683000Y-114153000D01*
X130937000Y-114153000D01*
X130937000Y-114173000D01*
X133223000Y-114173000D01*
X133223000Y-113030085D01*
X133477000Y-113030085D01*
X133477000Y-114173000D01*
X135763000Y-114173000D01*
X135763000Y-113030085D01*
X136017000Y-113030085D01*
X136017000Y-114173000D01*
X138303000Y-114173000D01*
X138303000Y-113030085D01*
X138557000Y-113030085D01*
X138557000Y-114173000D01*
X140843000Y-114173000D01*
X140843000Y-113030085D01*
X141097000Y-113030085D01*
X141097000Y-114173000D01*
X143383000Y-114173000D01*
X143383000Y-113030085D01*
X143160961Y-112908096D01*
X142772577Y-113068959D01*
X142357611Y-113444866D01*
X142240000Y-113693367D01*
X142122389Y-113444866D01*
X141707423Y-113068959D01*
X141319039Y-112908096D01*
X141097000Y-113030085D01*
X140843000Y-113030085D01*
X140620961Y-112908096D01*
X140232577Y-113068959D01*
X139817611Y-113444866D01*
X139700000Y-113693367D01*
X139582389Y-113444866D01*
X139167423Y-113068959D01*
X138779039Y-112908096D01*
X138557000Y-113030085D01*
X138303000Y-113030085D01*
X138080961Y-112908096D01*
X137692577Y-113068959D01*
X137277611Y-113444866D01*
X137160000Y-113693367D01*
X137042389Y-113444866D01*
X136627423Y-113068959D01*
X136239039Y-112908096D01*
X136017000Y-113030085D01*
X135763000Y-113030085D01*
X135540961Y-112908096D01*
X135152577Y-113068959D01*
X134737611Y-113444866D01*
X134620000Y-113693367D01*
X134502389Y-113444866D01*
X134087423Y-113068959D01*
X133699039Y-112908096D01*
X133477000Y-113030085D01*
X133223000Y-113030085D01*
X133178929Y-113005873D01*
X138106114Y-108078688D01*
X138430000Y-108143113D01*
X138979151Y-108033880D01*
X139444698Y-107722811D01*
X139700000Y-107340725D01*
X139955302Y-107722811D01*
M02*
