G04 #@! TF.FileFunction,Legend,Top*
%FSLAX46Y46*%
G04 Gerber Fmt 4.6, Leading zero omitted, Abs format (unit mm)*
G04 Created by KiCad (PCBNEW 4.0.6) date 06/14/17 01:05:27*
%MOMM*%
%LPD*%
G01*
G04 APERTURE LIST*
%ADD10C,0.100000*%
%ADD11C,0.200000*%
%ADD12C,0.300000*%
%ADD13C,0.120000*%
%ADD14C,0.150000*%
G04 APERTURE END LIST*
D10*
D11*
X149225000Y-85725000D02*
X149225000Y-85090000D01*
X163195000Y-85725000D02*
X163195000Y-98425000D01*
X149225000Y-85725000D02*
X163195000Y-85725000D01*
X161290000Y-88265000D02*
X163195000Y-88265000D01*
X161290000Y-90805000D02*
X163195000Y-90805000D01*
X161290000Y-93345000D02*
X163195000Y-93345000D01*
X161290000Y-95885000D02*
X163195000Y-95885000D01*
X163195000Y-98425000D02*
X140970000Y-98425000D01*
X140970000Y-98425000D02*
X140970000Y-85090000D01*
D12*
X150439286Y-87530714D02*
X150367857Y-87602143D01*
X150153571Y-87673571D01*
X150010714Y-87673571D01*
X149796429Y-87602143D01*
X149653571Y-87459286D01*
X149582143Y-87316429D01*
X149510714Y-87030714D01*
X149510714Y-86816429D01*
X149582143Y-86530714D01*
X149653571Y-86387857D01*
X149796429Y-86245000D01*
X150010714Y-86173571D01*
X150153571Y-86173571D01*
X150367857Y-86245000D01*
X150439286Y-86316429D01*
X151296429Y-87673571D02*
X151153571Y-87602143D01*
X151082143Y-87459286D01*
X151082143Y-86173571D01*
X152082143Y-87673571D02*
X151939285Y-87602143D01*
X151867857Y-87530714D01*
X151796428Y-87387857D01*
X151796428Y-86959286D01*
X151867857Y-86816429D01*
X151939285Y-86745000D01*
X152082143Y-86673571D01*
X152296428Y-86673571D01*
X152439285Y-86745000D01*
X152510714Y-86816429D01*
X152582143Y-86959286D01*
X152582143Y-87387857D01*
X152510714Y-87530714D01*
X152439285Y-87602143D01*
X152296428Y-87673571D01*
X152082143Y-87673571D01*
X153867857Y-87602143D02*
X153725000Y-87673571D01*
X153439286Y-87673571D01*
X153296428Y-87602143D01*
X153225000Y-87530714D01*
X153153571Y-87387857D01*
X153153571Y-86959286D01*
X153225000Y-86816429D01*
X153296428Y-86745000D01*
X153439286Y-86673571D01*
X153725000Y-86673571D01*
X153867857Y-86745000D01*
X154510714Y-87673571D02*
X154510714Y-86173571D01*
X154653571Y-87102143D02*
X155082142Y-87673571D01*
X155082142Y-86673571D02*
X154510714Y-87245000D01*
X156796428Y-87602143D02*
X157010714Y-87673571D01*
X157367857Y-87673571D01*
X157510714Y-87602143D01*
X157582143Y-87530714D01*
X157653571Y-87387857D01*
X157653571Y-87245000D01*
X157582143Y-87102143D01*
X157510714Y-87030714D01*
X157367857Y-86959286D01*
X157082143Y-86887857D01*
X156939285Y-86816429D01*
X156867857Y-86745000D01*
X156796428Y-86602143D01*
X156796428Y-86459286D01*
X156867857Y-86316429D01*
X156939285Y-86245000D01*
X157082143Y-86173571D01*
X157439285Y-86173571D01*
X157653571Y-86245000D01*
X159153571Y-87673571D02*
X158653571Y-86959286D01*
X158296428Y-87673571D02*
X158296428Y-86173571D01*
X158867856Y-86173571D01*
X159010714Y-86245000D01*
X159082142Y-86316429D01*
X159153571Y-86459286D01*
X159153571Y-86673571D01*
X159082142Y-86816429D01*
X159010714Y-86887857D01*
X158867856Y-86959286D01*
X158296428Y-86959286D01*
X160653571Y-87530714D02*
X160582142Y-87602143D01*
X160367856Y-87673571D01*
X160224999Y-87673571D01*
X160010714Y-87602143D01*
X159867856Y-87459286D01*
X159796428Y-87316429D01*
X159724999Y-87030714D01*
X159724999Y-86816429D01*
X159796428Y-86530714D01*
X159867856Y-86387857D01*
X160010714Y-86245000D01*
X160224999Y-86173571D01*
X160367856Y-86173571D01*
X160582142Y-86245000D01*
X160653571Y-86316429D01*
D11*
X140970000Y-95885000D02*
X161290000Y-95885000D01*
X140970000Y-93345000D02*
X161290000Y-93345000D01*
X140970000Y-90805000D02*
X161290000Y-90805000D01*
X140970000Y-88265000D02*
X140970000Y-98425000D01*
X140970000Y-88265000D02*
X161290000Y-88265000D01*
D12*
X150439286Y-97690714D02*
X150367857Y-97762143D01*
X150153571Y-97833571D01*
X150010714Y-97833571D01*
X149796429Y-97762143D01*
X149653571Y-97619286D01*
X149582143Y-97476429D01*
X149510714Y-97190714D01*
X149510714Y-96976429D01*
X149582143Y-96690714D01*
X149653571Y-96547857D01*
X149796429Y-96405000D01*
X150010714Y-96333571D01*
X150153571Y-96333571D01*
X150367857Y-96405000D01*
X150439286Y-96476429D01*
X151296429Y-97833571D02*
X151153571Y-97762143D01*
X151082143Y-97619286D01*
X151082143Y-96333571D01*
X152082143Y-97833571D02*
X151939285Y-97762143D01*
X151867857Y-97690714D01*
X151796428Y-97547857D01*
X151796428Y-97119286D01*
X151867857Y-96976429D01*
X151939285Y-96905000D01*
X152082143Y-96833571D01*
X152296428Y-96833571D01*
X152439285Y-96905000D01*
X152510714Y-96976429D01*
X152582143Y-97119286D01*
X152582143Y-97547857D01*
X152510714Y-97690714D01*
X152439285Y-97762143D01*
X152296428Y-97833571D01*
X152082143Y-97833571D01*
X153867857Y-97762143D02*
X153725000Y-97833571D01*
X153439286Y-97833571D01*
X153296428Y-97762143D01*
X153225000Y-97690714D01*
X153153571Y-97547857D01*
X153153571Y-97119286D01*
X153225000Y-96976429D01*
X153296428Y-96905000D01*
X153439286Y-96833571D01*
X153725000Y-96833571D01*
X153867857Y-96905000D01*
X154510714Y-97833571D02*
X154510714Y-96333571D01*
X154653571Y-97262143D02*
X155082142Y-97833571D01*
X155082142Y-96833571D02*
X154510714Y-97405000D01*
X156796428Y-96262143D02*
X155510714Y-98190714D01*
X157939286Y-96833571D02*
X157939286Y-97833571D01*
X157582143Y-96262143D02*
X157225000Y-97333571D01*
X158153572Y-97333571D01*
X150439286Y-95150714D02*
X150367857Y-95222143D01*
X150153571Y-95293571D01*
X150010714Y-95293571D01*
X149796429Y-95222143D01*
X149653571Y-95079286D01*
X149582143Y-94936429D01*
X149510714Y-94650714D01*
X149510714Y-94436429D01*
X149582143Y-94150714D01*
X149653571Y-94007857D01*
X149796429Y-93865000D01*
X150010714Y-93793571D01*
X150153571Y-93793571D01*
X150367857Y-93865000D01*
X150439286Y-93936429D01*
X151296429Y-95293571D02*
X151153571Y-95222143D01*
X151082143Y-95079286D01*
X151082143Y-93793571D01*
X152082143Y-95293571D02*
X151939285Y-95222143D01*
X151867857Y-95150714D01*
X151796428Y-95007857D01*
X151796428Y-94579286D01*
X151867857Y-94436429D01*
X151939285Y-94365000D01*
X152082143Y-94293571D01*
X152296428Y-94293571D01*
X152439285Y-94365000D01*
X152510714Y-94436429D01*
X152582143Y-94579286D01*
X152582143Y-95007857D01*
X152510714Y-95150714D01*
X152439285Y-95222143D01*
X152296428Y-95293571D01*
X152082143Y-95293571D01*
X153867857Y-95222143D02*
X153725000Y-95293571D01*
X153439286Y-95293571D01*
X153296428Y-95222143D01*
X153225000Y-95150714D01*
X153153571Y-95007857D01*
X153153571Y-94579286D01*
X153225000Y-94436429D01*
X153296428Y-94365000D01*
X153439286Y-94293571D01*
X153725000Y-94293571D01*
X153867857Y-94365000D01*
X154510714Y-95293571D02*
X154510714Y-93793571D01*
X154653571Y-94722143D02*
X155082142Y-95293571D01*
X155082142Y-94293571D02*
X154510714Y-94865000D01*
X156796428Y-93722143D02*
X155510714Y-95650714D01*
X157225000Y-93936429D02*
X157296429Y-93865000D01*
X157439286Y-93793571D01*
X157796429Y-93793571D01*
X157939286Y-93865000D01*
X158010715Y-93936429D01*
X158082143Y-94079286D01*
X158082143Y-94222143D01*
X158010715Y-94436429D01*
X157153572Y-95293571D01*
X158082143Y-95293571D01*
X150439286Y-92610714D02*
X150367857Y-92682143D01*
X150153571Y-92753571D01*
X150010714Y-92753571D01*
X149796429Y-92682143D01*
X149653571Y-92539286D01*
X149582143Y-92396429D01*
X149510714Y-92110714D01*
X149510714Y-91896429D01*
X149582143Y-91610714D01*
X149653571Y-91467857D01*
X149796429Y-91325000D01*
X150010714Y-91253571D01*
X150153571Y-91253571D01*
X150367857Y-91325000D01*
X150439286Y-91396429D01*
X151296429Y-92753571D02*
X151153571Y-92682143D01*
X151082143Y-92539286D01*
X151082143Y-91253571D01*
X152082143Y-92753571D02*
X151939285Y-92682143D01*
X151867857Y-92610714D01*
X151796428Y-92467857D01*
X151796428Y-92039286D01*
X151867857Y-91896429D01*
X151939285Y-91825000D01*
X152082143Y-91753571D01*
X152296428Y-91753571D01*
X152439285Y-91825000D01*
X152510714Y-91896429D01*
X152582143Y-92039286D01*
X152582143Y-92467857D01*
X152510714Y-92610714D01*
X152439285Y-92682143D01*
X152296428Y-92753571D01*
X152082143Y-92753571D01*
X153867857Y-92682143D02*
X153725000Y-92753571D01*
X153439286Y-92753571D01*
X153296428Y-92682143D01*
X153225000Y-92610714D01*
X153153571Y-92467857D01*
X153153571Y-92039286D01*
X153225000Y-91896429D01*
X153296428Y-91825000D01*
X153439286Y-91753571D01*
X153725000Y-91753571D01*
X153867857Y-91825000D01*
X154510714Y-92753571D02*
X154510714Y-91253571D01*
X154653571Y-92182143D02*
X155082142Y-92753571D01*
X155082142Y-91753571D02*
X154510714Y-92325000D01*
X156796428Y-91182143D02*
X155510714Y-93110714D01*
X158082143Y-92753571D02*
X157225000Y-92753571D01*
X157653572Y-92753571D02*
X157653572Y-91253571D01*
X157510715Y-91467857D01*
X157367857Y-91610714D01*
X157225000Y-91682143D01*
X149439286Y-88713571D02*
X150439286Y-90213571D01*
X150439286Y-88713571D02*
X149439286Y-90213571D01*
X150796428Y-88713571D02*
X151653571Y-88713571D01*
X151225000Y-90213571D02*
X151225000Y-88713571D01*
X152082142Y-89785000D02*
X152796428Y-89785000D01*
X151939285Y-90213571D02*
X152439285Y-88713571D01*
X152939285Y-90213571D01*
X154153571Y-90213571D02*
X153439285Y-90213571D01*
X153439285Y-88713571D01*
X155796428Y-89427857D02*
X156296428Y-89427857D01*
X156510714Y-90213571D02*
X155796428Y-90213571D01*
X155796428Y-88713571D01*
X156510714Y-88713571D01*
X157153571Y-89213571D02*
X157153571Y-90213571D01*
X157153571Y-89356429D02*
X157224999Y-89285000D01*
X157367857Y-89213571D01*
X157582142Y-89213571D01*
X157724999Y-89285000D01*
X157796428Y-89427857D01*
X157796428Y-90213571D01*
X159153571Y-90213571D02*
X159153571Y-89427857D01*
X159082142Y-89285000D01*
X158939285Y-89213571D01*
X158653571Y-89213571D01*
X158510714Y-89285000D01*
X159153571Y-90142143D02*
X159010714Y-90213571D01*
X158653571Y-90213571D01*
X158510714Y-90142143D01*
X158439285Y-89999286D01*
X158439285Y-89856429D01*
X158510714Y-89713571D01*
X158653571Y-89642143D01*
X159010714Y-89642143D01*
X159153571Y-89570714D01*
X159867857Y-90213571D02*
X159867857Y-88713571D01*
X159867857Y-89285000D02*
X160010714Y-89213571D01*
X160296428Y-89213571D01*
X160439285Y-89285000D01*
X160510714Y-89356429D01*
X160582143Y-89499286D01*
X160582143Y-89927857D01*
X160510714Y-90070714D01*
X160439285Y-90142143D01*
X160296428Y-90213571D01*
X160010714Y-90213571D01*
X159867857Y-90142143D01*
X161439286Y-90213571D02*
X161296428Y-90142143D01*
X161225000Y-89999286D01*
X161225000Y-88713571D01*
X162582142Y-90142143D02*
X162439285Y-90213571D01*
X162153571Y-90213571D01*
X162010714Y-90142143D01*
X161939285Y-89999286D01*
X161939285Y-89427857D01*
X162010714Y-89285000D01*
X162153571Y-89213571D01*
X162439285Y-89213571D01*
X162582142Y-89285000D01*
X162653571Y-89427857D01*
X162653571Y-89570714D01*
X161939285Y-89713571D01*
X175887143Y-97833571D02*
X175887143Y-96333571D01*
X176530000Y-97405000D02*
X177244286Y-97405000D01*
X176387143Y-97833571D02*
X176887143Y-96333571D01*
X177387143Y-97833571D01*
X180352143Y-96333571D02*
X180852143Y-97833571D01*
X181352143Y-96333571D01*
X182137857Y-96333571D02*
X182423571Y-96333571D01*
X182566429Y-96405000D01*
X182709286Y-96547857D01*
X182780714Y-96833571D01*
X182780714Y-97333571D01*
X182709286Y-97619286D01*
X182566429Y-97762143D01*
X182423571Y-97833571D01*
X182137857Y-97833571D01*
X181995000Y-97762143D01*
X181852143Y-97619286D01*
X181780714Y-97333571D01*
X181780714Y-96833571D01*
X181852143Y-96547857D01*
X181995000Y-96405000D01*
X182137857Y-96333571D01*
X184137858Y-97833571D02*
X183423572Y-97833571D01*
X183423572Y-96333571D01*
X163294286Y-124404286D02*
X163222857Y-124332857D01*
X163151429Y-124118571D01*
X163151429Y-123975714D01*
X163222857Y-123761429D01*
X163365714Y-123618571D01*
X163508571Y-123547143D01*
X163794286Y-123475714D01*
X164008571Y-123475714D01*
X164294286Y-123547143D01*
X164437143Y-123618571D01*
X164580000Y-123761429D01*
X164651429Y-123975714D01*
X164651429Y-124118571D01*
X164580000Y-124332857D01*
X164508571Y-124404286D01*
X163151429Y-125261429D02*
X163222857Y-125118571D01*
X163365714Y-125047143D01*
X164651429Y-125047143D01*
X163151429Y-126047143D02*
X163222857Y-125904285D01*
X163294286Y-125832857D01*
X163437143Y-125761428D01*
X163865714Y-125761428D01*
X164008571Y-125832857D01*
X164080000Y-125904285D01*
X164151429Y-126047143D01*
X164151429Y-126261428D01*
X164080000Y-126404285D01*
X164008571Y-126475714D01*
X163865714Y-126547143D01*
X163437143Y-126547143D01*
X163294286Y-126475714D01*
X163222857Y-126404285D01*
X163151429Y-126261428D01*
X163151429Y-126047143D01*
X163222857Y-127832857D02*
X163151429Y-127690000D01*
X163151429Y-127404286D01*
X163222857Y-127261428D01*
X163294286Y-127190000D01*
X163437143Y-127118571D01*
X163865714Y-127118571D01*
X164008571Y-127190000D01*
X164080000Y-127261428D01*
X164151429Y-127404286D01*
X164151429Y-127690000D01*
X164080000Y-127832857D01*
X163151429Y-128475714D02*
X164651429Y-128475714D01*
X163722857Y-128618571D02*
X163151429Y-129047142D01*
X164151429Y-129047142D02*
X163580000Y-128475714D01*
D11*
X162560000Y-121920000D02*
X162560000Y-134620000D01*
X165100000Y-121920000D02*
X162560000Y-121920000D01*
X165100000Y-134620000D02*
X165100000Y-121920000D01*
X168910000Y-121285000D02*
X161290000Y-121285000D01*
X175260000Y-114935000D02*
X175260000Y-104775000D01*
X175260000Y-114935000D02*
X175260000Y-114300000D01*
X168910000Y-121285000D02*
X175260000Y-114935000D01*
X168910000Y-98425000D02*
X175260000Y-104775000D01*
X161290000Y-98425000D02*
X168910000Y-98425000D01*
X161290000Y-121285000D02*
X161290000Y-98425000D01*
D12*
X193567857Y-88622143D02*
X193567857Y-89765000D01*
X192996429Y-89193571D02*
X194139286Y-89193571D01*
X194496429Y-91907857D02*
X194496429Y-92193571D01*
X194425000Y-92336429D01*
X194282143Y-92479286D01*
X193996429Y-92550714D01*
X193496429Y-92550714D01*
X193210714Y-92479286D01*
X193067857Y-92336429D01*
X192996429Y-92193571D01*
X192996429Y-91907857D01*
X193067857Y-91765000D01*
X193210714Y-91622143D01*
X193496429Y-91550714D01*
X193996429Y-91550714D01*
X194282143Y-91622143D01*
X194425000Y-91765000D01*
X194496429Y-91907857D01*
X193996429Y-93836429D02*
X192996429Y-93836429D01*
X193996429Y-93193572D02*
X193210714Y-93193572D01*
X193067857Y-93265000D01*
X192996429Y-93407858D01*
X192996429Y-93622143D01*
X193067857Y-93765000D01*
X193139286Y-93836429D01*
X193996429Y-94336429D02*
X193996429Y-94907858D01*
X194496429Y-94550715D02*
X193210714Y-94550715D01*
X193067857Y-94622143D01*
X192996429Y-94765001D01*
X192996429Y-94907858D01*
X196107857Y-88622143D02*
X196107857Y-89765000D01*
X197036429Y-91907857D02*
X197036429Y-92193571D01*
X196965000Y-92336429D01*
X196822143Y-92479286D01*
X196536429Y-92550714D01*
X196036429Y-92550714D01*
X195750714Y-92479286D01*
X195607857Y-92336429D01*
X195536429Y-92193571D01*
X195536429Y-91907857D01*
X195607857Y-91765000D01*
X195750714Y-91622143D01*
X196036429Y-91550714D01*
X196536429Y-91550714D01*
X196822143Y-91622143D01*
X196965000Y-91765000D01*
X197036429Y-91907857D01*
X196536429Y-93836429D02*
X195536429Y-93836429D01*
X196536429Y-93193572D02*
X195750714Y-93193572D01*
X195607857Y-93265000D01*
X195536429Y-93407858D01*
X195536429Y-93622143D01*
X195607857Y-93765000D01*
X195679286Y-93836429D01*
X196536429Y-94336429D02*
X196536429Y-94907858D01*
X197036429Y-94550715D02*
X195750714Y-94550715D01*
X195607857Y-94622143D01*
X195536429Y-94765001D01*
X195536429Y-94907858D01*
D11*
X192405000Y-97790000D02*
X192405000Y-85090000D01*
X197485000Y-97790000D02*
X197485000Y-85090000D01*
X192405000Y-97790000D02*
X197485000Y-97790000D01*
X194945000Y-85090000D02*
X194945000Y-97790000D01*
D12*
X187217857Y-88622143D02*
X187217857Y-89765000D01*
X186646429Y-89193571D02*
X187789286Y-89193571D01*
X186646429Y-92336429D02*
X186646429Y-91622143D01*
X188146429Y-91622143D01*
X186646429Y-92836429D02*
X187646429Y-92836429D01*
X188146429Y-92836429D02*
X188075000Y-92765000D01*
X188003571Y-92836429D01*
X188075000Y-92907857D01*
X188146429Y-92836429D01*
X188003571Y-92836429D01*
X187646429Y-93550715D02*
X186646429Y-93550715D01*
X187503571Y-93550715D02*
X187575000Y-93622143D01*
X187646429Y-93765001D01*
X187646429Y-93979286D01*
X187575000Y-94122143D01*
X187432143Y-94193572D01*
X186646429Y-94193572D01*
X186717857Y-95479286D02*
X186646429Y-95336429D01*
X186646429Y-95050715D01*
X186717857Y-94907858D01*
X186860714Y-94836429D01*
X187432143Y-94836429D01*
X187575000Y-94907858D01*
X187646429Y-95050715D01*
X187646429Y-95336429D01*
X187575000Y-95479286D01*
X187432143Y-95550715D01*
X187289286Y-95550715D01*
X187146429Y-94836429D01*
D11*
X188595000Y-97790000D02*
X188595000Y-85090000D01*
X191135000Y-85090000D02*
X191135000Y-97790000D01*
X186055000Y-85090000D02*
X186055000Y-97790000D01*
X186055000Y-97790000D02*
X191135000Y-97790000D01*
D12*
X189757857Y-88622143D02*
X189757857Y-89765000D01*
X189186429Y-92336429D02*
X189186429Y-91622143D01*
X190686429Y-91622143D01*
X189186429Y-92836429D02*
X190186429Y-92836429D01*
X190686429Y-92836429D02*
X190615000Y-92765000D01*
X190543571Y-92836429D01*
X190615000Y-92907857D01*
X190686429Y-92836429D01*
X190543571Y-92836429D01*
X190186429Y-93550715D02*
X189186429Y-93550715D01*
X190043571Y-93550715D02*
X190115000Y-93622143D01*
X190186429Y-93765001D01*
X190186429Y-93979286D01*
X190115000Y-94122143D01*
X189972143Y-94193572D01*
X189186429Y-94193572D01*
X189257857Y-95479286D02*
X189186429Y-95336429D01*
X189186429Y-95050715D01*
X189257857Y-94907858D01*
X189400714Y-94836429D01*
X189972143Y-94836429D01*
X190115000Y-94907858D01*
X190186429Y-95050715D01*
X190186429Y-95336429D01*
X190115000Y-95479286D01*
X189972143Y-95550715D01*
X189829286Y-95550715D01*
X189686429Y-94836429D01*
X150451429Y-123547143D02*
X151951429Y-123547143D01*
X151951429Y-124547143D02*
X151951429Y-124832857D01*
X151880000Y-124975715D01*
X151737143Y-125118572D01*
X151451429Y-125190000D01*
X150951429Y-125190000D01*
X150665714Y-125118572D01*
X150522857Y-124975715D01*
X150451429Y-124832857D01*
X150451429Y-124547143D01*
X150522857Y-124404286D01*
X150665714Y-124261429D01*
X150951429Y-124190000D01*
X151451429Y-124190000D01*
X151737143Y-124261429D01*
X151880000Y-124404286D01*
X151951429Y-124547143D01*
X150451429Y-126690001D02*
X151165714Y-126190001D01*
X150451429Y-125832858D02*
X151951429Y-125832858D01*
X151951429Y-126404286D01*
X151880000Y-126547144D01*
X151808571Y-126618572D01*
X151665714Y-126690001D01*
X151451429Y-126690001D01*
X151308571Y-126618572D01*
X151237143Y-126547144D01*
X151165714Y-126404286D01*
X151165714Y-125832858D01*
X151237143Y-127332858D02*
X151237143Y-127832858D01*
X150451429Y-128047144D02*
X150451429Y-127332858D01*
X151951429Y-127332858D01*
X151951429Y-128047144D01*
X150308571Y-129690001D02*
X150380000Y-129547144D01*
X150522857Y-129404287D01*
X150737143Y-129190001D01*
X150808571Y-129047144D01*
X150808571Y-128904287D01*
X150451429Y-128975715D02*
X150522857Y-128832858D01*
X150665714Y-128690001D01*
X150951429Y-128618572D01*
X151451429Y-128618572D01*
X151737143Y-128690001D01*
X151880000Y-128832858D01*
X151951429Y-128975715D01*
X151951429Y-129261429D01*
X151880000Y-129404287D01*
X151737143Y-129547144D01*
X151451429Y-129618572D01*
X150951429Y-129618572D01*
X150665714Y-129547144D01*
X150522857Y-129404287D01*
X150451429Y-129261429D01*
X150451429Y-128975715D01*
X157031429Y-123404286D02*
X155531429Y-123761429D01*
X156602857Y-124047143D01*
X155531429Y-124332857D01*
X157031429Y-124690000D01*
X155531429Y-126118572D02*
X156245714Y-125618572D01*
X155531429Y-125261429D02*
X157031429Y-125261429D01*
X157031429Y-125832857D01*
X156960000Y-125975715D01*
X156888571Y-126047143D01*
X156745714Y-126118572D01*
X156531429Y-126118572D01*
X156388571Y-126047143D01*
X156317143Y-125975715D01*
X156245714Y-125832857D01*
X156245714Y-125261429D01*
X168231429Y-123547143D02*
X169731429Y-123547143D01*
X168660000Y-124047143D01*
X169731429Y-124547143D01*
X168231429Y-124547143D01*
X168231429Y-126047143D02*
X168231429Y-125190000D01*
X168231429Y-125618572D02*
X169731429Y-125618572D01*
X169517143Y-125475715D01*
X169374286Y-125332857D01*
X169302857Y-125190000D01*
X172271429Y-123332857D02*
X170771429Y-123832857D01*
X172271429Y-124332857D01*
X170914286Y-125690000D02*
X170842857Y-125618571D01*
X170771429Y-125404285D01*
X170771429Y-125261428D01*
X170842857Y-125047143D01*
X170985714Y-124904285D01*
X171128571Y-124832857D01*
X171414286Y-124761428D01*
X171628571Y-124761428D01*
X171914286Y-124832857D01*
X172057143Y-124904285D01*
X172200000Y-125047143D01*
X172271429Y-125261428D01*
X172271429Y-125404285D01*
X172200000Y-125618571D01*
X172128571Y-125690000D01*
X170914286Y-127190000D02*
X170842857Y-127118571D01*
X170771429Y-126904285D01*
X170771429Y-126761428D01*
X170842857Y-126547143D01*
X170985714Y-126404285D01*
X171128571Y-126332857D01*
X171414286Y-126261428D01*
X171628571Y-126261428D01*
X171914286Y-126332857D01*
X172057143Y-126404285D01*
X172200000Y-126547143D01*
X172271429Y-126761428D01*
X172271429Y-126904285D01*
X172200000Y-127118571D01*
X172128571Y-127190000D01*
X174740000Y-124332857D02*
X174811429Y-124190000D01*
X174811429Y-123975714D01*
X174740000Y-123761429D01*
X174597143Y-123618571D01*
X174454286Y-123547143D01*
X174168571Y-123475714D01*
X173954286Y-123475714D01*
X173668571Y-123547143D01*
X173525714Y-123618571D01*
X173382857Y-123761429D01*
X173311429Y-123975714D01*
X173311429Y-124118571D01*
X173382857Y-124332857D01*
X173454286Y-124404286D01*
X173954286Y-124404286D01*
X173954286Y-124118571D01*
X173311429Y-125047143D02*
X174811429Y-125047143D01*
X173311429Y-125904286D01*
X174811429Y-125904286D01*
X173311429Y-126618572D02*
X174811429Y-126618572D01*
X174811429Y-126975715D01*
X174740000Y-127190000D01*
X174597143Y-127332858D01*
X174454286Y-127404286D01*
X174168571Y-127475715D01*
X173954286Y-127475715D01*
X173668571Y-127404286D01*
X173525714Y-127332858D01*
X173382857Y-127190000D01*
X173311429Y-126975715D01*
X173311429Y-126618572D01*
X137521429Y-125133571D02*
X137521429Y-123633571D01*
X137878572Y-123633571D01*
X138092857Y-123705000D01*
X138235715Y-123847857D01*
X138307143Y-123990714D01*
X138378572Y-124276429D01*
X138378572Y-124490714D01*
X138307143Y-124776429D01*
X138235715Y-124919286D01*
X138092857Y-125062143D01*
X137878572Y-125133571D01*
X137521429Y-125133571D01*
X139664286Y-125133571D02*
X139664286Y-124347857D01*
X139592857Y-124205000D01*
X139450000Y-124133571D01*
X139164286Y-124133571D01*
X139021429Y-124205000D01*
X139664286Y-125062143D02*
X139521429Y-125133571D01*
X139164286Y-125133571D01*
X139021429Y-125062143D01*
X138950000Y-124919286D01*
X138950000Y-124776429D01*
X139021429Y-124633571D01*
X139164286Y-124562143D01*
X139521429Y-124562143D01*
X139664286Y-124490714D01*
X140164286Y-124133571D02*
X140735715Y-124133571D01*
X140378572Y-123633571D02*
X140378572Y-124919286D01*
X140450000Y-125062143D01*
X140592858Y-125133571D01*
X140735715Y-125133571D01*
X141878572Y-125133571D02*
X141878572Y-124347857D01*
X141807143Y-124205000D01*
X141664286Y-124133571D01*
X141378572Y-124133571D01*
X141235715Y-124205000D01*
X141878572Y-125062143D02*
X141735715Y-125133571D01*
X141378572Y-125133571D01*
X141235715Y-125062143D01*
X141164286Y-124919286D01*
X141164286Y-124776429D01*
X141235715Y-124633571D01*
X141378572Y-124562143D01*
X141735715Y-124562143D01*
X141878572Y-124490714D01*
X135057144Y-127683571D02*
X135057144Y-126183571D01*
X135414287Y-126183571D01*
X135628572Y-126255000D01*
X135771430Y-126397857D01*
X135842858Y-126540714D01*
X135914287Y-126826429D01*
X135914287Y-127040714D01*
X135842858Y-127326429D01*
X135771430Y-127469286D01*
X135628572Y-127612143D01*
X135414287Y-127683571D01*
X135057144Y-127683571D01*
X136414287Y-126183571D02*
X137414287Y-126183571D01*
X136771430Y-127683571D01*
X139128572Y-127112143D02*
X140271429Y-127112143D01*
X142128572Y-127683571D02*
X142128572Y-126183571D01*
X142485715Y-126183571D01*
X142700000Y-126255000D01*
X142842858Y-126397857D01*
X142914286Y-126540714D01*
X142985715Y-126826429D01*
X142985715Y-127040714D01*
X142914286Y-127326429D01*
X142842858Y-127469286D01*
X142700000Y-127612143D01*
X142485715Y-127683571D01*
X142128572Y-127683571D01*
X143914286Y-126183571D02*
X144057143Y-126183571D01*
X144200000Y-126255000D01*
X144271429Y-126326429D01*
X144342858Y-126469286D01*
X144414286Y-126755000D01*
X144414286Y-127112143D01*
X144342858Y-127397857D01*
X144271429Y-127540714D01*
X144200000Y-127612143D01*
X144057143Y-127683571D01*
X143914286Y-127683571D01*
X143771429Y-127612143D01*
X143700000Y-127540714D01*
X143628572Y-127397857D01*
X143557143Y-127112143D01*
X143557143Y-126755000D01*
X143628572Y-126469286D01*
X143700000Y-126326429D01*
X143771429Y-126255000D01*
X143914286Y-126183571D01*
X201069286Y-125340000D02*
X201783572Y-125340000D01*
X200926429Y-125768571D02*
X201426429Y-124268571D01*
X201926429Y-125768571D01*
X203069286Y-125768571D02*
X203069286Y-124268571D01*
X203069286Y-125697143D02*
X202926429Y-125768571D01*
X202640715Y-125768571D01*
X202497857Y-125697143D01*
X202426429Y-125625714D01*
X202355000Y-125482857D01*
X202355000Y-125054286D01*
X202426429Y-124911429D01*
X202497857Y-124840000D01*
X202640715Y-124768571D01*
X202926429Y-124768571D01*
X203069286Y-124840000D01*
X204426429Y-125768571D02*
X204426429Y-124268571D01*
X204426429Y-125697143D02*
X204283572Y-125768571D01*
X203997858Y-125768571D01*
X203855000Y-125697143D01*
X203783572Y-125625714D01*
X203712143Y-125482857D01*
X203712143Y-125054286D01*
X203783572Y-124911429D01*
X203855000Y-124840000D01*
X203997858Y-124768571D01*
X204283572Y-124768571D01*
X204426429Y-124840000D01*
X205140715Y-125768571D02*
X205140715Y-124768571D01*
X205140715Y-125054286D02*
X205212143Y-124911429D01*
X205283572Y-124840000D01*
X205426429Y-124768571D01*
X205569286Y-124768571D01*
X206640714Y-125697143D02*
X206497857Y-125768571D01*
X206212143Y-125768571D01*
X206069286Y-125697143D01*
X205997857Y-125554286D01*
X205997857Y-124982857D01*
X206069286Y-124840000D01*
X206212143Y-124768571D01*
X206497857Y-124768571D01*
X206640714Y-124840000D01*
X206712143Y-124982857D01*
X206712143Y-125125714D01*
X205997857Y-125268571D01*
X207283571Y-125697143D02*
X207426428Y-125768571D01*
X207712143Y-125768571D01*
X207855000Y-125697143D01*
X207926428Y-125554286D01*
X207926428Y-125482857D01*
X207855000Y-125340000D01*
X207712143Y-125268571D01*
X207497857Y-125268571D01*
X207355000Y-125197143D01*
X207283571Y-125054286D01*
X207283571Y-124982857D01*
X207355000Y-124840000D01*
X207497857Y-124768571D01*
X207712143Y-124768571D01*
X207855000Y-124840000D01*
X208497857Y-125697143D02*
X208640714Y-125768571D01*
X208926429Y-125768571D01*
X209069286Y-125697143D01*
X209140714Y-125554286D01*
X209140714Y-125482857D01*
X209069286Y-125340000D01*
X208926429Y-125268571D01*
X208712143Y-125268571D01*
X208569286Y-125197143D01*
X208497857Y-125054286D01*
X208497857Y-124982857D01*
X208569286Y-124840000D01*
X208712143Y-124768571D01*
X208926429Y-124768571D01*
X209069286Y-124840000D01*
X199890715Y-127890000D02*
X200605001Y-127890000D01*
X199747858Y-128318571D02*
X200247858Y-126818571D01*
X200747858Y-128318571D01*
X201533572Y-126818571D02*
X201676429Y-126818571D01*
X201819286Y-126890000D01*
X201890715Y-126961429D01*
X201962144Y-127104286D01*
X202033572Y-127390000D01*
X202033572Y-127747143D01*
X201962144Y-128032857D01*
X201890715Y-128175714D01*
X201819286Y-128247143D01*
X201676429Y-128318571D01*
X201533572Y-128318571D01*
X201390715Y-128247143D01*
X201319286Y-128175714D01*
X201247858Y-128032857D01*
X201176429Y-127747143D01*
X201176429Y-127390000D01*
X201247858Y-127104286D01*
X201319286Y-126961429D01*
X201390715Y-126890000D01*
X201533572Y-126818571D01*
X203819286Y-127747143D02*
X204962143Y-127747143D01*
X206747857Y-127890000D02*
X207462143Y-127890000D01*
X206605000Y-128318571D02*
X207105000Y-126818571D01*
X207605000Y-128318571D01*
X208890714Y-128318571D02*
X208033571Y-128318571D01*
X208462143Y-128318571D02*
X208462143Y-126818571D01*
X208319286Y-127032857D01*
X208176428Y-127175714D01*
X208033571Y-127247143D01*
X210247857Y-126818571D02*
X209533571Y-126818571D01*
X209462142Y-127532857D01*
X209533571Y-127461429D01*
X209676428Y-127390000D01*
X210033571Y-127390000D01*
X210176428Y-127461429D01*
X210247857Y-127532857D01*
X210319285Y-127675714D01*
X210319285Y-128032857D01*
X210247857Y-128175714D01*
X210176428Y-128247143D01*
X210033571Y-128318571D01*
X209676428Y-128318571D01*
X209533571Y-128247143D01*
X209462142Y-128175714D01*
D11*
X129540000Y-121920000D02*
X129540000Y-134620000D01*
X149860000Y-121920000D02*
X129540000Y-121920000D01*
X149860000Y-121920000D02*
X149860000Y-134620000D01*
X152400000Y-121920000D02*
X149860000Y-121920000D01*
X152400000Y-121920000D02*
X152400000Y-134620000D01*
X154940000Y-121920000D02*
X154940000Y-134620000D01*
X157480000Y-121920000D02*
X154940000Y-121920000D01*
X157480000Y-134620000D02*
X157480000Y-121920000D01*
X167640000Y-121920000D02*
X170180000Y-121920000D01*
X167640000Y-134620000D02*
X167640000Y-121920000D01*
X175260000Y-121920000D02*
X213360000Y-121920000D01*
X175260000Y-121920000D02*
X175260000Y-134620000D01*
X172720000Y-121920000D02*
X175260000Y-121920000D01*
X172720000Y-121920000D02*
X172720000Y-134620000D01*
X170180000Y-121920000D02*
X172720000Y-121920000D01*
X170180000Y-134620000D02*
X170180000Y-121920000D01*
D12*
X213951429Y-122912143D02*
X215451429Y-122912143D01*
X215451429Y-123483571D01*
X215380000Y-123626429D01*
X215308571Y-123697857D01*
X215165714Y-123769286D01*
X214951429Y-123769286D01*
X214808571Y-123697857D01*
X214737143Y-123626429D01*
X214665714Y-123483571D01*
X214665714Y-122912143D01*
X213951429Y-124412143D02*
X214951429Y-124412143D01*
X215451429Y-124412143D02*
X215380000Y-124340714D01*
X215308571Y-124412143D01*
X215380000Y-124483571D01*
X215451429Y-124412143D01*
X215308571Y-124412143D01*
X214951429Y-125126429D02*
X213951429Y-125126429D01*
X214808571Y-125126429D02*
X214880000Y-125197857D01*
X214951429Y-125340715D01*
X214951429Y-125555000D01*
X214880000Y-125697857D01*
X214737143Y-125769286D01*
X213951429Y-125769286D01*
X213951429Y-128412143D02*
X213951429Y-127555000D01*
X213951429Y-127983572D02*
X215451429Y-127983572D01*
X215237143Y-127840715D01*
X215094286Y-127697857D01*
X215022857Y-127555000D01*
D11*
X213360000Y-121920000D02*
X213360000Y-134620000D01*
X215900000Y-121920000D02*
X213360000Y-121920000D01*
D13*
X215305000Y-101690000D02*
X215305000Y-106510000D01*
X212685000Y-101690000D02*
X212685000Y-106510000D01*
X215305000Y-101690000D02*
X214991000Y-101690000D01*
X212999000Y-101690000D02*
X212685000Y-101690000D01*
X215305000Y-106510000D02*
X214991000Y-106510000D01*
X212999000Y-106510000D02*
X212685000Y-106510000D01*
X205375000Y-100210000D02*
X203605000Y-100210000D01*
X203605000Y-100210000D02*
X203605000Y-120770000D01*
X203605000Y-120770000D02*
X209145000Y-120770000D01*
X209145000Y-120770000D02*
X209145000Y-100210000D01*
X209145000Y-100210000D02*
X207375000Y-100210000D01*
X201175000Y-100210000D02*
X201175000Y-120770000D01*
X201175000Y-120770000D02*
X211575000Y-120770000D01*
X211575000Y-120770000D02*
X211575000Y-100210000D01*
X211575000Y-100210000D02*
X201175000Y-100210000D01*
X207375000Y-100210000D02*
G75*
G02X205375000Y-100210000I-1000000J0D01*
G01*
X147995000Y-103595000D02*
X147995000Y-108415000D01*
X145375000Y-103595000D02*
X145375000Y-108415000D01*
X147995000Y-103595000D02*
X147681000Y-103595000D01*
X145689000Y-103595000D02*
X145375000Y-103595000D01*
X147995000Y-108415000D02*
X147681000Y-108415000D01*
X145689000Y-108415000D02*
X145375000Y-108415000D01*
X191810000Y-102325000D02*
X191810000Y-107145000D01*
X189190000Y-102325000D02*
X189190000Y-107145000D01*
X191810000Y-102325000D02*
X191496000Y-102325000D01*
X189504000Y-102325000D02*
X189190000Y-102325000D01*
X191810000Y-107145000D02*
X191496000Y-107145000D01*
X189504000Y-107145000D02*
X189190000Y-107145000D01*
X215960000Y-134690000D02*
X213360000Y-134690000D01*
X213360000Y-134690000D02*
X213360000Y-137310000D01*
X213360000Y-137310000D02*
X215960000Y-137310000D01*
X215960000Y-137310000D02*
X215960000Y-134690000D01*
X215010000Y-137310000D02*
X214250000Y-137310000D01*
X214250000Y-137310000D02*
X214250000Y-143310000D01*
X214250000Y-143310000D02*
X215010000Y-143310000D01*
X215010000Y-143310000D02*
X215010000Y-137310000D01*
X215010000Y-134260000D02*
X215010000Y-134690000D01*
X214250000Y-134260000D02*
X214250000Y-134690000D01*
X214890000Y-137310000D02*
X214890000Y-143310000D01*
X214770000Y-137310000D02*
X214770000Y-143310000D01*
X214650000Y-137310000D02*
X214650000Y-143310000D01*
X214530000Y-137310000D02*
X214530000Y-143310000D01*
X214410000Y-137310000D02*
X214410000Y-143310000D01*
X214290000Y-137310000D02*
X214290000Y-143310000D01*
X213360000Y-134690000D02*
X210820000Y-134690000D01*
X210820000Y-134690000D02*
X210820000Y-137310000D01*
X210820000Y-137310000D02*
X213360000Y-137310000D01*
X213360000Y-137310000D02*
X213360000Y-134690000D01*
X212470000Y-137310000D02*
X211710000Y-137310000D01*
X211710000Y-137310000D02*
X211710000Y-143310000D01*
X211710000Y-143310000D02*
X212470000Y-143310000D01*
X212470000Y-143310000D02*
X212470000Y-137310000D01*
X212470000Y-134260000D02*
X212470000Y-134690000D01*
X211710000Y-134260000D02*
X211710000Y-134690000D01*
X210820000Y-134690000D02*
X208280000Y-134690000D01*
X208280000Y-134690000D02*
X208280000Y-137310000D01*
X208280000Y-137310000D02*
X210820000Y-137310000D01*
X210820000Y-137310000D02*
X210820000Y-134690000D01*
X209930000Y-137310000D02*
X209170000Y-137310000D01*
X209170000Y-137310000D02*
X209170000Y-143310000D01*
X209170000Y-143310000D02*
X209930000Y-143310000D01*
X209930000Y-143310000D02*
X209930000Y-137310000D01*
X209930000Y-134260000D02*
X209930000Y-134690000D01*
X209170000Y-134260000D02*
X209170000Y-134690000D01*
X208280000Y-134690000D02*
X205740000Y-134690000D01*
X205740000Y-134690000D02*
X205740000Y-137310000D01*
X205740000Y-137310000D02*
X208280000Y-137310000D01*
X208280000Y-137310000D02*
X208280000Y-134690000D01*
X207390000Y-137310000D02*
X206630000Y-137310000D01*
X206630000Y-137310000D02*
X206630000Y-143310000D01*
X206630000Y-143310000D02*
X207390000Y-143310000D01*
X207390000Y-143310000D02*
X207390000Y-137310000D01*
X207390000Y-134260000D02*
X207390000Y-134690000D01*
X206630000Y-134260000D02*
X206630000Y-134690000D01*
X205740000Y-134690000D02*
X203200000Y-134690000D01*
X203200000Y-134690000D02*
X203200000Y-137310000D01*
X203200000Y-137310000D02*
X205740000Y-137310000D01*
X205740000Y-137310000D02*
X205740000Y-134690000D01*
X204850000Y-137310000D02*
X204090000Y-137310000D01*
X204090000Y-137310000D02*
X204090000Y-143310000D01*
X204090000Y-143310000D02*
X204850000Y-143310000D01*
X204850000Y-143310000D02*
X204850000Y-137310000D01*
X204850000Y-134260000D02*
X204850000Y-134690000D01*
X204090000Y-134260000D02*
X204090000Y-134690000D01*
X203200000Y-134690000D02*
X200660000Y-134690000D01*
X200660000Y-134690000D02*
X200660000Y-137310000D01*
X200660000Y-137310000D02*
X203200000Y-137310000D01*
X203200000Y-137310000D02*
X203200000Y-134690000D01*
X202310000Y-137310000D02*
X201550000Y-137310000D01*
X201550000Y-137310000D02*
X201550000Y-143310000D01*
X201550000Y-143310000D02*
X202310000Y-143310000D01*
X202310000Y-143310000D02*
X202310000Y-137310000D01*
X202310000Y-134260000D02*
X202310000Y-134690000D01*
X201550000Y-134260000D02*
X201550000Y-134690000D01*
X200660000Y-134690000D02*
X198120000Y-134690000D01*
X198120000Y-134690000D02*
X198120000Y-137310000D01*
X198120000Y-137310000D02*
X200660000Y-137310000D01*
X200660000Y-137310000D02*
X200660000Y-134690000D01*
X199770000Y-137310000D02*
X199010000Y-137310000D01*
X199010000Y-137310000D02*
X199010000Y-143310000D01*
X199010000Y-143310000D02*
X199770000Y-143310000D01*
X199770000Y-143310000D02*
X199770000Y-137310000D01*
X199770000Y-134260000D02*
X199770000Y-134690000D01*
X199010000Y-134260000D02*
X199010000Y-134690000D01*
X198120000Y-134690000D02*
X195580000Y-134690000D01*
X195580000Y-134690000D02*
X195580000Y-137310000D01*
X195580000Y-137310000D02*
X198120000Y-137310000D01*
X198120000Y-137310000D02*
X198120000Y-134690000D01*
X197230000Y-137310000D02*
X196470000Y-137310000D01*
X196470000Y-137310000D02*
X196470000Y-143310000D01*
X196470000Y-143310000D02*
X197230000Y-143310000D01*
X197230000Y-143310000D02*
X197230000Y-137310000D01*
X197230000Y-134260000D02*
X197230000Y-134690000D01*
X196470000Y-134260000D02*
X196470000Y-134690000D01*
X195580000Y-134690000D02*
X193040000Y-134690000D01*
X193040000Y-134690000D02*
X193040000Y-137310000D01*
X193040000Y-137310000D02*
X195580000Y-137310000D01*
X195580000Y-137310000D02*
X195580000Y-134690000D01*
X194690000Y-137310000D02*
X193930000Y-137310000D01*
X193930000Y-137310000D02*
X193930000Y-143310000D01*
X193930000Y-143310000D02*
X194690000Y-143310000D01*
X194690000Y-143310000D02*
X194690000Y-137310000D01*
X194690000Y-134260000D02*
X194690000Y-134690000D01*
X193930000Y-134260000D02*
X193930000Y-134690000D01*
X193040000Y-134690000D02*
X190500000Y-134690000D01*
X190500000Y-134690000D02*
X190500000Y-137310000D01*
X190500000Y-137310000D02*
X193040000Y-137310000D01*
X193040000Y-137310000D02*
X193040000Y-134690000D01*
X192150000Y-137310000D02*
X191390000Y-137310000D01*
X191390000Y-137310000D02*
X191390000Y-143310000D01*
X191390000Y-143310000D02*
X192150000Y-143310000D01*
X192150000Y-143310000D02*
X192150000Y-137310000D01*
X192150000Y-134260000D02*
X192150000Y-134690000D01*
X191390000Y-134260000D02*
X191390000Y-134690000D01*
X190500000Y-134690000D02*
X187960000Y-134690000D01*
X187960000Y-134690000D02*
X187960000Y-137310000D01*
X187960000Y-137310000D02*
X190500000Y-137310000D01*
X190500000Y-137310000D02*
X190500000Y-134690000D01*
X189610000Y-137310000D02*
X188850000Y-137310000D01*
X188850000Y-137310000D02*
X188850000Y-143310000D01*
X188850000Y-143310000D02*
X189610000Y-143310000D01*
X189610000Y-143310000D02*
X189610000Y-137310000D01*
X189610000Y-134260000D02*
X189610000Y-134690000D01*
X188850000Y-134260000D02*
X188850000Y-134690000D01*
X187960000Y-134690000D02*
X185420000Y-134690000D01*
X185420000Y-134690000D02*
X185420000Y-137310000D01*
X185420000Y-137310000D02*
X187960000Y-137310000D01*
X187960000Y-137310000D02*
X187960000Y-134690000D01*
X187070000Y-137310000D02*
X186310000Y-137310000D01*
X186310000Y-137310000D02*
X186310000Y-143310000D01*
X186310000Y-143310000D02*
X187070000Y-143310000D01*
X187070000Y-143310000D02*
X187070000Y-137310000D01*
X187070000Y-134260000D02*
X187070000Y-134690000D01*
X186310000Y-134260000D02*
X186310000Y-134690000D01*
X185420000Y-134690000D02*
X182880000Y-134690000D01*
X182880000Y-134690000D02*
X182880000Y-137310000D01*
X182880000Y-137310000D02*
X185420000Y-137310000D01*
X185420000Y-137310000D02*
X185420000Y-134690000D01*
X184530000Y-137310000D02*
X183770000Y-137310000D01*
X183770000Y-137310000D02*
X183770000Y-143310000D01*
X183770000Y-143310000D02*
X184530000Y-143310000D01*
X184530000Y-143310000D02*
X184530000Y-137310000D01*
X184530000Y-134260000D02*
X184530000Y-134690000D01*
X183770000Y-134260000D02*
X183770000Y-134690000D01*
X182880000Y-134690000D02*
X180340000Y-134690000D01*
X180340000Y-134690000D02*
X180340000Y-137310000D01*
X180340000Y-137310000D02*
X182880000Y-137310000D01*
X182880000Y-137310000D02*
X182880000Y-134690000D01*
X181990000Y-137310000D02*
X181230000Y-137310000D01*
X181230000Y-137310000D02*
X181230000Y-143310000D01*
X181230000Y-143310000D02*
X181990000Y-143310000D01*
X181990000Y-143310000D02*
X181990000Y-137310000D01*
X181990000Y-134260000D02*
X181990000Y-134690000D01*
X181230000Y-134260000D02*
X181230000Y-134690000D01*
X180340000Y-134690000D02*
X177800000Y-134690000D01*
X177800000Y-134690000D02*
X177800000Y-137310000D01*
X177800000Y-137310000D02*
X180340000Y-137310000D01*
X180340000Y-137310000D02*
X180340000Y-134690000D01*
X179450000Y-137310000D02*
X178690000Y-137310000D01*
X178690000Y-137310000D02*
X178690000Y-143310000D01*
X178690000Y-143310000D02*
X179450000Y-143310000D01*
X179450000Y-143310000D02*
X179450000Y-137310000D01*
X179450000Y-134260000D02*
X179450000Y-134690000D01*
X178690000Y-134260000D02*
X178690000Y-134690000D01*
X177800000Y-134690000D02*
X175260000Y-134690000D01*
X175260000Y-134690000D02*
X175260000Y-137310000D01*
X175260000Y-137310000D02*
X177800000Y-137310000D01*
X177800000Y-137310000D02*
X177800000Y-134690000D01*
X176910000Y-137310000D02*
X176150000Y-137310000D01*
X176150000Y-137310000D02*
X176150000Y-143310000D01*
X176150000Y-143310000D02*
X176910000Y-143310000D01*
X176910000Y-143310000D02*
X176910000Y-137310000D01*
X176910000Y-134260000D02*
X176910000Y-134690000D01*
X176150000Y-134260000D02*
X176150000Y-134690000D01*
X175260000Y-134690000D02*
X172720000Y-134690000D01*
X172720000Y-134690000D02*
X172720000Y-137310000D01*
X172720000Y-137310000D02*
X175260000Y-137310000D01*
X175260000Y-137310000D02*
X175260000Y-134690000D01*
X174370000Y-137310000D02*
X173610000Y-137310000D01*
X173610000Y-137310000D02*
X173610000Y-143310000D01*
X173610000Y-143310000D02*
X174370000Y-143310000D01*
X174370000Y-143310000D02*
X174370000Y-137310000D01*
X174370000Y-134260000D02*
X174370000Y-134690000D01*
X173610000Y-134260000D02*
X173610000Y-134690000D01*
X172720000Y-134690000D02*
X170180000Y-134690000D01*
X170180000Y-134690000D02*
X170180000Y-137310000D01*
X170180000Y-137310000D02*
X172720000Y-137310000D01*
X172720000Y-137310000D02*
X172720000Y-134690000D01*
X171830000Y-137310000D02*
X171070000Y-137310000D01*
X171070000Y-137310000D02*
X171070000Y-143310000D01*
X171070000Y-143310000D02*
X171830000Y-143310000D01*
X171830000Y-143310000D02*
X171830000Y-137310000D01*
X171830000Y-134260000D02*
X171830000Y-134690000D01*
X171070000Y-134260000D02*
X171070000Y-134690000D01*
X170180000Y-134690000D02*
X167640000Y-134690000D01*
X167640000Y-134690000D02*
X167640000Y-137310000D01*
X167640000Y-137310000D02*
X170180000Y-137310000D01*
X170180000Y-137310000D02*
X170180000Y-134690000D01*
X169290000Y-137310000D02*
X168530000Y-137310000D01*
X168530000Y-137310000D02*
X168530000Y-143310000D01*
X168530000Y-143310000D02*
X169290000Y-143310000D01*
X169290000Y-143310000D02*
X169290000Y-137310000D01*
X169290000Y-134260000D02*
X169290000Y-134690000D01*
X168530000Y-134260000D02*
X168530000Y-134690000D01*
X167640000Y-134690000D02*
X165100000Y-134690000D01*
X165100000Y-134690000D02*
X165100000Y-137310000D01*
X165100000Y-137310000D02*
X167640000Y-137310000D01*
X167640000Y-137310000D02*
X167640000Y-134690000D01*
X166750000Y-137310000D02*
X165990000Y-137310000D01*
X165990000Y-137310000D02*
X165990000Y-143310000D01*
X165990000Y-143310000D02*
X166750000Y-143310000D01*
X166750000Y-143310000D02*
X166750000Y-137310000D01*
X166750000Y-134260000D02*
X166750000Y-134690000D01*
X165990000Y-134260000D02*
X165990000Y-134690000D01*
X165100000Y-134690000D02*
X162560000Y-134690000D01*
X162560000Y-134690000D02*
X162560000Y-137310000D01*
X162560000Y-137310000D02*
X165100000Y-137310000D01*
X165100000Y-137310000D02*
X165100000Y-134690000D01*
X164210000Y-137310000D02*
X163450000Y-137310000D01*
X163450000Y-137310000D02*
X163450000Y-143310000D01*
X163450000Y-143310000D02*
X164210000Y-143310000D01*
X164210000Y-143310000D02*
X164210000Y-137310000D01*
X164210000Y-134260000D02*
X164210000Y-134690000D01*
X163450000Y-134260000D02*
X163450000Y-134690000D01*
X162560000Y-134690000D02*
X160020000Y-134690000D01*
X160020000Y-134690000D02*
X160020000Y-137310000D01*
X160020000Y-137310000D02*
X162560000Y-137310000D01*
X162560000Y-137310000D02*
X162560000Y-134690000D01*
X161670000Y-137310000D02*
X160910000Y-137310000D01*
X160910000Y-137310000D02*
X160910000Y-143310000D01*
X160910000Y-143310000D02*
X161670000Y-143310000D01*
X161670000Y-143310000D02*
X161670000Y-137310000D01*
X161670000Y-134260000D02*
X161670000Y-134690000D01*
X160910000Y-134260000D02*
X160910000Y-134690000D01*
X160020000Y-134690000D02*
X157480000Y-134690000D01*
X157480000Y-134690000D02*
X157480000Y-137310000D01*
X157480000Y-137310000D02*
X160020000Y-137310000D01*
X160020000Y-137310000D02*
X160020000Y-134690000D01*
X159130000Y-137310000D02*
X158370000Y-137310000D01*
X158370000Y-137310000D02*
X158370000Y-143310000D01*
X158370000Y-143310000D02*
X159130000Y-143310000D01*
X159130000Y-143310000D02*
X159130000Y-137310000D01*
X159130000Y-134260000D02*
X159130000Y-134690000D01*
X158370000Y-134260000D02*
X158370000Y-134690000D01*
X157480000Y-134690000D02*
X154940000Y-134690000D01*
X154940000Y-134690000D02*
X154940000Y-137310000D01*
X154940000Y-137310000D02*
X157480000Y-137310000D01*
X157480000Y-137310000D02*
X157480000Y-134690000D01*
X156590000Y-137310000D02*
X155830000Y-137310000D01*
X155830000Y-137310000D02*
X155830000Y-143310000D01*
X155830000Y-143310000D02*
X156590000Y-143310000D01*
X156590000Y-143310000D02*
X156590000Y-137310000D01*
X156590000Y-134260000D02*
X156590000Y-134690000D01*
X155830000Y-134260000D02*
X155830000Y-134690000D01*
X154940000Y-134690000D02*
X152400000Y-134690000D01*
X152400000Y-134690000D02*
X152400000Y-137310000D01*
X152400000Y-137310000D02*
X154940000Y-137310000D01*
X154940000Y-137310000D02*
X154940000Y-134690000D01*
X154050000Y-137310000D02*
X153290000Y-137310000D01*
X153290000Y-137310000D02*
X153290000Y-143310000D01*
X153290000Y-143310000D02*
X154050000Y-143310000D01*
X154050000Y-143310000D02*
X154050000Y-137310000D01*
X154050000Y-134260000D02*
X154050000Y-134690000D01*
X153290000Y-134260000D02*
X153290000Y-134690000D01*
X152400000Y-134690000D02*
X149860000Y-134690000D01*
X149860000Y-134690000D02*
X149860000Y-137310000D01*
X149860000Y-137310000D02*
X152400000Y-137310000D01*
X152400000Y-137310000D02*
X152400000Y-134690000D01*
X151510000Y-137310000D02*
X150750000Y-137310000D01*
X150750000Y-137310000D02*
X150750000Y-143310000D01*
X150750000Y-143310000D02*
X151510000Y-143310000D01*
X151510000Y-143310000D02*
X151510000Y-137310000D01*
X151510000Y-134260000D02*
X151510000Y-134690000D01*
X150750000Y-134260000D02*
X150750000Y-134690000D01*
X149860000Y-134690000D02*
X147320000Y-134690000D01*
X147320000Y-134690000D02*
X147320000Y-137310000D01*
X147320000Y-137310000D02*
X149860000Y-137310000D01*
X149860000Y-137310000D02*
X149860000Y-134690000D01*
X148970000Y-137310000D02*
X148210000Y-137310000D01*
X148210000Y-137310000D02*
X148210000Y-143310000D01*
X148210000Y-143310000D02*
X148970000Y-143310000D01*
X148970000Y-143310000D02*
X148970000Y-137310000D01*
X148970000Y-134260000D02*
X148970000Y-134690000D01*
X148210000Y-134260000D02*
X148210000Y-134690000D01*
X147320000Y-134690000D02*
X144780000Y-134690000D01*
X144780000Y-134690000D02*
X144780000Y-137310000D01*
X144780000Y-137310000D02*
X147320000Y-137310000D01*
X147320000Y-137310000D02*
X147320000Y-134690000D01*
X146430000Y-137310000D02*
X145670000Y-137310000D01*
X145670000Y-137310000D02*
X145670000Y-143310000D01*
X145670000Y-143310000D02*
X146430000Y-143310000D01*
X146430000Y-143310000D02*
X146430000Y-137310000D01*
X146430000Y-134260000D02*
X146430000Y-134690000D01*
X145670000Y-134260000D02*
X145670000Y-134690000D01*
X144780000Y-134690000D02*
X142240000Y-134690000D01*
X142240000Y-134690000D02*
X142240000Y-137310000D01*
X142240000Y-137310000D02*
X144780000Y-137310000D01*
X144780000Y-137310000D02*
X144780000Y-134690000D01*
X143890000Y-137310000D02*
X143130000Y-137310000D01*
X143130000Y-137310000D02*
X143130000Y-143310000D01*
X143130000Y-143310000D02*
X143890000Y-143310000D01*
X143890000Y-143310000D02*
X143890000Y-137310000D01*
X143890000Y-134260000D02*
X143890000Y-134690000D01*
X143130000Y-134260000D02*
X143130000Y-134690000D01*
X142240000Y-134690000D02*
X139700000Y-134690000D01*
X139700000Y-134690000D02*
X139700000Y-137310000D01*
X139700000Y-137310000D02*
X142240000Y-137310000D01*
X142240000Y-137310000D02*
X142240000Y-134690000D01*
X141350000Y-137310000D02*
X140590000Y-137310000D01*
X140590000Y-137310000D02*
X140590000Y-143310000D01*
X140590000Y-143310000D02*
X141350000Y-143310000D01*
X141350000Y-143310000D02*
X141350000Y-137310000D01*
X141350000Y-134260000D02*
X141350000Y-134690000D01*
X140590000Y-134260000D02*
X140590000Y-134690000D01*
X139700000Y-134690000D02*
X137160000Y-134690000D01*
X137160000Y-134690000D02*
X137160000Y-137310000D01*
X137160000Y-137310000D02*
X139700000Y-137310000D01*
X139700000Y-137310000D02*
X139700000Y-134690000D01*
X138810000Y-137310000D02*
X138050000Y-137310000D01*
X138050000Y-137310000D02*
X138050000Y-143310000D01*
X138050000Y-143310000D02*
X138810000Y-143310000D01*
X138810000Y-143310000D02*
X138810000Y-137310000D01*
X138810000Y-134260000D02*
X138810000Y-134690000D01*
X138050000Y-134260000D02*
X138050000Y-134690000D01*
X137160000Y-134690000D02*
X134620000Y-134690000D01*
X134620000Y-134690000D02*
X134620000Y-137310000D01*
X134620000Y-137310000D02*
X137160000Y-137310000D01*
X137160000Y-137310000D02*
X137160000Y-134690000D01*
X136270000Y-137310000D02*
X135510000Y-137310000D01*
X135510000Y-137310000D02*
X135510000Y-143310000D01*
X135510000Y-143310000D02*
X136270000Y-143310000D01*
X136270000Y-143310000D02*
X136270000Y-137310000D01*
X136270000Y-134260000D02*
X136270000Y-134690000D01*
X135510000Y-134260000D02*
X135510000Y-134690000D01*
X134620000Y-134690000D02*
X132080000Y-134690000D01*
X132080000Y-134690000D02*
X132080000Y-137310000D01*
X132080000Y-137310000D02*
X134620000Y-137310000D01*
X134620000Y-137310000D02*
X134620000Y-134690000D01*
X133730000Y-137310000D02*
X132970000Y-137310000D01*
X132970000Y-137310000D02*
X132970000Y-143310000D01*
X132970000Y-143310000D02*
X133730000Y-143310000D01*
X133730000Y-143310000D02*
X133730000Y-137310000D01*
X133730000Y-134260000D02*
X133730000Y-134690000D01*
X132970000Y-134260000D02*
X132970000Y-134690000D01*
X132080000Y-134690000D02*
X129540000Y-134690000D01*
X129540000Y-134690000D02*
X129540000Y-137310000D01*
X129540000Y-137310000D02*
X132080000Y-137310000D01*
X132080000Y-137310000D02*
X132080000Y-134690000D01*
X131190000Y-137310000D02*
X130430000Y-137310000D01*
X130430000Y-137310000D02*
X130430000Y-143310000D01*
X130430000Y-143310000D02*
X131190000Y-143310000D01*
X131190000Y-143310000D02*
X131190000Y-137310000D01*
X131190000Y-134260000D02*
X131190000Y-134690000D01*
X130430000Y-134260000D02*
X130430000Y-134690000D01*
X129540000Y-134690000D02*
X127000000Y-134690000D01*
X127000000Y-134690000D02*
X127000000Y-137310000D01*
X127000000Y-137310000D02*
X129540000Y-137310000D01*
X129540000Y-137310000D02*
X129540000Y-134690000D01*
X128650000Y-137310000D02*
X127890000Y-137310000D01*
X127890000Y-137310000D02*
X127890000Y-143310000D01*
X127890000Y-143310000D02*
X128650000Y-143310000D01*
X128650000Y-143310000D02*
X128650000Y-137310000D01*
X128650000Y-134260000D02*
X128650000Y-134690000D01*
X127890000Y-134260000D02*
X127890000Y-134690000D01*
X127000000Y-134690000D02*
X124460000Y-134690000D01*
X124460000Y-134690000D02*
X124460000Y-137310000D01*
X124460000Y-137310000D02*
X127000000Y-137310000D01*
X127000000Y-137310000D02*
X127000000Y-134690000D01*
X126110000Y-137310000D02*
X125350000Y-137310000D01*
X125350000Y-137310000D02*
X125350000Y-143310000D01*
X125350000Y-143310000D02*
X126110000Y-143310000D01*
X126110000Y-143310000D02*
X126110000Y-137310000D01*
X126110000Y-134260000D02*
X126110000Y-134690000D01*
X125350000Y-134260000D02*
X125350000Y-134690000D01*
X124460000Y-134690000D02*
X121920000Y-134690000D01*
X121920000Y-134690000D02*
X121920000Y-137310000D01*
X121920000Y-137310000D02*
X124460000Y-137310000D01*
X124460000Y-137310000D02*
X124460000Y-134690000D01*
X123570000Y-137310000D02*
X122810000Y-137310000D01*
X122810000Y-137310000D02*
X122810000Y-143310000D01*
X122810000Y-143310000D02*
X123570000Y-143310000D01*
X123570000Y-143310000D02*
X123570000Y-137310000D01*
X123570000Y-134260000D02*
X123570000Y-134690000D01*
X122810000Y-134260000D02*
X122810000Y-134690000D01*
X121920000Y-134690000D02*
X119380000Y-134690000D01*
X119380000Y-134690000D02*
X119380000Y-137310000D01*
X119380000Y-137310000D02*
X121920000Y-137310000D01*
X121920000Y-137310000D02*
X121920000Y-134690000D01*
X121030000Y-137310000D02*
X120270000Y-137310000D01*
X120270000Y-137310000D02*
X120270000Y-143310000D01*
X120270000Y-143310000D02*
X121030000Y-143310000D01*
X121030000Y-143310000D02*
X121030000Y-137310000D01*
X121030000Y-134260000D02*
X121030000Y-134690000D01*
X120270000Y-134260000D02*
X120270000Y-134690000D01*
X119380000Y-134690000D02*
X116780000Y-134690000D01*
X116780000Y-134690000D02*
X116780000Y-137310000D01*
X116780000Y-137310000D02*
X119380000Y-137310000D01*
X119380000Y-137310000D02*
X119380000Y-134690000D01*
X118490000Y-137310000D02*
X117730000Y-137310000D01*
X117730000Y-137310000D02*
X117730000Y-143310000D01*
X117730000Y-143310000D02*
X118490000Y-143310000D01*
X118490000Y-143310000D02*
X118490000Y-137310000D01*
X118490000Y-134260000D02*
X118490000Y-134690000D01*
X117730000Y-134260000D02*
X117730000Y-134690000D01*
X214630000Y-132080000D02*
X215900000Y-132080000D01*
X215900000Y-132080000D02*
X215900000Y-133350000D01*
X185995000Y-85020000D02*
X188595000Y-85020000D01*
X188595000Y-85020000D02*
X188595000Y-82400000D01*
X188595000Y-82400000D02*
X185995000Y-82400000D01*
X185995000Y-82400000D02*
X185995000Y-85020000D01*
X186945000Y-82400000D02*
X187705000Y-82400000D01*
X187705000Y-82400000D02*
X187705000Y-76400000D01*
X187705000Y-76400000D02*
X186945000Y-76400000D01*
X186945000Y-76400000D02*
X186945000Y-82400000D01*
X186945000Y-85450000D02*
X186945000Y-85020000D01*
X187705000Y-85450000D02*
X187705000Y-85020000D01*
X187065000Y-82400000D02*
X187065000Y-76400000D01*
X187185000Y-82400000D02*
X187185000Y-76400000D01*
X187305000Y-82400000D02*
X187305000Y-76400000D01*
X187425000Y-82400000D02*
X187425000Y-76400000D01*
X187545000Y-82400000D02*
X187545000Y-76400000D01*
X187665000Y-82400000D02*
X187665000Y-76400000D01*
X188595000Y-85020000D02*
X191195000Y-85020000D01*
X191195000Y-85020000D02*
X191195000Y-82400000D01*
X191195000Y-82400000D02*
X188595000Y-82400000D01*
X188595000Y-82400000D02*
X188595000Y-85020000D01*
X189485000Y-82400000D02*
X190245000Y-82400000D01*
X190245000Y-82400000D02*
X190245000Y-76400000D01*
X190245000Y-76400000D02*
X189485000Y-76400000D01*
X189485000Y-76400000D02*
X189485000Y-82400000D01*
X189485000Y-85450000D02*
X189485000Y-85020000D01*
X190245000Y-85450000D02*
X190245000Y-85020000D01*
X187325000Y-87630000D02*
X186055000Y-87630000D01*
X186055000Y-87630000D02*
X186055000Y-86360000D01*
X122825000Y-102115000D02*
X121055000Y-102115000D01*
X121055000Y-102115000D02*
X121055000Y-127755000D01*
X121055000Y-127755000D02*
X126595000Y-127755000D01*
X126595000Y-127755000D02*
X126595000Y-102115000D01*
X126595000Y-102115000D02*
X124825000Y-102115000D01*
X118625000Y-102115000D02*
X118625000Y-127755000D01*
X118625000Y-127755000D02*
X129025000Y-127755000D01*
X129025000Y-127755000D02*
X129025000Y-102115000D01*
X129025000Y-102115000D02*
X118625000Y-102115000D01*
X124825000Y-102115000D02*
G75*
G02X122825000Y-102115000I-1000000J0D01*
G01*
X181880000Y-100845000D02*
X180110000Y-100845000D01*
X180110000Y-100845000D02*
X180110000Y-121405000D01*
X180110000Y-121405000D02*
X185650000Y-121405000D01*
X185650000Y-121405000D02*
X185650000Y-100845000D01*
X185650000Y-100845000D02*
X183880000Y-100845000D01*
X177680000Y-100845000D02*
X177680000Y-121405000D01*
X177680000Y-121405000D02*
X188080000Y-121405000D01*
X188080000Y-121405000D02*
X188080000Y-100845000D01*
X188080000Y-100845000D02*
X177680000Y-100845000D01*
X183880000Y-100845000D02*
G75*
G02X181880000Y-100845000I-1000000J0D01*
G01*
X157440000Y-108495000D02*
X157440000Y-103675000D01*
X160060000Y-108495000D02*
X160060000Y-103675000D01*
X157440000Y-108495000D02*
X157754000Y-108495000D01*
X159746000Y-108495000D02*
X160060000Y-108495000D01*
X157440000Y-103675000D02*
X157754000Y-103675000D01*
X159746000Y-103675000D02*
X160060000Y-103675000D01*
X154718137Y-116551400D02*
G75*
G03X159512436Y-116550000I2396863J981400D01*
G01*
X154718137Y-114588600D02*
G75*
G02X159512436Y-114590000I2396863J-981400D01*
G01*
X154718137Y-114588600D02*
G75*
G03X154717564Y-116550000I2396863J-981400D01*
G01*
X157115000Y-118120000D02*
X157115000Y-113020000D01*
X157075000Y-118120000D02*
X157075000Y-116550000D01*
X157075000Y-114590000D02*
X157075000Y-113020000D01*
X157035000Y-118119000D02*
X157035000Y-116550000D01*
X157035000Y-114590000D02*
X157035000Y-113021000D01*
X156995000Y-118118000D02*
X156995000Y-116550000D01*
X156995000Y-114590000D02*
X156995000Y-113022000D01*
X156955000Y-118116000D02*
X156955000Y-116550000D01*
X156955000Y-114590000D02*
X156955000Y-113024000D01*
X156915000Y-118113000D02*
X156915000Y-116550000D01*
X156915000Y-114590000D02*
X156915000Y-113027000D01*
X156875000Y-118109000D02*
X156875000Y-116550000D01*
X156875000Y-114590000D02*
X156875000Y-113031000D01*
X156835000Y-118105000D02*
X156835000Y-116550000D01*
X156835000Y-114590000D02*
X156835000Y-113035000D01*
X156795000Y-118101000D02*
X156795000Y-116550000D01*
X156795000Y-114590000D02*
X156795000Y-113039000D01*
X156755000Y-118095000D02*
X156755000Y-116550000D01*
X156755000Y-114590000D02*
X156755000Y-113045000D01*
X156715000Y-118089000D02*
X156715000Y-116550000D01*
X156715000Y-114590000D02*
X156715000Y-113051000D01*
X156675000Y-118083000D02*
X156675000Y-116550000D01*
X156675000Y-114590000D02*
X156675000Y-113057000D01*
X156635000Y-118076000D02*
X156635000Y-116550000D01*
X156635000Y-114590000D02*
X156635000Y-113064000D01*
X156595000Y-118068000D02*
X156595000Y-116550000D01*
X156595000Y-114590000D02*
X156595000Y-113072000D01*
X156555000Y-118059000D02*
X156555000Y-116550000D01*
X156555000Y-114590000D02*
X156555000Y-113081000D01*
X156515000Y-118050000D02*
X156515000Y-116550000D01*
X156515000Y-114590000D02*
X156515000Y-113090000D01*
X156475000Y-118040000D02*
X156475000Y-116550000D01*
X156475000Y-114590000D02*
X156475000Y-113100000D01*
X156435000Y-118030000D02*
X156435000Y-116550000D01*
X156435000Y-114590000D02*
X156435000Y-113110000D01*
X156394000Y-118018000D02*
X156394000Y-116550000D01*
X156394000Y-114590000D02*
X156394000Y-113122000D01*
X156354000Y-118006000D02*
X156354000Y-116550000D01*
X156354000Y-114590000D02*
X156354000Y-113134000D01*
X156314000Y-117994000D02*
X156314000Y-116550000D01*
X156314000Y-114590000D02*
X156314000Y-113146000D01*
X156274000Y-117980000D02*
X156274000Y-116550000D01*
X156274000Y-114590000D02*
X156274000Y-113160000D01*
X156234000Y-117966000D02*
X156234000Y-116550000D01*
X156234000Y-114590000D02*
X156234000Y-113174000D01*
X156194000Y-117952000D02*
X156194000Y-116550000D01*
X156194000Y-114590000D02*
X156194000Y-113188000D01*
X156154000Y-117936000D02*
X156154000Y-116550000D01*
X156154000Y-114590000D02*
X156154000Y-113204000D01*
X156114000Y-117920000D02*
X156114000Y-116550000D01*
X156114000Y-114590000D02*
X156114000Y-113220000D01*
X156074000Y-117903000D02*
X156074000Y-116550000D01*
X156074000Y-114590000D02*
X156074000Y-113237000D01*
X156034000Y-117885000D02*
X156034000Y-116550000D01*
X156034000Y-114590000D02*
X156034000Y-113255000D01*
X155994000Y-117866000D02*
X155994000Y-116550000D01*
X155994000Y-114590000D02*
X155994000Y-113274000D01*
X155954000Y-117846000D02*
X155954000Y-116550000D01*
X155954000Y-114590000D02*
X155954000Y-113294000D01*
X155914000Y-117826000D02*
X155914000Y-116550000D01*
X155914000Y-114590000D02*
X155914000Y-113314000D01*
X155874000Y-117804000D02*
X155874000Y-116550000D01*
X155874000Y-114590000D02*
X155874000Y-113336000D01*
X155834000Y-117782000D02*
X155834000Y-116550000D01*
X155834000Y-114590000D02*
X155834000Y-113358000D01*
X155794000Y-117759000D02*
X155794000Y-116550000D01*
X155794000Y-114590000D02*
X155794000Y-113381000D01*
X155754000Y-117735000D02*
X155754000Y-116550000D01*
X155754000Y-114590000D02*
X155754000Y-113405000D01*
X155714000Y-117710000D02*
X155714000Y-116550000D01*
X155714000Y-114590000D02*
X155714000Y-113430000D01*
X155674000Y-117683000D02*
X155674000Y-116550000D01*
X155674000Y-114590000D02*
X155674000Y-113457000D01*
X155634000Y-117656000D02*
X155634000Y-116550000D01*
X155634000Y-114590000D02*
X155634000Y-113484000D01*
X155594000Y-117628000D02*
X155594000Y-116550000D01*
X155594000Y-114590000D02*
X155594000Y-113512000D01*
X155554000Y-117598000D02*
X155554000Y-116550000D01*
X155554000Y-114590000D02*
X155554000Y-113542000D01*
X155514000Y-117567000D02*
X155514000Y-116550000D01*
X155514000Y-114590000D02*
X155514000Y-113573000D01*
X155474000Y-117535000D02*
X155474000Y-116550000D01*
X155474000Y-114590000D02*
X155474000Y-113605000D01*
X155434000Y-117502000D02*
X155434000Y-116550000D01*
X155434000Y-114590000D02*
X155434000Y-113638000D01*
X155394000Y-117467000D02*
X155394000Y-116550000D01*
X155394000Y-114590000D02*
X155394000Y-113673000D01*
X155354000Y-117431000D02*
X155354000Y-116550000D01*
X155354000Y-114590000D02*
X155354000Y-113709000D01*
X155314000Y-117393000D02*
X155314000Y-116550000D01*
X155314000Y-114590000D02*
X155314000Y-113747000D01*
X155274000Y-117353000D02*
X155274000Y-116550000D01*
X155274000Y-114590000D02*
X155274000Y-113787000D01*
X155234000Y-117312000D02*
X155234000Y-116550000D01*
X155234000Y-114590000D02*
X155234000Y-113828000D01*
X155194000Y-117269000D02*
X155194000Y-116550000D01*
X155194000Y-114590000D02*
X155194000Y-113871000D01*
X155154000Y-117224000D02*
X155154000Y-116550000D01*
X155154000Y-114590000D02*
X155154000Y-113916000D01*
X155114000Y-117176000D02*
X155114000Y-113964000D01*
X155074000Y-117126000D02*
X155074000Y-114014000D01*
X155034000Y-117074000D02*
X155034000Y-114066000D01*
X154994000Y-117018000D02*
X154994000Y-114122000D01*
X154954000Y-116960000D02*
X154954000Y-114180000D01*
X154914000Y-116897000D02*
X154914000Y-114243000D01*
X154874000Y-116831000D02*
X154874000Y-114309000D01*
X154834000Y-116759000D02*
X154834000Y-114381000D01*
X154794000Y-116682000D02*
X154794000Y-114458000D01*
X154754000Y-116598000D02*
X154754000Y-114542000D01*
X154714000Y-116504000D02*
X154714000Y-114636000D01*
X154674000Y-116399000D02*
X154674000Y-114741000D01*
X154634000Y-116277000D02*
X154634000Y-114863000D01*
X154594000Y-116129000D02*
X154594000Y-115011000D01*
X154554000Y-115924000D02*
X154554000Y-115216000D01*
X160315000Y-115570000D02*
X159115000Y-115570000D01*
X159715000Y-116220000D02*
X159715000Y-114920000D01*
X151725000Y-108495000D02*
X151725000Y-103675000D01*
X154345000Y-108495000D02*
X154345000Y-103675000D01*
X151725000Y-108495000D02*
X152039000Y-108495000D01*
X154031000Y-108495000D02*
X154345000Y-108495000D01*
X151725000Y-103675000D02*
X152039000Y-103675000D01*
X154031000Y-103675000D02*
X154345000Y-103675000D01*
X192345000Y-85020000D02*
X194945000Y-85020000D01*
X194945000Y-85020000D02*
X194945000Y-82400000D01*
X194945000Y-82400000D02*
X192345000Y-82400000D01*
X192345000Y-82400000D02*
X192345000Y-85020000D01*
X193295000Y-82400000D02*
X194055000Y-82400000D01*
X194055000Y-82400000D02*
X194055000Y-76400000D01*
X194055000Y-76400000D02*
X193295000Y-76400000D01*
X193295000Y-76400000D02*
X193295000Y-82400000D01*
X193295000Y-85450000D02*
X193295000Y-85020000D01*
X194055000Y-85450000D02*
X194055000Y-85020000D01*
X193415000Y-82400000D02*
X193415000Y-76400000D01*
X193535000Y-82400000D02*
X193535000Y-76400000D01*
X193655000Y-82400000D02*
X193655000Y-76400000D01*
X193775000Y-82400000D02*
X193775000Y-76400000D01*
X193895000Y-82400000D02*
X193895000Y-76400000D01*
X194015000Y-82400000D02*
X194015000Y-76400000D01*
X194945000Y-85020000D02*
X197545000Y-85020000D01*
X197545000Y-85020000D02*
X197545000Y-82400000D01*
X197545000Y-82400000D02*
X194945000Y-82400000D01*
X194945000Y-82400000D02*
X194945000Y-85020000D01*
X195835000Y-82400000D02*
X196595000Y-82400000D01*
X196595000Y-82400000D02*
X196595000Y-76400000D01*
X196595000Y-76400000D02*
X195835000Y-76400000D01*
X195835000Y-76400000D02*
X195835000Y-82400000D01*
X195835000Y-85450000D02*
X195835000Y-85020000D01*
X196595000Y-85450000D02*
X196595000Y-85020000D01*
X193675000Y-87630000D02*
X192405000Y-87630000D01*
X192405000Y-87630000D02*
X192405000Y-86360000D01*
X192980000Y-102870000D02*
X192980000Y-120710000D01*
X192980000Y-120710000D02*
X198180000Y-120710000D01*
X198180000Y-120710000D02*
X198180000Y-100270000D01*
X198180000Y-100270000D02*
X195580000Y-100270000D01*
X195580000Y-100270000D02*
X195580000Y-102870000D01*
X195580000Y-102870000D02*
X192980000Y-102870000D01*
X192980000Y-101600000D02*
X192980000Y-100270000D01*
X192980000Y-100270000D02*
X194310000Y-100270000D01*
X148860000Y-118120000D02*
X148860000Y-113020000D01*
X148820000Y-118120000D02*
X148820000Y-116550000D01*
X148820000Y-114590000D02*
X148820000Y-113020000D01*
X148780000Y-118119000D02*
X148780000Y-116550000D01*
X148780000Y-114590000D02*
X148780000Y-113021000D01*
X148740000Y-118118000D02*
X148740000Y-116550000D01*
X148740000Y-114590000D02*
X148740000Y-113022000D01*
X148700000Y-118116000D02*
X148700000Y-116550000D01*
X148700000Y-114590000D02*
X148700000Y-113024000D01*
X148660000Y-118113000D02*
X148660000Y-116550000D01*
X148660000Y-114590000D02*
X148660000Y-113027000D01*
X148620000Y-118109000D02*
X148620000Y-116550000D01*
X148620000Y-114590000D02*
X148620000Y-113031000D01*
X148580000Y-118105000D02*
X148580000Y-116550000D01*
X148580000Y-114590000D02*
X148580000Y-113035000D01*
X148540000Y-118101000D02*
X148540000Y-116550000D01*
X148540000Y-114590000D02*
X148540000Y-113039000D01*
X148500000Y-118095000D02*
X148500000Y-116550000D01*
X148500000Y-114590000D02*
X148500000Y-113045000D01*
X148460000Y-118089000D02*
X148460000Y-116550000D01*
X148460000Y-114590000D02*
X148460000Y-113051000D01*
X148420000Y-118083000D02*
X148420000Y-116550000D01*
X148420000Y-114590000D02*
X148420000Y-113057000D01*
X148380000Y-118076000D02*
X148380000Y-116550000D01*
X148380000Y-114590000D02*
X148380000Y-113064000D01*
X148340000Y-118068000D02*
X148340000Y-116550000D01*
X148340000Y-114590000D02*
X148340000Y-113072000D01*
X148300000Y-118059000D02*
X148300000Y-116550000D01*
X148300000Y-114590000D02*
X148300000Y-113081000D01*
X148260000Y-118050000D02*
X148260000Y-116550000D01*
X148260000Y-114590000D02*
X148260000Y-113090000D01*
X148220000Y-118040000D02*
X148220000Y-116550000D01*
X148220000Y-114590000D02*
X148220000Y-113100000D01*
X148180000Y-118030000D02*
X148180000Y-116550000D01*
X148180000Y-114590000D02*
X148180000Y-113110000D01*
X148139000Y-118018000D02*
X148139000Y-116550000D01*
X148139000Y-114590000D02*
X148139000Y-113122000D01*
X148099000Y-118006000D02*
X148099000Y-116550000D01*
X148099000Y-114590000D02*
X148099000Y-113134000D01*
X148059000Y-117994000D02*
X148059000Y-116550000D01*
X148059000Y-114590000D02*
X148059000Y-113146000D01*
X148019000Y-117980000D02*
X148019000Y-116550000D01*
X148019000Y-114590000D02*
X148019000Y-113160000D01*
X147979000Y-117966000D02*
X147979000Y-116550000D01*
X147979000Y-114590000D02*
X147979000Y-113174000D01*
X147939000Y-117952000D02*
X147939000Y-116550000D01*
X147939000Y-114590000D02*
X147939000Y-113188000D01*
X147899000Y-117936000D02*
X147899000Y-116550000D01*
X147899000Y-114590000D02*
X147899000Y-113204000D01*
X147859000Y-117920000D02*
X147859000Y-116550000D01*
X147859000Y-114590000D02*
X147859000Y-113220000D01*
X147819000Y-117903000D02*
X147819000Y-116550000D01*
X147819000Y-114590000D02*
X147819000Y-113237000D01*
X147779000Y-117885000D02*
X147779000Y-116550000D01*
X147779000Y-114590000D02*
X147779000Y-113255000D01*
X147739000Y-117866000D02*
X147739000Y-116550000D01*
X147739000Y-114590000D02*
X147739000Y-113274000D01*
X147699000Y-117846000D02*
X147699000Y-116550000D01*
X147699000Y-114590000D02*
X147699000Y-113294000D01*
X147659000Y-117826000D02*
X147659000Y-116550000D01*
X147659000Y-114590000D02*
X147659000Y-113314000D01*
X147619000Y-117804000D02*
X147619000Y-116550000D01*
X147619000Y-114590000D02*
X147619000Y-113336000D01*
X147579000Y-117782000D02*
X147579000Y-116550000D01*
X147579000Y-114590000D02*
X147579000Y-113358000D01*
X147539000Y-117759000D02*
X147539000Y-116550000D01*
X147539000Y-114590000D02*
X147539000Y-113381000D01*
X147499000Y-117735000D02*
X147499000Y-116550000D01*
X147499000Y-114590000D02*
X147499000Y-113405000D01*
X147459000Y-117710000D02*
X147459000Y-116550000D01*
X147459000Y-114590000D02*
X147459000Y-113430000D01*
X147419000Y-117683000D02*
X147419000Y-116550000D01*
X147419000Y-114590000D02*
X147419000Y-113457000D01*
X147379000Y-117656000D02*
X147379000Y-116550000D01*
X147379000Y-114590000D02*
X147379000Y-113484000D01*
X147339000Y-117628000D02*
X147339000Y-116550000D01*
X147339000Y-114590000D02*
X147339000Y-113512000D01*
X147299000Y-117598000D02*
X147299000Y-116550000D01*
X147299000Y-114590000D02*
X147299000Y-113542000D01*
X147259000Y-117567000D02*
X147259000Y-116550000D01*
X147259000Y-114590000D02*
X147259000Y-113573000D01*
X147219000Y-117535000D02*
X147219000Y-116550000D01*
X147219000Y-114590000D02*
X147219000Y-113605000D01*
X147179000Y-117502000D02*
X147179000Y-116550000D01*
X147179000Y-114590000D02*
X147179000Y-113638000D01*
X147139000Y-117467000D02*
X147139000Y-116550000D01*
X147139000Y-114590000D02*
X147139000Y-113673000D01*
X147099000Y-117431000D02*
X147099000Y-116550000D01*
X147099000Y-114590000D02*
X147099000Y-113709000D01*
X147059000Y-117393000D02*
X147059000Y-116550000D01*
X147059000Y-114590000D02*
X147059000Y-113747000D01*
X147019000Y-117353000D02*
X147019000Y-116550000D01*
X147019000Y-114590000D02*
X147019000Y-113787000D01*
X146979000Y-117312000D02*
X146979000Y-116550000D01*
X146979000Y-114590000D02*
X146979000Y-113828000D01*
X146939000Y-117269000D02*
X146939000Y-116550000D01*
X146939000Y-114590000D02*
X146939000Y-113871000D01*
X146899000Y-117224000D02*
X146899000Y-116550000D01*
X146899000Y-114590000D02*
X146899000Y-113916000D01*
X146859000Y-117176000D02*
X146859000Y-113964000D01*
X146819000Y-117126000D02*
X146819000Y-114014000D01*
X146779000Y-117074000D02*
X146779000Y-114066000D01*
X146739000Y-117018000D02*
X146739000Y-114122000D01*
X146699000Y-116960000D02*
X146699000Y-114180000D01*
X146659000Y-116897000D02*
X146659000Y-114243000D01*
X146619000Y-116831000D02*
X146619000Y-114309000D01*
X146579000Y-116759000D02*
X146579000Y-114381000D01*
X146539000Y-116682000D02*
X146539000Y-114458000D01*
X146499000Y-116598000D02*
X146499000Y-114542000D01*
X146459000Y-116504000D02*
X146459000Y-114636000D01*
X146419000Y-116399000D02*
X146419000Y-114741000D01*
X146379000Y-116277000D02*
X146379000Y-114863000D01*
X146339000Y-116129000D02*
X146339000Y-115011000D01*
X146299000Y-115924000D02*
X146299000Y-115216000D01*
X152060000Y-115570000D02*
X150860000Y-115570000D01*
X151460000Y-116220000D02*
X151460000Y-114920000D01*
X146463137Y-116551400D02*
G75*
G03X151257436Y-116550000I2396863J981400D01*
G01*
X146463137Y-114588600D02*
G75*
G02X151257436Y-114590000I2396863J-981400D01*
G01*
X146463137Y-114588600D02*
G75*
G03X146462564Y-116550000I2396863J-981400D01*
G01*
X195370000Y-124940000D02*
X193250000Y-124940000D01*
X193250000Y-124940000D02*
X193250000Y-129060000D01*
X193250000Y-129060000D02*
X195370000Y-129060000D01*
X195370000Y-129060000D02*
X195370000Y-124940000D01*
X194310000Y-124170000D02*
X194310000Y-124940000D01*
X194310000Y-129830000D02*
X194310000Y-129060000D01*
X195370000Y-125600000D02*
X193250000Y-125600000D01*
X192830000Y-124940000D02*
X190710000Y-124940000D01*
X190710000Y-124940000D02*
X190710000Y-129060000D01*
X190710000Y-129060000D02*
X192830000Y-129060000D01*
X192830000Y-129060000D02*
X192830000Y-124940000D01*
X191770000Y-124170000D02*
X191770000Y-124940000D01*
X191770000Y-129830000D02*
X191770000Y-129060000D01*
X192830000Y-125600000D02*
X190710000Y-125600000D01*
X190290000Y-124940000D02*
X188170000Y-124940000D01*
X188170000Y-124940000D02*
X188170000Y-129060000D01*
X188170000Y-129060000D02*
X190290000Y-129060000D01*
X190290000Y-129060000D02*
X190290000Y-124940000D01*
X189230000Y-124170000D02*
X189230000Y-124940000D01*
X189230000Y-129830000D02*
X189230000Y-129060000D01*
X190290000Y-125600000D02*
X188170000Y-125600000D01*
X187750000Y-124940000D02*
X185630000Y-124940000D01*
X185630000Y-124940000D02*
X185630000Y-129060000D01*
X185630000Y-129060000D02*
X187750000Y-129060000D01*
X187750000Y-129060000D02*
X187750000Y-124940000D01*
X186690000Y-124170000D02*
X186690000Y-124940000D01*
X186690000Y-129830000D02*
X186690000Y-129060000D01*
X187750000Y-125600000D02*
X185630000Y-125600000D01*
X185210000Y-124940000D02*
X183090000Y-124940000D01*
X183090000Y-124940000D02*
X183090000Y-129060000D01*
X183090000Y-129060000D02*
X185210000Y-129060000D01*
X185210000Y-129060000D02*
X185210000Y-124940000D01*
X184150000Y-124170000D02*
X184150000Y-124940000D01*
X184150000Y-129830000D02*
X184150000Y-129060000D01*
X185210000Y-125600000D02*
X183090000Y-125600000D01*
X182670000Y-124940000D02*
X180550000Y-124940000D01*
X180550000Y-124940000D02*
X180550000Y-129060000D01*
X180550000Y-129060000D02*
X182670000Y-129060000D01*
X182670000Y-129060000D02*
X182670000Y-124940000D01*
X181610000Y-124170000D02*
X181610000Y-124940000D01*
X181610000Y-129830000D02*
X181610000Y-129060000D01*
X182670000Y-125600000D02*
X180550000Y-125600000D01*
D14*
X203200000Y-86995000D02*
X215600000Y-86995000D01*
X215600000Y-86995000D02*
X215600000Y-97795000D01*
X215600000Y-97795000D02*
X203200000Y-97795000D01*
X203200000Y-97795000D02*
X203200000Y-86995000D01*
D13*
X140910000Y-90805000D02*
X140910000Y-98485000D01*
X140910000Y-98485000D02*
X146110000Y-98485000D01*
X146110000Y-98485000D02*
X146110000Y-88205000D01*
X146110000Y-88205000D02*
X143510000Y-88205000D01*
X143510000Y-88205000D02*
X143510000Y-90805000D01*
X143510000Y-90805000D02*
X140910000Y-90805000D01*
X140910000Y-89535000D02*
X140910000Y-88205000D01*
X140910000Y-88205000D02*
X142240000Y-88205000D01*
X140910000Y-85020000D02*
X143510000Y-85020000D01*
X143510000Y-85020000D02*
X143510000Y-82400000D01*
X143510000Y-82400000D02*
X140910000Y-82400000D01*
X140910000Y-82400000D02*
X140910000Y-85020000D01*
X141860000Y-82400000D02*
X142620000Y-82400000D01*
X142620000Y-82400000D02*
X142620000Y-76400000D01*
X142620000Y-76400000D02*
X141860000Y-76400000D01*
X141860000Y-76400000D02*
X141860000Y-82400000D01*
X141860000Y-85450000D02*
X141860000Y-85020000D01*
X142620000Y-85450000D02*
X142620000Y-85020000D01*
X141980000Y-82400000D02*
X141980000Y-76400000D01*
X142100000Y-82400000D02*
X142100000Y-76400000D01*
X142220000Y-82400000D02*
X142220000Y-76400000D01*
X142340000Y-82400000D02*
X142340000Y-76400000D01*
X142460000Y-82400000D02*
X142460000Y-76400000D01*
X142580000Y-82400000D02*
X142580000Y-76400000D01*
X143510000Y-85020000D02*
X146050000Y-85020000D01*
X146050000Y-85020000D02*
X146050000Y-82400000D01*
X146050000Y-82400000D02*
X143510000Y-82400000D01*
X143510000Y-82400000D02*
X143510000Y-85020000D01*
X144400000Y-82400000D02*
X145160000Y-82400000D01*
X145160000Y-82400000D02*
X145160000Y-76400000D01*
X145160000Y-76400000D02*
X144400000Y-76400000D01*
X144400000Y-76400000D02*
X144400000Y-82400000D01*
X144400000Y-85450000D02*
X144400000Y-85020000D01*
X145160000Y-85450000D02*
X145160000Y-85020000D01*
X146050000Y-85020000D02*
X148650000Y-85020000D01*
X148650000Y-85020000D02*
X148650000Y-82400000D01*
X148650000Y-82400000D02*
X146050000Y-82400000D01*
X146050000Y-82400000D02*
X146050000Y-85020000D01*
X146940000Y-82400000D02*
X147700000Y-82400000D01*
X147700000Y-82400000D02*
X147700000Y-76400000D01*
X147700000Y-76400000D02*
X146940000Y-76400000D01*
X146940000Y-76400000D02*
X146940000Y-82400000D01*
X146940000Y-85450000D02*
X146940000Y-85020000D01*
X147700000Y-85450000D02*
X147700000Y-85020000D01*
X142240000Y-87630000D02*
X140970000Y-87630000D01*
X140970000Y-87630000D02*
X140970000Y-86360000D01*
X198715000Y-95920000D02*
X201335000Y-95920000D01*
X201335000Y-95920000D02*
X201335000Y-89500000D01*
X201335000Y-89500000D02*
X198715000Y-89500000D01*
X198715000Y-89500000D02*
X198715000Y-95920000D01*
X200025000Y-96810000D02*
X200025000Y-95920000D01*
X200025000Y-88610000D02*
X200025000Y-89500000D01*
X189190000Y-118780000D02*
X191810000Y-118780000D01*
X191810000Y-118780000D02*
X191810000Y-112360000D01*
X191810000Y-112360000D02*
X189190000Y-112360000D01*
X189190000Y-112360000D02*
X189190000Y-118780000D01*
X190500000Y-119670000D02*
X190500000Y-118780000D01*
X190500000Y-111470000D02*
X190500000Y-112360000D01*
X138065000Y-102115000D02*
X136295000Y-102115000D01*
X136295000Y-102115000D02*
X136295000Y-120135000D01*
X136295000Y-120135000D02*
X141835000Y-120135000D01*
X141835000Y-120135000D02*
X141835000Y-102115000D01*
X141835000Y-102115000D02*
X140065000Y-102115000D01*
X133865000Y-102115000D02*
X133865000Y-120135000D01*
X133865000Y-120135000D02*
X144265000Y-120135000D01*
X144265000Y-120135000D02*
X144265000Y-102115000D01*
X144265000Y-102115000D02*
X133865000Y-102115000D01*
X140065000Y-102115000D02*
G75*
G02X138065000Y-102115000I-1000000J0D01*
G01*
X118455000Y-87645000D02*
X118455000Y-99795000D01*
X138605000Y-86895000D02*
X119205000Y-86895000D01*
X139355000Y-99045000D02*
X139355000Y-87645000D01*
X118455000Y-99795000D02*
X138605000Y-99795000D01*
X138605000Y-99795000D02*
G75*
G03X139355000Y-99045000I0J750000D01*
G01*
X139355000Y-87645000D02*
G75*
G03X138605000Y-86895000I-750000J0D01*
G01*
X119205000Y-86895000D02*
G75*
G03X118455000Y-87645000I0J-750000D01*
G01*
X132755000Y-103595000D02*
X132755000Y-108415000D01*
X130135000Y-103595000D02*
X130135000Y-108415000D01*
X132755000Y-103595000D02*
X132441000Y-103595000D01*
X130449000Y-103595000D02*
X130135000Y-103595000D01*
X132755000Y-108415000D02*
X132441000Y-108415000D01*
X130449000Y-108415000D02*
X130135000Y-108415000D01*
D14*
X161495000Y-101155000D02*
X162195000Y-101155000D01*
X164895000Y-101155000D02*
X164195000Y-101155000D01*
X161495000Y-109855000D02*
X161495000Y-98655000D01*
X161495000Y-98655000D02*
X161795000Y-98655000D01*
X164395000Y-121055000D02*
X164195000Y-121055000D01*
X161495000Y-109855000D02*
X161495000Y-121055000D01*
X161495000Y-121055000D02*
X162195000Y-121055000D01*
X164895000Y-109955000D02*
X164895000Y-98655000D01*
X164895000Y-98655000D02*
X164595000Y-98655000D01*
X164895000Y-109855000D02*
X164895000Y-121055000D01*
X164895000Y-121055000D02*
X164295000Y-121055000D01*
D13*
X176525704Y-87350309D02*
G75*
G02X178835000Y-87310000I1154296J40309D01*
G01*
X178834052Y-87289879D02*
G75*
G02X177440000Y-88439000I-1154052J-20121D01*
G01*
X174060000Y-95630000D02*
X174060000Y-85980000D01*
X179011000Y-95630000D02*
X179011000Y-85980000D01*
X174060000Y-95630000D02*
X179011000Y-95630000D01*
X174060000Y-85980000D02*
X179011000Y-85980000D01*
X176946000Y-86434000D02*
X178556000Y-88045000D01*
X176805000Y-86574000D02*
X178415000Y-88186000D01*
X182240704Y-87350309D02*
G75*
G02X184550000Y-87310000I1154296J40309D01*
G01*
X184549052Y-87289879D02*
G75*
G02X183155000Y-88439000I-1154052J-20121D01*
G01*
X179775000Y-95630000D02*
X179775000Y-85980000D01*
X184726000Y-95630000D02*
X184726000Y-85980000D01*
X179775000Y-95630000D02*
X184726000Y-95630000D01*
X179775000Y-85980000D02*
X184726000Y-85980000D01*
X182661000Y-86434000D02*
X184271000Y-88045000D01*
X182520000Y-86574000D02*
X184130000Y-88186000D01*
X132755000Y-112995000D02*
X130135000Y-112995000D01*
X130135000Y-112995000D02*
X130135000Y-119415000D01*
X130135000Y-119415000D02*
X132755000Y-119415000D01*
X132755000Y-119415000D02*
X132755000Y-112995000D01*
X131445000Y-112105000D02*
X131445000Y-112995000D01*
X131445000Y-120305000D02*
X131445000Y-119415000D01*
D14*
X214352143Y-104306666D02*
X214399762Y-104354285D01*
X214447381Y-104497142D01*
X214447381Y-104592380D01*
X214399762Y-104735238D01*
X214304524Y-104830476D01*
X214209286Y-104878095D01*
X214018810Y-104925714D01*
X213875952Y-104925714D01*
X213685476Y-104878095D01*
X213590238Y-104830476D01*
X213495000Y-104735238D01*
X213447381Y-104592380D01*
X213447381Y-104497142D01*
X213495000Y-104354285D01*
X213542619Y-104306666D01*
X214447381Y-103354285D02*
X214447381Y-103925714D01*
X214447381Y-103640000D02*
X213447381Y-103640000D01*
X213590238Y-103735238D01*
X213685476Y-103830476D01*
X213733095Y-103925714D01*
X206248095Y-109942381D02*
X206248095Y-110751905D01*
X206295714Y-110847143D01*
X206343333Y-110894762D01*
X206438571Y-110942381D01*
X206629048Y-110942381D01*
X206724286Y-110894762D01*
X206771905Y-110847143D01*
X206819524Y-110751905D01*
X206819524Y-109942381D01*
X207819524Y-110942381D02*
X207248095Y-110942381D01*
X207533809Y-110942381D02*
X207533809Y-109942381D01*
X207438571Y-110085238D01*
X207343333Y-110180476D01*
X207248095Y-110228095D01*
X202732143Y-98512381D02*
X203398810Y-98512381D01*
X202970238Y-99512381D01*
X204208334Y-98845714D02*
X204208334Y-99512381D01*
X203970238Y-98464762D02*
X203732143Y-99179048D01*
X204351191Y-99179048D01*
X204732143Y-99512381D02*
X204732143Y-98512381D01*
X204732143Y-98988571D02*
X205303572Y-98988571D01*
X205303572Y-99512381D02*
X205303572Y-98512381D01*
X206351191Y-99417143D02*
X206303572Y-99464762D01*
X206160715Y-99512381D01*
X206065477Y-99512381D01*
X205922619Y-99464762D01*
X205827381Y-99369524D01*
X205779762Y-99274286D01*
X205732143Y-99083810D01*
X205732143Y-98940952D01*
X205779762Y-98750476D01*
X205827381Y-98655238D01*
X205922619Y-98560000D01*
X206065477Y-98512381D01*
X206160715Y-98512381D01*
X206303572Y-98560000D01*
X206351191Y-98607619D01*
X206636905Y-98512381D02*
X207208334Y-98512381D01*
X206922619Y-99512381D02*
X206922619Y-98512381D01*
X208065477Y-99512381D02*
X207494048Y-99512381D01*
X207779762Y-99512381D02*
X207779762Y-98512381D01*
X207684524Y-98655238D01*
X207589286Y-98750476D01*
X207494048Y-98798095D01*
X208398810Y-98512381D02*
X209017858Y-98512381D01*
X208684524Y-98893333D01*
X208827382Y-98893333D01*
X208922620Y-98940952D01*
X208970239Y-98988571D01*
X209017858Y-99083810D01*
X209017858Y-99321905D01*
X208970239Y-99417143D01*
X208922620Y-99464762D01*
X208827382Y-99512381D01*
X208541667Y-99512381D01*
X208446429Y-99464762D01*
X208398810Y-99417143D01*
X209589286Y-98940952D02*
X209494048Y-98893333D01*
X209446429Y-98845714D01*
X209398810Y-98750476D01*
X209398810Y-98702857D01*
X209446429Y-98607619D01*
X209494048Y-98560000D01*
X209589286Y-98512381D01*
X209779763Y-98512381D01*
X209875001Y-98560000D01*
X209922620Y-98607619D01*
X209970239Y-98702857D01*
X209970239Y-98750476D01*
X209922620Y-98845714D01*
X209875001Y-98893333D01*
X209779763Y-98940952D01*
X209589286Y-98940952D01*
X209494048Y-98988571D01*
X209446429Y-99036190D01*
X209398810Y-99131429D01*
X209398810Y-99321905D01*
X209446429Y-99417143D01*
X209494048Y-99464762D01*
X209589286Y-99512381D01*
X209779763Y-99512381D01*
X209875001Y-99464762D01*
X209922620Y-99417143D01*
X209970239Y-99321905D01*
X209970239Y-99131429D01*
X209922620Y-99036190D01*
X209875001Y-98988571D01*
X209779763Y-98940952D01*
X146518334Y-106402143D02*
X146470715Y-106449762D01*
X146327858Y-106497381D01*
X146232620Y-106497381D01*
X146089762Y-106449762D01*
X145994524Y-106354524D01*
X145946905Y-106259286D01*
X145899286Y-106068810D01*
X145899286Y-105925952D01*
X145946905Y-105735476D01*
X145994524Y-105640238D01*
X146089762Y-105545000D01*
X146232620Y-105497381D01*
X146327858Y-105497381D01*
X146470715Y-105545000D01*
X146518334Y-105592619D01*
X146899286Y-105592619D02*
X146946905Y-105545000D01*
X147042143Y-105497381D01*
X147280239Y-105497381D01*
X147375477Y-105545000D01*
X147423096Y-105592619D01*
X147470715Y-105687857D01*
X147470715Y-105783095D01*
X147423096Y-105925952D01*
X146851667Y-106497381D01*
X147470715Y-106497381D01*
X190333334Y-105132143D02*
X190285715Y-105179762D01*
X190142858Y-105227381D01*
X190047620Y-105227381D01*
X189904762Y-105179762D01*
X189809524Y-105084524D01*
X189761905Y-104989286D01*
X189714286Y-104798810D01*
X189714286Y-104655952D01*
X189761905Y-104465476D01*
X189809524Y-104370238D01*
X189904762Y-104275000D01*
X190047620Y-104227381D01*
X190142858Y-104227381D01*
X190285715Y-104275000D01*
X190333334Y-104322619D01*
X190666667Y-104227381D02*
X191285715Y-104227381D01*
X190952381Y-104608333D01*
X191095239Y-104608333D01*
X191190477Y-104655952D01*
X191238096Y-104703571D01*
X191285715Y-104798810D01*
X191285715Y-105036905D01*
X191238096Y-105132143D01*
X191190477Y-105179762D01*
X191095239Y-105227381D01*
X190809524Y-105227381D01*
X190714286Y-105179762D01*
X190666667Y-105132143D01*
X216352381Y-137998333D02*
X217066667Y-137998333D01*
X217209524Y-138045953D01*
X217304762Y-138141191D01*
X217352381Y-138284048D01*
X217352381Y-138379286D01*
X217352381Y-136998333D02*
X217352381Y-137569762D01*
X217352381Y-137284048D02*
X216352381Y-137284048D01*
X216495238Y-137379286D01*
X216590476Y-137474524D01*
X216638095Y-137569762D01*
X183602381Y-83518333D02*
X184316667Y-83518333D01*
X184459524Y-83565953D01*
X184554762Y-83661191D01*
X184602381Y-83804048D01*
X184602381Y-83899286D01*
X183697619Y-83089762D02*
X183650000Y-83042143D01*
X183602381Y-82946905D01*
X183602381Y-82708809D01*
X183650000Y-82613571D01*
X183697619Y-82565952D01*
X183792857Y-82518333D01*
X183888095Y-82518333D01*
X184030952Y-82565952D01*
X184602381Y-83137381D01*
X184602381Y-82518333D01*
X123277381Y-116966905D02*
X124086905Y-116966905D01*
X124182143Y-116919286D01*
X124229762Y-116871667D01*
X124277381Y-116776429D01*
X124277381Y-116585952D01*
X124229762Y-116490714D01*
X124182143Y-116443095D01*
X124086905Y-116395476D01*
X123277381Y-116395476D01*
X123372619Y-115966905D02*
X123325000Y-115919286D01*
X123277381Y-115824048D01*
X123277381Y-115585952D01*
X123325000Y-115490714D01*
X123372619Y-115443095D01*
X123467857Y-115395476D01*
X123563095Y-115395476D01*
X123705952Y-115443095D01*
X124277381Y-116014524D01*
X124277381Y-115395476D01*
X120182143Y-100417381D02*
X120848810Y-100417381D01*
X120420238Y-101417381D01*
X121658334Y-100750714D02*
X121658334Y-101417381D01*
X121420238Y-100369762D02*
X121182143Y-101084048D01*
X121801191Y-101084048D01*
X122182143Y-101417381D02*
X122182143Y-100417381D01*
X122182143Y-100893571D02*
X122753572Y-100893571D01*
X122753572Y-101417381D02*
X122753572Y-100417381D01*
X123801191Y-101322143D02*
X123753572Y-101369762D01*
X123610715Y-101417381D01*
X123515477Y-101417381D01*
X123372619Y-101369762D01*
X123277381Y-101274524D01*
X123229762Y-101179286D01*
X123182143Y-100988810D01*
X123182143Y-100845952D01*
X123229762Y-100655476D01*
X123277381Y-100560238D01*
X123372619Y-100465000D01*
X123515477Y-100417381D01*
X123610715Y-100417381D01*
X123753572Y-100465000D01*
X123801191Y-100512619D01*
X124086905Y-100417381D02*
X124658334Y-100417381D01*
X124372619Y-101417381D02*
X124372619Y-100417381D01*
X124944048Y-100512619D02*
X124991667Y-100465000D01*
X125086905Y-100417381D01*
X125325001Y-100417381D01*
X125420239Y-100465000D01*
X125467858Y-100512619D01*
X125515477Y-100607857D01*
X125515477Y-100703095D01*
X125467858Y-100845952D01*
X124896429Y-101417381D01*
X125515477Y-101417381D01*
X126372620Y-100750714D02*
X126372620Y-101417381D01*
X126134524Y-100369762D02*
X125896429Y-101084048D01*
X126515477Y-101084048D01*
X127372620Y-100417381D02*
X126896429Y-100417381D01*
X126848810Y-100893571D01*
X126896429Y-100845952D01*
X126991667Y-100798333D01*
X127229763Y-100798333D01*
X127325001Y-100845952D01*
X127372620Y-100893571D01*
X127420239Y-100988810D01*
X127420239Y-101226905D01*
X127372620Y-101322143D01*
X127325001Y-101369762D01*
X127229763Y-101417381D01*
X126991667Y-101417381D01*
X126896429Y-101369762D01*
X126848810Y-101322143D01*
X182118095Y-111212381D02*
X182118095Y-112021905D01*
X182165714Y-112117143D01*
X182213333Y-112164762D01*
X182308571Y-112212381D01*
X182499048Y-112212381D01*
X182594286Y-112164762D01*
X182641905Y-112117143D01*
X182689524Y-112021905D01*
X182689524Y-111212381D01*
X183070476Y-111212381D02*
X183689524Y-111212381D01*
X183356190Y-111593333D01*
X183499048Y-111593333D01*
X183594286Y-111640952D01*
X183641905Y-111688571D01*
X183689524Y-111783810D01*
X183689524Y-112021905D01*
X183641905Y-112117143D01*
X183594286Y-112164762D01*
X183499048Y-112212381D01*
X183213333Y-112212381D01*
X183118095Y-112164762D01*
X183070476Y-112117143D01*
X178737143Y-100099762D02*
X178880000Y-100147381D01*
X179118096Y-100147381D01*
X179213334Y-100099762D01*
X179260953Y-100052143D01*
X179308572Y-99956905D01*
X179308572Y-99861667D01*
X179260953Y-99766429D01*
X179213334Y-99718810D01*
X179118096Y-99671190D01*
X178927619Y-99623571D01*
X178832381Y-99575952D01*
X178784762Y-99528333D01*
X178737143Y-99433095D01*
X178737143Y-99337857D01*
X178784762Y-99242619D01*
X178832381Y-99195000D01*
X178927619Y-99147381D01*
X179165715Y-99147381D01*
X179308572Y-99195000D01*
X179737143Y-100147381D02*
X179737143Y-99147381D01*
X180308572Y-100147381D01*
X180308572Y-99147381D01*
X180689524Y-99147381D02*
X181356191Y-99147381D01*
X180927619Y-100147381D01*
X182165715Y-99147381D02*
X181975238Y-99147381D01*
X181880000Y-99195000D01*
X181832381Y-99242619D01*
X181737143Y-99385476D01*
X181689524Y-99575952D01*
X181689524Y-99956905D01*
X181737143Y-100052143D01*
X181784762Y-100099762D01*
X181880000Y-100147381D01*
X182070477Y-100147381D01*
X182165715Y-100099762D01*
X182213334Y-100052143D01*
X182260953Y-99956905D01*
X182260953Y-99718810D01*
X182213334Y-99623571D01*
X182165715Y-99575952D01*
X182070477Y-99528333D01*
X181880000Y-99528333D01*
X181784762Y-99575952D01*
X181737143Y-99623571D01*
X181689524Y-99718810D01*
X183118096Y-99480714D02*
X183118096Y-100147381D01*
X182880000Y-99099762D02*
X182641905Y-99814048D01*
X183260953Y-99814048D01*
X183784762Y-99575952D02*
X183689524Y-99528333D01*
X183641905Y-99480714D01*
X183594286Y-99385476D01*
X183594286Y-99337857D01*
X183641905Y-99242619D01*
X183689524Y-99195000D01*
X183784762Y-99147381D01*
X183975239Y-99147381D01*
X184070477Y-99195000D01*
X184118096Y-99242619D01*
X184165715Y-99337857D01*
X184165715Y-99385476D01*
X184118096Y-99480714D01*
X184070477Y-99528333D01*
X183975239Y-99575952D01*
X183784762Y-99575952D01*
X183689524Y-99623571D01*
X183641905Y-99671190D01*
X183594286Y-99766429D01*
X183594286Y-99956905D01*
X183641905Y-100052143D01*
X183689524Y-100099762D01*
X183784762Y-100147381D01*
X183975239Y-100147381D01*
X184070477Y-100099762D01*
X184118096Y-100052143D01*
X184165715Y-99956905D01*
X184165715Y-99766429D01*
X184118096Y-99671190D01*
X184070477Y-99623571D01*
X183975239Y-99575952D01*
X184641905Y-100147381D02*
X184832381Y-100147381D01*
X184927620Y-100099762D01*
X184975239Y-100052143D01*
X185070477Y-99909286D01*
X185118096Y-99718810D01*
X185118096Y-99337857D01*
X185070477Y-99242619D01*
X185022858Y-99195000D01*
X184927620Y-99147381D01*
X184737143Y-99147381D01*
X184641905Y-99195000D01*
X184594286Y-99242619D01*
X184546667Y-99337857D01*
X184546667Y-99575952D01*
X184594286Y-99671190D01*
X184641905Y-99718810D01*
X184737143Y-99766429D01*
X184927620Y-99766429D01*
X185022858Y-99718810D01*
X185070477Y-99671190D01*
X185118096Y-99575952D01*
X185499048Y-99861667D02*
X185975239Y-99861667D01*
X185403810Y-100147381D02*
X185737143Y-99147381D01*
X186070477Y-100147381D01*
X186403810Y-100147381D02*
X186403810Y-99147381D01*
X186975239Y-100147381D01*
X186975239Y-99147381D01*
X158583334Y-106402143D02*
X158535715Y-106449762D01*
X158392858Y-106497381D01*
X158297620Y-106497381D01*
X158154762Y-106449762D01*
X158059524Y-106354524D01*
X158011905Y-106259286D01*
X157964286Y-106068810D01*
X157964286Y-105925952D01*
X158011905Y-105735476D01*
X158059524Y-105640238D01*
X158154762Y-105545000D01*
X158297620Y-105497381D01*
X158392858Y-105497381D01*
X158535715Y-105545000D01*
X158583334Y-105592619D01*
X159440477Y-105830714D02*
X159440477Y-106497381D01*
X159202381Y-105449762D02*
X158964286Y-106164048D01*
X159583334Y-106164048D01*
X157948334Y-119737143D02*
X157900715Y-119784762D01*
X157757858Y-119832381D01*
X157662620Y-119832381D01*
X157519762Y-119784762D01*
X157424524Y-119689524D01*
X157376905Y-119594286D01*
X157329286Y-119403810D01*
X157329286Y-119260952D01*
X157376905Y-119070476D01*
X157424524Y-118975238D01*
X157519762Y-118880000D01*
X157662620Y-118832381D01*
X157757858Y-118832381D01*
X157900715Y-118880000D01*
X157948334Y-118927619D01*
X158853096Y-118832381D02*
X158376905Y-118832381D01*
X158329286Y-119308571D01*
X158376905Y-119260952D01*
X158472143Y-119213333D01*
X158710239Y-119213333D01*
X158805477Y-119260952D01*
X158853096Y-119308571D01*
X158900715Y-119403810D01*
X158900715Y-119641905D01*
X158853096Y-119737143D01*
X158805477Y-119784762D01*
X158710239Y-119832381D01*
X158472143Y-119832381D01*
X158376905Y-119784762D01*
X158329286Y-119737143D01*
X152868334Y-106402143D02*
X152820715Y-106449762D01*
X152677858Y-106497381D01*
X152582620Y-106497381D01*
X152439762Y-106449762D01*
X152344524Y-106354524D01*
X152296905Y-106259286D01*
X152249286Y-106068810D01*
X152249286Y-105925952D01*
X152296905Y-105735476D01*
X152344524Y-105640238D01*
X152439762Y-105545000D01*
X152582620Y-105497381D01*
X152677858Y-105497381D01*
X152820715Y-105545000D01*
X152868334Y-105592619D01*
X153725477Y-105497381D02*
X153535000Y-105497381D01*
X153439762Y-105545000D01*
X153392143Y-105592619D01*
X153296905Y-105735476D01*
X153249286Y-105925952D01*
X153249286Y-106306905D01*
X153296905Y-106402143D01*
X153344524Y-106449762D01*
X153439762Y-106497381D01*
X153630239Y-106497381D01*
X153725477Y-106449762D01*
X153773096Y-106402143D01*
X153820715Y-106306905D01*
X153820715Y-106068810D01*
X153773096Y-105973571D01*
X153725477Y-105925952D01*
X153630239Y-105878333D01*
X153439762Y-105878333D01*
X153344524Y-105925952D01*
X153296905Y-105973571D01*
X153249286Y-106068810D01*
X198842381Y-83518333D02*
X199556667Y-83518333D01*
X199699524Y-83565953D01*
X199794762Y-83661191D01*
X199842381Y-83804048D01*
X199842381Y-83899286D01*
X198842381Y-83137381D02*
X198842381Y-82518333D01*
X199223333Y-82851667D01*
X199223333Y-82708809D01*
X199270952Y-82613571D01*
X199318571Y-82565952D01*
X199413810Y-82518333D01*
X199651905Y-82518333D01*
X199747143Y-82565952D01*
X199794762Y-82613571D01*
X199842381Y-82708809D01*
X199842381Y-82994524D01*
X199794762Y-83089762D01*
X199747143Y-83137381D01*
X149693334Y-119737143D02*
X149645715Y-119784762D01*
X149502858Y-119832381D01*
X149407620Y-119832381D01*
X149264762Y-119784762D01*
X149169524Y-119689524D01*
X149121905Y-119594286D01*
X149074286Y-119403810D01*
X149074286Y-119260952D01*
X149121905Y-119070476D01*
X149169524Y-118975238D01*
X149264762Y-118880000D01*
X149407620Y-118832381D01*
X149502858Y-118832381D01*
X149645715Y-118880000D01*
X149693334Y-118927619D01*
X150026667Y-118832381D02*
X150693334Y-118832381D01*
X150264762Y-119832381D01*
X193571905Y-127452381D02*
X193571905Y-126452381D01*
X193810000Y-126452381D01*
X193952858Y-126500000D01*
X194048096Y-126595238D01*
X194095715Y-126690476D01*
X194143334Y-126880952D01*
X194143334Y-127023810D01*
X194095715Y-127214286D01*
X194048096Y-127309524D01*
X193952858Y-127404762D01*
X193810000Y-127452381D01*
X193571905Y-127452381D01*
X195095715Y-127452381D02*
X194524286Y-127452381D01*
X194810000Y-127452381D02*
X194810000Y-126452381D01*
X194714762Y-126595238D01*
X194619524Y-126690476D01*
X194524286Y-126738095D01*
X191031905Y-127452381D02*
X191031905Y-126452381D01*
X191270000Y-126452381D01*
X191412858Y-126500000D01*
X191508096Y-126595238D01*
X191555715Y-126690476D01*
X191603334Y-126880952D01*
X191603334Y-127023810D01*
X191555715Y-127214286D01*
X191508096Y-127309524D01*
X191412858Y-127404762D01*
X191270000Y-127452381D01*
X191031905Y-127452381D01*
X191984286Y-126547619D02*
X192031905Y-126500000D01*
X192127143Y-126452381D01*
X192365239Y-126452381D01*
X192460477Y-126500000D01*
X192508096Y-126547619D01*
X192555715Y-126642857D01*
X192555715Y-126738095D01*
X192508096Y-126880952D01*
X191936667Y-127452381D01*
X192555715Y-127452381D01*
X188491905Y-127452381D02*
X188491905Y-126452381D01*
X188730000Y-126452381D01*
X188872858Y-126500000D01*
X188968096Y-126595238D01*
X189015715Y-126690476D01*
X189063334Y-126880952D01*
X189063334Y-127023810D01*
X189015715Y-127214286D01*
X188968096Y-127309524D01*
X188872858Y-127404762D01*
X188730000Y-127452381D01*
X188491905Y-127452381D01*
X189396667Y-126452381D02*
X190015715Y-126452381D01*
X189682381Y-126833333D01*
X189825239Y-126833333D01*
X189920477Y-126880952D01*
X189968096Y-126928571D01*
X190015715Y-127023810D01*
X190015715Y-127261905D01*
X189968096Y-127357143D01*
X189920477Y-127404762D01*
X189825239Y-127452381D01*
X189539524Y-127452381D01*
X189444286Y-127404762D01*
X189396667Y-127357143D01*
X185951905Y-127452381D02*
X185951905Y-126452381D01*
X186190000Y-126452381D01*
X186332858Y-126500000D01*
X186428096Y-126595238D01*
X186475715Y-126690476D01*
X186523334Y-126880952D01*
X186523334Y-127023810D01*
X186475715Y-127214286D01*
X186428096Y-127309524D01*
X186332858Y-127404762D01*
X186190000Y-127452381D01*
X185951905Y-127452381D01*
X187380477Y-126785714D02*
X187380477Y-127452381D01*
X187142381Y-126404762D02*
X186904286Y-127119048D01*
X187523334Y-127119048D01*
X183411905Y-127452381D02*
X183411905Y-126452381D01*
X183650000Y-126452381D01*
X183792858Y-126500000D01*
X183888096Y-126595238D01*
X183935715Y-126690476D01*
X183983334Y-126880952D01*
X183983334Y-127023810D01*
X183935715Y-127214286D01*
X183888096Y-127309524D01*
X183792858Y-127404762D01*
X183650000Y-127452381D01*
X183411905Y-127452381D01*
X184888096Y-126452381D02*
X184411905Y-126452381D01*
X184364286Y-126928571D01*
X184411905Y-126880952D01*
X184507143Y-126833333D01*
X184745239Y-126833333D01*
X184840477Y-126880952D01*
X184888096Y-126928571D01*
X184935715Y-127023810D01*
X184935715Y-127261905D01*
X184888096Y-127357143D01*
X184840477Y-127404762D01*
X184745239Y-127452381D01*
X184507143Y-127452381D01*
X184411905Y-127404762D01*
X184364286Y-127357143D01*
X180871905Y-127452381D02*
X180871905Y-126452381D01*
X181110000Y-126452381D01*
X181252858Y-126500000D01*
X181348096Y-126595238D01*
X181395715Y-126690476D01*
X181443334Y-126880952D01*
X181443334Y-127023810D01*
X181395715Y-127214286D01*
X181348096Y-127309524D01*
X181252858Y-127404762D01*
X181110000Y-127452381D01*
X180871905Y-127452381D01*
X182300477Y-126452381D02*
X182110000Y-126452381D01*
X182014762Y-126500000D01*
X181967143Y-126547619D01*
X181871905Y-126690476D01*
X181824286Y-126880952D01*
X181824286Y-127261905D01*
X181871905Y-127357143D01*
X181919524Y-127404762D01*
X182014762Y-127452381D01*
X182205239Y-127452381D01*
X182300477Y-127404762D01*
X182348096Y-127357143D01*
X182395715Y-127261905D01*
X182395715Y-127023810D01*
X182348096Y-126928571D01*
X182300477Y-126880952D01*
X182205239Y-126833333D01*
X182014762Y-126833333D01*
X181919524Y-126880952D01*
X181871905Y-126928571D01*
X181824286Y-127023810D01*
X139422381Y-82878333D02*
X140136667Y-82878333D01*
X140279524Y-82925953D01*
X140374762Y-83021191D01*
X140422381Y-83164048D01*
X140422381Y-83259286D01*
X140422381Y-82402143D02*
X139422381Y-82402143D01*
X139422381Y-82021190D01*
X139470000Y-81925952D01*
X139517619Y-81878333D01*
X139612857Y-81830714D01*
X139755714Y-81830714D01*
X139850952Y-81878333D01*
X139898571Y-81925952D01*
X139946190Y-82021190D01*
X139946190Y-82402143D01*
X140422381Y-80878333D02*
X140422381Y-81449762D01*
X140422381Y-81164048D02*
X139422381Y-81164048D01*
X139565238Y-81259286D01*
X139660476Y-81354524D01*
X139708095Y-81449762D01*
X199858334Y-93162381D02*
X199525000Y-92686190D01*
X199286905Y-93162381D02*
X199286905Y-92162381D01*
X199667858Y-92162381D01*
X199763096Y-92210000D01*
X199810715Y-92257619D01*
X199858334Y-92352857D01*
X199858334Y-92495714D01*
X199810715Y-92590952D01*
X199763096Y-92638571D01*
X199667858Y-92686190D01*
X199286905Y-92686190D01*
X200810715Y-93162381D02*
X200239286Y-93162381D01*
X200525000Y-93162381D02*
X200525000Y-92162381D01*
X200429762Y-92305238D01*
X200334524Y-92400476D01*
X200239286Y-92448095D01*
X190333334Y-116022381D02*
X190000000Y-115546190D01*
X189761905Y-116022381D02*
X189761905Y-115022381D01*
X190142858Y-115022381D01*
X190238096Y-115070000D01*
X190285715Y-115117619D01*
X190333334Y-115212857D01*
X190333334Y-115355714D01*
X190285715Y-115450952D01*
X190238096Y-115498571D01*
X190142858Y-115546190D01*
X189761905Y-115546190D01*
X190714286Y-115117619D02*
X190761905Y-115070000D01*
X190857143Y-115022381D01*
X191095239Y-115022381D01*
X191190477Y-115070000D01*
X191238096Y-115117619D01*
X191285715Y-115212857D01*
X191285715Y-115308095D01*
X191238096Y-115450952D01*
X190666667Y-116022381D01*
X191285715Y-116022381D01*
X138303095Y-110577381D02*
X138303095Y-111386905D01*
X138350714Y-111482143D01*
X138398333Y-111529762D01*
X138493571Y-111577381D01*
X138684048Y-111577381D01*
X138779286Y-111529762D01*
X138826905Y-111482143D01*
X138874524Y-111386905D01*
X138874524Y-110577381D01*
X139826905Y-110577381D02*
X139350714Y-110577381D01*
X139303095Y-111053571D01*
X139350714Y-111005952D01*
X139445952Y-110958333D01*
X139684048Y-110958333D01*
X139779286Y-111005952D01*
X139826905Y-111053571D01*
X139874524Y-111148810D01*
X139874524Y-111386905D01*
X139826905Y-111482143D01*
X139779286Y-111529762D01*
X139684048Y-111577381D01*
X139445952Y-111577381D01*
X139350714Y-111529762D01*
X139303095Y-111482143D01*
X135898333Y-100417381D02*
X136565000Y-100417381D01*
X136136428Y-101417381D01*
X137374524Y-100750714D02*
X137374524Y-101417381D01*
X137136428Y-100369762D02*
X136898333Y-101084048D01*
X137517381Y-101084048D01*
X137898333Y-101417381D02*
X137898333Y-100417381D01*
X137898333Y-100893571D02*
X138469762Y-100893571D01*
X138469762Y-101417381D02*
X138469762Y-100417381D01*
X139517381Y-101322143D02*
X139469762Y-101369762D01*
X139326905Y-101417381D01*
X139231667Y-101417381D01*
X139088809Y-101369762D01*
X138993571Y-101274524D01*
X138945952Y-101179286D01*
X138898333Y-100988810D01*
X138898333Y-100845952D01*
X138945952Y-100655476D01*
X138993571Y-100560238D01*
X139088809Y-100465000D01*
X139231667Y-100417381D01*
X139326905Y-100417381D01*
X139469762Y-100465000D01*
X139517381Y-100512619D01*
X139803095Y-100417381D02*
X140374524Y-100417381D01*
X140088809Y-101417381D02*
X140088809Y-100417381D01*
X140612619Y-100417381D02*
X141279286Y-100417381D01*
X140850714Y-101417381D01*
X142088810Y-100750714D02*
X142088810Y-101417381D01*
X141850714Y-100369762D02*
X141612619Y-101084048D01*
X142231667Y-101084048D01*
X128095476Y-85347381D02*
X128762143Y-86347381D01*
X128762143Y-85347381D02*
X128095476Y-86347381D01*
X129666905Y-86347381D02*
X129095476Y-86347381D01*
X129381190Y-86347381D02*
X129381190Y-85347381D01*
X129285952Y-85490238D01*
X129190714Y-85585476D01*
X129095476Y-85633095D01*
X131278334Y-106402143D02*
X131230715Y-106449762D01*
X131087858Y-106497381D01*
X130992620Y-106497381D01*
X130849762Y-106449762D01*
X130754524Y-106354524D01*
X130706905Y-106259286D01*
X130659286Y-106068810D01*
X130659286Y-105925952D01*
X130706905Y-105735476D01*
X130754524Y-105640238D01*
X130849762Y-105545000D01*
X130992620Y-105497381D01*
X131087858Y-105497381D01*
X131230715Y-105545000D01*
X131278334Y-105592619D01*
X131849762Y-105925952D02*
X131754524Y-105878333D01*
X131706905Y-105830714D01*
X131659286Y-105735476D01*
X131659286Y-105687857D01*
X131706905Y-105592619D01*
X131754524Y-105545000D01*
X131849762Y-105497381D01*
X132040239Y-105497381D01*
X132135477Y-105545000D01*
X132183096Y-105592619D01*
X132230715Y-105687857D01*
X132230715Y-105735476D01*
X132183096Y-105830714D01*
X132135477Y-105878333D01*
X132040239Y-105925952D01*
X131849762Y-105925952D01*
X131754524Y-105973571D01*
X131706905Y-106021190D01*
X131659286Y-106116429D01*
X131659286Y-106306905D01*
X131706905Y-106402143D01*
X131754524Y-106449762D01*
X131849762Y-106497381D01*
X132040239Y-106497381D01*
X132135477Y-106449762D01*
X132183096Y-106402143D01*
X132230715Y-106306905D01*
X132230715Y-106116429D01*
X132183096Y-106021190D01*
X132135477Y-105973571D01*
X132040239Y-105925952D01*
X165822381Y-113791905D02*
X166631905Y-113791905D01*
X166727143Y-113744286D01*
X166774762Y-113696667D01*
X166822381Y-113601429D01*
X166822381Y-113410952D01*
X166774762Y-113315714D01*
X166727143Y-113268095D01*
X166631905Y-113220476D01*
X165822381Y-113220476D01*
X166155714Y-112315714D02*
X166822381Y-112315714D01*
X165774762Y-112553810D02*
X166489048Y-112791905D01*
X166489048Y-112172857D01*
X165822381Y-111497619D02*
X165822381Y-110926190D01*
X166822381Y-111211905D02*
X165822381Y-111211905D01*
X166822381Y-110592857D02*
X165822381Y-110592857D01*
X165822381Y-110354762D01*
X165870000Y-110211904D01*
X165965238Y-110116666D01*
X166060476Y-110069047D01*
X166250952Y-110021428D01*
X166393810Y-110021428D01*
X166584286Y-110069047D01*
X166679524Y-110116666D01*
X166774762Y-110211904D01*
X166822381Y-110354762D01*
X166822381Y-110592857D01*
X166536667Y-109640476D02*
X166536667Y-109164285D01*
X166822381Y-109735714D02*
X165822381Y-109402381D01*
X166822381Y-109069047D01*
X165822381Y-108830952D02*
X165822381Y-108164285D01*
X166822381Y-108592857D01*
X165822381Y-107592857D02*
X165822381Y-107497618D01*
X165870000Y-107402380D01*
X165917619Y-107354761D01*
X166012857Y-107307142D01*
X166203333Y-107259523D01*
X166441429Y-107259523D01*
X166631905Y-107307142D01*
X166727143Y-107354761D01*
X166774762Y-107402380D01*
X166822381Y-107497618D01*
X166822381Y-107592857D01*
X166774762Y-107688095D01*
X166727143Y-107735714D01*
X166631905Y-107783333D01*
X166441429Y-107830952D01*
X166203333Y-107830952D01*
X166012857Y-107783333D01*
X165917619Y-107735714D01*
X165870000Y-107688095D01*
X165822381Y-107592857D01*
X165822381Y-106354761D02*
X165822381Y-106830952D01*
X166298571Y-106878571D01*
X166250952Y-106830952D01*
X166203333Y-106735714D01*
X166203333Y-106497618D01*
X166250952Y-106402380D01*
X166298571Y-106354761D01*
X166393810Y-106307142D01*
X166631905Y-106307142D01*
X166727143Y-106354761D01*
X166774762Y-106402380D01*
X166822381Y-106497618D01*
X166822381Y-106735714D01*
X166774762Y-106830952D01*
X166727143Y-106878571D01*
X165822381Y-105449999D02*
X165822381Y-105640476D01*
X165870000Y-105735714D01*
X165917619Y-105783333D01*
X166060476Y-105878571D01*
X166250952Y-105926190D01*
X166631905Y-105926190D01*
X166727143Y-105878571D01*
X166774762Y-105830952D01*
X166822381Y-105735714D01*
X166822381Y-105545237D01*
X166774762Y-105449999D01*
X166727143Y-105402380D01*
X166631905Y-105354761D01*
X166393810Y-105354761D01*
X166298571Y-105402380D01*
X166250952Y-105449999D01*
X166203333Y-105545237D01*
X166203333Y-105735714D01*
X166250952Y-105830952D01*
X166298571Y-105878571D01*
X166393810Y-105926190D01*
X166536667Y-104973809D02*
X166536667Y-104497618D01*
X166822381Y-105069047D02*
X165822381Y-104735714D01*
X166822381Y-104402380D01*
X174664762Y-84272381D02*
X174331428Y-83796190D01*
X174093333Y-84272381D02*
X174093333Y-83272381D01*
X174474286Y-83272381D01*
X174569524Y-83320000D01*
X174617143Y-83367619D01*
X174664762Y-83462857D01*
X174664762Y-83605714D01*
X174617143Y-83700952D01*
X174569524Y-83748571D01*
X174474286Y-83796190D01*
X174093333Y-83796190D01*
X174950476Y-83272381D02*
X175283809Y-84272381D01*
X175617143Y-83272381D01*
X176474286Y-84272381D02*
X175902857Y-84272381D01*
X176188571Y-84272381D02*
X176188571Y-83272381D01*
X176093333Y-83415238D01*
X175998095Y-83510476D01*
X175902857Y-83558095D01*
X181014762Y-84272381D02*
X180681428Y-83796190D01*
X180443333Y-84272381D02*
X180443333Y-83272381D01*
X180824286Y-83272381D01*
X180919524Y-83320000D01*
X180967143Y-83367619D01*
X181014762Y-83462857D01*
X181014762Y-83605714D01*
X180967143Y-83700952D01*
X180919524Y-83748571D01*
X180824286Y-83796190D01*
X180443333Y-83796190D01*
X181300476Y-83272381D02*
X181633809Y-84272381D01*
X181967143Y-83272381D01*
X182252857Y-83367619D02*
X182300476Y-83320000D01*
X182395714Y-83272381D01*
X182633810Y-83272381D01*
X182729048Y-83320000D01*
X182776667Y-83367619D01*
X182824286Y-83462857D01*
X182824286Y-83558095D01*
X182776667Y-83700952D01*
X182205238Y-84272381D01*
X182824286Y-84272381D01*
X131278334Y-116657381D02*
X130945000Y-116181190D01*
X130706905Y-116657381D02*
X130706905Y-115657381D01*
X131087858Y-115657381D01*
X131183096Y-115705000D01*
X131230715Y-115752619D01*
X131278334Y-115847857D01*
X131278334Y-115990714D01*
X131230715Y-116085952D01*
X131183096Y-116133571D01*
X131087858Y-116181190D01*
X130706905Y-116181190D01*
X131611667Y-115657381D02*
X132230715Y-115657381D01*
X131897381Y-116038333D01*
X132040239Y-116038333D01*
X132135477Y-116085952D01*
X132183096Y-116133571D01*
X132230715Y-116228810D01*
X132230715Y-116466905D01*
X132183096Y-116562143D01*
X132135477Y-116609762D01*
X132040239Y-116657381D01*
X131754524Y-116657381D01*
X131659286Y-116609762D01*
X131611667Y-116562143D01*
M02*
