M48
;DRILL file {KiCad 4.0.6} date 05/15/17 23:53:32
;FORMAT={2:4/ absolute / inch / suppress leading zeros}
FMAT,2
INCH,TZ
T1C0.016
T2C0.031
T3C0.039
%
G90
G05
M72
T1
X48000Y-44000
X48500Y-44000
X48500Y-46000
X49000Y-44000
X49500Y-45000
X53000Y-37000
X60000Y-41000
X60500Y-43000
X61000Y-44000
X61000Y-46000
X61500Y-45000
X62500Y-35500
X62500Y-48000
X62500Y-51000
X63500Y-50000
X64000Y-51500
X64500Y-50000
X65000Y-36500
X65000Y-41000
X65500Y-36000
X66000Y-51500
X70000Y-43000
X70500Y-40500
X70500Y-46500
X72000Y-36000
X73000Y-50500
X73000Y-51000
X73500Y-44500
T2
X48000Y-36500
X48000Y-38469
X50500Y-42000
X50500Y-45000
X51500Y-36500
X51500Y-39500
X51500Y-42000
X51500Y-45000
X52500Y-36500
X52500Y-39500
X52500Y-42000
X52500Y-45000
X53500Y-36500
X53500Y-39500
X53500Y-42000
X53500Y-45000
X54500Y-36500
X54500Y-39500
X54500Y-42000
X54500Y-45000
X55500Y-36500
X55500Y-39500
X55500Y-42000
X55500Y-45000
X56500Y-36500
X56500Y-39500
X56500Y-42000
X56500Y-45000
X57500Y-36500
X57500Y-39500
X57500Y-42000
X57500Y-45000
X58500Y-36500
X58500Y-39500
X58500Y-42000
X58500Y-45000
X59500Y-42000
X59500Y-45000
X63500Y-37500
X63500Y-38500
X63500Y-39500
X63500Y-42531
X63500Y-44500
X72500Y-46000
X72500Y-49000
X73500Y-37500
X73500Y-39469
X73500Y-41531
X73500Y-43500
X73500Y-46000
X73500Y-49000
X74500Y-46000
X74500Y-49000
X75500Y-46000
X75500Y-49000
X75713Y-42500
X76500Y-42500
X76500Y-46000
X76500Y-49000
X77500Y-46000
X77500Y-49000
X78500Y-46000
X78500Y-49000
X79500Y-46000
X79500Y-49000
X81000Y-46500
X81000Y-48469
T3
X46500Y-52500
X47500Y-52500
X48500Y-52500
X49500Y-52500
X50500Y-52500
X51500Y-52500
X52500Y-52500
X53500Y-52500
X54500Y-52500
X55500Y-52500
X56500Y-52500
X57500Y-52500
X58500Y-52500
X59500Y-52500
X60500Y-52500
X61500Y-52500
X62500Y-52500
X63500Y-52500
X64500Y-52500
X65500Y-34000
X65500Y-52500
X66500Y-34000
X66500Y-52500
X67000Y-36500
X67000Y-37500
X67000Y-38500
X67000Y-39500
X67000Y-40500
X67000Y-41500
X67000Y-42500
X67000Y-43500
X67000Y-44500
X67500Y-52500
X68500Y-34000
X68500Y-52500
X69500Y-34000
X69500Y-52500
X70500Y-52500
X71500Y-52500
X72500Y-52500
X73500Y-52500
X74500Y-34500
X74500Y-35500
X74500Y-52500
X75500Y-34500
X75500Y-35500
X75500Y-52500
X76500Y-34500
X76500Y-35500
X76500Y-52500
X77500Y-34500
X77500Y-35500
X77500Y-52500
X78500Y-34500
X78500Y-35500
X78500Y-52500
X79500Y-34500
X79500Y-35500
X79500Y-52500
X80500Y-34500
X80500Y-35500
X80500Y-52500
X81500Y-34500
X81500Y-35500
X81500Y-52500
X82500Y-52500
X83500Y-52500
X84500Y-52500
T0
M30
