G04 #@! TF.FileFunction,Soldermask,Bot*
%FSLAX46Y46*%
G04 Gerber Fmt 4.6, Leading zero omitted, Abs format (unit mm)*
G04 Created by KiCad (PCBNEW 4.0.6) date 06/13/17 14:47:25*
%MOMM*%
%LPD*%
G01*
G04 APERTURE LIST*
%ADD10C,0.100000*%
%ADD11C,2.000000*%
%ADD12R,2.000000X2.000000*%
%ADD13O,2.000000X2.000000*%
%ADD14R,2.100000X2.100000*%
%ADD15O,2.100000X2.100000*%
%ADD16C,2.500000*%
%ADD17R,2.200000X2.200000*%
%ADD18C,2.200000*%
%ADD19C,1.840000*%
G04 APERTURE END LIST*
D10*
D11*
X213995000Y-101600000D03*
X213995000Y-106600000D03*
D12*
X202565000Y-101600000D03*
D13*
X210185000Y-119380000D03*
X202565000Y-104140000D03*
X210185000Y-116840000D03*
X202565000Y-106680000D03*
X210185000Y-114300000D03*
X202565000Y-109220000D03*
X210185000Y-111760000D03*
X202565000Y-111760000D03*
X210185000Y-109220000D03*
X202565000Y-114300000D03*
X210185000Y-106680000D03*
X202565000Y-116840000D03*
X210185000Y-104140000D03*
X202565000Y-119380000D03*
X210185000Y-101600000D03*
D11*
X146685000Y-103505000D03*
X146685000Y-108505000D03*
X190500000Y-102235000D03*
X190500000Y-107235000D03*
D14*
X214630000Y-133350000D03*
D15*
X212090000Y-133350000D03*
X209550000Y-133350000D03*
X207010000Y-133350000D03*
X204470000Y-133350000D03*
X201930000Y-133350000D03*
X199390000Y-133350000D03*
X196850000Y-133350000D03*
X194310000Y-133350000D03*
X191770000Y-133350000D03*
X189230000Y-133350000D03*
X186690000Y-133350000D03*
X184150000Y-133350000D03*
X181610000Y-133350000D03*
X179070000Y-133350000D03*
X176530000Y-133350000D03*
X173990000Y-133350000D03*
X171450000Y-133350000D03*
X168910000Y-133350000D03*
X166370000Y-133350000D03*
X163830000Y-133350000D03*
X161290000Y-133350000D03*
X158750000Y-133350000D03*
X156210000Y-133350000D03*
X153670000Y-133350000D03*
X151130000Y-133350000D03*
X148590000Y-133350000D03*
X146050000Y-133350000D03*
X143510000Y-133350000D03*
X140970000Y-133350000D03*
X138430000Y-133350000D03*
X135890000Y-133350000D03*
X133350000Y-133350000D03*
X130810000Y-133350000D03*
X128270000Y-133350000D03*
X125730000Y-133350000D03*
X123190000Y-133350000D03*
X120650000Y-133350000D03*
X118110000Y-133350000D03*
D14*
X187325000Y-86360000D03*
D15*
X189865000Y-86360000D03*
D12*
X120015000Y-103505000D03*
D13*
X127635000Y-126365000D03*
X120015000Y-106045000D03*
X127635000Y-123825000D03*
X120015000Y-108585000D03*
X127635000Y-121285000D03*
X120015000Y-111125000D03*
X127635000Y-118745000D03*
X120015000Y-113665000D03*
X127635000Y-116205000D03*
X120015000Y-116205000D03*
X127635000Y-113665000D03*
X120015000Y-118745000D03*
X127635000Y-111125000D03*
X120015000Y-121285000D03*
X127635000Y-108585000D03*
X120015000Y-123825000D03*
X127635000Y-106045000D03*
X120015000Y-126365000D03*
X127635000Y-103505000D03*
D12*
X179070000Y-102235000D03*
D13*
X186690000Y-120015000D03*
X179070000Y-104775000D03*
X186690000Y-117475000D03*
X179070000Y-107315000D03*
X186690000Y-114935000D03*
X179070000Y-109855000D03*
X186690000Y-112395000D03*
X179070000Y-112395000D03*
X186690000Y-109855000D03*
X179070000Y-114935000D03*
X186690000Y-107315000D03*
X179070000Y-117475000D03*
X186690000Y-104775000D03*
X179070000Y-120015000D03*
X186690000Y-102235000D03*
D11*
X158750000Y-108585000D03*
X158750000Y-103585000D03*
D12*
X158115000Y-115570000D03*
D11*
X156115000Y-115570000D03*
X153035000Y-108585000D03*
X153035000Y-103585000D03*
D14*
X193675000Y-86360000D03*
D15*
X196215000Y-86360000D03*
D14*
X194310000Y-101600000D03*
D15*
X196850000Y-101600000D03*
X194310000Y-104140000D03*
X196850000Y-104140000D03*
X194310000Y-106680000D03*
X196850000Y-106680000D03*
X194310000Y-109220000D03*
X196850000Y-109220000D03*
X194310000Y-111760000D03*
X196850000Y-111760000D03*
X194310000Y-114300000D03*
X196850000Y-114300000D03*
X194310000Y-116840000D03*
X196850000Y-116840000D03*
X194310000Y-119380000D03*
X196850000Y-119380000D03*
D12*
X149860000Y-115570000D03*
D11*
X147860000Y-115570000D03*
D12*
X194310000Y-123190000D03*
D13*
X194310000Y-130810000D03*
D12*
X191770000Y-123190000D03*
D13*
X191770000Y-130810000D03*
D12*
X189230000Y-123190000D03*
D13*
X189230000Y-130810000D03*
D12*
X186690000Y-123190000D03*
D13*
X186690000Y-130810000D03*
D12*
X184150000Y-123190000D03*
D13*
X184150000Y-130810000D03*
D12*
X181610000Y-123190000D03*
D13*
X181610000Y-130810000D03*
D16*
X205600000Y-87695000D03*
X209400000Y-87695000D03*
X213200000Y-87695000D03*
X213200000Y-97095000D03*
X209400000Y-97095000D03*
X205600000Y-97095000D03*
D14*
X142240000Y-89535000D03*
D15*
X144780000Y-89535000D03*
X142240000Y-92075000D03*
X144780000Y-92075000D03*
X142240000Y-94615000D03*
X144780000Y-94615000D03*
X142240000Y-97155000D03*
X144780000Y-97155000D03*
D14*
X142240000Y-86360000D03*
D15*
X144780000Y-86360000D03*
X147320000Y-86360000D03*
D11*
X200025000Y-97790000D03*
D13*
X200025000Y-87630000D03*
D11*
X190500000Y-120650000D03*
D13*
X190500000Y-110490000D03*
D12*
X135255000Y-103505000D03*
D13*
X142875000Y-118745000D03*
X135255000Y-106045000D03*
X142875000Y-116205000D03*
X135255000Y-108585000D03*
X142875000Y-113665000D03*
X135255000Y-111125000D03*
X142875000Y-111125000D03*
X135255000Y-113665000D03*
X142875000Y-108585000D03*
X135255000Y-116205000D03*
X142875000Y-106045000D03*
X135255000Y-118745000D03*
X142875000Y-103505000D03*
D12*
X121285000Y-97155000D03*
D11*
X121285000Y-89535000D03*
X136525000Y-89535000D03*
X136525000Y-97155000D03*
X131445000Y-103505000D03*
X131445000Y-108505000D03*
D17*
X163195000Y-99695000D03*
D18*
X163195000Y-102235000D03*
X163195000Y-104775000D03*
X163195000Y-107315000D03*
X163195000Y-109855000D03*
X163195000Y-112395000D03*
X163195000Y-114935000D03*
X163195000Y-117475000D03*
X163195000Y-120015000D03*
D19*
X176530000Y-88265000D03*
X176530000Y-90805000D03*
X176530000Y-93345000D03*
X182245000Y-88265000D03*
X182245000Y-90805000D03*
X182245000Y-93345000D03*
D11*
X131445000Y-111125000D03*
D13*
X131445000Y-121285000D03*
M02*
