M48
;DRILL file {KiCad 4.0.6} date 06/14/17 01:05:37
;FORMAT={2:4/ absolute / inch / suppress leading zeros}
FMAT,2
INCH,TZ
T1C0.016
T2C0.031
T3C0.039
T4C0.051
%
G90
G05
M72
T1
X51500Y-44500
X52500Y-52000
X53500Y-51750
X53750Y-49750
X54500Y-51500
X54750Y-49750
X55000Y-39250
X55000Y-40750
X55250Y-43500
X55250Y-44500
X55500Y-39250
X55500Y-40250
X55500Y-41500
X55500Y-44250
X55500Y-49750
X55500Y-51250
X56000Y-39750
X56250Y-49750
X56500Y-39250
X56500Y-51000
X57000Y-49750
X57500Y-50750
X57750Y-49750
X58500Y-49750
X59000Y-37250
X60500Y-39000
X62000Y-37500
X62000Y-43750
X62250Y-39000
X63750Y-37500
X65250Y-37500
X65250Y-39000
X65250Y-50750
X65500Y-43750
X65750Y-45250
X66000Y-38250
X66250Y-46250
X66500Y-40250
X67000Y-39250
X67500Y-43250
X68250Y-44250
X68500Y-37750
X68500Y-43750
X68500Y-51000
X69000Y-48000
X69250Y-39250
X69500Y-44000
X69500Y-50750
X69750Y-49750
X70000Y-50250
X71250Y-38250
X71750Y-40000
X72500Y-42000
X73250Y-37500
X73750Y-35500
X74750Y-39250
X75750Y-42500
X75750Y-46500
X76250Y-49500
X76750Y-37250
X77250Y-35500
X77250Y-49000
X77750Y-50500
X78000Y-48750
X78250Y-40500
X78250Y-41500
X78250Y-42500
X78250Y-43500
X78250Y-44500
X78250Y-45500
X78250Y-46500
X78250Y-48000
X79000Y-50000
X79250Y-48000
X79250Y-48750
X79500Y-49000
X79500Y-49500
X80000Y-48500
X80500Y-40500
X80500Y-41500
X80500Y-42500
X80750Y-43500
X80750Y-44500
X80750Y-45500
X80750Y-46500
X81250Y-47750
X81500Y-48000
X81750Y-37000
X81750Y-37500
T2
X47250Y-40750
X47250Y-41750
X47250Y-42750
X47250Y-43750
X47250Y-44750
X47250Y-45750
X47250Y-46750
X47250Y-47750
X47250Y-48750
X47250Y-49750
X47750Y-35250
X47750Y-38250
X50250Y-40750
X50250Y-41750
X50250Y-42750
X50250Y-43750
X50250Y-44750
X50250Y-45750
X50250Y-46750
X50250Y-47750
X50250Y-48750
X50250Y-49750
X51750Y-40750
X51750Y-42719
X51750Y-43750
X51750Y-47750
X53250Y-40750
X53250Y-41750
X53250Y-42750
X53250Y-43750
X53250Y-44750
X53250Y-45750
X53250Y-46750
X53750Y-35250
X53750Y-38250
X56250Y-40750
X56250Y-41750
X56250Y-42750
X56250Y-43750
X56250Y-44750
X56250Y-45750
X56250Y-46750
X57750Y-40750
X57750Y-42719
X58213Y-45500
X59000Y-45500
X60250Y-40781
X60250Y-42750
X61463Y-45500
X62250Y-45500
X62500Y-40781
X62500Y-42750
X69500Y-34750
X69500Y-35750
X69500Y-36750
X70500Y-40250
X70500Y-41250
X70500Y-42250
X70500Y-43250
X70500Y-44250
X70500Y-45250
X70500Y-46250
X70500Y-47250
X71500Y-48500
X71500Y-51500
X71750Y-34750
X71750Y-35750
X71750Y-36750
X72500Y-48500
X72500Y-51500
X73500Y-40250
X73500Y-41250
X73500Y-42250
X73500Y-43250
X73500Y-44250
X73500Y-45250
X73500Y-46250
X73500Y-47250
X73500Y-48500
X73500Y-51500
X74500Y-48500
X74500Y-51500
X75000Y-40250
X75000Y-42219
X75000Y-43500
X75000Y-47500
X75500Y-48500
X75500Y-51500
X76500Y-48500
X76500Y-51500
X78750Y-34500
X78750Y-38500
X79750Y-40000
X79750Y-41000
X79750Y-42000
X79750Y-43000
X79750Y-44000
X79750Y-45000
X79750Y-46000
X79750Y-47000
X82750Y-40000
X82750Y-41000
X82750Y-42000
X82750Y-43000
X82750Y-44000
X82750Y-45000
X82750Y-46000
X82750Y-47000
X84250Y-40000
X84250Y-41969
T3
X46500Y-52500
X47500Y-52500
X48500Y-52500
X49500Y-52500
X50500Y-52500
X51500Y-52500
X52500Y-52500
X53500Y-52500
X54500Y-52500
X55500Y-52500
X56000Y-34000
X56000Y-35250
X56000Y-36250
X56000Y-37250
X56000Y-38250
X56500Y-52500
X57000Y-34000
X57000Y-35250
X57000Y-36250
X57000Y-37250
X57000Y-38250
X57500Y-52500
X58000Y-34000
X58500Y-52500
X59500Y-52500
X60500Y-52500
X61500Y-52500
X62500Y-52500
X63500Y-52500
X64250Y-39250
X64250Y-40250
X64250Y-41250
X64250Y-42250
X64250Y-43250
X64250Y-44250
X64250Y-45250
X64250Y-46250
X64250Y-47250
X64500Y-52500
X65500Y-52500
X66500Y-52500
X67500Y-52500
X68500Y-52500
X69500Y-52500
X70500Y-52500
X71500Y-52500
X72500Y-52500
X73500Y-52500
X73750Y-34000
X74500Y-52500
X74750Y-34000
X75500Y-52500
X76250Y-34000
X76500Y-40000
X76500Y-41000
X76500Y-42000
X76500Y-43000
X76500Y-44000
X76500Y-45000
X76500Y-46000
X76500Y-47000
X76500Y-52500
X77250Y-34000
X77500Y-40000
X77500Y-41000
X77500Y-42000
X77500Y-43000
X77500Y-44000
X77500Y-45000
X77500Y-46000
X77500Y-47000
X77500Y-52500
X78500Y-52500
X79500Y-52500
X80500Y-52500
X81500Y-52500
X82500Y-52500
X83500Y-52500
X84500Y-52500
T4
X80945Y-34526
X80945Y-38226
X82441Y-34526
X82441Y-38226
X83937Y-34526
X83937Y-38226
T0
M30
