G04 #@! TF.FileFunction,Copper,L1,Top,Signal*
%FSLAX46Y46*%
G04 Gerber Fmt 4.6, Leading zero omitted, Abs format (unit mm)*
G04 Created by KiCad (PCBNEW 4.0.6) date 06/14/17 01:05:27*
%MOMM*%
%LPD*%
G01*
G04 APERTURE LIST*
%ADD10C,0.100000*%
%ADD11C,1.600000*%
%ADD12R,1.600000X1.600000*%
%ADD13O,1.600000X1.600000*%
%ADD14R,1.700000X1.700000*%
%ADD15O,1.700000X1.700000*%
%ADD16C,2.100000*%
%ADD17R,1.800000X1.800000*%
%ADD18C,1.800000*%
%ADD19C,1.440000*%
%ADD20C,0.600000*%
%ADD21C,0.250000*%
G04 APERTURE END LIST*
D10*
D11*
X213995000Y-101600000D03*
X213995000Y-106600000D03*
D12*
X202565000Y-101600000D03*
D13*
X210185000Y-119380000D03*
X202565000Y-104140000D03*
X210185000Y-116840000D03*
X202565000Y-106680000D03*
X210185000Y-114300000D03*
X202565000Y-109220000D03*
X210185000Y-111760000D03*
X202565000Y-111760000D03*
X210185000Y-109220000D03*
X202565000Y-114300000D03*
X210185000Y-106680000D03*
X202565000Y-116840000D03*
X210185000Y-104140000D03*
X202565000Y-119380000D03*
X210185000Y-101600000D03*
D11*
X146685000Y-103505000D03*
X146685000Y-108505000D03*
X190500000Y-102235000D03*
X190500000Y-107235000D03*
D14*
X214630000Y-133350000D03*
D15*
X212090000Y-133350000D03*
X209550000Y-133350000D03*
X207010000Y-133350000D03*
X204470000Y-133350000D03*
X201930000Y-133350000D03*
X199390000Y-133350000D03*
X196850000Y-133350000D03*
X194310000Y-133350000D03*
X191770000Y-133350000D03*
X189230000Y-133350000D03*
X186690000Y-133350000D03*
X184150000Y-133350000D03*
X181610000Y-133350000D03*
X179070000Y-133350000D03*
X176530000Y-133350000D03*
X173990000Y-133350000D03*
X171450000Y-133350000D03*
X168910000Y-133350000D03*
X166370000Y-133350000D03*
X163830000Y-133350000D03*
X161290000Y-133350000D03*
X158750000Y-133350000D03*
X156210000Y-133350000D03*
X153670000Y-133350000D03*
X151130000Y-133350000D03*
X148590000Y-133350000D03*
X146050000Y-133350000D03*
X143510000Y-133350000D03*
X140970000Y-133350000D03*
X138430000Y-133350000D03*
X135890000Y-133350000D03*
X133350000Y-133350000D03*
X130810000Y-133350000D03*
X128270000Y-133350000D03*
X125730000Y-133350000D03*
X123190000Y-133350000D03*
X120650000Y-133350000D03*
X118110000Y-133350000D03*
D14*
X187325000Y-86360000D03*
D15*
X189865000Y-86360000D03*
D12*
X120015000Y-103505000D03*
D13*
X127635000Y-126365000D03*
X120015000Y-106045000D03*
X127635000Y-123825000D03*
X120015000Y-108585000D03*
X127635000Y-121285000D03*
X120015000Y-111125000D03*
X127635000Y-118745000D03*
X120015000Y-113665000D03*
X127635000Y-116205000D03*
X120015000Y-116205000D03*
X127635000Y-113665000D03*
X120015000Y-118745000D03*
X127635000Y-111125000D03*
X120015000Y-121285000D03*
X127635000Y-108585000D03*
X120015000Y-123825000D03*
X127635000Y-106045000D03*
X120015000Y-126365000D03*
X127635000Y-103505000D03*
D12*
X179070000Y-102235000D03*
D13*
X186690000Y-120015000D03*
X179070000Y-104775000D03*
X186690000Y-117475000D03*
X179070000Y-107315000D03*
X186690000Y-114935000D03*
X179070000Y-109855000D03*
X186690000Y-112395000D03*
X179070000Y-112395000D03*
X186690000Y-109855000D03*
X179070000Y-114935000D03*
X186690000Y-107315000D03*
X179070000Y-117475000D03*
X186690000Y-104775000D03*
X179070000Y-120015000D03*
X186690000Y-102235000D03*
D11*
X158750000Y-108585000D03*
X158750000Y-103585000D03*
D12*
X158115000Y-115570000D03*
D11*
X156115000Y-115570000D03*
X153035000Y-108585000D03*
X153035000Y-103585000D03*
D14*
X193675000Y-86360000D03*
D15*
X196215000Y-86360000D03*
D14*
X194310000Y-101600000D03*
D15*
X196850000Y-101600000D03*
X194310000Y-104140000D03*
X196850000Y-104140000D03*
X194310000Y-106680000D03*
X196850000Y-106680000D03*
X194310000Y-109220000D03*
X196850000Y-109220000D03*
X194310000Y-111760000D03*
X196850000Y-111760000D03*
X194310000Y-114300000D03*
X196850000Y-114300000D03*
X194310000Y-116840000D03*
X196850000Y-116840000D03*
X194310000Y-119380000D03*
X196850000Y-119380000D03*
D12*
X149860000Y-115570000D03*
D11*
X147860000Y-115570000D03*
D12*
X194310000Y-123190000D03*
D13*
X194310000Y-130810000D03*
D12*
X191770000Y-123190000D03*
D13*
X191770000Y-130810000D03*
D12*
X189230000Y-123190000D03*
D13*
X189230000Y-130810000D03*
D12*
X186690000Y-123190000D03*
D13*
X186690000Y-130810000D03*
D12*
X184150000Y-123190000D03*
D13*
X184150000Y-130810000D03*
D12*
X181610000Y-123190000D03*
D13*
X181610000Y-130810000D03*
D16*
X205600000Y-87695000D03*
X209400000Y-87695000D03*
X213200000Y-87695000D03*
X213200000Y-97095000D03*
X209400000Y-97095000D03*
X205600000Y-97095000D03*
D14*
X142240000Y-89535000D03*
D15*
X144780000Y-89535000D03*
X142240000Y-92075000D03*
X144780000Y-92075000D03*
X142240000Y-94615000D03*
X144780000Y-94615000D03*
X142240000Y-97155000D03*
X144780000Y-97155000D03*
D14*
X142240000Y-86360000D03*
D15*
X144780000Y-86360000D03*
X147320000Y-86360000D03*
D11*
X200025000Y-97790000D03*
D13*
X200025000Y-87630000D03*
D11*
X190500000Y-120650000D03*
D13*
X190500000Y-110490000D03*
D12*
X135255000Y-103505000D03*
D13*
X142875000Y-118745000D03*
X135255000Y-106045000D03*
X142875000Y-116205000D03*
X135255000Y-108585000D03*
X142875000Y-113665000D03*
X135255000Y-111125000D03*
X142875000Y-111125000D03*
X135255000Y-113665000D03*
X142875000Y-108585000D03*
X135255000Y-116205000D03*
X142875000Y-106045000D03*
X135255000Y-118745000D03*
X142875000Y-103505000D03*
D12*
X121285000Y-97155000D03*
D11*
X121285000Y-89535000D03*
X136525000Y-89535000D03*
X136525000Y-97155000D03*
X131445000Y-103505000D03*
X131445000Y-108505000D03*
D17*
X163195000Y-99695000D03*
D18*
X163195000Y-102235000D03*
X163195000Y-104775000D03*
X163195000Y-107315000D03*
X163195000Y-109855000D03*
X163195000Y-112395000D03*
X163195000Y-114935000D03*
X163195000Y-117475000D03*
X163195000Y-120015000D03*
D19*
X176530000Y-88265000D03*
X176530000Y-90805000D03*
X176530000Y-93345000D03*
X182245000Y-88265000D03*
X182245000Y-90805000D03*
X182245000Y-93345000D03*
D11*
X131445000Y-111125000D03*
D13*
X131445000Y-121285000D03*
D20*
X201930000Y-125730000D03*
X173990000Y-129540000D03*
X177165000Y-126365000D03*
X193675000Y-125730000D03*
X201930000Y-124460000D03*
X207010000Y-121920000D03*
X196215000Y-124460000D03*
X177800000Y-127635000D03*
X176530000Y-128905000D03*
X206375000Y-121285000D03*
X201295000Y-123825000D03*
X198120000Y-123825000D03*
X148590000Y-126365000D03*
X146050000Y-128905000D03*
X143510000Y-129540000D03*
X146685000Y-126365000D03*
X144780000Y-126365000D03*
X140970000Y-130175000D03*
X138430000Y-130810000D03*
X142875000Y-126365000D03*
X140970000Y-126365000D03*
X135890000Y-131445000D03*
X133350000Y-132080000D03*
X139065000Y-126365000D03*
X173990000Y-111125000D03*
X136525000Y-126365000D03*
X197485000Y-128270000D03*
X200660000Y-127000000D03*
X167640000Y-97155000D03*
X168910000Y-102235000D03*
X165735000Y-128905000D03*
X167005000Y-114935000D03*
X187325000Y-90170000D03*
X186055000Y-95250000D03*
X175895000Y-99695000D03*
X171450000Y-109855000D03*
X157480000Y-111125000D03*
X166370000Y-111125000D03*
X158115000Y-99060000D03*
X161925000Y-95250000D03*
X196215000Y-90170000D03*
X189865000Y-99695000D03*
X194945000Y-94615000D03*
X165735000Y-95250000D03*
X165735000Y-99060000D03*
X192405000Y-107950000D03*
X175260000Y-121920000D03*
X168275000Y-117475000D03*
X192405000Y-118110000D03*
X157480000Y-95250000D03*
X153670000Y-99060000D03*
X207645000Y-93980000D03*
X207645000Y-95250000D03*
X203200000Y-123190000D03*
X204470000Y-102870000D03*
X198755000Y-102870000D03*
X204470000Y-105410000D03*
X198755000Y-105410000D03*
X204470000Y-107950000D03*
X198755000Y-107950000D03*
X205105000Y-110490000D03*
X198755000Y-110490000D03*
X205105000Y-113030000D03*
X198755000Y-113030000D03*
X205105000Y-115570000D03*
X198755000Y-115570000D03*
X205105000Y-118110000D03*
X198755000Y-118110000D03*
X198755000Y-121920000D03*
X201295000Y-121920000D03*
X142240000Y-100965000D03*
X143510000Y-99695000D03*
X184150000Y-106680000D03*
X180975000Y-97155000D03*
X149860000Y-94615000D03*
X182245000Y-101600000D03*
X139700000Y-103505000D03*
X139700000Y-99695000D03*
X140970000Y-99695000D03*
X140970000Y-102235000D03*
X140970000Y-105410000D03*
X140970000Y-112395000D03*
X173990000Y-95885000D03*
X170180000Y-99695000D03*
X140335000Y-110490000D03*
X140335000Y-113030000D03*
X130810000Y-113030000D03*
X176530000Y-111760000D03*
X173355000Y-112395000D03*
D21*
X185420000Y-98425000D02*
X182880000Y-95885000D01*
X182880000Y-93980000D02*
X182245000Y-93345000D01*
X182880000Y-95885000D02*
X182880000Y-93980000D01*
X135255000Y-111125000D02*
X136525000Y-111125000D01*
X141605000Y-106045000D02*
X142875000Y-106045000D01*
X136525000Y-111125000D02*
X141605000Y-106045000D01*
X149860000Y-98425000D02*
X147320000Y-95885000D01*
X146050000Y-89535000D02*
X144780000Y-89535000D01*
X147320000Y-90805000D02*
X146050000Y-89535000D01*
X147320000Y-95885000D02*
X147320000Y-90805000D01*
X148590000Y-103505000D02*
X148590000Y-104775000D01*
X148590000Y-102235000D02*
X148590000Y-103505000D01*
X147320000Y-106045000D02*
X146050000Y-106045000D01*
X148590000Y-104775000D02*
X147320000Y-106045000D01*
X148590000Y-99695000D02*
X147955000Y-100330000D01*
X147955000Y-100330000D02*
X146050000Y-100330000D01*
X135255000Y-103505000D02*
X135255000Y-102235000D01*
X135255000Y-102235000D02*
X137160000Y-100330000D01*
X133350000Y-105410000D02*
X132715000Y-106045000D01*
X135255000Y-103505000D02*
X133350000Y-105410000D01*
X132715000Y-109855000D02*
X131445000Y-111125000D01*
X132715000Y-106045000D02*
X132715000Y-109855000D01*
X146050000Y-106045000D02*
X144145000Y-107950000D01*
X144145000Y-107950000D02*
X144145000Y-112395000D01*
X144145000Y-112395000D02*
X142875000Y-113665000D01*
X144145000Y-106045000D02*
X142875000Y-106045000D01*
X146050000Y-106045000D02*
X144145000Y-106045000D01*
X142240000Y-100330000D02*
X137160000Y-100330000D01*
X146050000Y-100330000D02*
X142240000Y-100330000D01*
X134620000Y-100330000D02*
X131445000Y-103505000D01*
X137160000Y-100330000D02*
X134620000Y-100330000D01*
X146685000Y-103505000D02*
X147320000Y-103505000D01*
X147320000Y-103505000D02*
X148590000Y-102235000D01*
X148590000Y-99695000D02*
X149860000Y-98425000D01*
X148590000Y-102235000D02*
X148590000Y-99695000D01*
X142875000Y-103505000D02*
X146685000Y-103505000D01*
X160020000Y-98425000D02*
X149860000Y-98425000D01*
X193040000Y-99695000D02*
X191770000Y-98425000D01*
X158750000Y-99695000D02*
X158750000Y-103585000D01*
X160020000Y-98425000D02*
X158750000Y-99695000D01*
X191770000Y-98425000D02*
X185420000Y-98425000D01*
X185420000Y-98425000D02*
X160020000Y-98425000D01*
X190500000Y-102235000D02*
X186690000Y-102235000D01*
X213360000Y-100965000D02*
X212090000Y-99695000D01*
X193040000Y-99695000D02*
X190500000Y-102235000D01*
X212090000Y-99695000D02*
X193040000Y-99695000D01*
X212725000Y-100965000D02*
X213360000Y-100965000D01*
X212725000Y-100965000D02*
X210820000Y-100965000D01*
X210185000Y-101600000D02*
X210820000Y-100965000D01*
X213360000Y-100965000D02*
X213995000Y-101600000D01*
X213995000Y-101600000D02*
X213995000Y-104775000D01*
X171450000Y-132080000D02*
X173990000Y-129540000D01*
X177165000Y-126365000D02*
X177800000Y-125730000D01*
X177800000Y-125730000D02*
X193675000Y-125730000D01*
X171450000Y-133350000D02*
X171450000Y-132080000D01*
X212725000Y-106045000D02*
X213995000Y-104775000D01*
X212725000Y-120650000D02*
X212725000Y-106045000D01*
X211455000Y-121920000D02*
X212725000Y-120650000D01*
X208280000Y-121920000D02*
X211455000Y-121920000D01*
X204470000Y-125730000D02*
X208280000Y-121920000D01*
X201930000Y-125730000D02*
X204470000Y-125730000D01*
X156115000Y-115570000D02*
X156115000Y-106220000D01*
X156115000Y-106220000D02*
X158750000Y-103585000D01*
X163195000Y-102235000D02*
X160100000Y-102235000D01*
X160100000Y-102235000D02*
X158750000Y-103585000D01*
X131445000Y-103505000D02*
X127635000Y-103505000D01*
X186690000Y-133350000D02*
X186690000Y-130810000D01*
X189230000Y-133350000D02*
X189230000Y-130810000D01*
X191770000Y-133350000D02*
X191770000Y-130810000D01*
X169545000Y-127635000D02*
X176530000Y-127635000D01*
X176530000Y-127635000D02*
X177165000Y-127000000D01*
X204470000Y-124460000D02*
X201930000Y-124460000D01*
X207010000Y-121920000D02*
X204470000Y-124460000D01*
X193675000Y-127000000D02*
X177165000Y-127000000D01*
X196215000Y-124460000D02*
X193675000Y-127000000D01*
X151130000Y-129540000D02*
X151130000Y-133350000D01*
X153035000Y-127635000D02*
X151130000Y-129540000D01*
X169545000Y-127635000D02*
X153035000Y-127635000D01*
X169545000Y-128905000D02*
X176530000Y-128905000D01*
X168910000Y-133350000D02*
X168910000Y-129540000D01*
X168910000Y-129540000D02*
X169545000Y-128905000D01*
X192405000Y-127635000D02*
X194310000Y-127635000D01*
X177800000Y-127635000D02*
X192405000Y-127635000D01*
X206375000Y-121285000D02*
X203835000Y-123825000D01*
X203835000Y-123825000D02*
X201295000Y-123825000D01*
X194310000Y-127635000D02*
X198120000Y-123825000D01*
X148590000Y-128270000D02*
X149860000Y-127000000D01*
X185420000Y-118745000D02*
X186690000Y-117475000D01*
X177165000Y-118745000D02*
X185420000Y-118745000D01*
X168910000Y-127000000D02*
X177165000Y-118745000D01*
X149860000Y-127000000D02*
X168910000Y-127000000D01*
X133350000Y-127000000D02*
X147320000Y-127000000D01*
X126365000Y-124460000D02*
X127000000Y-125095000D01*
X127000000Y-125095000D02*
X128270000Y-125095000D01*
X128270000Y-125095000D02*
X130175000Y-127000000D01*
X130175000Y-127000000D02*
X133350000Y-127000000D01*
X120015000Y-106045000D02*
X121920000Y-106045000D01*
X126365000Y-110490000D02*
X126365000Y-120650000D01*
X121920000Y-106045000D02*
X126365000Y-110490000D01*
X126365000Y-120650000D02*
X126365000Y-124460000D01*
X148590000Y-128270000D02*
X148590000Y-133350000D01*
X147320000Y-127000000D02*
X148590000Y-128270000D01*
X185420000Y-116205000D02*
X178435000Y-116205000D01*
X175260000Y-119380000D02*
X168275000Y-126365000D01*
X168275000Y-126365000D02*
X148590000Y-126365000D01*
X185420000Y-116205000D02*
X186690000Y-114935000D01*
X178435000Y-116205000D02*
X175260000Y-119380000D01*
X133350000Y-127635000D02*
X144780000Y-127635000D01*
X125730000Y-127000000D02*
X126365000Y-127635000D01*
X126365000Y-127635000D02*
X133350000Y-127635000D01*
X120015000Y-108585000D02*
X121920000Y-108585000D01*
X125730000Y-112395000D02*
X125730000Y-118110000D01*
X121920000Y-108585000D02*
X125730000Y-112395000D01*
X125730000Y-118110000D02*
X125730000Y-127000000D01*
X146050000Y-128905000D02*
X146050000Y-133350000D01*
X144780000Y-127635000D02*
X146050000Y-128905000D01*
X178435000Y-113665000D02*
X177165000Y-114935000D01*
X186690000Y-112395000D02*
X185420000Y-113665000D01*
X167640000Y-125730000D02*
X174625000Y-118745000D01*
X147320000Y-125730000D02*
X167640000Y-125730000D01*
X146685000Y-126365000D02*
X147320000Y-125730000D01*
X178435000Y-113665000D02*
X185420000Y-113665000D01*
X177165000Y-116205000D02*
X174625000Y-118745000D01*
X177165000Y-114935000D02*
X177165000Y-116205000D01*
X133350000Y-128270000D02*
X142240000Y-128270000D01*
X125095000Y-127635000D02*
X125730000Y-128270000D01*
X125730000Y-128270000D02*
X133350000Y-128270000D01*
X120015000Y-111125000D02*
X121920000Y-111125000D01*
X125095000Y-114300000D02*
X125095000Y-123825000D01*
X121920000Y-111125000D02*
X125095000Y-114300000D01*
X125095000Y-123825000D02*
X125095000Y-127635000D01*
X143510000Y-129540000D02*
X143510000Y-133350000D01*
X142240000Y-128270000D02*
X143510000Y-129540000D01*
X180340000Y-111125000D02*
X178435000Y-111125000D01*
X180340000Y-111125000D02*
X181610000Y-109855000D01*
X186690000Y-109855000D02*
X181610000Y-109855000D01*
X144780000Y-126365000D02*
X146050000Y-125095000D01*
X146050000Y-125095000D02*
X167005000Y-125095000D01*
X167005000Y-125095000D02*
X173990000Y-118110000D01*
X176530000Y-115570000D02*
X173990000Y-118110000D01*
X176530000Y-113030000D02*
X176530000Y-115570000D01*
X178435000Y-111125000D02*
X176530000Y-113030000D01*
X140970000Y-130810000D02*
X140970000Y-130175000D01*
X140970000Y-133350000D02*
X140970000Y-130810000D01*
X124460000Y-123825000D02*
X124460000Y-128270000D01*
X121920000Y-113665000D02*
X124460000Y-116205000D01*
X124460000Y-116205000D02*
X124460000Y-123825000D01*
X121920000Y-113665000D02*
X120015000Y-113665000D01*
X125095000Y-128905000D02*
X133350000Y-128905000D01*
X124460000Y-128270000D02*
X125095000Y-128905000D01*
X133350000Y-128905000D02*
X139065000Y-128905000D01*
X139700000Y-128905000D02*
X139065000Y-128905000D01*
X140970000Y-130175000D02*
X139700000Y-128905000D01*
X183515000Y-108585000D02*
X178435000Y-108585000D01*
X185420000Y-104775000D02*
X184785000Y-105410000D01*
X184785000Y-105410000D02*
X184785000Y-107315000D01*
X184785000Y-107315000D02*
X183515000Y-108585000D01*
X186690000Y-104775000D02*
X185420000Y-104775000D01*
X144780000Y-124460000D02*
X142875000Y-126365000D01*
X166370000Y-124460000D02*
X144780000Y-124460000D01*
X175895000Y-114935000D02*
X166370000Y-124460000D01*
X175895000Y-111125000D02*
X175895000Y-114935000D01*
X178435000Y-108585000D02*
X175895000Y-111125000D01*
X120015000Y-116205000D02*
X121920000Y-116205000D01*
X138430000Y-130810000D02*
X138430000Y-133350000D01*
X137160000Y-129540000D02*
X138430000Y-130810000D01*
X124460000Y-129540000D02*
X137160000Y-129540000D01*
X123825000Y-128905000D02*
X124460000Y-129540000D01*
X123825000Y-118110000D02*
X123825000Y-128905000D01*
X121920000Y-116205000D02*
X123825000Y-118110000D01*
X179070000Y-102235000D02*
X179705000Y-102235000D01*
X179705000Y-102235000D02*
X180975000Y-103505000D01*
X180975000Y-103505000D02*
X180975000Y-104775000D01*
X180975000Y-104775000D02*
X179705000Y-106045000D01*
X179705000Y-106045000D02*
X177800000Y-106045000D01*
X177800000Y-106045000D02*
X175260000Y-108585000D01*
X175260000Y-108585000D02*
X175260000Y-114300000D01*
X175260000Y-114300000D02*
X165735000Y-123825000D01*
X165735000Y-123825000D02*
X143510000Y-123825000D01*
X143510000Y-123825000D02*
X140970000Y-126365000D01*
X120015000Y-118745000D02*
X121920000Y-118745000D01*
X135890000Y-131445000D02*
X135890000Y-133350000D01*
X134620000Y-130175000D02*
X135890000Y-131445000D01*
X123825000Y-130175000D02*
X134620000Y-130175000D01*
X123190000Y-129540000D02*
X123825000Y-130175000D01*
X123190000Y-120015000D02*
X123190000Y-129540000D01*
X121920000Y-118745000D02*
X123190000Y-120015000D01*
X179070000Y-104775000D02*
X177800000Y-104775000D01*
X142240000Y-123190000D02*
X139065000Y-126365000D01*
X165100000Y-123190000D02*
X142240000Y-123190000D01*
X174625000Y-113665000D02*
X165100000Y-123190000D01*
X174625000Y-107950000D02*
X174625000Y-113665000D01*
X177800000Y-104775000D02*
X174625000Y-107950000D01*
X120015000Y-121285000D02*
X121920000Y-121285000D01*
X133350000Y-132080000D02*
X133350000Y-133350000D01*
X132080000Y-130810000D02*
X133350000Y-132080000D01*
X123190000Y-130810000D02*
X132080000Y-130810000D01*
X122555000Y-130175000D02*
X123190000Y-130810000D01*
X122555000Y-121920000D02*
X122555000Y-130175000D01*
X121920000Y-121285000D02*
X122555000Y-121920000D01*
X163195000Y-122555000D02*
X164465000Y-122555000D01*
X173990000Y-113030000D02*
X173990000Y-111125000D01*
X136525000Y-126365000D02*
X140335000Y-122555000D01*
X140335000Y-122555000D02*
X145415000Y-122555000D01*
X163195000Y-122555000D02*
X145415000Y-122555000D01*
X164465000Y-122555000D02*
X173990000Y-113030000D01*
X130810000Y-133350000D02*
X130810000Y-132715000D01*
X130810000Y-132715000D02*
X129540000Y-131445000D01*
X129540000Y-131445000D02*
X128905000Y-131445000D01*
X121285000Y-123825000D02*
X121920000Y-124460000D01*
X121920000Y-124460000D02*
X121920000Y-130810000D01*
X121920000Y-130810000D02*
X122555000Y-131445000D01*
X122555000Y-131445000D02*
X128905000Y-131445000D01*
X121285000Y-123825000D02*
X120015000Y-123825000D01*
X200660000Y-125730000D02*
X200660000Y-127000000D01*
X157480000Y-128270000D02*
X156210000Y-129540000D01*
X156210000Y-133350000D02*
X156210000Y-129540000D01*
X200660000Y-107950000D02*
X201930000Y-106680000D01*
X200660000Y-107950000D02*
X200660000Y-123825000D01*
X200660000Y-123825000D02*
X200660000Y-125730000D01*
X197485000Y-128270000D02*
X157480000Y-128270000D01*
X202565000Y-106680000D02*
X201930000Y-106680000D01*
X147320000Y-86360000D02*
X148590000Y-87630000D01*
X168910000Y-102235000D02*
X168275000Y-102870000D01*
X168275000Y-102870000D02*
X168275000Y-107950000D01*
X168275000Y-107950000D02*
X167005000Y-109220000D01*
X167005000Y-109220000D02*
X167005000Y-114935000D01*
X166370000Y-97155000D02*
X165100000Y-97155000D01*
X148590000Y-93980000D02*
X148590000Y-95250000D01*
X148590000Y-93980000D02*
X148590000Y-87630000D01*
X150495000Y-97155000D02*
X165100000Y-97155000D01*
X148590000Y-95250000D02*
X150495000Y-97155000D01*
X163830000Y-130810000D02*
X163830000Y-133350000D01*
X163830000Y-130810000D02*
X165735000Y-128905000D01*
X166370000Y-97155000D02*
X167640000Y-97155000D01*
X187325000Y-93980000D02*
X187325000Y-90170000D01*
X186055000Y-95250000D02*
X187325000Y-93980000D01*
X174625000Y-100965000D02*
X175895000Y-99695000D01*
X174625000Y-102870000D02*
X174625000Y-100965000D01*
X171450000Y-106045000D02*
X174625000Y-102870000D01*
X171450000Y-107315000D02*
X171450000Y-106045000D01*
X171450000Y-109855000D02*
X171450000Y-107315000D01*
X166370000Y-111125000D02*
X157480000Y-111125000D01*
X153035000Y-103585000D02*
X153590000Y-103585000D01*
X153590000Y-103585000D02*
X158115000Y-99060000D01*
X161925000Y-95250000D02*
X168910000Y-88265000D01*
X168910000Y-88265000D02*
X176530000Y-88265000D01*
X163195000Y-112395000D02*
X162560000Y-112395000D01*
X162560000Y-112395000D02*
X161290000Y-113665000D01*
X161290000Y-113665000D02*
X161290000Y-118110000D01*
X161290000Y-118110000D02*
X159385000Y-120015000D01*
X159385000Y-120015000D02*
X151765000Y-120015000D01*
X151765000Y-120015000D02*
X149860000Y-118110000D01*
X149860000Y-118110000D02*
X149860000Y-115570000D01*
X194945000Y-94615000D02*
X196215000Y-93345000D01*
X196215000Y-93345000D02*
X196215000Y-90170000D01*
X210820000Y-94615000D02*
X196215000Y-94615000D01*
X180975000Y-99695000D02*
X189865000Y-99695000D01*
X165735000Y-117475000D02*
X163195000Y-117475000D01*
X177800000Y-99695000D02*
X180975000Y-99695000D01*
X176530000Y-100965000D02*
X177800000Y-99695000D01*
X176530000Y-103505000D02*
X176530000Y-100965000D01*
X173355000Y-106680000D02*
X176530000Y-103505000D01*
X173355000Y-109855000D02*
X173355000Y-106680000D01*
X165735000Y-117475000D02*
X173355000Y-109855000D01*
X194945000Y-94615000D02*
X196215000Y-94615000D01*
X210820000Y-94615000D02*
X213360000Y-92075000D01*
X213360000Y-92075000D02*
X213360000Y-87855000D01*
X213360000Y-87855000D02*
X213200000Y-87695000D01*
X210820000Y-94615000D02*
X210720000Y-94615000D01*
X210720000Y-94615000D02*
X213200000Y-97095000D01*
X163195000Y-104775000D02*
X164465000Y-104775000D01*
X168275000Y-90805000D02*
X176530000Y-90805000D01*
X165735000Y-93345000D02*
X168275000Y-90805000D01*
X165735000Y-95250000D02*
X165735000Y-93345000D01*
X165735000Y-103505000D02*
X165735000Y-99060000D01*
X164465000Y-104775000D02*
X165735000Y-103505000D01*
X179070000Y-112395000D02*
X184150000Y-112395000D01*
X192405000Y-107950000D02*
X191770000Y-108585000D01*
X189865000Y-108585000D02*
X191770000Y-108585000D01*
X187325000Y-111125000D02*
X189865000Y-108585000D01*
X185420000Y-111125000D02*
X187325000Y-111125000D01*
X184150000Y-112395000D02*
X185420000Y-111125000D01*
X140335000Y-121920000D02*
X139700000Y-121920000D01*
X189865000Y-118110000D02*
X188595000Y-119380000D01*
X188595000Y-119380000D02*
X188595000Y-120650000D01*
X188595000Y-120650000D02*
X187325000Y-121920000D01*
X187325000Y-121920000D02*
X175260000Y-121920000D01*
X168275000Y-117475000D02*
X163830000Y-121920000D01*
X163830000Y-121920000D02*
X140335000Y-121920000D01*
X129540000Y-115570000D02*
X129540000Y-121920000D01*
X129540000Y-115570000D02*
X129540000Y-106680000D01*
X129540000Y-106680000D02*
X128905000Y-106045000D01*
X127635000Y-106045000D02*
X128905000Y-106045000D01*
X130810000Y-123190000D02*
X134620000Y-123190000D01*
X129540000Y-121920000D02*
X130810000Y-123190000D01*
X192405000Y-118110000D02*
X189865000Y-118110000D01*
X138430000Y-123190000D02*
X134620000Y-123190000D01*
X139700000Y-121920000D02*
X138430000Y-123190000D01*
X128270000Y-106045000D02*
X127635000Y-106045000D01*
X192405000Y-88900000D02*
X197485000Y-88900000D01*
X197485000Y-88900000D02*
X203835000Y-88900000D01*
X147860000Y-115570000D02*
X147860000Y-111855000D01*
X193675000Y-87630000D02*
X193675000Y-86360000D01*
X192405000Y-88900000D02*
X193675000Y-87630000D01*
X186055000Y-88900000D02*
X192405000Y-88900000D01*
X183515000Y-86360000D02*
X186055000Y-88900000D01*
X166370000Y-86360000D02*
X183515000Y-86360000D01*
X157480000Y-95250000D02*
X166370000Y-86360000D01*
X150495000Y-102235000D02*
X153670000Y-99060000D01*
X150495000Y-109220000D02*
X150495000Y-102235000D01*
X147860000Y-111855000D02*
X150495000Y-109220000D01*
X207645000Y-95250000D02*
X207645000Y-95340000D01*
X207645000Y-95340000D02*
X209400000Y-97095000D01*
X203835000Y-88900000D02*
X207645000Y-92710000D01*
X207645000Y-92710000D02*
X207645000Y-93980000D01*
X207645000Y-95250000D02*
X205800000Y-97095000D01*
X205800000Y-97095000D02*
X205600000Y-97095000D01*
X205600000Y-87695000D02*
X209400000Y-87695000D01*
X203835000Y-88900000D02*
X205040000Y-87695000D01*
X205040000Y-87695000D02*
X205600000Y-87695000D01*
X203200000Y-123190000D02*
X204470000Y-121920000D01*
X204470000Y-121920000D02*
X204470000Y-109855000D01*
X204470000Y-109855000D02*
X203835000Y-109220000D01*
X203835000Y-109220000D02*
X202565000Y-109220000D01*
X190500000Y-120650000D02*
X190500000Y-123190000D01*
X184150000Y-123190000D02*
X186690000Y-123190000D01*
X186690000Y-123190000D02*
X189230000Y-123190000D01*
X189230000Y-123190000D02*
X190500000Y-123190000D01*
X190500000Y-123190000D02*
X191770000Y-123190000D01*
X191770000Y-123190000D02*
X194310000Y-123190000D01*
X181610000Y-123190000D02*
X184150000Y-123190000D01*
X194310000Y-133350000D02*
X194310000Y-130810000D01*
X184150000Y-133350000D02*
X184150000Y-130810000D01*
X181610000Y-133350000D02*
X181610000Y-130810000D01*
X200025000Y-123825000D02*
X200025000Y-128270000D01*
X179070000Y-133350000D02*
X179070000Y-130810000D01*
X179070000Y-130810000D02*
X180340000Y-129540000D01*
X200025000Y-106680000D02*
X200025000Y-123825000D01*
X200025000Y-106680000D02*
X202565000Y-104140000D01*
X198755000Y-129540000D02*
X180340000Y-129540000D01*
X200025000Y-128270000D02*
X198755000Y-129540000D01*
X199390000Y-123825000D02*
X199390000Y-127635000D01*
X199390000Y-104775000D02*
X199390000Y-123825000D01*
X202565000Y-101600000D02*
X199390000Y-104775000D01*
X176530000Y-130175000D02*
X176530000Y-133350000D01*
X177800000Y-128905000D02*
X176530000Y-130175000D01*
X198120000Y-128905000D02*
X177800000Y-128905000D01*
X199390000Y-127635000D02*
X198120000Y-128905000D01*
X194310000Y-101600000D02*
X195580000Y-102870000D01*
X205740000Y-104140000D02*
X210185000Y-104140000D01*
X204470000Y-102870000D02*
X205740000Y-104140000D01*
X195580000Y-102870000D02*
X198755000Y-102870000D01*
X194310000Y-104140000D02*
X195580000Y-105410000D01*
X205740000Y-106680000D02*
X210185000Y-106680000D01*
X204470000Y-105410000D02*
X205740000Y-106680000D01*
X195580000Y-105410000D02*
X198755000Y-105410000D01*
X194310000Y-106680000D02*
X195580000Y-107950000D01*
X205740000Y-109220000D02*
X210185000Y-109220000D01*
X204470000Y-107950000D02*
X205740000Y-109220000D01*
X195580000Y-107950000D02*
X198755000Y-107950000D01*
X194310000Y-109220000D02*
X195580000Y-110490000D01*
X206375000Y-111760000D02*
X210185000Y-111760000D01*
X205105000Y-110490000D02*
X206375000Y-111760000D01*
X195580000Y-110490000D02*
X198755000Y-110490000D01*
X194310000Y-111760000D02*
X195580000Y-113030000D01*
X206375000Y-114300000D02*
X210185000Y-114300000D01*
X205105000Y-113030000D02*
X206375000Y-114300000D01*
X195580000Y-113030000D02*
X198755000Y-113030000D01*
X194310000Y-114300000D02*
X195580000Y-115570000D01*
X206375000Y-116840000D02*
X210185000Y-116840000D01*
X205105000Y-115570000D02*
X206375000Y-116840000D01*
X195580000Y-115570000D02*
X198755000Y-115570000D01*
X194310000Y-116840000D02*
X195580000Y-118110000D01*
X206375000Y-119380000D02*
X210185000Y-119380000D01*
X205105000Y-118110000D02*
X206375000Y-119380000D01*
X195580000Y-118110000D02*
X198755000Y-118110000D01*
X202565000Y-116840000D02*
X203835000Y-118110000D01*
X196850000Y-121920000D02*
X194310000Y-119380000D01*
X198755000Y-121920000D02*
X196850000Y-121920000D01*
X202565000Y-121920000D02*
X201295000Y-121920000D01*
X203835000Y-120650000D02*
X202565000Y-121920000D01*
X203835000Y-118110000D02*
X203835000Y-120650000D01*
X142240000Y-89535000D02*
X139700000Y-89535000D01*
X123190000Y-91440000D02*
X121285000Y-89535000D01*
X137795000Y-91440000D02*
X123190000Y-91440000D01*
X139700000Y-89535000D02*
X137795000Y-91440000D01*
X143510000Y-88265000D02*
X143510000Y-87630000D01*
X143510000Y-91440000D02*
X143510000Y-88265000D01*
X143510000Y-87630000D02*
X144780000Y-86360000D01*
X143510000Y-98425000D02*
X143510000Y-99695000D01*
X135255000Y-108585000D02*
X137160000Y-106680000D01*
X137160000Y-104775000D02*
X137160000Y-106680000D01*
X143510000Y-98425000D02*
X143510000Y-91440000D01*
X137160000Y-101600000D02*
X137160000Y-104775000D01*
X137795000Y-100965000D02*
X137160000Y-101600000D01*
X139065000Y-100965000D02*
X137795000Y-100965000D01*
X142240000Y-100965000D02*
X139065000Y-100965000D01*
X142240000Y-92075000D02*
X142875000Y-92075000D01*
X142875000Y-92075000D02*
X143510000Y-91440000D01*
X167005000Y-95885000D02*
X168275000Y-95885000D01*
X183515000Y-106045000D02*
X182245000Y-104775000D01*
X182245000Y-104775000D02*
X182245000Y-102235000D01*
X151130000Y-95885000D02*
X165735000Y-95885000D01*
X149860000Y-94615000D02*
X151130000Y-95885000D01*
X165735000Y-95885000D02*
X167005000Y-95885000D01*
X182245000Y-101600000D02*
X182245000Y-102235000D01*
X183515000Y-106045000D02*
X184150000Y-106680000D01*
X169545000Y-97155000D02*
X180975000Y-97155000D01*
X168275000Y-95885000D02*
X169545000Y-97155000D01*
X142240000Y-94615000D02*
X140970000Y-94615000D01*
X133985000Y-112395000D02*
X135255000Y-113665000D01*
X133985000Y-110490000D02*
X133985000Y-112395000D01*
X134620000Y-109855000D02*
X133985000Y-110490000D01*
X136525000Y-109855000D02*
X134620000Y-109855000D01*
X139700000Y-106680000D02*
X136525000Y-109855000D01*
X139700000Y-103505000D02*
X139700000Y-106680000D01*
X139700000Y-95885000D02*
X139700000Y-99695000D01*
X140970000Y-94615000D02*
X139700000Y-95885000D01*
X142240000Y-97155000D02*
X141605000Y-97155000D01*
X141605000Y-97155000D02*
X140970000Y-97790000D01*
X140970000Y-97790000D02*
X140970000Y-99695000D01*
X140970000Y-102235000D02*
X140970000Y-105410000D01*
X140970000Y-112395000D02*
X140970000Y-114300000D01*
X140970000Y-114300000D02*
X140970000Y-114935000D01*
X140970000Y-114935000D02*
X142240000Y-116205000D01*
X142240000Y-116205000D02*
X142875000Y-116205000D01*
X163195000Y-109855000D02*
X164465000Y-109855000D01*
X180340000Y-92075000D02*
X181610000Y-90805000D01*
X180340000Y-93980000D02*
X180340000Y-92075000D01*
X179070000Y-95250000D02*
X180340000Y-93980000D01*
X174625000Y-95250000D02*
X179070000Y-95250000D01*
X173990000Y-95885000D02*
X174625000Y-95250000D01*
X167005000Y-102870000D02*
X170180000Y-99695000D01*
X167005000Y-107315000D02*
X167005000Y-102870000D01*
X164465000Y-109855000D02*
X167005000Y-107315000D01*
X181610000Y-90805000D02*
X182245000Y-90805000D01*
X200025000Y-97790000D02*
X193040000Y-97790000D01*
X184150000Y-92075000D02*
X182880000Y-90805000D01*
X184150000Y-95250000D02*
X184150000Y-92075000D01*
X186055000Y-97155000D02*
X184150000Y-95250000D01*
X192405000Y-97155000D02*
X186055000Y-97155000D01*
X193040000Y-97790000D02*
X192405000Y-97155000D01*
X182880000Y-90805000D02*
X182245000Y-90805000D01*
X142875000Y-108585000D02*
X142240000Y-108585000D01*
X142240000Y-108585000D02*
X140335000Y-110490000D01*
X140335000Y-113030000D02*
X140335000Y-117475000D01*
X140335000Y-117475000D02*
X141605000Y-118745000D01*
X141605000Y-118745000D02*
X142875000Y-118745000D01*
X142875000Y-111125000D02*
X139065000Y-111125000D01*
X136525000Y-116205000D02*
X135255000Y-116205000D01*
X137160000Y-115570000D02*
X136525000Y-116205000D01*
X137160000Y-113030000D02*
X137160000Y-115570000D01*
X139065000Y-111125000D02*
X137160000Y-113030000D01*
X135255000Y-116205000D02*
X134620000Y-116205000D01*
X134620000Y-116205000D02*
X133350000Y-114935000D01*
X133350000Y-107950000D02*
X135255000Y-106045000D01*
X133350000Y-114935000D02*
X133350000Y-107950000D01*
X167640000Y-116840000D02*
X165735000Y-118745000D01*
X165735000Y-118745000D02*
X162560000Y-118745000D01*
X162560000Y-118745000D02*
X160020000Y-121285000D01*
X160020000Y-121285000D02*
X139065000Y-121285000D01*
X139065000Y-121285000D02*
X137795000Y-122555000D01*
X137795000Y-122555000D02*
X132715000Y-122555000D01*
X131445000Y-121285000D02*
X131445000Y-113665000D01*
X131445000Y-113665000D02*
X130810000Y-113030000D01*
X179070000Y-109855000D02*
X178435000Y-109855000D01*
X178435000Y-109855000D02*
X176530000Y-111760000D01*
X173355000Y-112395000D02*
X168910000Y-116840000D01*
X168910000Y-116840000D02*
X167640000Y-116840000D01*
X132715000Y-122555000D02*
X131445000Y-121285000D01*
X142240000Y-86360000D02*
X139700000Y-86360000D01*
X139700000Y-86360000D02*
X136525000Y-89535000D01*
M02*
