G04 #@! TF.FileFunction,Soldermask,Bot*
%FSLAX46Y46*%
G04 Gerber Fmt 4.6, Leading zero omitted, Abs format (unit mm)*
G04 Created by KiCad (PCBNEW 4.0.6) date 05/15/17 23:53:28*
%MOMM*%
%LPD*%
G01*
G04 APERTURE LIST*
%ADD10C,0.100000*%
%ADD11C,2.000000*%
%ADD12R,2.000000X2.000000*%
%ADD13O,2.000000X2.000000*%
%ADD14R,2.100000X2.100000*%
%ADD15O,2.100000X2.100000*%
%ADD16C,1.840000*%
G04 APERTURE END LIST*
D10*
D11*
X205740000Y-118110000D03*
X205740000Y-123110000D03*
D12*
X184150000Y-124460000D03*
D13*
X201930000Y-116840000D03*
X186690000Y-124460000D03*
X199390000Y-116840000D03*
X189230000Y-124460000D03*
X196850000Y-116840000D03*
X191770000Y-124460000D03*
X194310000Y-116840000D03*
X194310000Y-124460000D03*
X191770000Y-116840000D03*
X196850000Y-124460000D03*
X189230000Y-116840000D03*
X199390000Y-124460000D03*
X186690000Y-116840000D03*
X201930000Y-124460000D03*
X184150000Y-116840000D03*
D11*
X161290000Y-113030000D03*
X161290000Y-108030000D03*
X121920000Y-92710000D03*
X121920000Y-97710000D03*
D14*
X214630000Y-133350000D03*
D15*
X212090000Y-133350000D03*
X209550000Y-133350000D03*
X207010000Y-133350000D03*
X204470000Y-133350000D03*
X201930000Y-133350000D03*
X199390000Y-133350000D03*
X196850000Y-133350000D03*
X194310000Y-133350000D03*
X191770000Y-133350000D03*
X189230000Y-133350000D03*
X186690000Y-133350000D03*
X184150000Y-133350000D03*
X181610000Y-133350000D03*
X179070000Y-133350000D03*
X176530000Y-133350000D03*
X173990000Y-133350000D03*
X171450000Y-133350000D03*
X168910000Y-133350000D03*
X166370000Y-133350000D03*
X163830000Y-133350000D03*
X161290000Y-133350000D03*
X158750000Y-133350000D03*
X156210000Y-133350000D03*
X153670000Y-133350000D03*
X151130000Y-133350000D03*
X148590000Y-133350000D03*
X146050000Y-133350000D03*
X143510000Y-133350000D03*
X140970000Y-133350000D03*
X138430000Y-133350000D03*
X135890000Y-133350000D03*
X133350000Y-133350000D03*
X130810000Y-133350000D03*
X128270000Y-133350000D03*
X125730000Y-133350000D03*
X123190000Y-133350000D03*
X120650000Y-133350000D03*
X118110000Y-133350000D03*
D14*
X166370000Y-86360000D03*
D15*
X168910000Y-86360000D03*
D12*
X151130000Y-106680000D03*
D13*
X128270000Y-114300000D03*
X148590000Y-106680000D03*
X130810000Y-114300000D03*
X146050000Y-106680000D03*
X133350000Y-114300000D03*
X143510000Y-106680000D03*
X135890000Y-114300000D03*
X140970000Y-106680000D03*
X138430000Y-114300000D03*
X138430000Y-106680000D03*
X140970000Y-114300000D03*
X135890000Y-106680000D03*
X143510000Y-114300000D03*
X133350000Y-106680000D03*
X146050000Y-114300000D03*
X130810000Y-106680000D03*
X148590000Y-114300000D03*
X128270000Y-106680000D03*
X151130000Y-114300000D03*
D12*
X130810000Y-100330000D03*
D13*
X148590000Y-92710000D03*
X133350000Y-100330000D03*
X146050000Y-92710000D03*
X135890000Y-100330000D03*
X143510000Y-92710000D03*
X138430000Y-100330000D03*
X140970000Y-92710000D03*
X140970000Y-100330000D03*
X138430000Y-92710000D03*
X143510000Y-100330000D03*
X135890000Y-92710000D03*
X146050000Y-100330000D03*
X133350000Y-92710000D03*
X148590000Y-100330000D03*
X130810000Y-92710000D03*
D11*
X186690000Y-110490000D03*
X186690000Y-105490000D03*
D12*
X194310000Y-107950000D03*
D11*
X192310000Y-107950000D03*
X186690000Y-95250000D03*
X186690000Y-100250000D03*
D14*
X173990000Y-86360000D03*
D15*
X176530000Y-86360000D03*
D16*
X161290000Y-95250000D03*
X161290000Y-97790000D03*
X161290000Y-100330000D03*
D14*
X170180000Y-92710000D03*
D15*
X170180000Y-95250000D03*
X170180000Y-97790000D03*
X170180000Y-100330000D03*
X170180000Y-102870000D03*
X170180000Y-105410000D03*
X170180000Y-107950000D03*
X170180000Y-110490000D03*
X170180000Y-113030000D03*
D14*
X189230000Y-90170000D03*
D15*
X189230000Y-87630000D03*
X191770000Y-90170000D03*
X191770000Y-87630000D03*
X194310000Y-90170000D03*
X194310000Y-87630000D03*
X196850000Y-90170000D03*
X196850000Y-87630000D03*
X199390000Y-90170000D03*
X199390000Y-87630000D03*
X201930000Y-90170000D03*
X201930000Y-87630000D03*
X204470000Y-90170000D03*
X204470000Y-87630000D03*
X207010000Y-90170000D03*
X207010000Y-87630000D03*
M02*
