G04 #@! TF.FileFunction,Copper,L1,Top,Signal*
%FSLAX46Y46*%
G04 Gerber Fmt 4.6, Leading zero omitted, Abs format (unit mm)*
G04 Created by KiCad (PCBNEW 4.0.6) date 05/15/17 21:17:45*
%MOMM*%
%LPD*%
G01*
G04 APERTURE LIST*
%ADD10C,0.100000*%
%ADD11C,1.600000*%
%ADD12R,1.727200X1.727200*%
%ADD13O,1.727200X1.727200*%
%ADD14R,1.700000X1.700000*%
%ADD15O,1.700000X1.700000*%
%ADD16O,1.600000X1.600000*%
%ADD17R,1.600000X1.600000*%
%ADD18R,1.800000X1.800000*%
%ADD19C,1.800000*%
%ADD20C,0.600000*%
%ADD21C,0.250000*%
%ADD22C,0.254000*%
G04 APERTURE END LIST*
D10*
D11*
X209550000Y-111760000D03*
X209550000Y-116760000D03*
D12*
X124460000Y-92710000D03*
D13*
X124460000Y-90170000D03*
X127000000Y-92710000D03*
X127000000Y-90170000D03*
X129540000Y-92710000D03*
X129540000Y-90170000D03*
X132080000Y-92710000D03*
X132080000Y-90170000D03*
X134620000Y-92710000D03*
X134620000Y-90170000D03*
X137160000Y-92710000D03*
X137160000Y-90170000D03*
X139700000Y-92710000D03*
X139700000Y-90170000D03*
X142240000Y-92710000D03*
X142240000Y-90170000D03*
X144780000Y-92710000D03*
X144780000Y-90170000D03*
X147320000Y-92710000D03*
X147320000Y-90170000D03*
X149860000Y-92710000D03*
X149860000Y-90170000D03*
X152400000Y-92710000D03*
X152400000Y-90170000D03*
X154940000Y-92710000D03*
X154940000Y-90170000D03*
X157480000Y-92710000D03*
X157480000Y-90170000D03*
X160020000Y-92710000D03*
X160020000Y-90170000D03*
X162560000Y-92710000D03*
X162560000Y-90170000D03*
X165100000Y-92710000D03*
X165100000Y-90170000D03*
X167640000Y-92710000D03*
X167640000Y-90170000D03*
X170180000Y-92710000D03*
X170180000Y-90170000D03*
X172720000Y-92710000D03*
X172720000Y-90170000D03*
D14*
X191770000Y-96520000D03*
D15*
X194310000Y-96520000D03*
X196850000Y-96520000D03*
X199390000Y-96520000D03*
D14*
X214630000Y-133350000D03*
D15*
X212090000Y-133350000D03*
X209550000Y-133350000D03*
X207010000Y-133350000D03*
X204470000Y-133350000D03*
X201930000Y-133350000D03*
X199390000Y-133350000D03*
X196850000Y-133350000D03*
X194310000Y-133350000D03*
X191770000Y-133350000D03*
X189230000Y-133350000D03*
X186690000Y-133350000D03*
X184150000Y-133350000D03*
X181610000Y-133350000D03*
X179070000Y-133350000D03*
X176530000Y-133350000D03*
X173990000Y-133350000D03*
X171450000Y-133350000D03*
X168910000Y-133350000D03*
X166370000Y-133350000D03*
X163830000Y-133350000D03*
X161290000Y-133350000D03*
X158750000Y-133350000D03*
X156210000Y-133350000D03*
X153670000Y-133350000D03*
X151130000Y-133350000D03*
X148590000Y-133350000D03*
X146050000Y-133350000D03*
X143510000Y-133350000D03*
X140970000Y-133350000D03*
X138430000Y-133350000D03*
X135890000Y-133350000D03*
X133350000Y-133350000D03*
X130810000Y-133350000D03*
X128270000Y-133350000D03*
X125730000Y-133350000D03*
X123190000Y-133350000D03*
X120650000Y-133350000D03*
X118110000Y-133350000D03*
D11*
X171450000Y-104775000D03*
D16*
X161290000Y-104775000D03*
D11*
X161290000Y-109220000D03*
D16*
X171450000Y-109220000D03*
D11*
X161290000Y-113665000D03*
D16*
X171450000Y-113665000D03*
D11*
X161290000Y-118110000D03*
D16*
X171450000Y-118110000D03*
D17*
X184150000Y-118110000D03*
D16*
X201930000Y-110490000D03*
X186690000Y-118110000D03*
X199390000Y-110490000D03*
X189230000Y-118110000D03*
X196850000Y-110490000D03*
X191770000Y-118110000D03*
X194310000Y-110490000D03*
X194310000Y-118110000D03*
X191770000Y-110490000D03*
X196850000Y-118110000D03*
X189230000Y-110490000D03*
X199390000Y-118110000D03*
X186690000Y-110490000D03*
X201930000Y-118110000D03*
X184150000Y-110490000D03*
D18*
X181610000Y-91440000D03*
D19*
X184150000Y-91440000D03*
D11*
X153670000Y-111760000D03*
X153670000Y-116760000D03*
D17*
X130810000Y-118110000D03*
D16*
X146050000Y-110490000D03*
X133350000Y-118110000D03*
X143510000Y-110490000D03*
X135890000Y-118110000D03*
X140970000Y-110490000D03*
X138430000Y-118110000D03*
X138430000Y-110490000D03*
X140970000Y-118110000D03*
X135890000Y-110490000D03*
X143510000Y-118110000D03*
X133350000Y-110490000D03*
X146050000Y-118110000D03*
X130810000Y-110490000D03*
D20*
X120650000Y-104140000D03*
X120650000Y-88900000D03*
X132080000Y-107950000D03*
X187960000Y-87630000D03*
X183515000Y-87630000D03*
X184150000Y-99060000D03*
X180340000Y-99060000D03*
X152400000Y-129540000D03*
X142240000Y-123190000D03*
X139700000Y-120650000D03*
X129540000Y-128270000D03*
X163830000Y-128270000D03*
X151130000Y-124460000D03*
X149860000Y-124460000D03*
X148590000Y-124460000D03*
X153670000Y-123190000D03*
X152400000Y-120650000D03*
X167640000Y-97790000D03*
X176530000Y-111760000D03*
X184150000Y-100965000D03*
X180340000Y-101600000D03*
D21*
X147320000Y-88900000D02*
X146050000Y-87630000D01*
X146050000Y-87630000D02*
X121920000Y-87630000D01*
X121920000Y-87630000D02*
X120650000Y-88900000D01*
X147320000Y-90170000D02*
X147320000Y-88900000D01*
X120650000Y-99695000D02*
X120650000Y-88900000D01*
X120650000Y-104140000D02*
X120650000Y-99695000D01*
X130810000Y-110490000D02*
X130810000Y-109220000D01*
X153670000Y-109220000D02*
X153670000Y-111760000D01*
X152400000Y-107950000D02*
X153670000Y-109220000D01*
X132080000Y-107950000D02*
X152400000Y-107950000D01*
X130810000Y-109220000D02*
X132080000Y-107950000D01*
X209550000Y-111760000D02*
X209550000Y-109220000D01*
X184150000Y-109220000D02*
X184150000Y-110490000D01*
X185420000Y-107950000D02*
X184150000Y-109220000D01*
X208280000Y-107950000D02*
X185420000Y-107950000D01*
X209550000Y-109220000D02*
X208280000Y-107950000D01*
X153670000Y-116760000D02*
X153670000Y-116840000D01*
X153670000Y-116840000D02*
X152400000Y-118110000D01*
X152400000Y-118110000D02*
X146050000Y-118110000D01*
X196850000Y-96520000D02*
X195580000Y-95250000D01*
X172720000Y-90170000D02*
X178435000Y-90170000D01*
X195580000Y-95250000D02*
X194310000Y-96520000D01*
X195580000Y-92075000D02*
X195580000Y-95250000D01*
X191135000Y-87630000D02*
X195580000Y-92075000D01*
X187960000Y-87630000D02*
X191135000Y-87630000D01*
X180975000Y-87630000D02*
X183515000Y-87630000D01*
X178435000Y-90170000D02*
X180975000Y-87630000D01*
X152400000Y-90170000D02*
X152400000Y-88900000D01*
X147320000Y-92710000D02*
X149860000Y-90170000D01*
X154940000Y-90170000D02*
X153670000Y-88900000D01*
X150495000Y-88900000D02*
X149860000Y-89535000D01*
X153670000Y-88900000D02*
X152400000Y-88900000D01*
X152400000Y-88900000D02*
X150495000Y-88900000D01*
X149860000Y-89535000D02*
X149860000Y-90170000D01*
X154940000Y-90170000D02*
X156210000Y-88900000D01*
X158750000Y-88900000D02*
X160020000Y-90170000D01*
X156210000Y-88900000D02*
X158750000Y-88900000D01*
X201930000Y-118110000D02*
X208280000Y-118110000D01*
X208280000Y-118110000D02*
X209550000Y-116840000D01*
X209550000Y-116840000D02*
X209550000Y-116760000D01*
X172720000Y-92710000D02*
X179070000Y-92710000D01*
X180340000Y-91440000D02*
X181610000Y-91440000D01*
X179070000Y-92710000D02*
X180340000Y-91440000D01*
X171450000Y-104775000D02*
X172720000Y-104775000D01*
X186055000Y-92710000D02*
X184785000Y-91440000D01*
X186055000Y-97155000D02*
X186055000Y-92710000D01*
X184150000Y-99060000D02*
X186055000Y-97155000D01*
X175260000Y-99060000D02*
X180340000Y-99060000D01*
X174625000Y-99695000D02*
X175260000Y-99060000D01*
X174625000Y-102870000D02*
X174625000Y-99695000D01*
X172720000Y-104775000D02*
X174625000Y-102870000D01*
X184785000Y-91440000D02*
X184150000Y-91440000D01*
X184150000Y-133350000D02*
X184150000Y-118110000D01*
X186690000Y-118110000D02*
X186690000Y-133350000D01*
X189230000Y-133350000D02*
X189230000Y-118110000D01*
X191770000Y-133350000D02*
X191770000Y-132080000D01*
X194310000Y-129540000D02*
X194310000Y-118110000D01*
X191770000Y-132080000D02*
X194310000Y-129540000D01*
X133350000Y-118110000D02*
X133350000Y-119380000D01*
X134620000Y-120650000D02*
X139700000Y-120650000D01*
X133350000Y-119380000D02*
X134620000Y-120650000D01*
X138430000Y-118110000D02*
X138430000Y-119380000D01*
X152400000Y-124460000D02*
X152400000Y-129540000D01*
X151130000Y-123190000D02*
X152400000Y-124460000D01*
X142240000Y-123190000D02*
X151130000Y-123190000D01*
X138430000Y-119380000D02*
X139700000Y-120650000D01*
X191770000Y-110490000D02*
X191770000Y-111760000D01*
X170180000Y-96520000D02*
X170180000Y-92710000D01*
X170815000Y-97155000D02*
X170180000Y-96520000D01*
X181610000Y-97155000D02*
X170815000Y-97155000D01*
X182245000Y-97790000D02*
X181610000Y-97155000D01*
X182245000Y-112395000D02*
X182245000Y-97790000D01*
X191135000Y-112395000D02*
X182245000Y-112395000D01*
X191770000Y-111760000D02*
X191135000Y-112395000D01*
X124460000Y-92710000D02*
X124460000Y-102870000D01*
X120650000Y-106680000D02*
X124460000Y-102870000D01*
X120650000Y-119380000D02*
X120650000Y-106680000D01*
X120650000Y-119380000D02*
X129540000Y-128270000D01*
X166370000Y-133350000D02*
X166370000Y-130810000D01*
X166370000Y-130810000D02*
X163830000Y-128270000D01*
X148590000Y-133350000D02*
X148590000Y-129540000D01*
X151130000Y-127000000D02*
X151130000Y-124460000D01*
X148590000Y-129540000D02*
X151130000Y-127000000D01*
X146050000Y-133350000D02*
X146050000Y-129540000D01*
X149860000Y-125730000D02*
X149860000Y-124460000D01*
X146050000Y-129540000D02*
X149860000Y-125730000D01*
X143510000Y-129540000D02*
X143510000Y-133350000D01*
X148590000Y-124460000D02*
X143510000Y-129540000D01*
X140970000Y-133350000D02*
X140970000Y-124460000D01*
X137160000Y-104140000D02*
X137160000Y-92710000D01*
X135890000Y-105410000D02*
X137160000Y-104140000D01*
X130810000Y-105410000D02*
X135890000Y-105410000D01*
X128270000Y-107950000D02*
X130810000Y-105410000D01*
X128270000Y-119380000D02*
X128270000Y-107950000D01*
X132080000Y-123190000D02*
X128270000Y-119380000D01*
X139700000Y-123190000D02*
X132080000Y-123190000D01*
X140970000Y-124460000D02*
X139700000Y-123190000D01*
X134620000Y-92710000D02*
X134620000Y-102870000D01*
X138430000Y-125730000D02*
X138430000Y-133350000D01*
X137160000Y-124460000D02*
X138430000Y-125730000D01*
X132080000Y-124460000D02*
X137160000Y-124460000D01*
X127000000Y-119380000D02*
X132080000Y-124460000D01*
X127000000Y-107950000D02*
X127000000Y-119380000D01*
X130810000Y-104140000D02*
X127000000Y-107950000D01*
X133350000Y-104140000D02*
X130810000Y-104140000D01*
X134620000Y-102870000D02*
X133350000Y-104140000D01*
X135890000Y-133350000D02*
X135890000Y-127000000D01*
X132080000Y-101600000D02*
X132080000Y-92710000D01*
X130810000Y-102870000D02*
X132080000Y-101600000D01*
X125730000Y-107950000D02*
X130810000Y-102870000D01*
X125730000Y-119380000D02*
X125730000Y-107950000D01*
X132080000Y-125730000D02*
X125730000Y-119380000D01*
X134620000Y-125730000D02*
X132080000Y-125730000D01*
X135890000Y-127000000D02*
X134620000Y-125730000D01*
X133350000Y-133350000D02*
X133350000Y-128270000D01*
X129540000Y-102870000D02*
X129540000Y-92710000D01*
X124460000Y-107950000D02*
X129540000Y-102870000D01*
X124460000Y-119380000D02*
X124460000Y-107950000D01*
X132080000Y-127000000D02*
X124460000Y-119380000D01*
X133350000Y-128270000D02*
X132080000Y-127000000D01*
X127000000Y-92710000D02*
X127000000Y-104140000D01*
X130810000Y-127000000D02*
X130810000Y-133350000D01*
X123190000Y-119380000D02*
X130810000Y-127000000D01*
X123190000Y-107950000D02*
X123190000Y-119380000D01*
X127000000Y-104140000D02*
X123190000Y-107950000D01*
X130810000Y-118110000D02*
X130810000Y-120650000D01*
X156210000Y-123190000D02*
X156210000Y-133350000D01*
X154940000Y-121920000D02*
X156210000Y-123190000D01*
X132080000Y-121920000D02*
X154940000Y-121920000D01*
X130810000Y-120650000D02*
X132080000Y-121920000D01*
X140970000Y-118110000D02*
X140970000Y-119380000D01*
X153670000Y-123190000D02*
X153670000Y-133350000D01*
X142240000Y-120650000D02*
X152400000Y-120650000D01*
X140970000Y-119380000D02*
X142240000Y-120650000D01*
X161290000Y-109220000D02*
X160020000Y-109220000D01*
X160020000Y-93980000D02*
X160020000Y-92710000D01*
X158750000Y-95250000D02*
X160020000Y-93980000D01*
X158750000Y-107950000D02*
X158750000Y-95250000D01*
X160020000Y-109220000D02*
X158750000Y-107950000D01*
X179070000Y-133350000D02*
X179070000Y-129540000D01*
X167640000Y-125730000D02*
X167640000Y-97790000D01*
X168910000Y-127000000D02*
X167640000Y-125730000D01*
X176530000Y-127000000D02*
X168910000Y-127000000D01*
X177800000Y-128270000D02*
X176530000Y-127000000D01*
X179070000Y-129540000D02*
X177800000Y-128270000D01*
X174625000Y-113665000D02*
X171450000Y-113665000D01*
X176530000Y-111760000D02*
X174625000Y-113665000D01*
X176530000Y-133350000D02*
X176530000Y-129540000D01*
X167640000Y-95250000D02*
X167640000Y-92710000D01*
X165100000Y-97790000D02*
X167640000Y-95250000D01*
X165100000Y-127000000D02*
X165100000Y-97790000D01*
X166370000Y-128270000D02*
X165100000Y-127000000D01*
X175260000Y-128270000D02*
X166370000Y-128270000D01*
X176530000Y-129540000D02*
X175260000Y-128270000D01*
X181610000Y-133350000D02*
X181610000Y-130175000D01*
X167640000Y-86995000D02*
X167640000Y-90170000D01*
X168275000Y-86360000D02*
X167640000Y-86995000D01*
X184150000Y-86360000D02*
X168275000Y-86360000D01*
X187960000Y-90170000D02*
X184150000Y-86360000D01*
X187960000Y-97155000D02*
X187960000Y-90170000D01*
X184150000Y-100965000D02*
X187960000Y-97155000D01*
X180340000Y-128905000D02*
X180340000Y-101600000D01*
X181610000Y-130175000D02*
X180340000Y-128905000D01*
X135890000Y-118110000D02*
X137160000Y-116840000D01*
X156210000Y-96520000D02*
X152400000Y-92710000D01*
X156210000Y-113030000D02*
X156210000Y-96520000D01*
X154940000Y-114300000D02*
X156210000Y-113030000D01*
X144780000Y-114300000D02*
X154940000Y-114300000D01*
X142240000Y-116840000D02*
X144780000Y-114300000D01*
X137160000Y-116840000D02*
X142240000Y-116840000D01*
X143510000Y-118110000D02*
X143510000Y-116840000D01*
X157480000Y-95250000D02*
X154940000Y-92710000D01*
X157480000Y-113030000D02*
X157480000Y-95250000D01*
X154940000Y-115570000D02*
X157480000Y-113030000D01*
X144780000Y-115570000D02*
X154940000Y-115570000D01*
X143510000Y-116840000D02*
X144780000Y-115570000D01*
D22*
G36*
X166550971Y-93769670D02*
X166880000Y-93989520D01*
X166880000Y-94935198D01*
X164562599Y-97252599D01*
X164397852Y-97499161D01*
X164340000Y-97790000D01*
X164340000Y-127000000D01*
X164397852Y-127290839D01*
X164562599Y-127537401D01*
X165832599Y-128807401D01*
X166079160Y-128972148D01*
X166370000Y-129030000D01*
X174945198Y-129030000D01*
X175770000Y-129854802D01*
X175770000Y-132077046D01*
X175479946Y-132270853D01*
X175260000Y-132600026D01*
X175040054Y-132270853D01*
X174558285Y-131948946D01*
X173990000Y-131835907D01*
X173421715Y-131948946D01*
X172939946Y-132270853D01*
X172712298Y-132611553D01*
X172645183Y-132468642D01*
X172216924Y-132078355D01*
X171806890Y-131908524D01*
X171577000Y-132029845D01*
X171577000Y-133223000D01*
X171597000Y-133223000D01*
X171597000Y-133477000D01*
X171577000Y-133477000D01*
X171577000Y-133497000D01*
X171323000Y-133497000D01*
X171323000Y-133477000D01*
X171303000Y-133477000D01*
X171303000Y-133223000D01*
X171323000Y-133223000D01*
X171323000Y-132029845D01*
X171093110Y-131908524D01*
X170683076Y-132078355D01*
X170254817Y-132468642D01*
X170187702Y-132611553D01*
X169960054Y-132270853D01*
X169478285Y-131948946D01*
X168910000Y-131835907D01*
X168341715Y-131948946D01*
X167859946Y-132270853D01*
X167640000Y-132600026D01*
X167420054Y-132270853D01*
X167130000Y-132077046D01*
X167130000Y-130810000D01*
X167072148Y-130519161D01*
X167072148Y-130519160D01*
X166907401Y-130272599D01*
X164765122Y-128130320D01*
X164765162Y-128084833D01*
X164623117Y-127741057D01*
X164360327Y-127477808D01*
X164016799Y-127335162D01*
X163644833Y-127334838D01*
X163301057Y-127476883D01*
X163037808Y-127739673D01*
X162895162Y-128083201D01*
X162894838Y-128455167D01*
X163036883Y-128798943D01*
X163299673Y-129062192D01*
X163643201Y-129204838D01*
X163690077Y-129204879D01*
X165610000Y-131124802D01*
X165610000Y-132077046D01*
X165319946Y-132270853D01*
X165100000Y-132600026D01*
X164880054Y-132270853D01*
X164398285Y-131948946D01*
X163830000Y-131835907D01*
X163261715Y-131948946D01*
X162779946Y-132270853D01*
X162560000Y-132600026D01*
X162340054Y-132270853D01*
X161858285Y-131948946D01*
X161290000Y-131835907D01*
X160721715Y-131948946D01*
X160239946Y-132270853D01*
X160020000Y-132600026D01*
X159800054Y-132270853D01*
X159318285Y-131948946D01*
X158750000Y-131835907D01*
X158181715Y-131948946D01*
X157699946Y-132270853D01*
X157480000Y-132600026D01*
X157260054Y-132270853D01*
X156970000Y-132077046D01*
X156970000Y-123190000D01*
X156912148Y-122899161D01*
X156912148Y-122899160D01*
X156747401Y-122652599D01*
X155477401Y-121382599D01*
X155230839Y-121217852D01*
X154940000Y-121160000D01*
X153200633Y-121160000D01*
X153334838Y-120836799D01*
X153335162Y-120464833D01*
X153193117Y-120121057D01*
X152930327Y-119857808D01*
X152586799Y-119715162D01*
X152214833Y-119714838D01*
X151871057Y-119856883D01*
X151837882Y-119890000D01*
X142554802Y-119890000D01*
X141884538Y-119219736D01*
X141984698Y-119152811D01*
X142240000Y-118770725D01*
X142495302Y-119152811D01*
X142960849Y-119463880D01*
X143510000Y-119573113D01*
X144059151Y-119463880D01*
X144524698Y-119152811D01*
X144780000Y-118770725D01*
X145035302Y-119152811D01*
X145500849Y-119463880D01*
X146050000Y-119573113D01*
X146599151Y-119463880D01*
X147064698Y-119152811D01*
X147088128Y-119117745D01*
X160461861Y-119117745D01*
X160535995Y-119363864D01*
X161073223Y-119556965D01*
X161643454Y-119529778D01*
X162044005Y-119363864D01*
X162118139Y-119117745D01*
X161290000Y-118289605D01*
X160461861Y-119117745D01*
X147088128Y-119117745D01*
X147253667Y-118870000D01*
X152400000Y-118870000D01*
X152690839Y-118812148D01*
X152937401Y-118647401D01*
X153390046Y-118194756D01*
X153954187Y-118195248D01*
X154481800Y-117977243D01*
X154565966Y-117893223D01*
X159843035Y-117893223D01*
X159870222Y-118463454D01*
X160036136Y-118864005D01*
X160282255Y-118938139D01*
X161110395Y-118110000D01*
X161469605Y-118110000D01*
X162297745Y-118938139D01*
X162543864Y-118864005D01*
X162736965Y-118326777D01*
X162709778Y-117756546D01*
X162543864Y-117355995D01*
X162297745Y-117281861D01*
X161469605Y-118110000D01*
X161110395Y-118110000D01*
X160282255Y-117281861D01*
X160036136Y-117355995D01*
X159843035Y-117893223D01*
X154565966Y-117893223D01*
X154885824Y-117573923D01*
X155081677Y-117102255D01*
X160461861Y-117102255D01*
X161290000Y-117930395D01*
X162118139Y-117102255D01*
X162044005Y-116856136D01*
X161506777Y-116663035D01*
X160936546Y-116690222D01*
X160535995Y-116856136D01*
X160461861Y-117102255D01*
X155081677Y-117102255D01*
X155104750Y-117046691D01*
X155105248Y-116475813D01*
X155037025Y-116310700D01*
X155230839Y-116272148D01*
X155477401Y-116107401D01*
X156912057Y-114672745D01*
X160461861Y-114672745D01*
X160535995Y-114918864D01*
X161073223Y-115111965D01*
X161643454Y-115084778D01*
X162044005Y-114918864D01*
X162118139Y-114672745D01*
X161290000Y-113844605D01*
X160461861Y-114672745D01*
X156912057Y-114672745D01*
X158017401Y-113567401D01*
X158097033Y-113448223D01*
X159843035Y-113448223D01*
X159870222Y-114018454D01*
X160036136Y-114419005D01*
X160282255Y-114493139D01*
X161110395Y-113665000D01*
X161469605Y-113665000D01*
X162297745Y-114493139D01*
X162543864Y-114419005D01*
X162736965Y-113881777D01*
X162709778Y-113311546D01*
X162543864Y-112910995D01*
X162297745Y-112836861D01*
X161469605Y-113665000D01*
X161110395Y-113665000D01*
X160282255Y-112836861D01*
X160036136Y-112910995D01*
X159843035Y-113448223D01*
X158097033Y-113448223D01*
X158182148Y-113320840D01*
X158210207Y-113179778D01*
X158240000Y-113030000D01*
X158240000Y-112657255D01*
X160461861Y-112657255D01*
X161290000Y-113485395D01*
X162118139Y-112657255D01*
X162044005Y-112411136D01*
X161506777Y-112218035D01*
X160936546Y-112245222D01*
X160535995Y-112411136D01*
X160461861Y-112657255D01*
X158240000Y-112657255D01*
X158240000Y-108514802D01*
X159482599Y-109757401D01*
X159729160Y-109922148D01*
X160020000Y-109980000D01*
X160051354Y-109980000D01*
X160072757Y-110031800D01*
X160476077Y-110435824D01*
X161003309Y-110654750D01*
X161574187Y-110655248D01*
X162101800Y-110437243D01*
X162505824Y-110033923D01*
X162724750Y-109506691D01*
X162725248Y-108935813D01*
X162507243Y-108408200D01*
X162103923Y-108004176D01*
X161576691Y-107785250D01*
X161005813Y-107784752D01*
X160478200Y-108002757D01*
X160177618Y-108302816D01*
X159510000Y-107635198D01*
X159510000Y-105124039D01*
X159898096Y-105124039D01*
X160058959Y-105512423D01*
X160434866Y-105927389D01*
X160940959Y-106166914D01*
X161163000Y-106045629D01*
X161163000Y-104902000D01*
X161417000Y-104902000D01*
X161417000Y-106045629D01*
X161639041Y-106166914D01*
X162145134Y-105927389D01*
X162521041Y-105512423D01*
X162681904Y-105124039D01*
X162559915Y-104902000D01*
X161417000Y-104902000D01*
X161163000Y-104902000D01*
X160020085Y-104902000D01*
X159898096Y-105124039D01*
X159510000Y-105124039D01*
X159510000Y-104425961D01*
X159898096Y-104425961D01*
X160020085Y-104648000D01*
X161163000Y-104648000D01*
X161163000Y-103504371D01*
X161417000Y-103504371D01*
X161417000Y-104648000D01*
X162559915Y-104648000D01*
X162681904Y-104425961D01*
X162521041Y-104037577D01*
X162145134Y-103622611D01*
X161639041Y-103383086D01*
X161417000Y-103504371D01*
X161163000Y-103504371D01*
X160940959Y-103383086D01*
X160434866Y-103622611D01*
X160058959Y-104037577D01*
X159898096Y-104425961D01*
X159510000Y-104425961D01*
X159510000Y-95564802D01*
X160557401Y-94517401D01*
X160722148Y-94270840D01*
X160777816Y-93990980D01*
X161109029Y-93769670D01*
X161290000Y-93498828D01*
X161470971Y-93769670D01*
X161957152Y-94094526D01*
X162530641Y-94208600D01*
X162589359Y-94208600D01*
X163162848Y-94094526D01*
X163649029Y-93769670D01*
X163830000Y-93498828D01*
X164010971Y-93769670D01*
X164497152Y-94094526D01*
X165070641Y-94208600D01*
X165129359Y-94208600D01*
X165702848Y-94094526D01*
X166189029Y-93769670D01*
X166370000Y-93498828D01*
X166550971Y-93769670D01*
X166550971Y-93769670D01*
G37*
X166550971Y-93769670D02*
X166880000Y-93989520D01*
X166880000Y-94935198D01*
X164562599Y-97252599D01*
X164397852Y-97499161D01*
X164340000Y-97790000D01*
X164340000Y-127000000D01*
X164397852Y-127290839D01*
X164562599Y-127537401D01*
X165832599Y-128807401D01*
X166079160Y-128972148D01*
X166370000Y-129030000D01*
X174945198Y-129030000D01*
X175770000Y-129854802D01*
X175770000Y-132077046D01*
X175479946Y-132270853D01*
X175260000Y-132600026D01*
X175040054Y-132270853D01*
X174558285Y-131948946D01*
X173990000Y-131835907D01*
X173421715Y-131948946D01*
X172939946Y-132270853D01*
X172712298Y-132611553D01*
X172645183Y-132468642D01*
X172216924Y-132078355D01*
X171806890Y-131908524D01*
X171577000Y-132029845D01*
X171577000Y-133223000D01*
X171597000Y-133223000D01*
X171597000Y-133477000D01*
X171577000Y-133477000D01*
X171577000Y-133497000D01*
X171323000Y-133497000D01*
X171323000Y-133477000D01*
X171303000Y-133477000D01*
X171303000Y-133223000D01*
X171323000Y-133223000D01*
X171323000Y-132029845D01*
X171093110Y-131908524D01*
X170683076Y-132078355D01*
X170254817Y-132468642D01*
X170187702Y-132611553D01*
X169960054Y-132270853D01*
X169478285Y-131948946D01*
X168910000Y-131835907D01*
X168341715Y-131948946D01*
X167859946Y-132270853D01*
X167640000Y-132600026D01*
X167420054Y-132270853D01*
X167130000Y-132077046D01*
X167130000Y-130810000D01*
X167072148Y-130519161D01*
X167072148Y-130519160D01*
X166907401Y-130272599D01*
X164765122Y-128130320D01*
X164765162Y-128084833D01*
X164623117Y-127741057D01*
X164360327Y-127477808D01*
X164016799Y-127335162D01*
X163644833Y-127334838D01*
X163301057Y-127476883D01*
X163037808Y-127739673D01*
X162895162Y-128083201D01*
X162894838Y-128455167D01*
X163036883Y-128798943D01*
X163299673Y-129062192D01*
X163643201Y-129204838D01*
X163690077Y-129204879D01*
X165610000Y-131124802D01*
X165610000Y-132077046D01*
X165319946Y-132270853D01*
X165100000Y-132600026D01*
X164880054Y-132270853D01*
X164398285Y-131948946D01*
X163830000Y-131835907D01*
X163261715Y-131948946D01*
X162779946Y-132270853D01*
X162560000Y-132600026D01*
X162340054Y-132270853D01*
X161858285Y-131948946D01*
X161290000Y-131835907D01*
X160721715Y-131948946D01*
X160239946Y-132270853D01*
X160020000Y-132600026D01*
X159800054Y-132270853D01*
X159318285Y-131948946D01*
X158750000Y-131835907D01*
X158181715Y-131948946D01*
X157699946Y-132270853D01*
X157480000Y-132600026D01*
X157260054Y-132270853D01*
X156970000Y-132077046D01*
X156970000Y-123190000D01*
X156912148Y-122899161D01*
X156912148Y-122899160D01*
X156747401Y-122652599D01*
X155477401Y-121382599D01*
X155230839Y-121217852D01*
X154940000Y-121160000D01*
X153200633Y-121160000D01*
X153334838Y-120836799D01*
X153335162Y-120464833D01*
X153193117Y-120121057D01*
X152930327Y-119857808D01*
X152586799Y-119715162D01*
X152214833Y-119714838D01*
X151871057Y-119856883D01*
X151837882Y-119890000D01*
X142554802Y-119890000D01*
X141884538Y-119219736D01*
X141984698Y-119152811D01*
X142240000Y-118770725D01*
X142495302Y-119152811D01*
X142960849Y-119463880D01*
X143510000Y-119573113D01*
X144059151Y-119463880D01*
X144524698Y-119152811D01*
X144780000Y-118770725D01*
X145035302Y-119152811D01*
X145500849Y-119463880D01*
X146050000Y-119573113D01*
X146599151Y-119463880D01*
X147064698Y-119152811D01*
X147088128Y-119117745D01*
X160461861Y-119117745D01*
X160535995Y-119363864D01*
X161073223Y-119556965D01*
X161643454Y-119529778D01*
X162044005Y-119363864D01*
X162118139Y-119117745D01*
X161290000Y-118289605D01*
X160461861Y-119117745D01*
X147088128Y-119117745D01*
X147253667Y-118870000D01*
X152400000Y-118870000D01*
X152690839Y-118812148D01*
X152937401Y-118647401D01*
X153390046Y-118194756D01*
X153954187Y-118195248D01*
X154481800Y-117977243D01*
X154565966Y-117893223D01*
X159843035Y-117893223D01*
X159870222Y-118463454D01*
X160036136Y-118864005D01*
X160282255Y-118938139D01*
X161110395Y-118110000D01*
X161469605Y-118110000D01*
X162297745Y-118938139D01*
X162543864Y-118864005D01*
X162736965Y-118326777D01*
X162709778Y-117756546D01*
X162543864Y-117355995D01*
X162297745Y-117281861D01*
X161469605Y-118110000D01*
X161110395Y-118110000D01*
X160282255Y-117281861D01*
X160036136Y-117355995D01*
X159843035Y-117893223D01*
X154565966Y-117893223D01*
X154885824Y-117573923D01*
X155081677Y-117102255D01*
X160461861Y-117102255D01*
X161290000Y-117930395D01*
X162118139Y-117102255D01*
X162044005Y-116856136D01*
X161506777Y-116663035D01*
X160936546Y-116690222D01*
X160535995Y-116856136D01*
X160461861Y-117102255D01*
X155081677Y-117102255D01*
X155104750Y-117046691D01*
X155105248Y-116475813D01*
X155037025Y-116310700D01*
X155230839Y-116272148D01*
X155477401Y-116107401D01*
X156912057Y-114672745D01*
X160461861Y-114672745D01*
X160535995Y-114918864D01*
X161073223Y-115111965D01*
X161643454Y-115084778D01*
X162044005Y-114918864D01*
X162118139Y-114672745D01*
X161290000Y-113844605D01*
X160461861Y-114672745D01*
X156912057Y-114672745D01*
X158017401Y-113567401D01*
X158097033Y-113448223D01*
X159843035Y-113448223D01*
X159870222Y-114018454D01*
X160036136Y-114419005D01*
X160282255Y-114493139D01*
X161110395Y-113665000D01*
X161469605Y-113665000D01*
X162297745Y-114493139D01*
X162543864Y-114419005D01*
X162736965Y-113881777D01*
X162709778Y-113311546D01*
X162543864Y-112910995D01*
X162297745Y-112836861D01*
X161469605Y-113665000D01*
X161110395Y-113665000D01*
X160282255Y-112836861D01*
X160036136Y-112910995D01*
X159843035Y-113448223D01*
X158097033Y-113448223D01*
X158182148Y-113320840D01*
X158210207Y-113179778D01*
X158240000Y-113030000D01*
X158240000Y-112657255D01*
X160461861Y-112657255D01*
X161290000Y-113485395D01*
X162118139Y-112657255D01*
X162044005Y-112411136D01*
X161506777Y-112218035D01*
X160936546Y-112245222D01*
X160535995Y-112411136D01*
X160461861Y-112657255D01*
X158240000Y-112657255D01*
X158240000Y-108514802D01*
X159482599Y-109757401D01*
X159729160Y-109922148D01*
X160020000Y-109980000D01*
X160051354Y-109980000D01*
X160072757Y-110031800D01*
X160476077Y-110435824D01*
X161003309Y-110654750D01*
X161574187Y-110655248D01*
X162101800Y-110437243D01*
X162505824Y-110033923D01*
X162724750Y-109506691D01*
X162725248Y-108935813D01*
X162507243Y-108408200D01*
X162103923Y-108004176D01*
X161576691Y-107785250D01*
X161005813Y-107784752D01*
X160478200Y-108002757D01*
X160177618Y-108302816D01*
X159510000Y-107635198D01*
X159510000Y-105124039D01*
X159898096Y-105124039D01*
X160058959Y-105512423D01*
X160434866Y-105927389D01*
X160940959Y-106166914D01*
X161163000Y-106045629D01*
X161163000Y-104902000D01*
X161417000Y-104902000D01*
X161417000Y-106045629D01*
X161639041Y-106166914D01*
X162145134Y-105927389D01*
X162521041Y-105512423D01*
X162681904Y-105124039D01*
X162559915Y-104902000D01*
X161417000Y-104902000D01*
X161163000Y-104902000D01*
X160020085Y-104902000D01*
X159898096Y-105124039D01*
X159510000Y-105124039D01*
X159510000Y-104425961D01*
X159898096Y-104425961D01*
X160020085Y-104648000D01*
X161163000Y-104648000D01*
X161163000Y-103504371D01*
X161417000Y-103504371D01*
X161417000Y-104648000D01*
X162559915Y-104648000D01*
X162681904Y-104425961D01*
X162521041Y-104037577D01*
X162145134Y-103622611D01*
X161639041Y-103383086D01*
X161417000Y-103504371D01*
X161163000Y-103504371D01*
X160940959Y-103383086D01*
X160434866Y-103622611D01*
X160058959Y-104037577D01*
X159898096Y-104425961D01*
X159510000Y-104425961D01*
X159510000Y-95564802D01*
X160557401Y-94517401D01*
X160722148Y-94270840D01*
X160777816Y-93990980D01*
X161109029Y-93769670D01*
X161290000Y-93498828D01*
X161470971Y-93769670D01*
X161957152Y-94094526D01*
X162530641Y-94208600D01*
X162589359Y-94208600D01*
X163162848Y-94094526D01*
X163649029Y-93769670D01*
X163830000Y-93498828D01*
X164010971Y-93769670D01*
X164497152Y-94094526D01*
X165070641Y-94208600D01*
X165129359Y-94208600D01*
X165702848Y-94094526D01*
X166189029Y-93769670D01*
X166370000Y-93498828D01*
X166550971Y-93769670D01*
G36*
X167737599Y-85822599D02*
X167102599Y-86457599D01*
X166937852Y-86704161D01*
X166880000Y-86995000D01*
X166880000Y-88890480D01*
X166550971Y-89110330D01*
X166370000Y-89381172D01*
X166189029Y-89110330D01*
X165702848Y-88785474D01*
X165129359Y-88671400D01*
X165070641Y-88671400D01*
X164497152Y-88785474D01*
X164010971Y-89110330D01*
X163830000Y-89381172D01*
X163649029Y-89110330D01*
X163162848Y-88785474D01*
X162589359Y-88671400D01*
X162530641Y-88671400D01*
X161957152Y-88785474D01*
X161470971Y-89110330D01*
X161290000Y-89381172D01*
X161109029Y-89110330D01*
X160622848Y-88785474D01*
X160049359Y-88671400D01*
X159990641Y-88671400D01*
X159661644Y-88736842D01*
X159287401Y-88362599D01*
X159040839Y-88197852D01*
X158750000Y-88140000D01*
X156210000Y-88140000D01*
X155919160Y-88197852D01*
X155672599Y-88362599D01*
X155298356Y-88736842D01*
X154969359Y-88671400D01*
X154910641Y-88671400D01*
X154581644Y-88736842D01*
X154207401Y-88362599D01*
X153960839Y-88197852D01*
X153670000Y-88140000D01*
X150495000Y-88140000D01*
X150204161Y-88197852D01*
X149957599Y-88362599D01*
X149603646Y-88716552D01*
X149257152Y-88785474D01*
X148770971Y-89110330D01*
X148590008Y-89381161D01*
X148208490Y-88963179D01*
X147679027Y-88715032D01*
X147447000Y-88835531D01*
X147447000Y-90043000D01*
X147467000Y-90043000D01*
X147467000Y-90297000D01*
X147447000Y-90297000D01*
X147447000Y-90317000D01*
X147193000Y-90317000D01*
X147193000Y-90297000D01*
X147173000Y-90297000D01*
X147173000Y-90043000D01*
X147193000Y-90043000D01*
X147193000Y-88835531D01*
X146960973Y-88715032D01*
X146431510Y-88963179D01*
X146049992Y-89381161D01*
X145869029Y-89110330D01*
X145382848Y-88785474D01*
X144809359Y-88671400D01*
X144750641Y-88671400D01*
X144177152Y-88785474D01*
X143690971Y-89110330D01*
X143510000Y-89381172D01*
X143329029Y-89110330D01*
X142842848Y-88785474D01*
X142269359Y-88671400D01*
X142210641Y-88671400D01*
X141637152Y-88785474D01*
X141150971Y-89110330D01*
X140970000Y-89381172D01*
X140789029Y-89110330D01*
X140302848Y-88785474D01*
X139729359Y-88671400D01*
X139670641Y-88671400D01*
X139097152Y-88785474D01*
X138610971Y-89110330D01*
X138430000Y-89381172D01*
X138249029Y-89110330D01*
X137762848Y-88785474D01*
X137189359Y-88671400D01*
X137130641Y-88671400D01*
X136557152Y-88785474D01*
X136070971Y-89110330D01*
X135890000Y-89381172D01*
X135709029Y-89110330D01*
X135222848Y-88785474D01*
X134649359Y-88671400D01*
X134590641Y-88671400D01*
X134017152Y-88785474D01*
X133530971Y-89110330D01*
X133350000Y-89381172D01*
X133169029Y-89110330D01*
X132682848Y-88785474D01*
X132109359Y-88671400D01*
X132050641Y-88671400D01*
X131477152Y-88785474D01*
X130990971Y-89110330D01*
X130810000Y-89381172D01*
X130629029Y-89110330D01*
X130142848Y-88785474D01*
X129569359Y-88671400D01*
X129510641Y-88671400D01*
X128937152Y-88785474D01*
X128450971Y-89110330D01*
X128270000Y-89381172D01*
X128089029Y-89110330D01*
X127602848Y-88785474D01*
X127029359Y-88671400D01*
X126970641Y-88671400D01*
X126397152Y-88785474D01*
X125910971Y-89110330D01*
X125730000Y-89381172D01*
X125549029Y-89110330D01*
X125062848Y-88785474D01*
X124489359Y-88671400D01*
X124430641Y-88671400D01*
X123857152Y-88785474D01*
X123370971Y-89110330D01*
X123046115Y-89596511D01*
X122932041Y-90170000D01*
X123046115Y-90743489D01*
X123370971Y-91229670D01*
X123384642Y-91238805D01*
X123361083Y-91243238D01*
X123144959Y-91382310D01*
X122999969Y-91594510D01*
X122948960Y-91846400D01*
X122948960Y-93573600D01*
X122993238Y-93808917D01*
X123132310Y-94025041D01*
X123344510Y-94170031D01*
X123596400Y-94221040D01*
X123700000Y-94221040D01*
X123700000Y-102555198D01*
X120112599Y-106142599D01*
X119947852Y-106389161D01*
X119890000Y-106680000D01*
X119890000Y-119380000D01*
X119947852Y-119670839D01*
X120112599Y-119917401D01*
X128604878Y-128409680D01*
X128604838Y-128455167D01*
X128746883Y-128798943D01*
X129009673Y-129062192D01*
X129353201Y-129204838D01*
X129725167Y-129205162D01*
X130050000Y-129070944D01*
X130050000Y-132077046D01*
X129759946Y-132270853D01*
X129540000Y-132600026D01*
X129320054Y-132270853D01*
X128838285Y-131948946D01*
X128270000Y-131835907D01*
X127701715Y-131948946D01*
X127219946Y-132270853D01*
X127000000Y-132600026D01*
X126780054Y-132270853D01*
X126298285Y-131948946D01*
X125730000Y-131835907D01*
X125161715Y-131948946D01*
X124679946Y-132270853D01*
X124460000Y-132600026D01*
X124240054Y-132270853D01*
X123758285Y-131948946D01*
X123190000Y-131835907D01*
X122621715Y-131948946D01*
X122139946Y-132270853D01*
X121920000Y-132600026D01*
X121700054Y-132270853D01*
X121218285Y-131948946D01*
X120650000Y-131835907D01*
X120081715Y-131948946D01*
X119599946Y-132270853D01*
X119380000Y-132600026D01*
X119160054Y-132270853D01*
X118678285Y-131948946D01*
X118110000Y-131835907D01*
X117550000Y-131947298D01*
X117550000Y-85800000D01*
X167771421Y-85800000D01*
X167737599Y-85822599D01*
X167737599Y-85822599D01*
G37*
X167737599Y-85822599D02*
X167102599Y-86457599D01*
X166937852Y-86704161D01*
X166880000Y-86995000D01*
X166880000Y-88890480D01*
X166550971Y-89110330D01*
X166370000Y-89381172D01*
X166189029Y-89110330D01*
X165702848Y-88785474D01*
X165129359Y-88671400D01*
X165070641Y-88671400D01*
X164497152Y-88785474D01*
X164010971Y-89110330D01*
X163830000Y-89381172D01*
X163649029Y-89110330D01*
X163162848Y-88785474D01*
X162589359Y-88671400D01*
X162530641Y-88671400D01*
X161957152Y-88785474D01*
X161470971Y-89110330D01*
X161290000Y-89381172D01*
X161109029Y-89110330D01*
X160622848Y-88785474D01*
X160049359Y-88671400D01*
X159990641Y-88671400D01*
X159661644Y-88736842D01*
X159287401Y-88362599D01*
X159040839Y-88197852D01*
X158750000Y-88140000D01*
X156210000Y-88140000D01*
X155919160Y-88197852D01*
X155672599Y-88362599D01*
X155298356Y-88736842D01*
X154969359Y-88671400D01*
X154910641Y-88671400D01*
X154581644Y-88736842D01*
X154207401Y-88362599D01*
X153960839Y-88197852D01*
X153670000Y-88140000D01*
X150495000Y-88140000D01*
X150204161Y-88197852D01*
X149957599Y-88362599D01*
X149603646Y-88716552D01*
X149257152Y-88785474D01*
X148770971Y-89110330D01*
X148590008Y-89381161D01*
X148208490Y-88963179D01*
X147679027Y-88715032D01*
X147447000Y-88835531D01*
X147447000Y-90043000D01*
X147467000Y-90043000D01*
X147467000Y-90297000D01*
X147447000Y-90297000D01*
X147447000Y-90317000D01*
X147193000Y-90317000D01*
X147193000Y-90297000D01*
X147173000Y-90297000D01*
X147173000Y-90043000D01*
X147193000Y-90043000D01*
X147193000Y-88835531D01*
X146960973Y-88715032D01*
X146431510Y-88963179D01*
X146049992Y-89381161D01*
X145869029Y-89110330D01*
X145382848Y-88785474D01*
X144809359Y-88671400D01*
X144750641Y-88671400D01*
X144177152Y-88785474D01*
X143690971Y-89110330D01*
X143510000Y-89381172D01*
X143329029Y-89110330D01*
X142842848Y-88785474D01*
X142269359Y-88671400D01*
X142210641Y-88671400D01*
X141637152Y-88785474D01*
X141150971Y-89110330D01*
X140970000Y-89381172D01*
X140789029Y-89110330D01*
X140302848Y-88785474D01*
X139729359Y-88671400D01*
X139670641Y-88671400D01*
X139097152Y-88785474D01*
X138610971Y-89110330D01*
X138430000Y-89381172D01*
X138249029Y-89110330D01*
X137762848Y-88785474D01*
X137189359Y-88671400D01*
X137130641Y-88671400D01*
X136557152Y-88785474D01*
X136070971Y-89110330D01*
X135890000Y-89381172D01*
X135709029Y-89110330D01*
X135222848Y-88785474D01*
X134649359Y-88671400D01*
X134590641Y-88671400D01*
X134017152Y-88785474D01*
X133530971Y-89110330D01*
X133350000Y-89381172D01*
X133169029Y-89110330D01*
X132682848Y-88785474D01*
X132109359Y-88671400D01*
X132050641Y-88671400D01*
X131477152Y-88785474D01*
X130990971Y-89110330D01*
X130810000Y-89381172D01*
X130629029Y-89110330D01*
X130142848Y-88785474D01*
X129569359Y-88671400D01*
X129510641Y-88671400D01*
X128937152Y-88785474D01*
X128450971Y-89110330D01*
X128270000Y-89381172D01*
X128089029Y-89110330D01*
X127602848Y-88785474D01*
X127029359Y-88671400D01*
X126970641Y-88671400D01*
X126397152Y-88785474D01*
X125910971Y-89110330D01*
X125730000Y-89381172D01*
X125549029Y-89110330D01*
X125062848Y-88785474D01*
X124489359Y-88671400D01*
X124430641Y-88671400D01*
X123857152Y-88785474D01*
X123370971Y-89110330D01*
X123046115Y-89596511D01*
X122932041Y-90170000D01*
X123046115Y-90743489D01*
X123370971Y-91229670D01*
X123384642Y-91238805D01*
X123361083Y-91243238D01*
X123144959Y-91382310D01*
X122999969Y-91594510D01*
X122948960Y-91846400D01*
X122948960Y-93573600D01*
X122993238Y-93808917D01*
X123132310Y-94025041D01*
X123344510Y-94170031D01*
X123596400Y-94221040D01*
X123700000Y-94221040D01*
X123700000Y-102555198D01*
X120112599Y-106142599D01*
X119947852Y-106389161D01*
X119890000Y-106680000D01*
X119890000Y-119380000D01*
X119947852Y-119670839D01*
X120112599Y-119917401D01*
X128604878Y-128409680D01*
X128604838Y-128455167D01*
X128746883Y-128798943D01*
X129009673Y-129062192D01*
X129353201Y-129204838D01*
X129725167Y-129205162D01*
X130050000Y-129070944D01*
X130050000Y-132077046D01*
X129759946Y-132270853D01*
X129540000Y-132600026D01*
X129320054Y-132270853D01*
X128838285Y-131948946D01*
X128270000Y-131835907D01*
X127701715Y-131948946D01*
X127219946Y-132270853D01*
X127000000Y-132600026D01*
X126780054Y-132270853D01*
X126298285Y-131948946D01*
X125730000Y-131835907D01*
X125161715Y-131948946D01*
X124679946Y-132270853D01*
X124460000Y-132600026D01*
X124240054Y-132270853D01*
X123758285Y-131948946D01*
X123190000Y-131835907D01*
X122621715Y-131948946D01*
X122139946Y-132270853D01*
X121920000Y-132600026D01*
X121700054Y-132270853D01*
X121218285Y-131948946D01*
X120650000Y-131835907D01*
X120081715Y-131948946D01*
X119599946Y-132270853D01*
X119380000Y-132600026D01*
X119160054Y-132270853D01*
X118678285Y-131948946D01*
X118110000Y-131835907D01*
X117550000Y-131947298D01*
X117550000Y-85800000D01*
X167771421Y-85800000D01*
X167737599Y-85822599D01*
G36*
X215190000Y-131852560D02*
X213780000Y-131852560D01*
X213544683Y-131896838D01*
X213328559Y-132035910D01*
X213183569Y-132248110D01*
X213169914Y-132315541D01*
X213140054Y-132270853D01*
X212658285Y-131948946D01*
X212090000Y-131835907D01*
X211521715Y-131948946D01*
X211039946Y-132270853D01*
X210820000Y-132600026D01*
X210600054Y-132270853D01*
X210118285Y-131948946D01*
X209550000Y-131835907D01*
X208981715Y-131948946D01*
X208499946Y-132270853D01*
X208280000Y-132600026D01*
X208060054Y-132270853D01*
X207578285Y-131948946D01*
X207010000Y-131835907D01*
X206441715Y-131948946D01*
X205959946Y-132270853D01*
X205740000Y-132600026D01*
X205520054Y-132270853D01*
X205038285Y-131948946D01*
X204470000Y-131835907D01*
X203901715Y-131948946D01*
X203419946Y-132270853D01*
X203200000Y-132600026D01*
X202980054Y-132270853D01*
X202498285Y-131948946D01*
X201930000Y-131835907D01*
X201361715Y-131948946D01*
X200879946Y-132270853D01*
X200660000Y-132600026D01*
X200440054Y-132270853D01*
X199958285Y-131948946D01*
X199390000Y-131835907D01*
X198821715Y-131948946D01*
X198339946Y-132270853D01*
X198120000Y-132600026D01*
X197900054Y-132270853D01*
X197418285Y-131948946D01*
X196850000Y-131835907D01*
X196281715Y-131948946D01*
X195799946Y-132270853D01*
X195580000Y-132600026D01*
X195360054Y-132270853D01*
X194878285Y-131948946D01*
X194310000Y-131835907D01*
X193741715Y-131948946D01*
X193259946Y-132270853D01*
X193040000Y-132600026D01*
X192820054Y-132270853D01*
X192720481Y-132204321D01*
X194847401Y-130077401D01*
X195012148Y-129830840D01*
X195032843Y-129726799D01*
X195070000Y-129540000D01*
X195070000Y-119322995D01*
X195324698Y-119152811D01*
X195580000Y-118770725D01*
X195835302Y-119152811D01*
X196300849Y-119463880D01*
X196850000Y-119573113D01*
X197399151Y-119463880D01*
X197864698Y-119152811D01*
X198120000Y-118770725D01*
X198375302Y-119152811D01*
X198840849Y-119463880D01*
X199390000Y-119573113D01*
X199939151Y-119463880D01*
X200404698Y-119152811D01*
X200660000Y-118770725D01*
X200915302Y-119152811D01*
X201380849Y-119463880D01*
X201930000Y-119573113D01*
X202479151Y-119463880D01*
X202944698Y-119152811D01*
X203133667Y-118870000D01*
X208280000Y-118870000D01*
X208570839Y-118812148D01*
X208817401Y-118647401D01*
X209270046Y-118194756D01*
X209834187Y-118195248D01*
X210361800Y-117977243D01*
X210765824Y-117573923D01*
X210984750Y-117046691D01*
X210985248Y-116475813D01*
X210767243Y-115948200D01*
X210363923Y-115544176D01*
X209836691Y-115325250D01*
X209265813Y-115324752D01*
X208738200Y-115542757D01*
X208334176Y-115946077D01*
X208115250Y-116473309D01*
X208114752Y-117044187D01*
X208160439Y-117154759D01*
X207965198Y-117350000D01*
X203133667Y-117350000D01*
X202944698Y-117067189D01*
X202479151Y-116756120D01*
X201930000Y-116646887D01*
X201380849Y-116756120D01*
X200915302Y-117067189D01*
X200660000Y-117449275D01*
X200404698Y-117067189D01*
X199939151Y-116756120D01*
X199390000Y-116646887D01*
X198840849Y-116756120D01*
X198375302Y-117067189D01*
X198120000Y-117449275D01*
X197864698Y-117067189D01*
X197399151Y-116756120D01*
X196850000Y-116646887D01*
X196300849Y-116756120D01*
X195835302Y-117067189D01*
X195580000Y-117449275D01*
X195324698Y-117067189D01*
X194859151Y-116756120D01*
X194310000Y-116646887D01*
X193760849Y-116756120D01*
X193295302Y-117067189D01*
X193040000Y-117449275D01*
X192784698Y-117067189D01*
X192319151Y-116756120D01*
X191770000Y-116646887D01*
X191220849Y-116756120D01*
X190755302Y-117067189D01*
X190500000Y-117449275D01*
X190244698Y-117067189D01*
X189779151Y-116756120D01*
X189230000Y-116646887D01*
X188680849Y-116756120D01*
X188215302Y-117067189D01*
X187960000Y-117449275D01*
X187704698Y-117067189D01*
X187239151Y-116756120D01*
X186690000Y-116646887D01*
X186140849Y-116756120D01*
X185675302Y-117067189D01*
X185578899Y-117211465D01*
X185553162Y-117074683D01*
X185414090Y-116858559D01*
X185201890Y-116713569D01*
X184950000Y-116662560D01*
X183350000Y-116662560D01*
X183114683Y-116706838D01*
X182898559Y-116845910D01*
X182753569Y-117058110D01*
X182702560Y-117310000D01*
X182702560Y-118910000D01*
X182746838Y-119145317D01*
X182885910Y-119361441D01*
X183098110Y-119506431D01*
X183350000Y-119557440D01*
X183390000Y-119557440D01*
X183390000Y-132077046D01*
X183099946Y-132270853D01*
X182880000Y-132600026D01*
X182660054Y-132270853D01*
X182370000Y-132077046D01*
X182370000Y-130175000D01*
X182312148Y-129884161D01*
X182312148Y-129884160D01*
X182147401Y-129637599D01*
X181100000Y-128590198D01*
X181100000Y-102162463D01*
X181132192Y-102130327D01*
X181274838Y-101786799D01*
X181275162Y-101414833D01*
X181133117Y-101071057D01*
X180870327Y-100807808D01*
X180526799Y-100665162D01*
X180154833Y-100664838D01*
X179811057Y-100806883D01*
X179547808Y-101069673D01*
X179405162Y-101413201D01*
X179404838Y-101785167D01*
X179546883Y-102128943D01*
X179580000Y-102162118D01*
X179580000Y-128905000D01*
X179597431Y-128992629D01*
X177067401Y-126462599D01*
X176820839Y-126297852D01*
X176530000Y-126240000D01*
X169224802Y-126240000D01*
X168400000Y-125415198D01*
X168400000Y-118110000D01*
X169986887Y-118110000D01*
X170096120Y-118659151D01*
X170407189Y-119124698D01*
X170872736Y-119435767D01*
X171421887Y-119545000D01*
X171478113Y-119545000D01*
X172027264Y-119435767D01*
X172492811Y-119124698D01*
X172803880Y-118659151D01*
X172913113Y-118110000D01*
X172803880Y-117560849D01*
X172492811Y-117095302D01*
X172027264Y-116784233D01*
X171478113Y-116675000D01*
X171421887Y-116675000D01*
X170872736Y-116784233D01*
X170407189Y-117095302D01*
X170096120Y-117560849D01*
X169986887Y-118110000D01*
X168400000Y-118110000D01*
X168400000Y-113665000D01*
X169986887Y-113665000D01*
X170096120Y-114214151D01*
X170407189Y-114679698D01*
X170872736Y-114990767D01*
X171421887Y-115100000D01*
X171478113Y-115100000D01*
X172027264Y-114990767D01*
X172492811Y-114679698D01*
X172662995Y-114425000D01*
X174625000Y-114425000D01*
X174915839Y-114367148D01*
X175162401Y-114202401D01*
X176669680Y-112695122D01*
X176715167Y-112695162D01*
X177058943Y-112553117D01*
X177322192Y-112290327D01*
X177464838Y-111946799D01*
X177465162Y-111574833D01*
X177323117Y-111231057D01*
X177060327Y-110967808D01*
X176716799Y-110825162D01*
X176344833Y-110824838D01*
X176001057Y-110966883D01*
X175737808Y-111229673D01*
X175595162Y-111573201D01*
X175595121Y-111620077D01*
X174310198Y-112905000D01*
X172662995Y-112905000D01*
X172492811Y-112650302D01*
X172027264Y-112339233D01*
X171478113Y-112230000D01*
X171421887Y-112230000D01*
X170872736Y-112339233D01*
X170407189Y-112650302D01*
X170096120Y-113115849D01*
X169986887Y-113665000D01*
X168400000Y-113665000D01*
X168400000Y-109569039D01*
X170058096Y-109569039D01*
X170218959Y-109957423D01*
X170594866Y-110372389D01*
X171100959Y-110611914D01*
X171323000Y-110490629D01*
X171323000Y-109347000D01*
X171577000Y-109347000D01*
X171577000Y-110490629D01*
X171799041Y-110611914D01*
X172305134Y-110372389D01*
X172681041Y-109957423D01*
X172841904Y-109569039D01*
X172719915Y-109347000D01*
X171577000Y-109347000D01*
X171323000Y-109347000D01*
X170180085Y-109347000D01*
X170058096Y-109569039D01*
X168400000Y-109569039D01*
X168400000Y-108870961D01*
X170058096Y-108870961D01*
X170180085Y-109093000D01*
X171323000Y-109093000D01*
X171323000Y-107949371D01*
X171577000Y-107949371D01*
X171577000Y-109093000D01*
X172719915Y-109093000D01*
X172841904Y-108870961D01*
X172681041Y-108482577D01*
X172305134Y-108067611D01*
X171799041Y-107828086D01*
X171577000Y-107949371D01*
X171323000Y-107949371D01*
X171100959Y-107828086D01*
X170594866Y-108067611D01*
X170218959Y-108482577D01*
X170058096Y-108870961D01*
X168400000Y-108870961D01*
X168400000Y-105059187D01*
X170014752Y-105059187D01*
X170232757Y-105586800D01*
X170636077Y-105990824D01*
X171163309Y-106209750D01*
X171734187Y-106210248D01*
X172261800Y-105992243D01*
X172665824Y-105588923D01*
X172688215Y-105535000D01*
X172720000Y-105535000D01*
X173010839Y-105477148D01*
X173257401Y-105312401D01*
X175162401Y-103407401D01*
X175327148Y-103160839D01*
X175385000Y-102870000D01*
X175385000Y-100009802D01*
X175574802Y-99820000D01*
X179777537Y-99820000D01*
X179809673Y-99852192D01*
X180153201Y-99994838D01*
X180525167Y-99995162D01*
X180868943Y-99853117D01*
X181132192Y-99590327D01*
X181274838Y-99246799D01*
X181275162Y-98874833D01*
X181133117Y-98531057D01*
X180870327Y-98267808D01*
X180526799Y-98125162D01*
X180154833Y-98124838D01*
X179811057Y-98266883D01*
X179777882Y-98300000D01*
X175260000Y-98300000D01*
X174969161Y-98357852D01*
X174722599Y-98522599D01*
X174087599Y-99157599D01*
X173922852Y-99404161D01*
X173865000Y-99695000D01*
X173865000Y-102555198D01*
X172562212Y-103857986D01*
X172263923Y-103559176D01*
X171736691Y-103340250D01*
X171165813Y-103339752D01*
X170638200Y-103557757D01*
X170234176Y-103961077D01*
X170015250Y-104488309D01*
X170014752Y-105059187D01*
X168400000Y-105059187D01*
X168400000Y-98352463D01*
X168432192Y-98320327D01*
X168574838Y-97976799D01*
X168575162Y-97604833D01*
X168433117Y-97261057D01*
X168170327Y-96997808D01*
X167826799Y-96855162D01*
X167454833Y-96854838D01*
X167111057Y-96996883D01*
X166847808Y-97259673D01*
X166705162Y-97603201D01*
X166704838Y-97975167D01*
X166846883Y-98318943D01*
X166880000Y-98352118D01*
X166880000Y-125730000D01*
X166937852Y-126020839D01*
X167102599Y-126267401D01*
X168345198Y-127510000D01*
X166684802Y-127510000D01*
X165860000Y-126685198D01*
X165860000Y-98104802D01*
X168177401Y-95787401D01*
X168342148Y-95540840D01*
X168351746Y-95492586D01*
X168400000Y-95250000D01*
X168400000Y-93989520D01*
X168729029Y-93769670D01*
X168910000Y-93498828D01*
X169090971Y-93769670D01*
X169420000Y-93989520D01*
X169420000Y-96520000D01*
X169477852Y-96810839D01*
X169642599Y-97057401D01*
X170277599Y-97692401D01*
X170524161Y-97857148D01*
X170815000Y-97915000D01*
X181295198Y-97915000D01*
X181485000Y-98104802D01*
X181485000Y-112395000D01*
X181542852Y-112685839D01*
X181707599Y-112932401D01*
X181954161Y-113097148D01*
X182245000Y-113155000D01*
X191135000Y-113155000D01*
X191425839Y-113097148D01*
X191672401Y-112932401D01*
X191837057Y-112767745D01*
X208721861Y-112767745D01*
X208795995Y-113013864D01*
X209333223Y-113206965D01*
X209903454Y-113179778D01*
X210304005Y-113013864D01*
X210378139Y-112767745D01*
X209550000Y-111939605D01*
X208721861Y-112767745D01*
X191837057Y-112767745D01*
X192307401Y-112297401D01*
X192472148Y-112050839D01*
X192530000Y-111760000D01*
X192530000Y-111702995D01*
X192784698Y-111532811D01*
X193040000Y-111150725D01*
X193295302Y-111532811D01*
X193760849Y-111843880D01*
X194310000Y-111953113D01*
X194859151Y-111843880D01*
X195324698Y-111532811D01*
X195580000Y-111150725D01*
X195835302Y-111532811D01*
X196300849Y-111843880D01*
X196850000Y-111953113D01*
X197399151Y-111843880D01*
X197864698Y-111532811D01*
X198120000Y-111150725D01*
X198375302Y-111532811D01*
X198840849Y-111843880D01*
X199390000Y-111953113D01*
X199939151Y-111843880D01*
X200404698Y-111532811D01*
X200660000Y-111150725D01*
X200915302Y-111532811D01*
X201380849Y-111843880D01*
X201930000Y-111953113D01*
X202479151Y-111843880D01*
X202929115Y-111543223D01*
X208103035Y-111543223D01*
X208130222Y-112113454D01*
X208296136Y-112514005D01*
X208542255Y-112588139D01*
X209370395Y-111760000D01*
X209729605Y-111760000D01*
X210557745Y-112588139D01*
X210803864Y-112514005D01*
X210996965Y-111976777D01*
X210969778Y-111406546D01*
X210803864Y-111005995D01*
X210557745Y-110931861D01*
X209729605Y-111760000D01*
X209370395Y-111760000D01*
X208542255Y-110931861D01*
X208296136Y-111005995D01*
X208103035Y-111543223D01*
X202929115Y-111543223D01*
X202944698Y-111532811D01*
X203255767Y-111067264D01*
X203318426Y-110752255D01*
X208721861Y-110752255D01*
X209550000Y-111580395D01*
X210378139Y-110752255D01*
X210304005Y-110506136D01*
X209766777Y-110313035D01*
X209196546Y-110340222D01*
X208795995Y-110506136D01*
X208721861Y-110752255D01*
X203318426Y-110752255D01*
X203365000Y-110518113D01*
X203365000Y-110461887D01*
X203255767Y-109912736D01*
X202944698Y-109447189D01*
X202479151Y-109136120D01*
X201930000Y-109026887D01*
X201380849Y-109136120D01*
X200915302Y-109447189D01*
X200660000Y-109829275D01*
X200404698Y-109447189D01*
X199939151Y-109136120D01*
X199390000Y-109026887D01*
X198840849Y-109136120D01*
X198375302Y-109447189D01*
X198120000Y-109829275D01*
X197864698Y-109447189D01*
X197399151Y-109136120D01*
X196850000Y-109026887D01*
X196300849Y-109136120D01*
X195835302Y-109447189D01*
X195580000Y-109829275D01*
X195324698Y-109447189D01*
X194859151Y-109136120D01*
X194310000Y-109026887D01*
X193760849Y-109136120D01*
X193295302Y-109447189D01*
X193040000Y-109829275D01*
X192784698Y-109447189D01*
X192319151Y-109136120D01*
X191770000Y-109026887D01*
X191220849Y-109136120D01*
X190755302Y-109447189D01*
X190500000Y-109829275D01*
X190244698Y-109447189D01*
X189779151Y-109136120D01*
X189230000Y-109026887D01*
X188680849Y-109136120D01*
X188215302Y-109447189D01*
X187960000Y-109829275D01*
X187704698Y-109447189D01*
X187239151Y-109136120D01*
X186690000Y-109026887D01*
X186140849Y-109136120D01*
X185675302Y-109447189D01*
X185405014Y-109851703D01*
X185302389Y-109634866D01*
X184887423Y-109258959D01*
X184499039Y-109098096D01*
X184277000Y-109220085D01*
X184277000Y-110363000D01*
X184297000Y-110363000D01*
X184297000Y-110617000D01*
X184277000Y-110617000D01*
X184277000Y-110637000D01*
X184023000Y-110637000D01*
X184023000Y-110617000D01*
X184003000Y-110617000D01*
X184003000Y-110363000D01*
X184023000Y-110363000D01*
X184023000Y-109220085D01*
X183800961Y-109098096D01*
X183412577Y-109258959D01*
X183005000Y-109628172D01*
X183005000Y-97790000D01*
X182947148Y-97499161D01*
X182782401Y-97252599D01*
X182147401Y-96617599D01*
X181900839Y-96452852D01*
X181610000Y-96395000D01*
X171129802Y-96395000D01*
X170940000Y-96205198D01*
X170940000Y-93989520D01*
X171269029Y-93769670D01*
X171450000Y-93498828D01*
X171630971Y-93769670D01*
X172117152Y-94094526D01*
X172690641Y-94208600D01*
X172749359Y-94208600D01*
X173322848Y-94094526D01*
X173809029Y-93769670D01*
X174009262Y-93470000D01*
X179070000Y-93470000D01*
X179360839Y-93412148D01*
X179607401Y-93247401D01*
X180174436Y-92680366D01*
X180245910Y-92791441D01*
X180458110Y-92936431D01*
X180710000Y-92987440D01*
X182510000Y-92987440D01*
X182745317Y-92943162D01*
X182961441Y-92804090D01*
X183106431Y-92591890D01*
X183110567Y-92571466D01*
X183279357Y-92740551D01*
X183843330Y-92974733D01*
X184453991Y-92975265D01*
X185014051Y-92743853D01*
X185295000Y-93024802D01*
X185295000Y-96840198D01*
X184010320Y-98124878D01*
X183964833Y-98124838D01*
X183621057Y-98266883D01*
X183357808Y-98529673D01*
X183215162Y-98873201D01*
X183214838Y-99245167D01*
X183356883Y-99588943D01*
X183619673Y-99852192D01*
X183963201Y-99994838D01*
X184045288Y-99994910D01*
X184010320Y-100029878D01*
X183964833Y-100029838D01*
X183621057Y-100171883D01*
X183357808Y-100434673D01*
X183215162Y-100778201D01*
X183214838Y-101150167D01*
X183356883Y-101493943D01*
X183619673Y-101757192D01*
X183963201Y-101899838D01*
X184335167Y-101900162D01*
X184678943Y-101758117D01*
X184942192Y-101495327D01*
X185084838Y-101151799D01*
X185084879Y-101104923D01*
X188497401Y-97692401D01*
X188662148Y-97445839D01*
X188720000Y-97155000D01*
X188720000Y-90170000D01*
X188662148Y-89879161D01*
X188497401Y-89632599D01*
X186679969Y-87815167D01*
X187024838Y-87815167D01*
X187166883Y-88158943D01*
X187429673Y-88422192D01*
X187773201Y-88564838D01*
X188145167Y-88565162D01*
X188488943Y-88423117D01*
X188522118Y-88390000D01*
X190820198Y-88390000D01*
X194820000Y-92389802D01*
X194820000Y-94935198D01*
X194676408Y-95078790D01*
X194310000Y-95005907D01*
X193741715Y-95118946D01*
X193259946Y-95440853D01*
X193232150Y-95482452D01*
X193223162Y-95434683D01*
X193084090Y-95218559D01*
X192871890Y-95073569D01*
X192620000Y-95022560D01*
X190920000Y-95022560D01*
X190684683Y-95066838D01*
X190468559Y-95205910D01*
X190323569Y-95418110D01*
X190272560Y-95670000D01*
X190272560Y-97370000D01*
X190316838Y-97605317D01*
X190455910Y-97821441D01*
X190668110Y-97966431D01*
X190920000Y-98017440D01*
X192620000Y-98017440D01*
X192855317Y-97973162D01*
X193071441Y-97834090D01*
X193216431Y-97621890D01*
X193230086Y-97554459D01*
X193259946Y-97599147D01*
X193741715Y-97921054D01*
X194310000Y-98034093D01*
X194878285Y-97921054D01*
X195360054Y-97599147D01*
X195580000Y-97269974D01*
X195799946Y-97599147D01*
X196281715Y-97921054D01*
X196850000Y-98034093D01*
X197418285Y-97921054D01*
X197900054Y-97599147D01*
X198127702Y-97258447D01*
X198194817Y-97401358D01*
X198623076Y-97791645D01*
X199033110Y-97961476D01*
X199263000Y-97840155D01*
X199263000Y-96647000D01*
X199517000Y-96647000D01*
X199517000Y-97840155D01*
X199746890Y-97961476D01*
X200156924Y-97791645D01*
X200585183Y-97401358D01*
X200831486Y-96876892D01*
X200710819Y-96647000D01*
X199517000Y-96647000D01*
X199263000Y-96647000D01*
X199243000Y-96647000D01*
X199243000Y-96393000D01*
X199263000Y-96393000D01*
X199263000Y-95199845D01*
X199517000Y-95199845D01*
X199517000Y-96393000D01*
X200710819Y-96393000D01*
X200831486Y-96163108D01*
X200585183Y-95638642D01*
X200156924Y-95248355D01*
X199746890Y-95078524D01*
X199517000Y-95199845D01*
X199263000Y-95199845D01*
X199033110Y-95078524D01*
X198623076Y-95248355D01*
X198194817Y-95638642D01*
X198127702Y-95781553D01*
X197900054Y-95440853D01*
X197418285Y-95118946D01*
X196850000Y-95005907D01*
X196483592Y-95078790D01*
X196340000Y-94935198D01*
X196340000Y-92075000D01*
X196282148Y-91784161D01*
X196282148Y-91784160D01*
X196117401Y-91537599D01*
X191672401Y-87092599D01*
X191425839Y-86927852D01*
X191135000Y-86870000D01*
X188522463Y-86870000D01*
X188490327Y-86837808D01*
X188146799Y-86695162D01*
X187774833Y-86694838D01*
X187431057Y-86836883D01*
X187167808Y-87099673D01*
X187025162Y-87443201D01*
X187024838Y-87815167D01*
X186679969Y-87815167D01*
X184687401Y-85822599D01*
X184653579Y-85800000D01*
X215190000Y-85800000D01*
X215190000Y-131852560D01*
X215190000Y-131852560D01*
G37*
X215190000Y-131852560D02*
X213780000Y-131852560D01*
X213544683Y-131896838D01*
X213328559Y-132035910D01*
X213183569Y-132248110D01*
X213169914Y-132315541D01*
X213140054Y-132270853D01*
X212658285Y-131948946D01*
X212090000Y-131835907D01*
X211521715Y-131948946D01*
X211039946Y-132270853D01*
X210820000Y-132600026D01*
X210600054Y-132270853D01*
X210118285Y-131948946D01*
X209550000Y-131835907D01*
X208981715Y-131948946D01*
X208499946Y-132270853D01*
X208280000Y-132600026D01*
X208060054Y-132270853D01*
X207578285Y-131948946D01*
X207010000Y-131835907D01*
X206441715Y-131948946D01*
X205959946Y-132270853D01*
X205740000Y-132600026D01*
X205520054Y-132270853D01*
X205038285Y-131948946D01*
X204470000Y-131835907D01*
X203901715Y-131948946D01*
X203419946Y-132270853D01*
X203200000Y-132600026D01*
X202980054Y-132270853D01*
X202498285Y-131948946D01*
X201930000Y-131835907D01*
X201361715Y-131948946D01*
X200879946Y-132270853D01*
X200660000Y-132600026D01*
X200440054Y-132270853D01*
X199958285Y-131948946D01*
X199390000Y-131835907D01*
X198821715Y-131948946D01*
X198339946Y-132270853D01*
X198120000Y-132600026D01*
X197900054Y-132270853D01*
X197418285Y-131948946D01*
X196850000Y-131835907D01*
X196281715Y-131948946D01*
X195799946Y-132270853D01*
X195580000Y-132600026D01*
X195360054Y-132270853D01*
X194878285Y-131948946D01*
X194310000Y-131835907D01*
X193741715Y-131948946D01*
X193259946Y-132270853D01*
X193040000Y-132600026D01*
X192820054Y-132270853D01*
X192720481Y-132204321D01*
X194847401Y-130077401D01*
X195012148Y-129830840D01*
X195032843Y-129726799D01*
X195070000Y-129540000D01*
X195070000Y-119322995D01*
X195324698Y-119152811D01*
X195580000Y-118770725D01*
X195835302Y-119152811D01*
X196300849Y-119463880D01*
X196850000Y-119573113D01*
X197399151Y-119463880D01*
X197864698Y-119152811D01*
X198120000Y-118770725D01*
X198375302Y-119152811D01*
X198840849Y-119463880D01*
X199390000Y-119573113D01*
X199939151Y-119463880D01*
X200404698Y-119152811D01*
X200660000Y-118770725D01*
X200915302Y-119152811D01*
X201380849Y-119463880D01*
X201930000Y-119573113D01*
X202479151Y-119463880D01*
X202944698Y-119152811D01*
X203133667Y-118870000D01*
X208280000Y-118870000D01*
X208570839Y-118812148D01*
X208817401Y-118647401D01*
X209270046Y-118194756D01*
X209834187Y-118195248D01*
X210361800Y-117977243D01*
X210765824Y-117573923D01*
X210984750Y-117046691D01*
X210985248Y-116475813D01*
X210767243Y-115948200D01*
X210363923Y-115544176D01*
X209836691Y-115325250D01*
X209265813Y-115324752D01*
X208738200Y-115542757D01*
X208334176Y-115946077D01*
X208115250Y-116473309D01*
X208114752Y-117044187D01*
X208160439Y-117154759D01*
X207965198Y-117350000D01*
X203133667Y-117350000D01*
X202944698Y-117067189D01*
X202479151Y-116756120D01*
X201930000Y-116646887D01*
X201380849Y-116756120D01*
X200915302Y-117067189D01*
X200660000Y-117449275D01*
X200404698Y-117067189D01*
X199939151Y-116756120D01*
X199390000Y-116646887D01*
X198840849Y-116756120D01*
X198375302Y-117067189D01*
X198120000Y-117449275D01*
X197864698Y-117067189D01*
X197399151Y-116756120D01*
X196850000Y-116646887D01*
X196300849Y-116756120D01*
X195835302Y-117067189D01*
X195580000Y-117449275D01*
X195324698Y-117067189D01*
X194859151Y-116756120D01*
X194310000Y-116646887D01*
X193760849Y-116756120D01*
X193295302Y-117067189D01*
X193040000Y-117449275D01*
X192784698Y-117067189D01*
X192319151Y-116756120D01*
X191770000Y-116646887D01*
X191220849Y-116756120D01*
X190755302Y-117067189D01*
X190500000Y-117449275D01*
X190244698Y-117067189D01*
X189779151Y-116756120D01*
X189230000Y-116646887D01*
X188680849Y-116756120D01*
X188215302Y-117067189D01*
X187960000Y-117449275D01*
X187704698Y-117067189D01*
X187239151Y-116756120D01*
X186690000Y-116646887D01*
X186140849Y-116756120D01*
X185675302Y-117067189D01*
X185578899Y-117211465D01*
X185553162Y-117074683D01*
X185414090Y-116858559D01*
X185201890Y-116713569D01*
X184950000Y-116662560D01*
X183350000Y-116662560D01*
X183114683Y-116706838D01*
X182898559Y-116845910D01*
X182753569Y-117058110D01*
X182702560Y-117310000D01*
X182702560Y-118910000D01*
X182746838Y-119145317D01*
X182885910Y-119361441D01*
X183098110Y-119506431D01*
X183350000Y-119557440D01*
X183390000Y-119557440D01*
X183390000Y-132077046D01*
X183099946Y-132270853D01*
X182880000Y-132600026D01*
X182660054Y-132270853D01*
X182370000Y-132077046D01*
X182370000Y-130175000D01*
X182312148Y-129884161D01*
X182312148Y-129884160D01*
X182147401Y-129637599D01*
X181100000Y-128590198D01*
X181100000Y-102162463D01*
X181132192Y-102130327D01*
X181274838Y-101786799D01*
X181275162Y-101414833D01*
X181133117Y-101071057D01*
X180870327Y-100807808D01*
X180526799Y-100665162D01*
X180154833Y-100664838D01*
X179811057Y-100806883D01*
X179547808Y-101069673D01*
X179405162Y-101413201D01*
X179404838Y-101785167D01*
X179546883Y-102128943D01*
X179580000Y-102162118D01*
X179580000Y-128905000D01*
X179597431Y-128992629D01*
X177067401Y-126462599D01*
X176820839Y-126297852D01*
X176530000Y-126240000D01*
X169224802Y-126240000D01*
X168400000Y-125415198D01*
X168400000Y-118110000D01*
X169986887Y-118110000D01*
X170096120Y-118659151D01*
X170407189Y-119124698D01*
X170872736Y-119435767D01*
X171421887Y-119545000D01*
X171478113Y-119545000D01*
X172027264Y-119435767D01*
X172492811Y-119124698D01*
X172803880Y-118659151D01*
X172913113Y-118110000D01*
X172803880Y-117560849D01*
X172492811Y-117095302D01*
X172027264Y-116784233D01*
X171478113Y-116675000D01*
X171421887Y-116675000D01*
X170872736Y-116784233D01*
X170407189Y-117095302D01*
X170096120Y-117560849D01*
X169986887Y-118110000D01*
X168400000Y-118110000D01*
X168400000Y-113665000D01*
X169986887Y-113665000D01*
X170096120Y-114214151D01*
X170407189Y-114679698D01*
X170872736Y-114990767D01*
X171421887Y-115100000D01*
X171478113Y-115100000D01*
X172027264Y-114990767D01*
X172492811Y-114679698D01*
X172662995Y-114425000D01*
X174625000Y-114425000D01*
X174915839Y-114367148D01*
X175162401Y-114202401D01*
X176669680Y-112695122D01*
X176715167Y-112695162D01*
X177058943Y-112553117D01*
X177322192Y-112290327D01*
X177464838Y-111946799D01*
X177465162Y-111574833D01*
X177323117Y-111231057D01*
X177060327Y-110967808D01*
X176716799Y-110825162D01*
X176344833Y-110824838D01*
X176001057Y-110966883D01*
X175737808Y-111229673D01*
X175595162Y-111573201D01*
X175595121Y-111620077D01*
X174310198Y-112905000D01*
X172662995Y-112905000D01*
X172492811Y-112650302D01*
X172027264Y-112339233D01*
X171478113Y-112230000D01*
X171421887Y-112230000D01*
X170872736Y-112339233D01*
X170407189Y-112650302D01*
X170096120Y-113115849D01*
X169986887Y-113665000D01*
X168400000Y-113665000D01*
X168400000Y-109569039D01*
X170058096Y-109569039D01*
X170218959Y-109957423D01*
X170594866Y-110372389D01*
X171100959Y-110611914D01*
X171323000Y-110490629D01*
X171323000Y-109347000D01*
X171577000Y-109347000D01*
X171577000Y-110490629D01*
X171799041Y-110611914D01*
X172305134Y-110372389D01*
X172681041Y-109957423D01*
X172841904Y-109569039D01*
X172719915Y-109347000D01*
X171577000Y-109347000D01*
X171323000Y-109347000D01*
X170180085Y-109347000D01*
X170058096Y-109569039D01*
X168400000Y-109569039D01*
X168400000Y-108870961D01*
X170058096Y-108870961D01*
X170180085Y-109093000D01*
X171323000Y-109093000D01*
X171323000Y-107949371D01*
X171577000Y-107949371D01*
X171577000Y-109093000D01*
X172719915Y-109093000D01*
X172841904Y-108870961D01*
X172681041Y-108482577D01*
X172305134Y-108067611D01*
X171799041Y-107828086D01*
X171577000Y-107949371D01*
X171323000Y-107949371D01*
X171100959Y-107828086D01*
X170594866Y-108067611D01*
X170218959Y-108482577D01*
X170058096Y-108870961D01*
X168400000Y-108870961D01*
X168400000Y-105059187D01*
X170014752Y-105059187D01*
X170232757Y-105586800D01*
X170636077Y-105990824D01*
X171163309Y-106209750D01*
X171734187Y-106210248D01*
X172261800Y-105992243D01*
X172665824Y-105588923D01*
X172688215Y-105535000D01*
X172720000Y-105535000D01*
X173010839Y-105477148D01*
X173257401Y-105312401D01*
X175162401Y-103407401D01*
X175327148Y-103160839D01*
X175385000Y-102870000D01*
X175385000Y-100009802D01*
X175574802Y-99820000D01*
X179777537Y-99820000D01*
X179809673Y-99852192D01*
X180153201Y-99994838D01*
X180525167Y-99995162D01*
X180868943Y-99853117D01*
X181132192Y-99590327D01*
X181274838Y-99246799D01*
X181275162Y-98874833D01*
X181133117Y-98531057D01*
X180870327Y-98267808D01*
X180526799Y-98125162D01*
X180154833Y-98124838D01*
X179811057Y-98266883D01*
X179777882Y-98300000D01*
X175260000Y-98300000D01*
X174969161Y-98357852D01*
X174722599Y-98522599D01*
X174087599Y-99157599D01*
X173922852Y-99404161D01*
X173865000Y-99695000D01*
X173865000Y-102555198D01*
X172562212Y-103857986D01*
X172263923Y-103559176D01*
X171736691Y-103340250D01*
X171165813Y-103339752D01*
X170638200Y-103557757D01*
X170234176Y-103961077D01*
X170015250Y-104488309D01*
X170014752Y-105059187D01*
X168400000Y-105059187D01*
X168400000Y-98352463D01*
X168432192Y-98320327D01*
X168574838Y-97976799D01*
X168575162Y-97604833D01*
X168433117Y-97261057D01*
X168170327Y-96997808D01*
X167826799Y-96855162D01*
X167454833Y-96854838D01*
X167111057Y-96996883D01*
X166847808Y-97259673D01*
X166705162Y-97603201D01*
X166704838Y-97975167D01*
X166846883Y-98318943D01*
X166880000Y-98352118D01*
X166880000Y-125730000D01*
X166937852Y-126020839D01*
X167102599Y-126267401D01*
X168345198Y-127510000D01*
X166684802Y-127510000D01*
X165860000Y-126685198D01*
X165860000Y-98104802D01*
X168177401Y-95787401D01*
X168342148Y-95540840D01*
X168351746Y-95492586D01*
X168400000Y-95250000D01*
X168400000Y-93989520D01*
X168729029Y-93769670D01*
X168910000Y-93498828D01*
X169090971Y-93769670D01*
X169420000Y-93989520D01*
X169420000Y-96520000D01*
X169477852Y-96810839D01*
X169642599Y-97057401D01*
X170277599Y-97692401D01*
X170524161Y-97857148D01*
X170815000Y-97915000D01*
X181295198Y-97915000D01*
X181485000Y-98104802D01*
X181485000Y-112395000D01*
X181542852Y-112685839D01*
X181707599Y-112932401D01*
X181954161Y-113097148D01*
X182245000Y-113155000D01*
X191135000Y-113155000D01*
X191425839Y-113097148D01*
X191672401Y-112932401D01*
X191837057Y-112767745D01*
X208721861Y-112767745D01*
X208795995Y-113013864D01*
X209333223Y-113206965D01*
X209903454Y-113179778D01*
X210304005Y-113013864D01*
X210378139Y-112767745D01*
X209550000Y-111939605D01*
X208721861Y-112767745D01*
X191837057Y-112767745D01*
X192307401Y-112297401D01*
X192472148Y-112050839D01*
X192530000Y-111760000D01*
X192530000Y-111702995D01*
X192784698Y-111532811D01*
X193040000Y-111150725D01*
X193295302Y-111532811D01*
X193760849Y-111843880D01*
X194310000Y-111953113D01*
X194859151Y-111843880D01*
X195324698Y-111532811D01*
X195580000Y-111150725D01*
X195835302Y-111532811D01*
X196300849Y-111843880D01*
X196850000Y-111953113D01*
X197399151Y-111843880D01*
X197864698Y-111532811D01*
X198120000Y-111150725D01*
X198375302Y-111532811D01*
X198840849Y-111843880D01*
X199390000Y-111953113D01*
X199939151Y-111843880D01*
X200404698Y-111532811D01*
X200660000Y-111150725D01*
X200915302Y-111532811D01*
X201380849Y-111843880D01*
X201930000Y-111953113D01*
X202479151Y-111843880D01*
X202929115Y-111543223D01*
X208103035Y-111543223D01*
X208130222Y-112113454D01*
X208296136Y-112514005D01*
X208542255Y-112588139D01*
X209370395Y-111760000D01*
X209729605Y-111760000D01*
X210557745Y-112588139D01*
X210803864Y-112514005D01*
X210996965Y-111976777D01*
X210969778Y-111406546D01*
X210803864Y-111005995D01*
X210557745Y-110931861D01*
X209729605Y-111760000D01*
X209370395Y-111760000D01*
X208542255Y-110931861D01*
X208296136Y-111005995D01*
X208103035Y-111543223D01*
X202929115Y-111543223D01*
X202944698Y-111532811D01*
X203255767Y-111067264D01*
X203318426Y-110752255D01*
X208721861Y-110752255D01*
X209550000Y-111580395D01*
X210378139Y-110752255D01*
X210304005Y-110506136D01*
X209766777Y-110313035D01*
X209196546Y-110340222D01*
X208795995Y-110506136D01*
X208721861Y-110752255D01*
X203318426Y-110752255D01*
X203365000Y-110518113D01*
X203365000Y-110461887D01*
X203255767Y-109912736D01*
X202944698Y-109447189D01*
X202479151Y-109136120D01*
X201930000Y-109026887D01*
X201380849Y-109136120D01*
X200915302Y-109447189D01*
X200660000Y-109829275D01*
X200404698Y-109447189D01*
X199939151Y-109136120D01*
X199390000Y-109026887D01*
X198840849Y-109136120D01*
X198375302Y-109447189D01*
X198120000Y-109829275D01*
X197864698Y-109447189D01*
X197399151Y-109136120D01*
X196850000Y-109026887D01*
X196300849Y-109136120D01*
X195835302Y-109447189D01*
X195580000Y-109829275D01*
X195324698Y-109447189D01*
X194859151Y-109136120D01*
X194310000Y-109026887D01*
X193760849Y-109136120D01*
X193295302Y-109447189D01*
X193040000Y-109829275D01*
X192784698Y-109447189D01*
X192319151Y-109136120D01*
X191770000Y-109026887D01*
X191220849Y-109136120D01*
X190755302Y-109447189D01*
X190500000Y-109829275D01*
X190244698Y-109447189D01*
X189779151Y-109136120D01*
X189230000Y-109026887D01*
X188680849Y-109136120D01*
X188215302Y-109447189D01*
X187960000Y-109829275D01*
X187704698Y-109447189D01*
X187239151Y-109136120D01*
X186690000Y-109026887D01*
X186140849Y-109136120D01*
X185675302Y-109447189D01*
X185405014Y-109851703D01*
X185302389Y-109634866D01*
X184887423Y-109258959D01*
X184499039Y-109098096D01*
X184277000Y-109220085D01*
X184277000Y-110363000D01*
X184297000Y-110363000D01*
X184297000Y-110617000D01*
X184277000Y-110617000D01*
X184277000Y-110637000D01*
X184023000Y-110637000D01*
X184023000Y-110617000D01*
X184003000Y-110617000D01*
X184003000Y-110363000D01*
X184023000Y-110363000D01*
X184023000Y-109220085D01*
X183800961Y-109098096D01*
X183412577Y-109258959D01*
X183005000Y-109628172D01*
X183005000Y-97790000D01*
X182947148Y-97499161D01*
X182782401Y-97252599D01*
X182147401Y-96617599D01*
X181900839Y-96452852D01*
X181610000Y-96395000D01*
X171129802Y-96395000D01*
X170940000Y-96205198D01*
X170940000Y-93989520D01*
X171269029Y-93769670D01*
X171450000Y-93498828D01*
X171630971Y-93769670D01*
X172117152Y-94094526D01*
X172690641Y-94208600D01*
X172749359Y-94208600D01*
X173322848Y-94094526D01*
X173809029Y-93769670D01*
X174009262Y-93470000D01*
X179070000Y-93470000D01*
X179360839Y-93412148D01*
X179607401Y-93247401D01*
X180174436Y-92680366D01*
X180245910Y-92791441D01*
X180458110Y-92936431D01*
X180710000Y-92987440D01*
X182510000Y-92987440D01*
X182745317Y-92943162D01*
X182961441Y-92804090D01*
X183106431Y-92591890D01*
X183110567Y-92571466D01*
X183279357Y-92740551D01*
X183843330Y-92974733D01*
X184453991Y-92975265D01*
X185014051Y-92743853D01*
X185295000Y-93024802D01*
X185295000Y-96840198D01*
X184010320Y-98124878D01*
X183964833Y-98124838D01*
X183621057Y-98266883D01*
X183357808Y-98529673D01*
X183215162Y-98873201D01*
X183214838Y-99245167D01*
X183356883Y-99588943D01*
X183619673Y-99852192D01*
X183963201Y-99994838D01*
X184045288Y-99994910D01*
X184010320Y-100029878D01*
X183964833Y-100029838D01*
X183621057Y-100171883D01*
X183357808Y-100434673D01*
X183215162Y-100778201D01*
X183214838Y-101150167D01*
X183356883Y-101493943D01*
X183619673Y-101757192D01*
X183963201Y-101899838D01*
X184335167Y-101900162D01*
X184678943Y-101758117D01*
X184942192Y-101495327D01*
X185084838Y-101151799D01*
X185084879Y-101104923D01*
X188497401Y-97692401D01*
X188662148Y-97445839D01*
X188720000Y-97155000D01*
X188720000Y-90170000D01*
X188662148Y-89879161D01*
X188497401Y-89632599D01*
X186679969Y-87815167D01*
X187024838Y-87815167D01*
X187166883Y-88158943D01*
X187429673Y-88422192D01*
X187773201Y-88564838D01*
X188145167Y-88565162D01*
X188488943Y-88423117D01*
X188522118Y-88390000D01*
X190820198Y-88390000D01*
X194820000Y-92389802D01*
X194820000Y-94935198D01*
X194676408Y-95078790D01*
X194310000Y-95005907D01*
X193741715Y-95118946D01*
X193259946Y-95440853D01*
X193232150Y-95482452D01*
X193223162Y-95434683D01*
X193084090Y-95218559D01*
X192871890Y-95073569D01*
X192620000Y-95022560D01*
X190920000Y-95022560D01*
X190684683Y-95066838D01*
X190468559Y-95205910D01*
X190323569Y-95418110D01*
X190272560Y-95670000D01*
X190272560Y-97370000D01*
X190316838Y-97605317D01*
X190455910Y-97821441D01*
X190668110Y-97966431D01*
X190920000Y-98017440D01*
X192620000Y-98017440D01*
X192855317Y-97973162D01*
X193071441Y-97834090D01*
X193216431Y-97621890D01*
X193230086Y-97554459D01*
X193259946Y-97599147D01*
X193741715Y-97921054D01*
X194310000Y-98034093D01*
X194878285Y-97921054D01*
X195360054Y-97599147D01*
X195580000Y-97269974D01*
X195799946Y-97599147D01*
X196281715Y-97921054D01*
X196850000Y-98034093D01*
X197418285Y-97921054D01*
X197900054Y-97599147D01*
X198127702Y-97258447D01*
X198194817Y-97401358D01*
X198623076Y-97791645D01*
X199033110Y-97961476D01*
X199263000Y-97840155D01*
X199263000Y-96647000D01*
X199517000Y-96647000D01*
X199517000Y-97840155D01*
X199746890Y-97961476D01*
X200156924Y-97791645D01*
X200585183Y-97401358D01*
X200831486Y-96876892D01*
X200710819Y-96647000D01*
X199517000Y-96647000D01*
X199263000Y-96647000D01*
X199243000Y-96647000D01*
X199243000Y-96393000D01*
X199263000Y-96393000D01*
X199263000Y-95199845D01*
X199517000Y-95199845D01*
X199517000Y-96393000D01*
X200710819Y-96393000D01*
X200831486Y-96163108D01*
X200585183Y-95638642D01*
X200156924Y-95248355D01*
X199746890Y-95078524D01*
X199517000Y-95199845D01*
X199263000Y-95199845D01*
X199033110Y-95078524D01*
X198623076Y-95248355D01*
X198194817Y-95638642D01*
X198127702Y-95781553D01*
X197900054Y-95440853D01*
X197418285Y-95118946D01*
X196850000Y-95005907D01*
X196483592Y-95078790D01*
X196340000Y-94935198D01*
X196340000Y-92075000D01*
X196282148Y-91784161D01*
X196282148Y-91784160D01*
X196117401Y-91537599D01*
X191672401Y-87092599D01*
X191425839Y-86927852D01*
X191135000Y-86870000D01*
X188522463Y-86870000D01*
X188490327Y-86837808D01*
X188146799Y-86695162D01*
X187774833Y-86694838D01*
X187431057Y-86836883D01*
X187167808Y-87099673D01*
X187025162Y-87443201D01*
X187024838Y-87815167D01*
X186679969Y-87815167D01*
X184687401Y-85822599D01*
X184653579Y-85800000D01*
X215190000Y-85800000D01*
X215190000Y-131852560D01*
G36*
X151310971Y-93769670D02*
X151797152Y-94094526D01*
X152370641Y-94208600D01*
X152429359Y-94208600D01*
X152758356Y-94143158D01*
X155450000Y-96834802D01*
X155450000Y-112715198D01*
X154625198Y-113540000D01*
X144780000Y-113540000D01*
X144537414Y-113588254D01*
X144489160Y-113597852D01*
X144242599Y-113762599D01*
X141925198Y-116080000D01*
X137160000Y-116080000D01*
X136869160Y-116137852D01*
X136622599Y-116302599D01*
X136213886Y-116711312D01*
X135890000Y-116646887D01*
X135340849Y-116756120D01*
X134875302Y-117067189D01*
X134620000Y-117449275D01*
X134364698Y-117067189D01*
X133899151Y-116756120D01*
X133350000Y-116646887D01*
X132800849Y-116756120D01*
X132335302Y-117067189D01*
X132238899Y-117211465D01*
X132213162Y-117074683D01*
X132074090Y-116858559D01*
X131861890Y-116713569D01*
X131610000Y-116662560D01*
X130010000Y-116662560D01*
X129774683Y-116706838D01*
X129558559Y-116845910D01*
X129413569Y-117058110D01*
X129362560Y-117310000D01*
X129362560Y-118910000D01*
X129406838Y-119145317D01*
X129545910Y-119361441D01*
X129758110Y-119506431D01*
X130010000Y-119557440D01*
X130050000Y-119557440D01*
X130050000Y-120085198D01*
X129030000Y-119065198D01*
X129030000Y-112767745D01*
X152841861Y-112767745D01*
X152915995Y-113013864D01*
X153453223Y-113206965D01*
X154023454Y-113179778D01*
X154424005Y-113013864D01*
X154498139Y-112767745D01*
X153670000Y-111939605D01*
X152841861Y-112767745D01*
X129030000Y-112767745D01*
X129030000Y-110839041D01*
X129418086Y-110839041D01*
X129657611Y-111345134D01*
X130072577Y-111721041D01*
X130460961Y-111881904D01*
X130683000Y-111759915D01*
X130683000Y-110617000D01*
X129539371Y-110617000D01*
X129418086Y-110839041D01*
X129030000Y-110839041D01*
X129030000Y-110140959D01*
X129418086Y-110140959D01*
X129539371Y-110363000D01*
X130683000Y-110363000D01*
X130683000Y-109220085D01*
X130937000Y-109220085D01*
X130937000Y-110363000D01*
X130957000Y-110363000D01*
X130957000Y-110617000D01*
X130937000Y-110617000D01*
X130937000Y-111759915D01*
X131159039Y-111881904D01*
X131547423Y-111721041D01*
X131962389Y-111345134D01*
X132065014Y-111128297D01*
X132335302Y-111532811D01*
X132800849Y-111843880D01*
X133350000Y-111953113D01*
X133899151Y-111843880D01*
X134364698Y-111532811D01*
X134620000Y-111150725D01*
X134875302Y-111532811D01*
X135340849Y-111843880D01*
X135890000Y-111953113D01*
X136439151Y-111843880D01*
X136904698Y-111532811D01*
X137160000Y-111150725D01*
X137415302Y-111532811D01*
X137880849Y-111843880D01*
X138430000Y-111953113D01*
X138979151Y-111843880D01*
X139444698Y-111532811D01*
X139700000Y-111150725D01*
X139955302Y-111532811D01*
X140420849Y-111843880D01*
X140970000Y-111953113D01*
X141519151Y-111843880D01*
X141984698Y-111532811D01*
X142240000Y-111150725D01*
X142495302Y-111532811D01*
X142960849Y-111843880D01*
X143510000Y-111953113D01*
X144059151Y-111843880D01*
X144524698Y-111532811D01*
X144780000Y-111150725D01*
X145035302Y-111532811D01*
X145500849Y-111843880D01*
X146050000Y-111953113D01*
X146599151Y-111843880D01*
X147049115Y-111543223D01*
X152223035Y-111543223D01*
X152250222Y-112113454D01*
X152416136Y-112514005D01*
X152662255Y-112588139D01*
X153490395Y-111760000D01*
X153849605Y-111760000D01*
X154677745Y-112588139D01*
X154923864Y-112514005D01*
X155116965Y-111976777D01*
X155089778Y-111406546D01*
X154923864Y-111005995D01*
X154677745Y-110931861D01*
X153849605Y-111760000D01*
X153490395Y-111760000D01*
X152662255Y-110931861D01*
X152416136Y-111005995D01*
X152223035Y-111543223D01*
X147049115Y-111543223D01*
X147064698Y-111532811D01*
X147375767Y-111067264D01*
X147438426Y-110752255D01*
X152841861Y-110752255D01*
X153670000Y-111580395D01*
X154498139Y-110752255D01*
X154424005Y-110506136D01*
X153886777Y-110313035D01*
X153316546Y-110340222D01*
X152915995Y-110506136D01*
X152841861Y-110752255D01*
X147438426Y-110752255D01*
X147485000Y-110518113D01*
X147485000Y-110461887D01*
X147375767Y-109912736D01*
X147064698Y-109447189D01*
X146599151Y-109136120D01*
X146050000Y-109026887D01*
X145500849Y-109136120D01*
X145035302Y-109447189D01*
X144780000Y-109829275D01*
X144524698Y-109447189D01*
X144059151Y-109136120D01*
X143510000Y-109026887D01*
X142960849Y-109136120D01*
X142495302Y-109447189D01*
X142240000Y-109829275D01*
X141984698Y-109447189D01*
X141519151Y-109136120D01*
X140970000Y-109026887D01*
X140420849Y-109136120D01*
X139955302Y-109447189D01*
X139700000Y-109829275D01*
X139444698Y-109447189D01*
X138979151Y-109136120D01*
X138430000Y-109026887D01*
X137880849Y-109136120D01*
X137415302Y-109447189D01*
X137160000Y-109829275D01*
X136904698Y-109447189D01*
X136439151Y-109136120D01*
X135890000Y-109026887D01*
X135340849Y-109136120D01*
X134875302Y-109447189D01*
X134620000Y-109829275D01*
X134364698Y-109447189D01*
X133899151Y-109136120D01*
X133350000Y-109026887D01*
X132800849Y-109136120D01*
X132335302Y-109447189D01*
X132065014Y-109851703D01*
X131962389Y-109634866D01*
X131547423Y-109258959D01*
X131159039Y-109098096D01*
X130937000Y-109220085D01*
X130683000Y-109220085D01*
X130460961Y-109098096D01*
X130072577Y-109258959D01*
X129657611Y-109634866D01*
X129418086Y-110140959D01*
X129030000Y-110140959D01*
X129030000Y-108264802D01*
X131124802Y-106170000D01*
X135890000Y-106170000D01*
X136180839Y-106112148D01*
X136427401Y-105947401D01*
X137697401Y-104677401D01*
X137862148Y-104430840D01*
X137920000Y-104140000D01*
X137920000Y-93989520D01*
X138249029Y-93769670D01*
X138430000Y-93498828D01*
X138610971Y-93769670D01*
X139097152Y-94094526D01*
X139670641Y-94208600D01*
X139729359Y-94208600D01*
X140302848Y-94094526D01*
X140789029Y-93769670D01*
X140970000Y-93498828D01*
X141150971Y-93769670D01*
X141637152Y-94094526D01*
X142210641Y-94208600D01*
X142269359Y-94208600D01*
X142842848Y-94094526D01*
X143329029Y-93769670D01*
X143510000Y-93498828D01*
X143690971Y-93769670D01*
X144177152Y-94094526D01*
X144750641Y-94208600D01*
X144809359Y-94208600D01*
X145382848Y-94094526D01*
X145869029Y-93769670D01*
X146050000Y-93498828D01*
X146230971Y-93769670D01*
X146717152Y-94094526D01*
X147290641Y-94208600D01*
X147349359Y-94208600D01*
X147922848Y-94094526D01*
X148409029Y-93769670D01*
X148590000Y-93498828D01*
X148770971Y-93769670D01*
X149257152Y-94094526D01*
X149830641Y-94208600D01*
X149889359Y-94208600D01*
X150462848Y-94094526D01*
X150949029Y-93769670D01*
X151130000Y-93498828D01*
X151310971Y-93769670D01*
X151310971Y-93769670D01*
G37*
X151310971Y-93769670D02*
X151797152Y-94094526D01*
X152370641Y-94208600D01*
X152429359Y-94208600D01*
X152758356Y-94143158D01*
X155450000Y-96834802D01*
X155450000Y-112715198D01*
X154625198Y-113540000D01*
X144780000Y-113540000D01*
X144537414Y-113588254D01*
X144489160Y-113597852D01*
X144242599Y-113762599D01*
X141925198Y-116080000D01*
X137160000Y-116080000D01*
X136869160Y-116137852D01*
X136622599Y-116302599D01*
X136213886Y-116711312D01*
X135890000Y-116646887D01*
X135340849Y-116756120D01*
X134875302Y-117067189D01*
X134620000Y-117449275D01*
X134364698Y-117067189D01*
X133899151Y-116756120D01*
X133350000Y-116646887D01*
X132800849Y-116756120D01*
X132335302Y-117067189D01*
X132238899Y-117211465D01*
X132213162Y-117074683D01*
X132074090Y-116858559D01*
X131861890Y-116713569D01*
X131610000Y-116662560D01*
X130010000Y-116662560D01*
X129774683Y-116706838D01*
X129558559Y-116845910D01*
X129413569Y-117058110D01*
X129362560Y-117310000D01*
X129362560Y-118910000D01*
X129406838Y-119145317D01*
X129545910Y-119361441D01*
X129758110Y-119506431D01*
X130010000Y-119557440D01*
X130050000Y-119557440D01*
X130050000Y-120085198D01*
X129030000Y-119065198D01*
X129030000Y-112767745D01*
X152841861Y-112767745D01*
X152915995Y-113013864D01*
X153453223Y-113206965D01*
X154023454Y-113179778D01*
X154424005Y-113013864D01*
X154498139Y-112767745D01*
X153670000Y-111939605D01*
X152841861Y-112767745D01*
X129030000Y-112767745D01*
X129030000Y-110839041D01*
X129418086Y-110839041D01*
X129657611Y-111345134D01*
X130072577Y-111721041D01*
X130460961Y-111881904D01*
X130683000Y-111759915D01*
X130683000Y-110617000D01*
X129539371Y-110617000D01*
X129418086Y-110839041D01*
X129030000Y-110839041D01*
X129030000Y-110140959D01*
X129418086Y-110140959D01*
X129539371Y-110363000D01*
X130683000Y-110363000D01*
X130683000Y-109220085D01*
X130937000Y-109220085D01*
X130937000Y-110363000D01*
X130957000Y-110363000D01*
X130957000Y-110617000D01*
X130937000Y-110617000D01*
X130937000Y-111759915D01*
X131159039Y-111881904D01*
X131547423Y-111721041D01*
X131962389Y-111345134D01*
X132065014Y-111128297D01*
X132335302Y-111532811D01*
X132800849Y-111843880D01*
X133350000Y-111953113D01*
X133899151Y-111843880D01*
X134364698Y-111532811D01*
X134620000Y-111150725D01*
X134875302Y-111532811D01*
X135340849Y-111843880D01*
X135890000Y-111953113D01*
X136439151Y-111843880D01*
X136904698Y-111532811D01*
X137160000Y-111150725D01*
X137415302Y-111532811D01*
X137880849Y-111843880D01*
X138430000Y-111953113D01*
X138979151Y-111843880D01*
X139444698Y-111532811D01*
X139700000Y-111150725D01*
X139955302Y-111532811D01*
X140420849Y-111843880D01*
X140970000Y-111953113D01*
X141519151Y-111843880D01*
X141984698Y-111532811D01*
X142240000Y-111150725D01*
X142495302Y-111532811D01*
X142960849Y-111843880D01*
X143510000Y-111953113D01*
X144059151Y-111843880D01*
X144524698Y-111532811D01*
X144780000Y-111150725D01*
X145035302Y-111532811D01*
X145500849Y-111843880D01*
X146050000Y-111953113D01*
X146599151Y-111843880D01*
X147049115Y-111543223D01*
X152223035Y-111543223D01*
X152250222Y-112113454D01*
X152416136Y-112514005D01*
X152662255Y-112588139D01*
X153490395Y-111760000D01*
X153849605Y-111760000D01*
X154677745Y-112588139D01*
X154923864Y-112514005D01*
X155116965Y-111976777D01*
X155089778Y-111406546D01*
X154923864Y-111005995D01*
X154677745Y-110931861D01*
X153849605Y-111760000D01*
X153490395Y-111760000D01*
X152662255Y-110931861D01*
X152416136Y-111005995D01*
X152223035Y-111543223D01*
X147049115Y-111543223D01*
X147064698Y-111532811D01*
X147375767Y-111067264D01*
X147438426Y-110752255D01*
X152841861Y-110752255D01*
X153670000Y-111580395D01*
X154498139Y-110752255D01*
X154424005Y-110506136D01*
X153886777Y-110313035D01*
X153316546Y-110340222D01*
X152915995Y-110506136D01*
X152841861Y-110752255D01*
X147438426Y-110752255D01*
X147485000Y-110518113D01*
X147485000Y-110461887D01*
X147375767Y-109912736D01*
X147064698Y-109447189D01*
X146599151Y-109136120D01*
X146050000Y-109026887D01*
X145500849Y-109136120D01*
X145035302Y-109447189D01*
X144780000Y-109829275D01*
X144524698Y-109447189D01*
X144059151Y-109136120D01*
X143510000Y-109026887D01*
X142960849Y-109136120D01*
X142495302Y-109447189D01*
X142240000Y-109829275D01*
X141984698Y-109447189D01*
X141519151Y-109136120D01*
X140970000Y-109026887D01*
X140420849Y-109136120D01*
X139955302Y-109447189D01*
X139700000Y-109829275D01*
X139444698Y-109447189D01*
X138979151Y-109136120D01*
X138430000Y-109026887D01*
X137880849Y-109136120D01*
X137415302Y-109447189D01*
X137160000Y-109829275D01*
X136904698Y-109447189D01*
X136439151Y-109136120D01*
X135890000Y-109026887D01*
X135340849Y-109136120D01*
X134875302Y-109447189D01*
X134620000Y-109829275D01*
X134364698Y-109447189D01*
X133899151Y-109136120D01*
X133350000Y-109026887D01*
X132800849Y-109136120D01*
X132335302Y-109447189D01*
X132065014Y-109851703D01*
X131962389Y-109634866D01*
X131547423Y-109258959D01*
X131159039Y-109098096D01*
X130937000Y-109220085D01*
X130683000Y-109220085D01*
X130460961Y-109098096D01*
X130072577Y-109258959D01*
X129657611Y-109634866D01*
X129418086Y-110140959D01*
X129030000Y-110140959D01*
X129030000Y-108264802D01*
X131124802Y-106170000D01*
X135890000Y-106170000D01*
X136180839Y-106112148D01*
X136427401Y-105947401D01*
X137697401Y-104677401D01*
X137862148Y-104430840D01*
X137920000Y-104140000D01*
X137920000Y-93989520D01*
X138249029Y-93769670D01*
X138430000Y-93498828D01*
X138610971Y-93769670D01*
X139097152Y-94094526D01*
X139670641Y-94208600D01*
X139729359Y-94208600D01*
X140302848Y-94094526D01*
X140789029Y-93769670D01*
X140970000Y-93498828D01*
X141150971Y-93769670D01*
X141637152Y-94094526D01*
X142210641Y-94208600D01*
X142269359Y-94208600D01*
X142842848Y-94094526D01*
X143329029Y-93769670D01*
X143510000Y-93498828D01*
X143690971Y-93769670D01*
X144177152Y-94094526D01*
X144750641Y-94208600D01*
X144809359Y-94208600D01*
X145382848Y-94094526D01*
X145869029Y-93769670D01*
X146050000Y-93498828D01*
X146230971Y-93769670D01*
X146717152Y-94094526D01*
X147290641Y-94208600D01*
X147349359Y-94208600D01*
X147922848Y-94094526D01*
X148409029Y-93769670D01*
X148590000Y-93498828D01*
X148770971Y-93769670D01*
X149257152Y-94094526D01*
X149830641Y-94208600D01*
X149889359Y-94208600D01*
X150462848Y-94094526D01*
X150949029Y-93769670D01*
X151130000Y-93498828D01*
X151310971Y-93769670D01*
M02*
