M48
;DRILL file {KiCad 4.0.6} date 05/15/17 21:19:39
;FORMAT={2:4/ absolute / inch / suppress leading zeros}
FMAT,2
INCH,TZ
T1C0.016
T2C0.031
T3C0.035
T4C0.039
T5C0.040
%
G90
G05
M72
T1
X47500Y-35000
X47500Y-41000
X51000Y-50500
X52000Y-42500
X55000Y-47500
X56000Y-48500
X58500Y-49000
X59000Y-49000
X59500Y-49000
X60000Y-47500
X60000Y-51000
X60500Y-48500
X64500Y-50500
X66000Y-38500
X69500Y-44000
X71000Y-39000
X71000Y-40000
X72250Y-34500
X72500Y-39000
X72500Y-39750
X74000Y-34500
T2
X51500Y-43500
X51500Y-46500
X52500Y-43500
X52500Y-46500
X53500Y-43500
X53500Y-46500
X54500Y-43500
X54500Y-46500
X55500Y-43500
X55500Y-46500
X56500Y-43500
X56500Y-46500
X57500Y-43500
X57500Y-46500
X60500Y-44000
X60500Y-45969
X63500Y-41250
X63500Y-43000
X63500Y-44750
X63500Y-46500
X67500Y-41250
X67500Y-43000
X67500Y-44750
X67500Y-46500
X72500Y-43500
X72500Y-46500
X73500Y-43500
X73500Y-46500
X74500Y-43500
X74500Y-46500
X75500Y-43500
X75500Y-46500
X76500Y-43500
X76500Y-46500
X77500Y-43500
X77500Y-46500
X78500Y-43500
X78500Y-46500
X79500Y-43500
X79500Y-46500
X82500Y-44000
X82500Y-45969
T3
X71500Y-36000
X72500Y-36000
T4
X46500Y-52500
X47500Y-52500
X48500Y-52500
X49500Y-52500
X50500Y-52500
X51500Y-52500
X52500Y-52500
X53500Y-52500
X54500Y-52500
X55500Y-52500
X56500Y-52500
X57500Y-52500
X58500Y-52500
X59500Y-52500
X60500Y-52500
X61500Y-52500
X62500Y-52500
X63500Y-52500
X64500Y-52500
X65500Y-52500
X66500Y-52500
X67500Y-52500
X68500Y-52500
X69500Y-52500
X70500Y-52500
X71500Y-52500
X72500Y-52500
X73500Y-52500
X74500Y-52500
X75500Y-38000
X75500Y-52500
X76500Y-38000
X76500Y-52500
X77500Y-38000
X77500Y-52500
X78500Y-38000
X78500Y-52500
X79500Y-52500
X80500Y-52500
X81500Y-52500
X82500Y-52500
X83500Y-52500
X84500Y-52500
T5
X49000Y-35500
X49000Y-36500
X50000Y-35500
X50000Y-36500
X51000Y-35500
X51000Y-36500
X52000Y-35500
X52000Y-36500
X53000Y-35500
X53000Y-36500
X54000Y-35500
X54000Y-36500
X55000Y-35500
X55000Y-36500
X56000Y-35500
X56000Y-36500
X57000Y-35500
X57000Y-36500
X58000Y-35500
X58000Y-36500
X59000Y-35500
X59000Y-36500
X60000Y-35500
X60000Y-36500
X61000Y-35500
X61000Y-36500
X62000Y-35500
X62000Y-36500
X63000Y-35500
X63000Y-36500
X64000Y-35500
X64000Y-36500
X65000Y-35500
X65000Y-36500
X66000Y-35500
X66000Y-36500
X67000Y-35500
X67000Y-36500
X68000Y-35500
X68000Y-36500
T0
M30
