G04 #@! TF.FileFunction,Soldermask,Top*
%FSLAX46Y46*%
G04 Gerber Fmt 4.6, Leading zero omitted, Abs format (unit mm)*
G04 Created by KiCad (PCBNEW 4.0.6) date 05/15/17 21:17:45*
%MOMM*%
%LPD*%
G01*
G04 APERTURE LIST*
%ADD10C,0.100000*%
%ADD11C,2.000000*%
%ADD12R,2.127200X2.127200*%
%ADD13O,2.127200X2.127200*%
%ADD14R,2.100000X2.100000*%
%ADD15O,2.100000X2.100000*%
%ADD16O,2.000000X2.000000*%
%ADD17R,2.000000X2.000000*%
%ADD18R,2.200000X2.200000*%
%ADD19C,2.200000*%
G04 APERTURE END LIST*
D10*
D11*
X209550000Y-111760000D03*
X209550000Y-116760000D03*
D12*
X124460000Y-92710000D03*
D13*
X124460000Y-90170000D03*
X127000000Y-92710000D03*
X127000000Y-90170000D03*
X129540000Y-92710000D03*
X129540000Y-90170000D03*
X132080000Y-92710000D03*
X132080000Y-90170000D03*
X134620000Y-92710000D03*
X134620000Y-90170000D03*
X137160000Y-92710000D03*
X137160000Y-90170000D03*
X139700000Y-92710000D03*
X139700000Y-90170000D03*
X142240000Y-92710000D03*
X142240000Y-90170000D03*
X144780000Y-92710000D03*
X144780000Y-90170000D03*
X147320000Y-92710000D03*
X147320000Y-90170000D03*
X149860000Y-92710000D03*
X149860000Y-90170000D03*
X152400000Y-92710000D03*
X152400000Y-90170000D03*
X154940000Y-92710000D03*
X154940000Y-90170000D03*
X157480000Y-92710000D03*
X157480000Y-90170000D03*
X160020000Y-92710000D03*
X160020000Y-90170000D03*
X162560000Y-92710000D03*
X162560000Y-90170000D03*
X165100000Y-92710000D03*
X165100000Y-90170000D03*
X167640000Y-92710000D03*
X167640000Y-90170000D03*
X170180000Y-92710000D03*
X170180000Y-90170000D03*
X172720000Y-92710000D03*
X172720000Y-90170000D03*
D14*
X191770000Y-96520000D03*
D15*
X194310000Y-96520000D03*
X196850000Y-96520000D03*
X199390000Y-96520000D03*
D14*
X214630000Y-133350000D03*
D15*
X212090000Y-133350000D03*
X209550000Y-133350000D03*
X207010000Y-133350000D03*
X204470000Y-133350000D03*
X201930000Y-133350000D03*
X199390000Y-133350000D03*
X196850000Y-133350000D03*
X194310000Y-133350000D03*
X191770000Y-133350000D03*
X189230000Y-133350000D03*
X186690000Y-133350000D03*
X184150000Y-133350000D03*
X181610000Y-133350000D03*
X179070000Y-133350000D03*
X176530000Y-133350000D03*
X173990000Y-133350000D03*
X171450000Y-133350000D03*
X168910000Y-133350000D03*
X166370000Y-133350000D03*
X163830000Y-133350000D03*
X161290000Y-133350000D03*
X158750000Y-133350000D03*
X156210000Y-133350000D03*
X153670000Y-133350000D03*
X151130000Y-133350000D03*
X148590000Y-133350000D03*
X146050000Y-133350000D03*
X143510000Y-133350000D03*
X140970000Y-133350000D03*
X138430000Y-133350000D03*
X135890000Y-133350000D03*
X133350000Y-133350000D03*
X130810000Y-133350000D03*
X128270000Y-133350000D03*
X125730000Y-133350000D03*
X123190000Y-133350000D03*
X120650000Y-133350000D03*
X118110000Y-133350000D03*
D11*
X171450000Y-104775000D03*
D16*
X161290000Y-104775000D03*
D11*
X161290000Y-109220000D03*
D16*
X171450000Y-109220000D03*
D11*
X161290000Y-113665000D03*
D16*
X171450000Y-113665000D03*
D11*
X161290000Y-118110000D03*
D16*
X171450000Y-118110000D03*
D17*
X184150000Y-118110000D03*
D16*
X201930000Y-110490000D03*
X186690000Y-118110000D03*
X199390000Y-110490000D03*
X189230000Y-118110000D03*
X196850000Y-110490000D03*
X191770000Y-118110000D03*
X194310000Y-110490000D03*
X194310000Y-118110000D03*
X191770000Y-110490000D03*
X196850000Y-118110000D03*
X189230000Y-110490000D03*
X199390000Y-118110000D03*
X186690000Y-110490000D03*
X201930000Y-118110000D03*
X184150000Y-110490000D03*
D18*
X181610000Y-91440000D03*
D19*
X184150000Y-91440000D03*
D11*
X153670000Y-111760000D03*
X153670000Y-116760000D03*
D17*
X130810000Y-118110000D03*
D16*
X146050000Y-110490000D03*
X133350000Y-118110000D03*
X143510000Y-110490000D03*
X135890000Y-118110000D03*
X140970000Y-110490000D03*
X138430000Y-118110000D03*
X138430000Y-110490000D03*
X140970000Y-118110000D03*
X135890000Y-110490000D03*
X143510000Y-118110000D03*
X133350000Y-110490000D03*
X146050000Y-118110000D03*
X130810000Y-110490000D03*
M02*
