M48
;DRILL file {KiCad 4.0.6} date 06/13/17 15:03:21
;FORMAT={2:4/ absolute / inch / suppress leading zeros}
FMAT,2
INCH,TZ
T1C0.016
T2C0.031
T3C0.039
%
G90
G05
M72
T1
X41000Y-56000
X42000Y-55500
X43000Y-42000
X43000Y-47750
X43000Y-55000
X44500Y-54500
X46000Y-54000
X46500Y-45500
X47500Y-41500
X47500Y-53500
X48500Y-53500
X49500Y-53500
X55000Y-49000
X55000Y-56500
X57250Y-57500
X62000Y-44500
X66500Y-41000
X67000Y-55000
X67000Y-56000
X69000Y-41500
X70500Y-43000
X72000Y-44000
X73000Y-45500
T2
X37500Y-43500
X37500Y-46500
X38500Y-43500
X38500Y-46500
X38500Y-48500
X39500Y-43500
X39500Y-46500
X40469Y-48500
X40500Y-43500
X40500Y-46500
X41500Y-43500
X41500Y-46500
X42500Y-43500
X42500Y-46500
X43500Y-43500
X43500Y-46500
X45500Y-43250
X45500Y-47250
X47500Y-43500
X47500Y-46500
X47500Y-48500
X48500Y-43500
X48500Y-46500
X49469Y-48500
X49500Y-43500
X49500Y-46500
X50500Y-43500
X50500Y-46500
X51500Y-43500
X51500Y-46500
X52500Y-43500
X52500Y-46500
X53500Y-43500
X53500Y-46500
X57500Y-46500
X57500Y-52500
X58500Y-46500
X58500Y-52500
X59500Y-46500
X59500Y-52500
X60500Y-46500
X60500Y-52500
X61500Y-46500
X61500Y-52500
X62500Y-46500
X62500Y-52500
X63500Y-46500
X63500Y-52500
X63531Y-45000
X64500Y-46500
X64500Y-52500
X65500Y-45000
X65500Y-46500
X65500Y-52500
X66500Y-46500
X66500Y-52500
X67500Y-46500
X67500Y-52500
X68500Y-46500
X68500Y-52500
X69500Y-46500
X69500Y-52500
X70500Y-46500
X70500Y-52500
T3
X35500Y-58500
X36500Y-58500
X37500Y-58500
X38500Y-58500
X39500Y-58500
X40500Y-58500
X41500Y-58500
X42500Y-58500
X43500Y-58500
X44500Y-58500
X45500Y-58500
X46500Y-58500
X47500Y-58500
X48500Y-58500
X49500Y-58500
X50500Y-58500
X51500Y-58500
X52500Y-58500
X53500Y-58500
X54500Y-58500
X55500Y-58500
X56500Y-58500
X57500Y-58500
X58500Y-58500
X59500Y-58500
X60500Y-58500
X61500Y-58500
X62500Y-58500
X63500Y-58500
X64500Y-40000
X64500Y-58500
X65500Y-40000
X65500Y-58500
X66500Y-58500
X67500Y-40000
X67500Y-58500
X68500Y-40000
X68500Y-58500
X69500Y-58500
X70500Y-58500
X71000Y-40000
X71500Y-58500
X72000Y-40000
X72500Y-58500
X73000Y-40000
X73500Y-58500
T0
M30
