G04 #@! TF.FileFunction,Copper,L1,Top,Signal*
%FSLAX46Y46*%
G04 Gerber Fmt 4.6, Leading zero omitted, Abs format (unit mm)*
G04 Created by KiCad (PCBNEW 4.0.6) date 06/13/17 15:03:04*
%MOMM*%
%LPD*%
G01*
G04 APERTURE LIST*
%ADD10C,0.100000*%
%ADD11R,1.700000X1.700000*%
%ADD12O,1.700000X1.700000*%
%ADD13C,1.600000*%
%ADD14O,1.600000X1.600000*%
%ADD15R,1.600000X1.600000*%
%ADD16C,0.600000*%
%ADD17C,0.250000*%
G04 APERTURE END LIST*
D10*
D11*
X171450000Y-101600000D03*
D12*
X173990000Y-101600000D03*
D11*
X180340000Y-101600000D03*
D12*
X182880000Y-101600000D03*
X185420000Y-101600000D03*
D13*
X115570000Y-120015000D03*
D14*
X115570000Y-109855000D03*
D15*
X179070000Y-118110000D03*
D14*
X146050000Y-133350000D03*
X176530000Y-118110000D03*
X148590000Y-133350000D03*
X173990000Y-118110000D03*
X151130000Y-133350000D03*
X171450000Y-118110000D03*
X153670000Y-133350000D03*
X168910000Y-118110000D03*
X156210000Y-133350000D03*
X166370000Y-118110000D03*
X158750000Y-133350000D03*
X163830000Y-118110000D03*
X161290000Y-133350000D03*
X161290000Y-118110000D03*
X163830000Y-133350000D03*
X158750000Y-118110000D03*
X166370000Y-133350000D03*
X156210000Y-118110000D03*
X168910000Y-133350000D03*
X153670000Y-118110000D03*
X171450000Y-133350000D03*
X151130000Y-118110000D03*
X173990000Y-133350000D03*
X148590000Y-118110000D03*
X176530000Y-133350000D03*
X146050000Y-118110000D03*
X179070000Y-133350000D03*
D15*
X120650000Y-118110000D03*
D14*
X135890000Y-110490000D03*
X123190000Y-118110000D03*
X133350000Y-110490000D03*
X125730000Y-118110000D03*
X130810000Y-110490000D03*
X128270000Y-118110000D03*
X128270000Y-110490000D03*
X130810000Y-118110000D03*
X125730000Y-110490000D03*
X133350000Y-118110000D03*
X123190000Y-110490000D03*
X135890000Y-118110000D03*
X120650000Y-110490000D03*
D15*
X95250000Y-118110000D03*
D14*
X110490000Y-110490000D03*
X97790000Y-118110000D03*
X107950000Y-110490000D03*
X100330000Y-118110000D03*
X105410000Y-110490000D03*
X102870000Y-118110000D03*
X102870000Y-110490000D03*
X105410000Y-118110000D03*
X100330000Y-110490000D03*
X107950000Y-118110000D03*
X97790000Y-110490000D03*
X110490000Y-118110000D03*
X95250000Y-110490000D03*
D11*
X186690000Y-148590000D03*
D12*
X184150000Y-148590000D03*
X181610000Y-148590000D03*
X179070000Y-148590000D03*
X176530000Y-148590000D03*
X173990000Y-148590000D03*
X171450000Y-148590000D03*
X168910000Y-148590000D03*
X166370000Y-148590000D03*
X163830000Y-148590000D03*
X161290000Y-148590000D03*
X158750000Y-148590000D03*
X156210000Y-148590000D03*
X153670000Y-148590000D03*
X151130000Y-148590000D03*
X148590000Y-148590000D03*
X146050000Y-148590000D03*
X143510000Y-148590000D03*
X140970000Y-148590000D03*
X138430000Y-148590000D03*
X135890000Y-148590000D03*
X133350000Y-148590000D03*
X130810000Y-148590000D03*
X128270000Y-148590000D03*
X125730000Y-148590000D03*
X123190000Y-148590000D03*
X120650000Y-148590000D03*
X118110000Y-148590000D03*
X115570000Y-148590000D03*
X113030000Y-148590000D03*
X110490000Y-148590000D03*
X107950000Y-148590000D03*
X105410000Y-148590000D03*
X102870000Y-148590000D03*
X100330000Y-148590000D03*
X97790000Y-148590000D03*
X95250000Y-148590000D03*
X92710000Y-148590000D03*
X90170000Y-148590000D03*
D11*
X163830000Y-101600000D03*
D12*
X166370000Y-101600000D03*
D13*
X166370000Y-114300000D03*
X161370000Y-114300000D03*
X97790000Y-123190000D03*
X102790000Y-123190000D03*
X120650000Y-123190000D03*
X125650000Y-123190000D03*
D16*
X139700000Y-143510000D03*
X109220000Y-121285000D03*
X118110000Y-115570000D03*
X157480000Y-113030000D03*
X185420000Y-115570000D03*
X175260000Y-105410000D03*
X120650000Y-105410000D03*
X109220000Y-106680000D03*
X168910000Y-104140000D03*
X170180000Y-139700000D03*
X170180000Y-142240000D03*
X145415000Y-146050000D03*
X139700000Y-124460000D03*
X125730000Y-135890000D03*
X123190000Y-135890000D03*
X120650000Y-135890000D03*
X116840000Y-137160000D03*
X113030000Y-138430000D03*
X109220000Y-139700000D03*
X106680000Y-140970000D03*
X104140000Y-142240000D03*
X179070000Y-109220000D03*
X182880000Y-111760000D03*
D17*
X95250000Y-118110000D02*
X95250000Y-116840000D01*
X99060000Y-113030000D02*
X107950000Y-113030000D01*
X95250000Y-116840000D02*
X99060000Y-113030000D01*
X107950000Y-118110000D02*
X107950000Y-113030000D01*
X107950000Y-113030000D02*
X107950000Y-110490000D01*
X109220000Y-121285000D02*
X107315000Y-123190000D01*
X107315000Y-127000000D02*
X107315000Y-123190000D01*
X102870000Y-131445000D02*
X107315000Y-127000000D01*
X102870000Y-142875000D02*
X102870000Y-131445000D01*
X103505000Y-143510000D02*
X102870000Y-142875000D01*
X103505000Y-143510000D02*
X139700000Y-143510000D01*
X120650000Y-113030000D02*
X120650000Y-110490000D01*
X118110000Y-115570000D02*
X120650000Y-113030000D01*
X166370000Y-113030000D02*
X166370000Y-114300000D01*
X157480000Y-113030000D02*
X158750000Y-111760000D01*
X158750000Y-111760000D02*
X165100000Y-111760000D01*
X165100000Y-111760000D02*
X166370000Y-113030000D01*
X185420000Y-120650000D02*
X185420000Y-115570000D01*
X185420000Y-115570000D02*
X185420000Y-110490000D01*
X181610000Y-106680000D02*
X180340000Y-105410000D01*
X180340000Y-105410000D02*
X175260000Y-105410000D01*
X184150000Y-109220000D02*
X181610000Y-106680000D01*
X184150000Y-109220000D02*
X185420000Y-110490000D01*
X120650000Y-110490000D02*
X120650000Y-105410000D01*
X179070000Y-127000000D02*
X185420000Y-120650000D01*
X179070000Y-127000000D02*
X179070000Y-133350000D01*
X109220000Y-106680000D02*
X105410000Y-110490000D01*
X186690000Y-120650000D02*
X186690000Y-110490000D01*
X182880000Y-101600000D02*
X182880000Y-104140000D01*
X186690000Y-120650000D02*
X186690000Y-148590000D01*
X186690000Y-110490000D02*
X182880000Y-106680000D01*
X182880000Y-104140000D02*
X182880000Y-106680000D01*
X166370000Y-104140000D02*
X168910000Y-104140000D01*
X163830000Y-101600000D02*
X166370000Y-104140000D01*
X91440000Y-119380000D02*
X92710000Y-120650000D01*
X163830000Y-101600000D02*
X96520000Y-101600000D01*
X96520000Y-101600000D02*
X91440000Y-106680000D01*
X91440000Y-119380000D02*
X91440000Y-106680000D01*
X100965000Y-120650000D02*
X102870000Y-118745000D01*
X92710000Y-120650000D02*
X100965000Y-120650000D01*
X102870000Y-118745000D02*
X102870000Y-118110000D01*
X105410000Y-118110000D02*
X102870000Y-118110000D01*
X181610000Y-148590000D02*
X181610000Y-147320000D01*
X181610000Y-140970000D02*
X173990000Y-133350000D01*
X181610000Y-147320000D02*
X181610000Y-140970000D01*
X170180000Y-139700000D02*
X166370000Y-135890000D01*
X166370000Y-133350000D02*
X166370000Y-135890000D01*
X161290000Y-133350000D02*
X170180000Y-142240000D01*
X171450000Y-148590000D02*
X171450000Y-147320000D01*
X171450000Y-135890000D02*
X168910000Y-133350000D01*
X171450000Y-142240000D02*
X171450000Y-135890000D01*
X171450000Y-147320000D02*
X171450000Y-142240000D01*
X101600000Y-142875000D02*
X101600000Y-130810000D01*
X145415000Y-146050000D02*
X140335000Y-146050000D01*
X140335000Y-146050000D02*
X139065000Y-144780000D01*
X139065000Y-144780000D02*
X103505000Y-144780000D01*
X103505000Y-144780000D02*
X101600000Y-142875000D01*
X105410000Y-127000000D02*
X105410000Y-123190000D01*
X101600000Y-130810000D02*
X105410000Y-127000000D01*
X118110000Y-120650000D02*
X118110000Y-125730000D01*
X127000000Y-127000000D02*
X129540000Y-124460000D01*
X119380000Y-127000000D02*
X127000000Y-127000000D01*
X118110000Y-125730000D02*
X119380000Y-127000000D01*
X125650000Y-123190000D02*
X130810000Y-123190000D01*
X130810000Y-123190000D02*
X135890000Y-118110000D01*
X102790000Y-123190000D02*
X105410000Y-123190000D01*
X105410000Y-123190000D02*
X110490000Y-118110000D01*
X118110000Y-116840000D02*
X118110000Y-120650000D01*
X110490000Y-118110000D02*
X111760000Y-116840000D01*
X111760000Y-116840000D02*
X118110000Y-116840000D01*
X121920000Y-113030000D02*
X123190000Y-111760000D01*
X123190000Y-111760000D02*
X123190000Y-110490000D01*
X129540000Y-124460000D02*
X139700000Y-124460000D01*
X121920000Y-113030000D02*
X125730000Y-113030000D01*
X118110000Y-116840000D02*
X121920000Y-113030000D01*
X125730000Y-113030000D02*
X125730000Y-110490000D01*
X146050000Y-118110000D02*
X135890000Y-118110000D01*
X120650000Y-118110000D02*
X120650000Y-116840000D01*
X128270000Y-115570000D02*
X130810000Y-118110000D01*
X121920000Y-115570000D02*
X128270000Y-115570000D01*
X120650000Y-116840000D02*
X121920000Y-115570000D01*
X125730000Y-135890000D02*
X133350000Y-128270000D01*
X133350000Y-128270000D02*
X143510000Y-128270000D01*
X143510000Y-128270000D02*
X153670000Y-118110000D01*
X123190000Y-135890000D02*
X132080000Y-127000000D01*
X132080000Y-127000000D02*
X142240000Y-127000000D01*
X142240000Y-127000000D02*
X151130000Y-118110000D01*
X120650000Y-135890000D02*
X130810000Y-125730000D01*
X130810000Y-125730000D02*
X140970000Y-125730000D01*
X140970000Y-125730000D02*
X148590000Y-118110000D01*
X142240000Y-137160000D02*
X146050000Y-133350000D01*
X142240000Y-137160000D02*
X132080000Y-137160000D01*
X116840000Y-137160000D02*
X132080000Y-137160000D01*
X143510000Y-138430000D02*
X148590000Y-133350000D01*
X143510000Y-138430000D02*
X132080000Y-138430000D01*
X113030000Y-138430000D02*
X132080000Y-138430000D01*
X144780000Y-139700000D02*
X132080000Y-139700000D01*
X144780000Y-139700000D02*
X151130000Y-133350000D01*
X109220000Y-139700000D02*
X132080000Y-139700000D01*
X149860000Y-137160000D02*
X146050000Y-140970000D01*
X146050000Y-140970000D02*
X132080000Y-140970000D01*
X149860000Y-137160000D02*
X153670000Y-133350000D01*
X106680000Y-140970000D02*
X132080000Y-140970000D01*
X147320000Y-142240000D02*
X132080000Y-142240000D01*
X156210000Y-133350000D02*
X147320000Y-142240000D01*
X104140000Y-142240000D02*
X132080000Y-142240000D01*
X181610000Y-120650000D02*
X181610000Y-113030000D01*
X181610000Y-113030000D02*
X179070000Y-110490000D01*
X158750000Y-129540000D02*
X166370000Y-121920000D01*
X166370000Y-121920000D02*
X180340000Y-121920000D01*
X180340000Y-121920000D02*
X181610000Y-120650000D01*
X158750000Y-133350000D02*
X158750000Y-129540000D01*
X179070000Y-110490000D02*
X135890000Y-110490000D01*
X182880000Y-120650000D02*
X182880000Y-113030000D01*
X179070000Y-109220000D02*
X182880000Y-113030000D01*
X163830000Y-127000000D02*
X167640000Y-123190000D01*
X167640000Y-123190000D02*
X180340000Y-123190000D01*
X180340000Y-123190000D02*
X182880000Y-120650000D01*
X163830000Y-127000000D02*
X163830000Y-133350000D01*
X171450000Y-101600000D02*
X171450000Y-104140000D01*
X115570000Y-106680000D02*
X115570000Y-109855000D01*
X118110000Y-104140000D02*
X115570000Y-106680000D01*
X158750000Y-104140000D02*
X118110000Y-104140000D01*
X160020000Y-105410000D02*
X158750000Y-104140000D01*
X170180000Y-105410000D02*
X160020000Y-105410000D01*
X171450000Y-104140000D02*
X170180000Y-105410000D01*
X176530000Y-133350000D02*
X176530000Y-128270000D01*
X176530000Y-128270000D02*
X184150000Y-120650000D01*
X184150000Y-113030000D02*
X182880000Y-111760000D01*
X184150000Y-120650000D02*
X184150000Y-113030000D01*
M02*
