G04 #@! TF.FileFunction,Soldermask,Top*
%FSLAX46Y46*%
G04 Gerber Fmt 4.6, Leading zero omitted, Abs format (unit mm)*
G04 Created by KiCad (PCBNEW 4.0.6) date 06/13/17 15:03:04*
%MOMM*%
%LPD*%
G01*
G04 APERTURE LIST*
%ADD10C,0.100000*%
%ADD11R,2.100000X2.100000*%
%ADD12O,2.100000X2.100000*%
%ADD13C,2.000000*%
%ADD14O,2.000000X2.000000*%
%ADD15R,2.000000X2.000000*%
G04 APERTURE END LIST*
D10*
D11*
X171450000Y-101600000D03*
D12*
X173990000Y-101600000D03*
D11*
X180340000Y-101600000D03*
D12*
X182880000Y-101600000D03*
X185420000Y-101600000D03*
D13*
X115570000Y-120015000D03*
D14*
X115570000Y-109855000D03*
D15*
X179070000Y-118110000D03*
D14*
X146050000Y-133350000D03*
X176530000Y-118110000D03*
X148590000Y-133350000D03*
X173990000Y-118110000D03*
X151130000Y-133350000D03*
X171450000Y-118110000D03*
X153670000Y-133350000D03*
X168910000Y-118110000D03*
X156210000Y-133350000D03*
X166370000Y-118110000D03*
X158750000Y-133350000D03*
X163830000Y-118110000D03*
X161290000Y-133350000D03*
X161290000Y-118110000D03*
X163830000Y-133350000D03*
X158750000Y-118110000D03*
X166370000Y-133350000D03*
X156210000Y-118110000D03*
X168910000Y-133350000D03*
X153670000Y-118110000D03*
X171450000Y-133350000D03*
X151130000Y-118110000D03*
X173990000Y-133350000D03*
X148590000Y-118110000D03*
X176530000Y-133350000D03*
X146050000Y-118110000D03*
X179070000Y-133350000D03*
D15*
X120650000Y-118110000D03*
D14*
X135890000Y-110490000D03*
X123190000Y-118110000D03*
X133350000Y-110490000D03*
X125730000Y-118110000D03*
X130810000Y-110490000D03*
X128270000Y-118110000D03*
X128270000Y-110490000D03*
X130810000Y-118110000D03*
X125730000Y-110490000D03*
X133350000Y-118110000D03*
X123190000Y-110490000D03*
X135890000Y-118110000D03*
X120650000Y-110490000D03*
D15*
X95250000Y-118110000D03*
D14*
X110490000Y-110490000D03*
X97790000Y-118110000D03*
X107950000Y-110490000D03*
X100330000Y-118110000D03*
X105410000Y-110490000D03*
X102870000Y-118110000D03*
X102870000Y-110490000D03*
X105410000Y-118110000D03*
X100330000Y-110490000D03*
X107950000Y-118110000D03*
X97790000Y-110490000D03*
X110490000Y-118110000D03*
X95250000Y-110490000D03*
D11*
X186690000Y-148590000D03*
D12*
X184150000Y-148590000D03*
X181610000Y-148590000D03*
X179070000Y-148590000D03*
X176530000Y-148590000D03*
X173990000Y-148590000D03*
X171450000Y-148590000D03*
X168910000Y-148590000D03*
X166370000Y-148590000D03*
X163830000Y-148590000D03*
X161290000Y-148590000D03*
X158750000Y-148590000D03*
X156210000Y-148590000D03*
X153670000Y-148590000D03*
X151130000Y-148590000D03*
X148590000Y-148590000D03*
X146050000Y-148590000D03*
X143510000Y-148590000D03*
X140970000Y-148590000D03*
X138430000Y-148590000D03*
X135890000Y-148590000D03*
X133350000Y-148590000D03*
X130810000Y-148590000D03*
X128270000Y-148590000D03*
X125730000Y-148590000D03*
X123190000Y-148590000D03*
X120650000Y-148590000D03*
X118110000Y-148590000D03*
X115570000Y-148590000D03*
X113030000Y-148590000D03*
X110490000Y-148590000D03*
X107950000Y-148590000D03*
X105410000Y-148590000D03*
X102870000Y-148590000D03*
X100330000Y-148590000D03*
X97790000Y-148590000D03*
X95250000Y-148590000D03*
X92710000Y-148590000D03*
X90170000Y-148590000D03*
D11*
X163830000Y-101600000D03*
D12*
X166370000Y-101600000D03*
D13*
X166370000Y-114300000D03*
X161370000Y-114300000D03*
X97790000Y-123190000D03*
X102790000Y-123190000D03*
X120650000Y-123190000D03*
X125650000Y-123190000D03*
M02*
